<svg width="52" height="52" viewBox="0 0 52 52" fill="none" xmlns="http://www.w3.org/2000/svg">
<rect opacity="0.1" width="52" height="52" rx="8" fill="#FFC15D"/>
<path d="M26.6145 10H25.3854C19.891 10 15.437 14.4541 15.437 19.9484V29.5329C15.437 30.3095 16.0666 30.9391 16.8432 30.9391H35.1567C35.9334 30.9391 36.563 30.3095 36.563 29.5329V19.9484C36.563 14.454 32.1089 10 26.6145 10ZM29.843 27.9172H22.1569C21.6391 27.9172 21.2192 27.4973 21.2192 26.9795C21.2192 26.4616 21.6391 26.0418 22.1569 26.0418H29.843C30.3609 26.0418 30.7807 26.4616 30.7807 26.9795C30.7807 27.4973 30.3609 27.9172 29.843 27.9172ZM29.843 24.1665H22.1569C21.6391 24.1665 21.2192 23.7466 21.2192 23.2288C21.2192 22.7109 21.6391 22.2911 22.1569 22.2911H29.843C30.3609 22.2911 30.7807 22.7109 30.7807 23.2288C30.7807 23.7466 30.3609 24.1665 29.843 24.1665ZM29.843 20.4158H22.1569C21.6391 20.4158 21.2192 19.9959 21.2192 19.4781C21.2192 18.9602 21.6391 18.5404 22.1569 18.5404H29.843C30.3609 18.5404 30.7807 18.9602 30.7807 19.4781C30.7807 19.9959 30.3609 20.4158 29.843 20.4158Z" fill="#E94E5D"/>
<path d="M39.2671 36.1606C39.6813 36.1606 40.0171 35.8248 40.0171 35.4106V33.7521C40.0171 33.2342 39.5973 32.8144 39.0794 32.8144H12.9205C12.4027 32.8144 11.9828 33.2342 11.9828 33.7521V35.4106C11.9828 35.8248 12.3186 36.1606 12.7328 36.1606H39.2671Z" fill="#E94E5D"/>
<path d="M42 41.3357C42 41.6982 41.7062 41.992 41.3437 41.992H10.6562C10.2938 41.992 10 41.6982 10 41.3357V38.9736C10 38.4558 10.4198 38.0359 10.9377 38.0359H41.0623C41.5802 38.0359 42 38.4558 42 38.9736V41.3357Z" fill="#E94E5D"/>
</svg>
