<svg width="24" height="24" viewBox="0 0 24 24" fill="none" xmlns="http://www.w3.org/2000/svg">
<path d="M16.75 3.56V2C16.75 1.59 16.41 1.25 16 1.25C15.59 1.25 15.25 1.59 15.25 2V3.5H8.75001V2C8.75001 1.59 8.41001 1.25 8.00001 1.25C7.59001 1.25 7.25001 1.59 7.25001 2V3.56C4.55001 3.81 3.24 5.42 3.04 7.81C3.02 8.1 3.26 8.34 3.54 8.34H20.46C20.75 8.34 20.99 8.09 20.96 7.81C20.76 5.42 19.45 3.81 16.75 3.56Z" fill="#A0A3BD"/>
<path d="M19 15C16.79 15 15 16.79 15 19C15 21.21 16.79 23 19 23C21.21 23 23 21.21 23 19C23 16.79 21.21 15 19 15ZM20.6 20.64C20.45 20.79 20.26 20.86 20.07 20.86C19.88 20.86 19.69 20.79 19.54 20.64L19.01 20.11L18.46 20.66C18.31 20.81 18.12 20.88 17.93 20.88C17.74 20.88 17.55 20.81 17.4 20.66C17.11 20.37 17.11 19.89 17.4 19.6L17.95 19.05L17.42 18.52C17.13 18.23 17.13 17.75 17.42 17.46C17.71 17.17 18.19 17.17 18.48 17.46L19.01 17.99L19.51 17.49C19.8 17.2 20.28 17.2 20.57 17.49C20.86 17.78 20.86 18.26 20.57 18.55L20.07 19.05L20.6 19.58C20.89 19.88 20.89 20.35 20.6 20.64Z" fill="#A0A3BD"/>
<path fill-rule="evenodd" clip-rule="evenodd" d="M21 12.5801V10.8401C21 10.2901 20.55 9.84008 20 9.83008H4C3.45 9.83008 3 10.2801 3 10.8301V16.9901C3 19.9901 4.5 21.9901 8 21.9901H12.92C13.61 21.9901 14.09 21.3201 13.87 20.6701C13.68 20.0901 13.5 19.4501 13.5 18.9901C13.5 15.9601 15.97 13.4901 19 13.4901C19.29 13.4901 19.58 13.5201 19.86 13.5601C20.46 13.6601 21 13.1901 21 12.5801ZM7.79 14.7099C7.98 14.8899 8.24 14.9999 8.5 14.9999C8.56 14.9999 8.63 14.9899 8.7 14.9799C8.76 14.9699 8.82 14.9499 8.88 14.9199C8.94 14.8999 9 14.8699 9.06 14.8299L9.21 14.7099C9.39 14.5199 9.5 14.2599 9.5 13.9999C9.5 13.7399 9.39 13.4799 9.21 13.2899L9.06 13.1699C9 13.1299 8.94 13.0999 8.88 13.0799C8.82 13.0499 8.76 13.0299 8.7 13.0199C8.37 12.9499 8.02 13.0599 7.79 13.2899C7.61 13.4799 7.5 13.7399 7.5 13.9999C7.5 14.2599 7.61 14.5199 7.79 14.7099ZM12 15.0002C11.74 15.0002 11.48 14.8902 11.29 14.7102C11.11 14.5202 11 14.2602 11 14.0002C11 13.7402 11.11 13.4802 11.29 13.2902C11.67 12.9202 12.34 12.9202 12.71 13.2902C12.89 13.4802 13 13.7402 13 14.0002C13 14.2602 12.89 14.5202 12.71 14.7102C12.52 14.8902 12.26 15.0002 12 15.0002ZM7.79 18.2099C7.98 18.3899 8.24 18.4999 8.5 18.4999C8.76 18.4999 9.02 18.3899 9.21 18.2099C9.39 18.0199 9.5 17.7599 9.5 17.4999C9.5 17.2399 9.39 16.9799 9.21 16.7899C8.93 16.5099 8.49 16.4199 8.12 16.5799C7.99 16.6299 7.89 16.6999 7.79 16.7899C7.61 16.9799 7.5 17.2399 7.5 17.4999C7.5 17.7599 7.61 18.0199 7.79 18.2099Z" fill="#A0A3BD"/>
</svg>
