<svg width="52" height="52" viewBox="0 0 52 52" fill="none" xmlns="http://www.w3.org/2000/svg">
<rect opacity="0.1" width="52" height="52" rx="8" fill="#FFC15D"/>
<path d="M24.84 31.1733C24.5067 31.1733 24.1733 31 23.9867 30.6933C23.7067 30.2267 23.8533 29.6 24.3333 29.32L25.52 28.6133V27.1733C25.52 26.6267 25.9733 26.1733 26.52 26.1733C27.0667 26.1733 27.52 26.6267 27.52 27.1733V29.1733C27.52 29.52 27.3333 29.8533 27.04 30.0267L25.3733 31.0267C25.1867 31.12 25.0133 31.1733 24.84 31.1733Z" fill="#FFC15D"/>
<path d="M38.12 19.3067C36.9867 18.0533 35.1067 17.4267 32.3467 17.4267H32.0267V17.3733C32.0267 15.1333 32.0267 12.36 27.0133 12.36H24.9867C19.9733 12.36 19.9733 15.1333 19.9733 17.3733V17.4267H19.6533C16.8933 17.4267 15 18.0533 13.88 19.3067C12.56 20.7867 12.6 22.7467 12.7333 24.0933L12.7467 24.1867L12.8457 25.3426C12.8589 25.4966 12.9425 25.6358 13.0722 25.7198C13.4701 25.9777 13.898 26.253 14.3067 26.48C14.4933 26.6 14.6933 26.7067 14.8933 26.8133C16.4 27.64 18.0133 28.2933 19.6667 28.7467C19.7067 32.2 22.5333 35 26 35C29.4933 35 32.3333 32.16 32.3333 28.6667V28.6133C34.0133 28.1067 35.6267 27.4 37.1333 26.52C37.2133 26.48 37.2667 26.44 37.3333 26.4C37.8813 26.1022 38.4505 25.7086 38.9649 25.3429C39.0807 25.2606 39.1556 25.1327 39.1713 24.9914L39.2 24.7333L39.2667 24.1067C39.28 24.0267 39.28 23.96 39.2933 23.8667C39.4 22.5333 39.3733 20.6933 38.12 19.3067ZM21.88 17.3733C21.88 15.1067 21.88 14.2533 24.9867 14.2533H27.0133C30.12 14.2533 30.12 15.1067 30.12 17.3733V17.4267H21.88V17.3733ZM26 33C23.8 33 21.9733 31.3467 21.7067 29.2133C21.68 29.04 21.6667 28.8533 21.6667 28.6667C21.6667 26.28 23.6133 24.3333 26 24.3333C28.3867 24.3333 30.3333 26.28 30.3333 28.6667C30.3333 28.8267 30.32 28.9733 30.3067 29.12V29.1333C30.0667 31.3067 28.2267 33 26 33Z" fill="#FFC15D"/>
<path d="M38.0533 28.3067C38.385 28.1224 38.8152 28.3894 38.7806 28.7672L38.3067 33.9467C38.0267 36.6133 36.9333 39.3333 31.0667 39.3333H20.9067C15.04 39.3333 13.9467 36.6133 13.68 33.96L13.2188 29.0222C13.183 28.6389 13.593 28.3799 13.9333 28.56V28.56C14.9733 29.1333 16.0533 29.64 17.16 30.04C17.5733 30.1867 17.8667 30.5333 17.9867 30.96C18.9867 34.4267 22.2133 37 26 37C29.8533 37 33.1067 34.3733 34.0533 30.7733C34.16 30.3467 34.4533 30 34.8667 29.84C35.9867 29.4 37.0533 28.88 38.0533 28.3067V28.3067Z" fill="#FFC15D"/>
</svg>
