<svg width="24" height="24" viewBox="0 0 24 24" fill="none" xmlns="http://www.w3.org/2000/svg">
<path d="M17.9996 7.15952C17.9396 7.14952 17.8696 7.14952 17.8096 7.15952C16.4296 7.10952 15.3296 5.97951 15.3296 4.57951C15.3296 3.14951 16.4796 1.99951 17.9096 1.99951C19.3396 1.99951 20.4896 3.15951 20.4896 4.57951C20.4796 5.97951 19.3796 7.10952 17.9996 7.15952Z" stroke="#78DAAC" stroke-linecap="round" stroke-linejoin="round"/>
<path d="M16.9696 14.4395C18.3396 14.6695 19.8496 14.4295 20.9096 13.7195C22.3196 12.7795 22.3196 11.2395 20.9096 10.2995C19.8396 9.58952 18.3096 9.34951 16.9396 9.58951" stroke="#78DAAC" stroke-linecap="round" stroke-linejoin="round"/>
<path d="M5.97047 7.15952C6.03047 7.14952 6.10047 7.14952 6.16047 7.15952C7.54047 7.10952 8.64047 5.97951 8.64047 4.57951C8.64047 3.14951 7.49047 1.99951 6.06047 1.99951C4.63047 1.99951 3.48047 3.15951 3.48047 4.57951C3.49047 5.97951 4.59047 7.10952 5.97047 7.15952Z" stroke="#78DAAC" stroke-linecap="round" stroke-linejoin="round"/>
<path d="M6.99994 14.4395C5.62994 14.6695 4.11994 14.4295 3.05994 13.7195C1.64994 12.7795 1.64994 11.2395 3.05994 10.2995C4.12994 9.58952 5.65994 9.34951 7.02994 9.58951" stroke="#78DAAC" stroke-linecap="round" stroke-linejoin="round"/>
<path d="M12.0007 14.6302C11.9407 14.6202 11.8707 14.6202 11.8107 14.6302C10.4307 14.5802 9.3307 13.4502 9.3307 12.0502C9.3307 10.6202 10.4807 9.47021 11.9107 9.47021C13.3407 9.47021 14.4907 10.6302 14.4907 12.0502C14.4807 13.4502 13.3807 14.5902 12.0007 14.6302Z" stroke="#78DAAC" stroke-linecap="round" stroke-linejoin="round"/>
<path d="M14.9107 17.7802C13.3207 16.7202 10.6907 16.7202 9.0907 17.7802C7.6807 18.7202 7.6807 20.2602 9.0907 21.2002C10.6907 22.2702 13.3107 22.2702 14.9107 21.2002" stroke="#78DAAC" stroke-linecap="round" stroke-linejoin="round"/>
</svg>
