<svg width="52" height="52" viewBox="0 0 52 52" fill="none" xmlns="http://www.w3.org/2000/svg">
<rect opacity="0.1" width="52" height="52" rx="8" fill="#FFC15D"/>
<path d="M41.999 22.9911C41.9989 22.6798 41.9882 22.37 41.9678 22.0621C40.5505 22.0621 16.4552 22.0621 15.6924 22.0621L14.4842 18.1356C14.018 16.6205 12.5595 15.5623 10.9376 15.5623C10.4198 15.5623 10.0001 15.9821 10.0001 16.4998C10.0001 17.0175 10.4198 17.4373 10.9376 17.4373C11.7314 17.4373 12.4693 17.9629 12.6922 18.687C14.2445 23.732 14.0937 23.2444 14.1134 23.302C14.1435 23.3902 14.3009 23.8296 15.8766 28.2416C16.4524 29.8537 18.2636 30.9369 20.3837 30.9369H23.6149L22.7397 33.1247C20.0128 32.6648 17.5624 34.7779 17.5624 37.4992C17.5624 39.9606 19.5556 41.9991 21.9998 41.9991C24.148 41.9991 25.9156 40.4342 26.3383 38.4367H29.6609C29.8368 39.2676 30.2446 40.0359 30.8537 40.66C32.5971 42.4464 35.4014 42.4469 37.1452 40.66C37.9781 39.8066 38.4368 38.684 38.4368 37.4992C38.4368 34.7775 35.986 32.665 33.2596 33.1247L32.3842 30.9369H35.6155C37.7332 30.9369 39.5428 29.856 40.1206 28.2468C42.0568 23.0116 41.999 23.2338 41.999 22.9911ZM29.6626 36.5617H26.3366C26.0914 35.4269 25.4118 34.452 24.4803 33.8216L25.6343 30.9369H30.3648L31.5189 33.8216C30.5873 34.452 29.9076 35.4269 29.6626 36.5617Z" fill="#5879CE"/>
<path d="M41.7154 20.1872C40.5589 14.5409 35.8534 10 29.9995 10H28.4996C28.0955 10 27.7369 10.2589 27.6098 10.6424L24.4446 20.1872H41.7154Z" fill="#5879CE"/>
</svg>
