<svg width="52" height="52" viewBox="0 0 52 52" fill="none" xmlns="http://www.w3.org/2000/svg">
<rect opacity="0.1" width="52" height="52" rx="8" fill="#FFC15D"/>
<path d="M20.977 38.0984C20.7922 37.8849 20.531 37.7523 20.2503 37.7212C16.1576 37.2669 12.9641 33.787 12.9641 29.5747C12.9641 25.0549 16.641 21.3777 21.1605 21.3777C23.1818 21.3777 25.1227 22.1193 26.6257 23.466C28.3616 25.0187 29.3575 27.2454 29.3575 29.5747C29.3575 31.143 28.9058 32.6646 28.0807 33.9656C27.7575 34.4752 27.8552 35.1793 28.4123 35.411C28.8575 35.5962 29.3236 35.7301 29.8022 35.8094C30.153 35.8676 30.499 35.6991 30.6851 35.3961C31.7586 33.6487 32.3216 31.6563 32.3216 29.5747C32.3216 27.1369 31.5498 24.8215 30.0899 22.8787C28.9298 21.3344 27.3859 20.1119 25.6248 19.343C24.6488 18.9161 23.6282 18.6353 22.577 18.5028C24.7018 16.9387 25.5143 15.6278 25.5143 14.4844C25.5143 13.1123 24.402 12 23.0299 12C22.2844 12 21.6161 12.3288 21.1607 12.8488C20.7054 12.3288 20.037 12 19.2915 12C17.9194 12 16.8072 13.1123 16.8072 14.4844C16.8072 15.6279 17.6199 16.9391 19.7454 18.5035C14.2572 19.2011 10 23.9001 10 29.5747C10 35.7286 15.0065 40.7352 21.1605 40.7352C21.2223 40.7352 21.284 40.7347 21.3456 40.7337C22.225 40.7195 22.4726 39.608 21.8364 39.0008C21.5362 38.7143 21.2493 38.4132 20.977 38.0984Z" fill="#C0ACFF"/>
<path d="M30.8396 18.4143C30.7778 18.4143 30.7161 18.4148 30.6545 18.4158C29.7751 18.43 29.5275 19.5416 30.1636 20.1488C30.4638 20.4353 30.7507 20.7364 31.0231 21.0511C31.2079 21.2647 31.469 21.3972 31.7497 21.4284C35.8425 21.8826 39.036 25.3625 39.036 29.5747C39.036 34.0946 35.3591 37.7718 30.8396 37.7718C28.8184 37.7718 26.8774 37.0301 25.3743 35.6834C23.6384 34.1307 22.6426 31.904 22.6426 29.5747C22.6426 28.0064 23.0942 26.4848 23.9193 25.1838C24.2425 24.6742 24.1449 23.9701 23.5878 23.7384C23.1426 23.5532 22.6764 23.4193 22.1979 23.34C21.8471 23.2818 21.5011 23.4503 21.3149 23.7533C20.2414 25.5007 19.6785 27.493 19.6785 29.5747C19.6785 32.0124 20.4502 34.3278 21.9102 36.2707C23.0702 37.815 24.6142 39.0375 26.3752 39.8064C27.7846 40.4228 29.2864 40.7351 30.8396 40.7351C36.9935 40.7351 42.0001 35.7286 42.0001 29.5747C42 23.4208 36.9935 18.4143 30.8396 18.4143Z" fill="#C0ACFF"/>
</svg>
