<svg width="52" height="52" viewBox="0 0 52 52" fill="none" xmlns="http://www.w3.org/2000/svg">
<rect opacity="0.1" width="52" height="52" rx="8" fill="#FFC15D"/>
<g clip-path="url(#clip0_1_48)">
<path d="M19.488 12.6667C22.1427 12.6667 24.5187 13.985 26 16.0075C27.4813 13.985 29.8573 12.6667 32.512 12.6667C37.0147 12.6667 40.6667 16.412 40.6667 21.0412C40.6667 22.824 40.388 24.4719 39.904 26C37.5867 33.4906 30.444 37.97 26.9093 39.1985C26.4107 39.3783 25.5893 39.3783 25.0907 39.1985C21.556 37.97 14.4133 33.4906 12.096 26C11.612 24.4719 11.3333 22.824 11.3333 21.0412C11.3333 16.412 14.9853 12.6667 19.488 12.6667ZM20.1187 27.0637C20.1187 27.588 20.5293 28.0075 21.0427 28.0075H24.0493V31.0787C24.0493 31.618 24.4747 32.0375 24.988 32.0375H27.012C27.5253 32.0375 27.9507 31.618 27.9507 31.0787V28.0075H30.9573C31.4707 28.0075 31.8813 27.588 31.8813 27.0637V24.9513C31.8813 24.412 31.4707 23.9925 30.9573 23.9925H27.9507V20.9213C27.9507 20.397 27.5253 19.9625 27.012 19.9625H24.988C24.4747 19.9625 24.0493 20.397 24.0493 20.9213V23.9925H21.0427C20.5293 23.9925 20.1187 24.412 20.1187 24.9513V27.0637V27.0637Z" fill="#6AAD8E"/>
</g>
<defs>
<clipPath id="clip0_1_48">
<rect width="32" height="32" fill="white" transform="matrix(-1 0 0 1 42 10)"/>
</clipPath>
</defs>
</svg>
