<svg width="24" height="24" viewBox="0 0 24 24" fill="none" xmlns="http://www.w3.org/2000/svg">
<path d="M23.1213 9.87866C24.2929 11.0502 24.2929 12.9497 23.1213 14.1213C21.9497 15.2929 20.0502 15.2929 18.8786 14.1213C17.7071 12.9497 17.7071 11.0502 18.8786 9.87866C20.0502 8.70709 21.9497 8.70709 23.1213 9.87866Z" fill="#A0A3BD"/>
<path d="M14.1213 9.87866C15.2929 11.0502 15.2929 12.9497 14.1213 14.1213C12.9498 15.2929 11.0503 15.2929 9.87871 14.1213C8.70714 12.9497 8.70714 11.0502 9.87871 9.87866C11.0503 8.70709 12.9498 8.70709 14.1213 9.87866Z" fill="#A0A3BD"/>
<path d="M5.12134 9.87866C6.29291 11.0502 6.29291 12.9497 5.12134 14.1213C3.94977 15.2929 2.05028 15.2929 0.878707 14.1213C-0.292862 12.9497 -0.292862 11.0502 0.878707 9.87866C2.05028 8.70709 3.94977 8.70709 5.12134 9.87866Z" fill="#A0A3BD"/>
</svg>
