<svg width="52" height="52" viewBox="0 0 52 52" fill="none" xmlns="http://www.w3.org/2000/svg">
<rect opacity="0.1" width="52" height="52" rx="8" fill="#FFC15D"/>
<path d="M38.3176 20.0426C38.2884 19.9937 38.259 19.9456 38.2294 19.8982C36.8659 17.7192 34.2261 16.6074 31.66 17.1316C31.0722 17.2516 30.1981 17.4967 29.3721 17.9824C28.5378 18.4728 27.9538 19.0898 27.636 19.8161C27.1093 21.0201 27.3408 22.4536 28.3241 24.0772C29.6616 26.2862 29.3397 28.5588 29.0553 30.5639C28.8832 31.7777 28.7346 32.8261 28.9634 33.7192C29.2259 34.743 29.9747 35.4041 31.2532 35.7402C31.4798 35.8001 31.7132 35.8305 31.9476 35.8306C33.1606 35.8306 34.4091 35.0167 35.5969 33.4398C38.286 29.8701 40.0695 22.9869 38.3176 20.0426Z" fill="#CC7FD4"/>
<path d="M28.9766 16.9294C29.0869 16.9294 29.197 16.9192 29.3054 16.8988C29.8839 16.7902 30.3711 16.4113 30.6773 15.8321C30.9711 15.2765 31.0627 14.5981 30.9356 13.922C30.6681 12.4996 29.5016 11.5209 28.3356 11.7397C27.7571 11.8483 27.2699 12.2272 26.9637 12.8064C26.6699 13.362 26.5782 14.0404 26.7054 14.7165C26.9475 16.0049 27.9273 16.9294 28.9766 16.9294Z" fill="#CC7FD4"/>
<path d="M32.9909 16.2369C33.0278 16.2395 33.0645 16.2409 33.101 16.2409C34.0323 16.2409 34.8341 15.3846 34.9146 14.2761C34.9594 13.7487 34.8205 13.2219 34.5214 12.7852C34.2152 12.3517 33.7791 12.0936 33.2939 12.0585C32.3169 11.9873 31.4538 12.8673 31.3703 14.0192C31.3254 14.5467 31.4643 15.0734 31.7633 15.5101C32.0698 15.9437 32.5058 16.2017 32.9909 16.2369Z" fill="#CC7FD4"/>
<path d="M36.4333 16.5446C36.4607 16.5466 36.4879 16.5475 36.5151 16.5475C37.1976 16.5475 37.7849 15.9274 37.8431 15.1242C37.8751 14.7441 37.7747 14.3646 37.5589 14.05C37.4577 13.8986 37.3238 13.772 37.1669 13.6795C37.0101 13.587 36.8344 13.531 36.653 13.5158C35.9366 13.464 35.3037 14.1009 35.2431 14.9361C35.2111 15.3163 35.3115 15.696 35.5274 16.0106C35.6286 16.162 35.7626 16.2885 35.9194 16.381C36.0763 16.4734 36.2519 16.5293 36.4333 16.5446Z" fill="#CC7FD4"/>
<path d="M37.668 17.4538C37.7199 17.6074 37.8058 17.7474 37.9192 17.8633C38.0327 17.9791 38.1708 18.0679 38.3233 18.1231C38.4307 18.1605 38.5436 18.1795 38.6572 18.1793C39.1619 18.1793 39.6598 17.8097 39.8597 17.2381C39.9743 16.922 39.9761 16.5759 39.8646 16.2586C39.8127 16.1049 39.7268 15.965 39.6134 15.8491C39.4999 15.7332 39.3618 15.6444 39.2093 15.5892C38.6064 15.3786 37.9172 15.7756 37.6729 16.474C37.5582 16.7902 37.5565 17.1364 37.668 17.4538Z" fill="#CC7FD4"/>
<path d="M40.9354 18.1868C40.4454 17.7774 39.6604 17.9061 39.1854 18.4736C38.9667 18.7291 38.8431 19.0523 38.8354 19.3885C38.8298 19.5506 38.8608 19.7118 38.9262 19.8603C38.9915 20.0087 39.0895 20.1405 39.2128 20.2458C39.4045 20.4036 39.6458 20.4884 39.8941 20.4852C40.0997 20.4803 40.3018 20.4307 40.4864 20.3398C40.671 20.2489 40.8335 20.119 40.9628 19.959C41.1816 19.7035 41.3052 19.3802 41.3128 19.044C41.3184 18.8819 41.2874 18.7207 41.2221 18.5723C41.1567 18.4239 41.0588 18.2921 40.9354 18.1868Z" fill="#CC7FD4"/>
<path d="M19.4553 22.8651C16.8459 23.0895 14.6296 24.9038 13.9404 27.3797C13.9254 27.4336 13.9109 27.4881 13.8967 27.5433C13.0831 30.7414 16.0347 36.0378 19.2174 38.6371C20.5554 39.7296 21.8555 40.2912 23.0013 40.2912C23.4726 40.2949 23.9386 40.191 24.3638 39.9873C25.5718 39.4032 26.1587 38.6709 26.2109 37.6828C26.2564 36.8244 25.8894 35.8941 25.4645 34.817C24.7673 33.0499 23.977 31.047 24.6252 28.5806C25.1073 26.7454 24.9226 25.3051 24.0761 24.2998C23.5654 23.6932 22.8302 23.2671 21.8909 23.0331C20.9608 22.801 20.0531 22.8136 19.4553 22.8651ZM15.1179 29.5812C15.1049 29.5055 15.093 29.4302 15.0823 29.3552C15.0706 29.2732 15.092 29.1898 15.1417 29.1235C15.1914 29.0572 15.2655 29.0134 15.3475 29.0017C15.4296 28.99 15.5129 29.0113 15.5792 29.0611C15.6455 29.1108 15.6893 29.1848 15.7011 29.2669C15.7109 29.336 15.7219 29.4055 15.7339 29.4755C15.7409 29.5159 15.7398 29.5574 15.7307 29.5974C15.7217 29.6374 15.7048 29.6753 15.6811 29.7088C15.6574 29.7423 15.6274 29.7708 15.5927 29.7927C15.5579 29.8146 15.5193 29.8294 15.4788 29.8364C15.4384 29.8433 15.397 29.8422 15.3569 29.8332C15.3169 29.8241 15.2791 29.8072 15.2455 29.7835C15.212 29.7599 15.1835 29.7298 15.1616 29.6951C15.1397 29.6604 15.1248 29.6217 15.1179 29.5812ZM17.4441 34.3708C17.4091 34.3923 17.3703 34.4066 17.3297 34.413C17.2892 34.4195 17.2478 34.4178 17.2079 34.4083C17.168 34.3987 17.1304 34.3813 17.0972 34.3572C17.064 34.3331 17.0358 34.3027 17.0144 34.2677C16.2899 33.0858 15.7279 31.8609 15.3894 30.7256C15.3776 30.6863 15.3738 30.645 15.378 30.6042C15.3822 30.5634 15.3944 30.5238 15.4139 30.4877C15.4533 30.4148 15.5201 30.3605 15.5995 30.3368C15.6789 30.3131 15.7645 30.3219 15.8374 30.3613C15.9103 30.4008 15.9646 30.4675 15.9883 30.5469C16.3118 31.6311 16.8508 32.8047 17.5474 33.9411C17.5689 33.9761 17.5832 34.0149 17.5896 34.0555C17.5961 34.096 17.5944 34.1375 17.5848 34.1774C17.5752 34.2173 17.5579 34.2549 17.5337 34.2881C17.5096 34.3213 17.4791 34.3494 17.4441 34.3708Z" fill="#CC7FD4"/>
<path d="M21.466 21.9839C21.5265 21.984 21.587 21.9809 21.6473 21.9747C22.2328 21.915 22.7501 21.5783 23.1038 21.0268C23.4431 20.4979 23.5913 19.8296 23.5215 19.1451C23.3744 17.7054 22.2948 16.6318 21.1137 16.7525C20.5281 16.8122 20.0108 17.1489 19.6571 17.7004C19.3178 18.2294 19.1696 18.8977 19.2394 19.5821C19.3787 20.9479 20.3579 21.984 21.466 21.9839Z" fill="#CC7FD4"/>
<path d="M17.3859 22.4817C17.57 22.482 17.7526 22.449 17.9249 22.3842C18.3802 22.2131 18.7249 21.8421 18.8959 21.3394C19.0588 20.8358 19.0425 20.2914 18.8498 19.7984C18.4428 18.7174 17.3658 18.1185 16.4489 18.4632C15.9936 18.6344 15.6489 19.0054 15.4779 19.508C15.315 20.0116 15.3313 20.5561 15.5239 21.0491C15.853 21.9229 16.6198 22.4817 17.3859 22.4817Z" fill="#CC7FD4"/>
<path d="M14.3115 23.7271C14.448 23.7272 14.5834 23.7028 14.7111 23.6548C14.8808 23.5887 15.0334 23.4853 15.1575 23.3521C15.2817 23.219 15.3743 23.0595 15.4283 22.8857C15.546 22.5227 15.5346 22.1302 15.396 21.7746C15.101 20.991 14.3137 20.5591 13.6411 20.8121C13.4715 20.8782 13.3189 20.9816 13.1947 21.1148C13.0705 21.248 12.9779 21.4074 12.9239 21.5813C12.8062 21.9442 12.8176 22.3367 12.9562 22.6923C13.1941 23.3241 13.7518 23.7271 14.3115 23.7271Z" fill="#CC7FD4"/>
<path d="M12.7348 25.8964C12.9539 25.8985 13.1681 25.8312 13.3466 25.704C13.4772 25.6079 13.5845 25.4836 13.6604 25.3403C13.7364 25.197 13.779 25.0384 13.7852 24.8764C13.802 24.5405 13.7021 24.2091 13.5026 23.9384C13.0701 23.338 12.2963 23.1528 11.7783 23.5254C11.6476 23.6215 11.5403 23.7459 11.4644 23.8892C11.3885 24.0324 11.3458 24.191 11.3396 24.3531C11.3228 24.689 11.4227 25.0203 11.6223 25.291C11.9036 25.6816 12.329 25.8965 12.7348 25.8964Z" fill="#CC7FD4"/>
<path d="M11.3365 28.2125C11.5772 28.3749 11.8605 28.4628 12.1509 28.4652C12.5337 28.4652 12.8891 28.3023 13.0958 27.9917C13.1842 27.8557 13.2408 27.7015 13.2613 27.5407C13.2819 27.3798 13.2658 27.2163 13.2144 27.0625C13.1117 26.7422 12.9014 26.4673 12.6192 26.2844C12.0028 25.8748 11.2136 25.9738 10.8599 26.5052C10.7715 26.6412 10.7149 26.7953 10.6944 26.9562C10.6738 27.1171 10.6898 27.2805 10.7411 27.4343C10.8439 27.7546 11.0542 28.0295 11.3364 28.2124L11.3365 28.2125Z" fill="#CC7FD4"/>
</svg>
