<svg width="24" height="48" viewBox="0 0 24 48" fill="none" xmlns="http://www.w3.org/2000/svg">
<path d="M0.5 8C0.5 3.85787 3.85786 0.5 8 0.5H23.5V47.5H8C3.85786 47.5 0.5 44.1421 0.5 40V8Z" fill="#FCFCFC"/>
<path fill-rule="evenodd" clip-rule="evenodd" d="M10.0013 18.666C9.26797 18.666 8.66797 19.266 8.66797 19.9993C8.66797 20.7327 9.26797 21.3327 10.0013 21.3327C10.7346 21.3327 11.3346 20.7327 11.3346 19.9993C11.3346 19.266 10.7346 18.666 10.0013 18.666ZM8.66797 23.9993C8.66797 23.266 9.26797 22.666 10.0013 22.666C10.7346 22.666 11.3346 23.266 11.3346 23.9993C11.3346 24.7327 10.7346 25.3327 10.0013 25.3327C9.26797 25.3327 8.66797 24.7327 8.66797 23.9993ZM10.0013 29.3327C10.7346 29.3327 11.3346 28.7327 11.3346 27.9993C11.3346 27.266 10.7346 26.666 10.0013 26.666C9.26797 26.666 8.66797 27.266 8.66797 27.9993C8.66797 28.7327 9.26797 29.3327 10.0013 29.3327ZM15.3346 19.9993C15.3346 20.7327 14.7346 21.3327 14.0013 21.3327C13.268 21.3327 12.668 20.7327 12.668 19.9993C12.668 19.266 13.268 18.666 14.0013 18.666C14.7346 18.666 15.3346 19.266 15.3346 19.9993ZM14.0013 22.666C13.268 22.666 12.668 23.266 12.668 23.9993C12.668 24.7327 13.268 25.3327 14.0013 25.3327C14.7346 25.3327 15.3346 24.7327 15.3346 23.9993C15.3346 23.266 14.7346 22.666 14.0013 22.666ZM12.668 27.9993C12.668 27.266 13.268 26.666 14.0013 26.666C14.7346 26.666 15.3346 27.266 15.3346 27.9993C15.3346 28.7327 14.7346 29.3327 14.0013 29.3327C13.268 29.3327 12.668 28.7327 12.668 27.9993Z" fill="#A0A3BD"/>
<path d="M0.5 8C0.5 3.85787 3.85786 0.5 8 0.5H23.5V47.5H8C3.85786 47.5 0.5 44.1421 0.5 40V8Z" stroke="#D9DBE9"/>
</svg>
