<svg width="52" height="52" viewBox="0 0 52 52" fill="none" xmlns="http://www.w3.org/2000/svg">
<rect opacity="0.1" width="52" height="52" rx="8" fill="#FFC15D"/>
<g clip-path="url(#clip0_1_38)">
<path d="M19.488 12.6667C22.1427 12.6667 24.5187 13.985 26 16.0075C27.4813 13.985 29.8573 12.6667 32.512 12.6667C37.0147 12.6667 40.6667 16.412 40.6667 21.0412C40.6667 22.824 40.388 24.4719 39.904 26C37.5867 33.4906 30.444 37.97 26.9093 39.1985C26.4107 39.3783 25.5893 39.3783 25.0907 39.1985C21.556 37.97 14.4133 33.4906 12.096 26C11.612 24.4719 11.3333 22.824 11.3333 21.0412C11.3333 16.412 14.9853 12.6667 19.488 12.6667ZM33.7587 23.3184C34.0813 23.3184 34.36 23.0637 34.3893 22.7191C34.4187 22.3595 34.1693 22.0449 33.8173 22.015C30.9867 21.7453 30.268 19.7079 30.2533 19.618C30.136 19.2734 29.7693 19.0936 29.4467 19.2135C29.1093 19.3183 28.9333 19.6779 29.036 20.0225C29.08 20.1423 30.0187 22.9588 33.7 23.3034C33.7147 23.3184 33.7293 23.3184 33.7587 23.3184ZM18.2413 27.9176L18.4173 28.1124L19.4587 27.0936C19.7373 26.8539 20.1333 26.8989 20.368 27.1685C20.6027 27.4382 20.5587 27.8577 20.2947 28.0824L19.268 29.0861L19.8693 29.7753L20.9547 28.7266C21.2187 28.4869 21.6293 28.5318 21.8493 28.8015C22.084 29.0712 22.04 29.4906 21.776 29.7154L20.7053 30.7491L21.3213 31.4532L21.072 31.7528C20.8373 32.0225 20.8667 32.4419 21.116 32.6667C21.2333 32.7715 21.3947 32.8315 21.5413 32.8315C21.7173 32.8315 21.8933 32.7566 22.0253 32.6217L22.4213 32.1423C22.48 32.0674 22.5533 31.9925 22.6267 31.9326C23.2573 31.2884 24.02 30.8539 24.8707 30.6442C25.2227 30.5393 25.5747 30.4944 25.9413 30.4944C27.3053 30.4494 28.596 30.9738 29.564 31.9625L30.2533 32.6667C30.5027 32.9213 30.8987 32.9213 31.148 32.6667C31.3973 32.412 31.3973 32.0075 31.148 31.7528L30.4587 31.0487C29.2413 29.8052 27.628 29.161 25.8973 29.206C25.56 29.221 25.2227 29.2509 24.9 29.3258L21.3947 25.1461C21.0133 24.6966 20.5 24.4419 19.928 24.397C19.3413 24.3521 18.8133 24.5468 18.388 24.9513C17.552 25.6854 17.4933 27.0487 18.2413 27.9176ZM18.2413 23.3184C18.2707 23.3184 18.2853 23.3184 18.3 23.3184C21.9813 22.9588 22.92 20.1573 22.964 20.0375C23.0667 19.6929 22.8907 19.3183 22.5533 19.2135C22.216 19.1086 21.864 19.2884 21.7467 19.618C21.7173 19.7228 20.984 21.7453 18.1827 22.015C17.8307 22.0449 17.5813 22.3595 17.6107 22.7191C17.64 23.0637 17.9187 23.3184 18.2413 23.3184Z" fill="#4CA4FD"/>
</g>
<defs>
<clipPath id="clip0_1_38">
<rect width="32" height="32" fill="white" transform="matrix(-1 0 0 1 42 10)"/>
</clipPath>
</defs>
</svg>
