<svg width="40" height="40" viewBox="0 0 40 40" fill="none" xmlns="http://www.w3.org/2000/svg">
<path d="M20.0007 36.6654C29.2054 36.6654 36.6673 29.2034 36.6673 19.9987C36.6673 10.794 29.2054 3.33203 20.0007 3.33203C10.7959 3.33203 3.33398 10.794 3.33398 19.9987C3.33398 29.2034 10.7959 36.6654 20.0007 36.6654Z" fill="#3DC575"/>
<path d="M17.6324 25.9654C17.2991 25.9654 16.9824 25.832 16.7491 25.5987L12.0324 20.882C11.5491 20.3987 11.5491 19.5987 12.0324 19.1154C12.5158 18.632 13.3158 18.632 13.7991 19.1154L17.6324 22.9487L26.1991 14.382C26.6824 13.8987 27.4824 13.8987 27.9658 14.382C28.4491 14.8654 28.4491 15.6654 27.9658 16.1487L18.5158 25.5987C18.2824 25.832 17.9658 25.9654 17.6324 25.9654Z" fill="white"/>
</svg>
