<svg width="8" height="12" viewBox="0 0 8 12" fill="none" xmlns="http://www.w3.org/2000/svg">
<path fill-rule="evenodd" clip-rule="evenodd" d="M2.0013 0.666016C1.26797 0.666016 0.667969 1.26602 0.667969 1.99935C0.667969 2.73268 1.26797 3.33268 2.0013 3.33268C2.73464 3.33268 3.33464 2.73268 3.33464 1.99935C3.33464 1.26602 2.73464 0.666016 2.0013 0.666016ZM0.667969 5.99935C0.667969 5.26602 1.26797 4.66602 2.0013 4.66602C2.73464 4.66602 3.33464 5.26602 3.33464 5.99935C3.33464 6.73268 2.73464 7.33268 2.0013 7.33268C1.26797 7.33268 0.667969 6.73268 0.667969 5.99935ZM2.0013 11.3327C2.73464 11.3327 3.33464 10.7327 3.33464 9.99935C3.33464 9.26601 2.73464 8.66602 2.0013 8.66602C1.26797 8.66602 0.667969 9.26601 0.667969 9.99935C0.667969 10.7327 1.26797 11.3327 2.0013 11.3327ZM7.33464 1.99935C7.33464 2.73268 6.73464 3.33268 6.0013 3.33268C5.26797 3.33268 4.66797 2.73268 4.66797 1.99935C4.66797 1.26602 5.26797 0.666016 6.0013 0.666016C6.73464 0.666016 7.33464 1.26602 7.33464 1.99935ZM6.0013 4.66602C5.26797 4.66602 4.66797 5.26602 4.66797 5.99935C4.66797 6.73268 5.26797 7.33268 6.0013 7.33268C6.73464 7.33268 7.33464 6.73268 7.33464 5.99935C7.33464 5.26602 6.73464 4.66602 6.0013 4.66602ZM4.66797 9.99935C4.66797 9.26601 5.26797 8.66602 6.0013 8.66602C6.73464 8.66602 7.33464 9.26601 7.33464 9.99935C7.33464 10.7327 6.73464 11.3327 6.0013 11.3327C5.26797 11.3327 4.66797 10.7327 4.66797 9.99935Z" fill="#A0A3BD"/>
</svg>
