<svg width="52" height="52" viewBox="0 0 52 52" fill="none" xmlns="http://www.w3.org/2000/svg">
<rect opacity="0.1" width="52" height="52" rx="8" fill="#FFC15D"/>
<path d="M15.28 19.0933L22.96 13.72C25.0533 12.2533 28.2667 12.3333 30.28 13.8933L36.96 19.1067C38.2933 20.1467 39.3467 22.28 39.3467 23.96V33.16C39.3467 36.56 36.5867 39.3333 33.1867 39.3333H18.8133C15.4133 39.3333 12.6533 36.5733 12.6533 33.1733V24.1333C12.6533 22.3333 13.8133 20.12 15.28 19.0933ZM25 34C25 34.5467 25.4533 35 26 35C26.5467 35 27 34.5467 27 34V30C27 29.4533 26.5467 29 26 29C25.4533 29 25 29.4533 25 30V34Z" fill="#E96F7C"/>
</svg>
