<svg width="32" height="32" viewBox="0 0 32 32" fill="none" xmlns="http://www.w3.org/2000/svg">
<path d="M20.7857 28.8797C20.5324 28.8797 20.2791 28.7864 20.0791 28.5864C19.6924 28.1997 19.6924 27.5597 20.0791 27.173L23.8391 23.413C24.2257 23.0264 24.8657 23.0264 25.2524 23.413C25.6391 23.7997 25.6391 24.4397 25.2524 24.8264L21.4924 28.5864C21.2924 28.7864 21.0391 28.8797 20.7857 28.8797Z" fill="#E95060"/>
<path d="M24.5457 28.8797C24.2924 28.8797 24.0391 28.7864 23.8391 28.5864L20.0791 24.8264C19.6924 24.4397 19.6924 23.7997 20.0791 23.413C20.4657 23.0264 21.1057 23.0264 21.4924 23.413L25.2524 27.173C25.6391 27.5597 25.6391 28.1997 25.2524 28.5864C25.0524 28.7864 24.7991 28.8797 24.5457 28.8797Z" fill="#E95060"/>
<path d="M16.2115 15.4937C16.1715 15.4937 16.1448 15.4937 16.1048 15.4937C16.0381 15.4803 15.9448 15.4803 15.8648 15.4937C11.9981 15.3737 9.07812 12.3337 9.07812 8.58699C9.07812 4.77366 12.1848 1.66699 15.9981 1.66699C19.8115 1.66699 22.9181 4.77366 22.9181 8.58699C22.9048 12.3337 19.9715 15.3737 16.2515 15.4937C16.2381 15.4937 16.2248 15.4937 16.2115 15.4937ZM15.9981 3.66699C13.2915 3.66699 11.0781 5.88033 11.0781 8.58699C11.0781 11.2537 13.1581 13.4003 15.8115 13.4937C15.8915 13.4803 16.0648 13.4803 16.2381 13.4937C18.8515 13.3737 20.9048 11.227 20.9181 8.58699C20.9181 5.88033 18.7048 3.66699 15.9981 3.66699Z" fill="#E95060"/>
<path d="M16.0012 30.0799C13.2812 30.0799 10.7079 29.3732 8.7612 28.0666C6.90786 26.8266 5.89453 25.1332 5.89453 23.3066C5.89453 21.4799 6.9212 19.7999 8.7612 18.5732C12.7479 15.9066 19.2279 15.9066 23.2145 18.5732C23.6679 18.8799 23.8012 19.5066 23.4945 19.9599C23.1879 20.4266 22.5612 20.5466 22.1079 20.2399C18.7879 18.0266 13.1879 18.0266 9.86786 20.2399C8.58786 21.0932 7.89453 22.1732 7.89453 23.3066C7.89453 24.4399 8.6012 25.5466 9.86786 26.3999C11.4812 27.4799 13.6545 28.0666 15.9879 28.0666C16.5345 28.0666 16.9879 28.5199 16.9879 29.0666C16.9879 29.6132 16.5479 30.0799 16.0012 30.0799Z" fill="#E95060"/>
</svg>
