<svg width="24" height="24" viewBox="0 0 24 24" fill="none" xmlns="http://www.w3.org/2000/svg">
<path d="M7 2H3C2.44727 2 2 2.44727 2 3V7C2 7.55273 2.44727 8 3 8H7C7.55273 8 8 7.55273 8 7V3C8 2.44727 7.55273 2 7 2Z" fill="#14142A"/>
<path d="M14 2H10C9.44727 2 9 2.44727 9 3V7C9 7.55273 9.44727 8 10 8H14C14.5527 8 15 7.55273 15 7V3C15 2.44727 14.5527 2 14 2Z" fill="#14142A"/>
<path d="M21 2H17C16.4473 2 16 2.44727 16 3V7C16 7.55273 16.4473 8 17 8H21C21.5527 8 22 7.55273 22 7V3C22 2.44727 21.5527 2 21 2Z" fill="#14142A"/>
<path d="M7 16H3C2.44727 16 2 16.4473 2 17V21C2 21.5527 2.44727 22 3 22H7C7.55273 22 8 21.5527 8 21V17C8 16.4473 7.55273 16 7 16Z" fill="#14142A"/>
<path d="M14 16H10C9.44727 16 9 16.4473 9 17V21C9 21.5527 9.44727 22 10 22H14C14.5527 22 15 21.5527 15 21V17C15 16.4473 14.5527 16 14 16Z" fill="#14142A"/>
<path d="M21 16H17C16.4473 16 16 16.4473 16 17V21C16 21.5527 16.4473 22 17 22H21C21.5527 22 22 21.5527 22 21V17C22 16.4473 21.5527 16 21 16Z" fill="#14142A"/>
<path d="M7 9H3C2.44727 9 2 9.44727 2 10V14C2 14.5527 2.44727 15 3 15H7C7.55273 15 8 14.5527 8 14V10C8 9.44727 7.55273 9 7 9Z" fill="#14142A"/>
<path d="M14 9H10C9.44727 9 9 9.44727 9 10V14C9 14.5527 9.44727 15 10 15H14C14.5527 15 15 14.5527 15 14V10C15 9.44727 14.5527 9 14 9Z" fill="#14142A"/>
<path d="M21 9H17C16.4473 9 16 9.44727 16 10V14C16 14.5527 16.4473 15 17 15H21C21.5527 15 22 14.5527 22 14V10C22 9.44727 21.5527 9 21 9Z" fill="#14142A"/>
</svg>
