<svg width="24" height="24" viewBox="0 0 24 24" fill="none" xmlns="http://www.w3.org/2000/svg">
<path d="M12 22.75C6.07 22.75 1.25 17.93 1.25 12C1.25 6.07 6.07 1.25 12 1.25C12.41 1.25 12.75 1.59 12.75 2C12.75 2.41 12.41 2.75 12 2.75C6.9 2.75 2.75 6.9 2.75 12C2.75 17.1 6.9 21.25 12 21.25C17.1 21.25 21.25 17.1 21.25 12C21.25 11.59 21.59 11.25 22 11.25C22.41 11.25 22.75 11.59 22.75 12C22.75 17.93 17.93 22.75 12 22.75Z" fill="#A0A3BD"/>
<path d="M21 7.75H17C16.59 7.75 16.25 7.41 16.25 7V3C16.25 2.59 16.59 2.25 17 2.25C17.41 2.25 17.75 2.59 17.75 3V6.25H21C21.41 6.25 21.75 6.59 21.75 7C21.75 7.41 21.41 7.75 21 7.75Z" fill="#A0A3BD"/>
<path d="M17.0014 7.75043C16.8114 7.75043 16.6214 7.68043 16.4714 7.53043C16.1814 7.24043 16.1814 6.76043 16.4714 6.47043L21.4714 1.47043C21.7614 1.18043 22.2414 1.18043 22.5314 1.47043C22.8214 1.76043 22.8214 2.24043 22.5314 2.53043L17.5314 7.53043C17.3814 7.68043 17.1914 7.75043 17.0014 7.75043Z" fill="#A0A3BD"/>
<path d="M15.7106 15.9298C15.5806 15.9298 15.4506 15.8998 15.3306 15.8198L12.2306 13.9698C11.4606 13.5098 10.8906 12.4998 10.8906 11.6098V7.50977C10.8906 7.09977 11.2306 6.75977 11.6406 6.75977C12.0506 6.75977 12.3906 7.09977 12.3906 7.50977V11.6098C12.3906 11.9698 12.6906 12.4998 13.0006 12.6798L16.1006 14.5298C16.4606 14.7398 16.5706 15.1998 16.3606 15.5598C16.2106 15.7998 15.9606 15.9298 15.7106 15.9298Z" fill="#A0A3BD"/>
</svg>
