<svg width="26" height="26" viewBox="0 0 26 26" fill="none" xmlns="http://www.w3.org/2000/svg">
<path d="M12 24.75C6.07 24.75 1.25 19.93 1.25 14C1.25 8.07 6.07 3.25 12 3.25C12.41 3.25 12.75 3.59 12.75 4C12.75 4.41 12.41 4.75 12 4.75C6.9 4.75 2.75 8.9 2.75 14C2.75 19.1 6.9 23.25 12 23.25C17.1 23.25 21.25 19.1 21.25 14C21.25 13.59 21.59 13.25 22 13.25C22.41 13.25 22.75 13.59 22.75 14C22.75 19.93 17.93 24.75 12 24.75Z" fill="#E94E5D"/>
<path d="M15.7106 17.9298C15.5806 17.9298 15.4506 17.8998 15.3306 17.8198L12.2306 15.9698C11.4606 15.5098 10.8906 14.4998 10.8906 13.6098V9.50977C10.8906 9.09977 11.2306 8.75977 11.6406 8.75977C12.0506 8.75977 12.3906 9.09977 12.3906 9.50977V13.6098C12.3906 13.9698 12.6906 14.4998 13.0006 14.6798L16.1006 16.5298C16.4606 16.7398 16.5706 17.1998 16.3606 17.5598C16.2106 17.7998 15.9606 17.9298 15.7106 17.9298Z" fill="#E94E5D"/>
<path d="M20 0C18.4087 0 16.8826 0.63222 15.7574 1.75736C14.6322 2.88255 14 4.40862 14 6C14 7.59138 14.6322 9.11745 15.7574 10.2426C16.8826 11.3678 18.4086 12 20 12C21.5914 12 23.1175 11.3678 24.2426 10.2426C25.3678 9.11745 26 7.59138 26 6C25.9985 4.40919 25.3657 2.88409 24.2409 1.75912C23.1159 0.634285 21.5908 0.00158242 20 0ZM20 10.1538C18.8984 10.1538 17.8418 9.71618 17.0629 8.93714C16.2838 8.15811 15.8462 7.10163 15.8462 6C15.8462 4.89837 16.2838 3.84185 17.0629 3.06286C17.8419 2.28382 18.8984 1.84615 20 1.84615C21.1016 1.84615 22.1582 2.28382 22.9371 3.06286C23.7162 3.84189 24.1538 4.89837 24.1538 6C24.1525 7.10132 23.7145 8.1571 22.9358 8.93578C22.1571 9.71446 21.1013 10.1525 20 10.1538Z" fill="#E94E5D"/>
<path d="M20 3C19.7348 3 19.4805 3.09358 19.293 3.26041C19.1053 3.42708 19 3.6531 19 3.88889V6.1111C19 6.42872 19.1907 6.72206 19.5 6.88095C19.8093 7.03968 20.1907 7.03968 20.5 6.88095C20.8093 6.72206 21 6.42872 21 6.1111V3.88889C21 3.65312 20.8947 3.4271 20.707 3.26041C20.5195 3.09358 20.2653 3 20 3Z" fill="#E94E5D"/>
<path d="M21 8.25C21 8.66421 20.5523 9 20 9C19.4477 9 19 8.6642 19 8.25C19 7.8358 19.4477 7.5 20 7.5C20.5523 7.5 21 7.8358 21 8.25Z" fill="#E94E5D"/>
</svg>
