<svg width="32" height="32" viewBox="0 0 32 32" fill="none" xmlns="http://www.w3.org/2000/svg">
<path d="M24.0014 9.547C23.9214 9.53366 23.8281 9.53366 23.7481 9.547C21.9081 9.48033 20.4414 7.97366 20.4414 6.10699C20.4414 4.20033 21.9747 2.66699 23.8814 2.66699C25.7881 2.66699 27.3214 4.21366 27.3214 6.10699C27.3081 7.97366 25.8414 9.48033 24.0014 9.547Z" stroke="#4783FF" stroke-width="1.5" stroke-linecap="round" stroke-linejoin="round"/>
<path d="M22.6298 19.2539C24.4565 19.5605 26.4699 19.2405 27.8832 18.2939C29.7632 17.0405 29.7632 14.9872 27.8832 13.7339C26.4565 12.7872 24.4165 12.4672 22.5898 12.7872" stroke="#4783FF" stroke-width="1.5" stroke-linecap="round" stroke-linejoin="round"/>
<path d="M7.96063 9.547C8.04063 9.53366 8.13396 9.53366 8.21396 9.547C10.054 9.48033 11.5206 7.97366 11.5206 6.10699C11.5206 4.20033 9.98729 2.66699 8.08063 2.66699C6.17396 2.66699 4.64062 4.21366 4.64062 6.10699C4.65396 7.97366 6.12063 9.48033 7.96063 9.547Z" stroke="#4783FF" stroke-width="1.5" stroke-linecap="round" stroke-linejoin="round"/>
<path d="M9.33521 19.2539C7.50854 19.5605 5.49521 19.2405 4.08188 18.2939C2.20188 17.0405 2.20188 14.9872 4.08188 13.7339C5.50854 12.7872 7.54854 12.4672 9.3752 12.7872" stroke="#4783FF" stroke-width="1.5" stroke-linecap="round" stroke-linejoin="round"/>
<path d="M16.0014 19.507C15.9214 19.4936 15.8281 19.4936 15.7481 19.507C13.9081 19.4403 12.4414 17.9336 12.4414 16.067C12.4414 14.1603 13.9747 12.627 15.8814 12.627C17.7881 12.627 19.3214 14.1736 19.3214 16.067C19.3081 17.9336 17.8414 19.4536 16.0014 19.507Z" stroke="#4783FF" stroke-width="1.5" stroke-linecap="round" stroke-linejoin="round"/>
<path d="M12.1209 23.7065C10.2409 24.9598 10.2409 27.0131 12.1209 28.2665C14.2543 29.6931 17.7476 29.6931 19.8809 28.2665C21.7609 27.0131 21.7609 24.9598 19.8809 23.7065C17.7609 22.2932 14.2543 22.2932 12.1209 23.7065Z" stroke="#4783FF" stroke-width="1.5" stroke-linecap="round" stroke-linejoin="round"/>
</svg>
