<svg width="24" height="24" viewBox="0 0 24 24" fill="none" xmlns="http://www.w3.org/2000/svg">
<path fill-rule="evenodd" clip-rule="evenodd" d="M18.7806 19.3599C20.7602 17.5328 22 14.9161 22 12.0098C22 6.48692 17.5228 2.00977 12 2.00977C6.47715 2.00977 2 6.48692 2 12.0098C2 16.9264 5.54816 21.0142 10.2236 21.8525C8.31055 21.5087 6.58849 20.6204 5.2207 19.3602C5.4607 18.4502 6.1107 17.6202 7.0607 16.9802C9.7907 15.1602 14.2307 15.1602 16.9407 16.9802C17.9006 17.6202 18.5405 18.45 18.7806 19.3599ZM18.4773 19.6287C17.3542 20.5831 16.0165 21.2964 14.5452 21.683C16.0154 21.2972 17.3535 20.5851 18.4773 19.6287ZM12 6.93994C9.93 6.93994 8.25 8.61994 8.25 10.6899C8.25 12.7199 9.84 14.3699 11.95 14.4299H12.04H12.11H12.13C14.15 14.3599 15.74 12.7199 15.75 10.6899C15.75 8.61994 14.07 6.93994 12 6.93994Z" fill="white"/>
</svg>
