<svg width="24" height="24" viewBox="0 0 24 24" fill="none" xmlns="http://www.w3.org/2000/svg">
<path d="M4.0916 12.4272C4.0916 11.708 4.68802 11.1116 5.40724 11.1116L15.9324 11.1116C16.6516 11.1116 17.248 11.708 17.248 12.4272C17.248 13.1464 16.6516 13.7429 15.9324 13.7429L5.40724 13.7429C4.68802 13.7429 4.0916 13.1464 4.0916 12.4272Z" fill="white"/>
<path d="M11.1105 17.6887C11.1105 17.3554 11.2333 17.0221 11.4964 16.759L15.8293 12.4261L11.4964 8.09328C10.9877 7.58456 10.9877 6.74255 11.4964 6.23383C12.0052 5.72512 12.8472 5.72512 13.3559 6.23383L18.6185 11.4964C19.1272 12.0051 19.1272 12.8471 18.6185 13.3559L13.3559 18.6184C12.8472 19.1272 12.0052 19.1272 11.4964 18.6184C11.2333 18.3553 11.1105 18.022 11.1105 17.6887Z" fill="white"/>
</svg>
