<svg width="24" height="24" viewBox="0 0 24 24" fill="none" xmlns="http://www.w3.org/2000/svg">
<path d="M15 22.75H9C3.57 22.75 1.25 20.43 1.25 15V9C1.25 3.57 3.57 1.25 9 1.25H15C20.43 1.25 22.75 3.57 22.75 9V15C22.75 20.43 20.43 22.75 15 22.75ZM9 2.75C4.39 2.75 2.75 4.39 2.75 9V15C2.75 19.61 4.39 21.25 9 21.25H15C19.61 21.25 21.25 19.61 21.25 15V9C21.25 4.39 19.61 2.75 15 2.75H9Z" fill="#4CA4FD"/>
<path d="M9 10.75C7.48 10.75 6.25 9.52 6.25 8C6.25 6.48 7.48 5.25 9 5.25C10.52 5.25 11.75 6.48 11.75 8C11.75 9.52 10.52 10.75 9 10.75ZM9 6.75C8.31 6.75 7.75 7.31 7.75 8C7.75 8.69 8.31 9.25 9 9.25C9.69 9.25 10.25 8.69 10.25 8C10.25 7.31 9.69 6.75 9 6.75Z" fill="#4CA4FD"/>
<path d="M2.6688 19.7005C2.4288 19.7005 2.1888 19.5805 2.0488 19.3705C1.8188 19.0305 1.9088 18.5605 2.2588 18.3305L7.1888 15.0205C8.2688 14.2905 9.7588 14.3805 10.7388 15.2105L11.0688 15.5005C11.5688 15.9305 12.4188 15.9305 12.9088 15.5005L17.0688 11.9305C18.1288 11.0205 19.7988 11.0205 20.8688 11.9305L22.4988 13.3305C22.8088 13.6005 22.8488 14.0705 22.5788 14.3905C22.3088 14.7005 21.8388 14.7405 21.5188 14.4705L19.8888 13.0705C19.3888 12.6405 18.5388 12.6405 18.0388 13.0705L13.8788 16.6405C12.8188 17.5505 11.1488 17.5505 10.0788 16.6405L9.7488 16.3505C9.2888 15.9605 8.5288 15.9205 8.0188 16.2705L3.0888 19.5805C2.9588 19.6605 2.8088 19.7005 2.6688 19.7005Z" fill="#4CA4FD"/>
</svg>
