<svg width="24" height="24" viewBox="0 0 24 24" fill="none" xmlns="http://www.w3.org/2000/svg">
<mask id="path-1-inside-1_42724_149443" fill="white">
<path d="M15.9729 11.9666C15.9736 12.0982 15.9484 12.2287 15.8986 12.3505C15.8489 12.4724 15.7755 12.5832 15.6829 12.6766L9.68284 18.6766C9.49454 18.8649 9.23915 18.9707 8.97284 18.9707C8.70654 18.9707 8.45115 18.8649 8.26284 18.6766C8.07454 18.4883 7.96875 18.2329 7.96875 17.9666C7.96875 17.7003 8.07454 17.4449 8.26284 17.2566L13.5629 11.9666L8.27284 6.67662C8.10902 6.48532 8.02341 6.23924 8.03313 5.98757C8.04285 5.73589 8.14718 5.49715 8.32528 5.31906C8.50337 5.14096 8.74211 5.03663 8.99379 5.02691C9.24547 5.01719 9.49154 5.10279 9.68284 5.26662L15.6829 11.2666C15.8676 11.4529 15.9717 11.7043 15.9729 11.9666Z"/>
</mask>
<path d="M15.9729 11.9666C15.9736 12.0982 15.9484 12.2287 15.8986 12.3505C15.8489 12.4724 15.7755 12.5832 15.6829 12.6766L9.68284 18.6766C9.49454 18.8649 9.23915 18.9707 8.97284 18.9707C8.70654 18.9707 8.45115 18.8649 8.26284 18.6766C8.07454 18.4883 7.96875 18.2329 7.96875 17.9666C7.96875 17.7003 8.07454 17.4449 8.26284 17.2566L13.5629 11.9666L8.27284 6.67662C8.10902 6.48532 8.02341 6.23924 8.03313 5.98757C8.04285 5.73589 8.14718 5.49715 8.32528 5.31906C8.50337 5.14096 8.74211 5.03663 8.99379 5.02691C9.24547 5.01719 9.49154 5.10279 9.68284 5.26662L15.6829 11.2666C15.8676 11.4529 15.9717 11.7043 15.9729 11.9666Z" fill="#A0A3BD"/>
<path d="M15.9729 11.9666L-5.36029 12.0564L-5.36022 12.0732L-5.36012 12.09L15.9729 11.9666ZM15.6829 12.6766L30.7678 27.7616L30.7985 27.7308L30.8291 27.7L15.6829 12.6766ZM8.97284 18.9707L8.97284 40.304L8.97284 18.9707ZM8.26284 17.2566L-6.80784 2.15741L-6.81497 2.16453L-6.82209 2.17165L8.26284 17.2566ZM13.5629 11.9666L28.6335 27.0658L43.747 11.9809L28.6478 -3.11835L13.5629 11.9666ZM8.27284 6.67662L-7.93074 20.553L-7.39475 21.1789L-6.81209 21.7616L8.27284 6.67662ZM9.68284 5.26662L24.7678 -9.81834L24.1851 -10.401L23.5592 -10.937L9.68284 5.26662ZM15.6829 11.2666L30.8293 -3.75656L30.7986 -3.78752L30.7678 -3.81835L15.6829 11.2666ZM-5.36012 12.09C-5.37559 9.41394 -4.86268 6.7612 -3.8508 4.28384L35.6481 20.4172C36.7595 17.6962 37.3228 14.7825 37.3058 11.8433L-5.36012 12.09ZM-3.8508 4.28384C-2.83894 1.80653 -1.34801 -0.446741 0.53656 -2.34673L30.8291 27.7C32.8991 25.6131 34.5367 23.1382 35.6481 20.4172L-3.8508 4.28384ZM0.597925 -2.40835L-5.40208 3.59165L24.7678 33.7616L30.7678 27.7616L0.597925 -2.40835ZM-5.40208 3.59165C-1.58961 -0.220815 3.5812 -2.36263 8.97284 -2.36263L8.97284 40.304C14.8971 40.304 20.5787 37.9506 24.7678 33.7616L-5.40208 3.59165ZM8.97284 -2.36263C14.3645 -2.36263 19.5353 -0.220816 23.3478 3.59165L-6.82209 33.7616C-2.633 37.9506 3.0486 40.304 8.97284 40.304L8.97284 -2.36263ZM23.3478 3.59165C27.1602 7.40412 29.3021 12.5749 29.3021 17.9666L-13.3646 17.9666C-13.3646 23.8909 -11.0112 29.5725 -6.82209 33.7616L23.3478 3.59165ZM29.3021 17.9666C29.3021 23.3583 27.1602 28.5291 23.3478 32.3416L-6.82209 2.17165C-11.0112 6.36073 -13.3646 12.0423 -13.3646 17.9666L29.3021 17.9666ZM23.3335 32.3558L28.6335 27.0658L-1.50783 -3.13259L-6.80784 2.15741L23.3335 32.3558ZM28.6478 -3.11835L23.3578 -8.40834L-6.81209 21.7616L-1.52208 27.0516L28.6478 -3.11835ZM24.4764 -7.19981C27.8075 -3.31004 29.5482 1.6935 29.3506 6.81097L-13.2843 5.16416C-13.5014 10.785 -11.5895 16.2807 -7.93074 20.553L24.4764 -7.19981ZM29.3506 6.81097C29.1529 11.9284 27.0315 16.7828 23.4102 20.404L-6.75965 -9.76591C-10.7371 -5.78848 -13.0672 -0.45663 -13.2843 5.16416L29.3506 6.81097ZM23.4102 20.404C19.7889 24.0253 14.9345 26.1467 9.81719 26.3443L8.17039 -16.2905C2.54971 -16.0734 -2.78215 -13.7434 -6.75965 -9.76591L23.4102 20.404ZM9.81719 26.3443C4.69988 26.542 -0.303677 24.8014 -4.19354 21.4702L23.5592 -10.937C19.2868 -14.5958 13.7911 -16.5076 8.17039 -16.2905L9.81719 26.3443ZM-5.40208 20.3516L0.597926 26.3516L30.7678 -3.81835L24.7678 -9.81834L-5.40208 20.3516ZM0.536393 26.2898C-3.22009 22.5025 -5.33783 17.3907 -5.36029 12.0564L37.306 11.8768C37.2813 6.01787 34.9553 0.403271 30.8293 -3.75656L0.536393 26.2898Z" fill="#A0A3BD" mask="url(#path-1-inside-1_42724_149443)"/>
</svg>
