<svg width="21" height="20" viewBox="0 0 21 20" fill="none" xmlns="http://www.w3.org/2000/svg">
<path d="M11.7289 1.51063L13.4889 5.03063C13.7289 5.52063 14.3689 5.99062 14.9089 6.08063L18.0989 6.61062C20.1389 6.95062 20.6189 8.43062 19.1489 9.89062L16.6689 12.3706C16.2489 12.7906 16.0189 13.6006 16.1489 14.1806L16.8589 17.2506C17.4189 19.6806 16.1289 20.6206 13.9789 19.3506L10.9889 17.5806C10.4489 17.2606 9.55893 17.2606 9.00893 17.5806L6.01893 19.3506C3.87893 20.6206 2.57893 19.6706 3.13893 17.2506L3.84893 14.1806C3.97893 13.6006 3.74893 12.7906 3.32893 12.3706L0.848932 9.89062C-0.611068 8.43062 -0.141067 6.95062 1.89893 6.61062L5.08893 6.08063C5.61893 5.99062 6.25893 5.52063 6.49893 5.03063L8.25893 1.51063C9.21893 -0.399375 10.7789 -0.399375 11.7289 1.51063Z" fill="#FFBB33"/>
</svg>
