<svg width="21" height="20" viewBox="0 0 21 20" fill="none" xmlns="http://www.w3.org/2000/svg">
<path d="M10.9707 0C5.4507 0 0.970703 4.48 0.970703 10C0.970703 15.52 5.4507 20 10.9707 20C16.4907 20 20.9707 15.52 20.9707 10C20.9707 4.48 16.5007 0 10.9707 0ZM13.9707 12.23L11.0707 13.9C10.7107 14.11 10.3107 14.21 9.9207 14.21C9.5207 14.21 9.1307 14.11 8.7707 13.9C8.0507 13.48 7.6207 12.74 7.6207 11.9V8.55C7.6207 7.72 8.0507 6.97 8.7707 6.55C9.4907 6.13 10.3507 6.13 11.0807 6.55L13.9807 8.22C14.7007 8.64 15.1307 9.38 15.1307 10.22C15.1307 11.06 14.7007 11.81 13.9707 12.23Z" fill="#7DD46E"/>
</svg>
