<svg width="48" height="48" viewBox="0 0 48 48" fill="none" xmlns="http://www.w3.org/2000/svg">
<path d="M31.7687 0L41.8022 10.0335V48H5.55469V0H31.7687Z" fill="#E2E2E2"/>
<path d="M41.8006 10.0335H31.7656V0L41.8006 10.0335Z" fill="#999999"/>
<path d="M38.2059 39.6458H2.06641V27.4688H45.9339L38.2059 39.6458Z" fill="#09A1DA"/>
<path d="M5.55391 43.1325V39.6465H2.06641L5.55391 43.1325Z" fill="#999999"/>
<path d="M12.0898 37.0732V30.0742H15.5308C16.5073 30.0742 17.1913 30.2887 17.5828 30.7162C17.9758 31.1437 18.1708 31.8922 18.1708 32.9617C18.1708 34.7077 18.0148 35.8297 17.6998 36.3277C17.3863 36.8242 16.6753 37.0732 15.5728 37.0732H12.0898ZM13.4173 35.9557H15.3088C15.9448 35.9557 16.3558 35.8087 16.5418 35.5177C16.7278 35.2252 16.8223 34.5802 16.8223 33.5812C16.8223 32.5492 16.7383 31.8937 16.5703 31.6132C16.4038 31.3327 16.0108 31.1947 15.3913 31.1947H13.4188V35.9557H13.4173Z" fill="white"/>
<path d="M22.0447 30.0137C23.3167 30.0137 24.1357 30.2267 24.5017 30.6482C24.8662 31.0697 25.0492 32.0147 25.0492 33.4802C25.0492 35.0837 24.8662 36.0932 24.4987 36.5117C24.1312 36.9302 23.2417 37.1372 21.8302 37.1372C20.5582 37.1372 19.7362 36.9302 19.3642 36.5192C18.9907 36.1082 18.8047 35.2007 18.8047 33.8012C18.8047 32.1332 18.9877 31.0847 19.3537 30.6572C19.7182 30.2267 20.6167 30.0137 22.0447 30.0137ZM21.9427 31.1537C21.0502 31.1537 20.5297 31.2677 20.3797 31.4972C20.2282 31.7252 20.1547 32.5202 20.1547 33.8762C20.1547 34.8812 20.2432 35.4857 20.4187 35.6912C20.5942 35.8967 21.1132 35.9987 21.9742 35.9987C22.7992 35.9987 23.2927 35.8832 23.4562 35.6537C23.6197 35.4227 23.7022 34.7237 23.7022 33.5552C23.7022 32.3822 23.6242 31.6892 23.4697 31.4747C23.3122 31.2587 22.8037 31.1537 21.9427 31.1537Z" fill="white"/>
<path d="M30.269 34.5782H31.6025V34.8182C31.6025 35.7917 31.427 36.4217 31.07 36.7082C30.716 36.9932 29.93 37.1357 28.712 37.1357C27.3335 37.1357 26.4845 36.9107 26.1665 36.4592C25.8485 36.0077 25.6895 34.8017 25.6895 32.8397C25.6895 31.6832 25.9055 30.9257 26.336 30.5597C26.7665 30.1967 27.668 30.0137 29.039 30.0137C30.035 30.0137 30.7025 30.1652 31.037 30.4637C31.3745 30.7622 31.541 31.3562 31.541 32.2457L31.544 32.4047H30.2105V32.2247C30.2105 31.7657 30.125 31.4732 29.9525 31.3457C29.78 31.2167 29.387 31.1537 28.772 31.1537C27.947 31.1537 27.4535 31.2527 27.2885 31.4552C27.122 31.6577 27.0395 32.2547 27.0395 33.2492C27.0395 34.5902 27.1145 35.3822 27.2615 35.6282C27.4115 35.8742 27.89 35.9972 28.7045 35.9972C29.363 35.9972 29.792 35.9282 29.987 35.7917C30.182 35.6552 30.2825 35.3537 30.2825 34.8887L30.269 34.5782Z" fill="white"/>
</svg>
