<svg width="38" height="31" viewBox="0 0 38 31" fill="none" xmlns="http://www.w3.org/2000/svg">
<path d="M2.75 13.2494H6.5V23.2494H4C3.66848 23.2494 3.35054 23.3811 3.11612 23.6156C2.8817 23.85 2.75 24.1679 2.75 24.4994C2.75 24.831 2.8817 25.1489 3.11612 25.3833C3.35054 25.6178 3.66848 25.7494 4 25.7494H34C34.3315 25.7494 34.6495 25.6178 34.8839 25.3833C35.1183 25.1489 35.25 24.831 35.25 24.4994C35.25 24.1679 35.1183 23.85 34.8839 23.6156C34.6495 23.3811 34.3315 23.2494 34 23.2494H31.5V13.2494H35.25C35.5216 13.249 35.7857 13.16 36.0023 12.996C36.2189 12.8321 36.3761 12.602 36.4503 12.3407C36.5245 12.0794 36.5115 11.801 36.4133 11.5477C36.3151 11.2945 36.1371 11.08 35.9062 10.9369L19.6562 0.936947C19.4596 0.813519 19.2322 0.748047 19 0.748047C18.7678 0.748047 18.5404 0.813519 18.3438 0.936947L2.09375 10.9369C1.86286 11.08 1.68486 11.2945 1.5867 11.5477C1.48854 11.801 1.47555 12.0794 1.54971 12.3407C1.62387 12.602 1.78113 12.8321 1.9977 12.996C2.21427 13.16 2.47836 13.249 2.75 13.2494ZM9 13.2494H14V23.2494H9V13.2494ZM21.5 13.2494V23.2494H16.5V13.2494H21.5ZM29 23.2494H24V13.2494H29V23.2494ZM19 3.4682L30.8281 10.7494H7.17188L19 3.4682ZM37.75 29.4994C37.75 29.831 37.6183 30.1489 37.3839 30.3833C37.1495 30.6178 36.8315 30.7494 36.5 30.7494H1.5C1.16848 30.7494 0.850537 30.6178 0.616116 30.3833C0.381696 30.1489 0.25 29.831 0.25 29.4994C0.25 29.1679 0.381696 28.85 0.616116 28.6156C0.850537 28.3811 1.16848 28.2494 1.5 28.2494H36.5C36.8315 28.2494 37.1495 28.3811 37.3839 28.6156C37.6183 28.85 37.75 29.1679 37.75 29.4994Z" fill="#FFC15D"/>
</svg>
