<svg width="34" height="34" viewBox="0 0 34 34" fill="none" xmlns="http://www.w3.org/2000/svg">
<path d="M22.8359 16.584C22.8359 16.2525 22.7042 15.9345 22.4698 15.7001C22.2354 15.4657 21.9175 15.334 21.5859 15.334C21.2544 15.334 20.9365 15.4657 20.7021 15.7001C20.4676 15.9345 20.3359 16.2525 20.3359 16.584V19.9173C20.3359 20.2488 20.4676 20.5668 20.7021 20.8012C20.9365 21.0356 21.2544 21.1673 21.5859 21.1673C21.9175 21.1673 22.2354 21.0356 22.4698 20.8012C22.7042 20.5668 22.8359 20.2488 22.8359 19.9173V16.584ZM16.5859 15.334C16.9175 15.334 17.2354 15.4657 17.4698 15.7001C17.7042 15.9345 17.8359 16.2525 17.8359 16.584V19.9173C17.8359 20.2488 17.7042 20.5668 17.4698 20.8012C17.2354 21.0356 16.9175 21.1673 16.5859 21.1673C16.2544 21.1673 15.9365 21.0356 15.7021 20.8012C15.4676 20.5668 15.3359 20.2488 15.3359 19.9173V16.584C15.3359 16.2525 15.4676 15.9345 15.7021 15.7001C15.9365 15.4657 16.2544 15.334 16.5859 15.334ZM12.8359 16.584C12.8359 16.2525 12.7042 15.9345 12.4698 15.7001C12.2354 15.4657 11.9175 15.334 11.5859 15.334C11.2544 15.334 10.9365 15.4657 10.7021 15.7001C10.4676 15.9345 10.3359 16.2525 10.3359 16.584V19.9173C10.3359 20.2488 10.4676 20.5668 10.7021 20.8012C10.9365 21.0356 11.2544 21.1673 11.5859 21.1673C11.9175 21.1673 12.2354 21.0356 12.4698 20.8012C12.7042 20.5668 12.8359 20.2488 12.8359 19.9173V16.584ZM6.58594 22.834C6.91746 22.834 7.2354 22.9657 7.46982 23.2001C7.70424 23.4345 7.83594 23.7525 7.83594 24.084V28.2507C7.83594 28.5822 7.70424 28.9001 7.46982 29.1345C7.2354 29.369 6.91746 29.5007 6.58594 29.5007C6.25442 29.5007 5.93647 29.369 5.70205 29.1345C5.46763 28.9001 5.33594 28.5822 5.33594 28.2507V24.084C5.33594 23.7525 5.46763 23.4345 5.70205 23.2001C5.93647 22.9657 6.25442 22.834 6.58594 22.834ZM28.6693 24.084C28.6693 23.7525 28.5376 23.4345 28.3032 23.2001C28.0687 22.9657 27.7508 22.834 27.4193 22.834C27.0877 22.834 26.7698 22.9657 26.5354 23.2001C26.301 23.4345 26.1693 23.7525 26.1693 24.084V28.2507C26.1693 28.5822 26.301 28.9001 26.5354 29.1345C26.7698 29.369 27.0877 29.5007 27.4193 29.5007C27.7508 29.5007 28.0687 29.369 28.3032 29.1345C28.5376 28.9001 28.6693 28.5822 28.6693 28.2507V24.084ZM16.5859 0.333984H22.8359C23.057 0.333984 23.2689 0.421782 23.4252 0.578062C23.5815 0.734343 23.6693 0.946304 23.6693 1.16732V4.50065C23.6693 4.72166 23.5815 4.93363 23.4252 5.08991C23.2689 5.24619 23.057 5.33398 22.8359 5.33398H17.8359V7.03065C20.7783 7.24136 23.5316 8.55886 25.5417 10.718C27.5517 12.877 28.6692 15.7174 28.6693 18.6673H29.9193C30.9138 18.6673 31.8677 19.0624 32.5709 19.7657C33.2742 20.4689 33.6693 21.4228 33.6693 22.4173V32.4173C33.6693 32.7488 33.5376 33.0668 33.3032 33.3012C33.0687 33.5356 32.7508 33.6673 32.4193 33.6673H1.58594C1.25442 33.6673 0.936474 33.5356 0.702054 33.3012C0.467633 33.0668 0.335938 32.7488 0.335938 32.4173V22.4173C0.335938 21.4228 0.731026 20.4689 1.43429 19.7657C2.13755 19.0624 3.09138 18.6673 4.08594 18.6673H5.33594C5.33591 15.8616 6.34674 13.1497 8.18327 11.0285C10.0198 8.90735 12.5591 7.51883 15.3359 7.11732V1.58398C15.3359 1.25246 15.4676 0.934521 15.7021 0.700101C15.9365 0.46568 16.2544 0.333984 16.5859 0.333984ZM17.0026 9.50065C14.5715 9.50065 12.2399 10.4664 10.5208 12.1855C8.80171 13.9046 7.83594 16.2362 7.83594 18.6673V19.9173C7.83594 20.2488 7.70424 20.5668 7.46982 20.8012C7.2354 21.0356 6.91746 21.1673 6.58594 21.1673H4.08594C3.75442 21.1673 3.43647 21.299 3.20205 21.5334C2.96763 21.7679 2.83594 22.0858 2.83594 22.4173V31.1673H12.8359V26.584C12.8359 26.2525 12.9676 25.9345 13.2021 25.7001C13.4365 25.4657 13.7544 25.334 14.0859 25.334H19.9193C20.2508 25.334 20.5687 25.4657 20.8032 25.7001C21.0376 25.9345 21.1693 26.2525 21.1693 26.584V31.1673H31.1693V22.4173C31.1693 22.0858 31.0376 21.7679 30.8032 21.5334C30.5687 21.299 30.2508 21.1673 29.9193 21.1673H27.4193C27.0877 21.1673 26.7698 21.0356 26.5354 20.8012C26.301 20.5668 26.1693 20.2488 26.1693 19.9173V18.6673C26.1693 16.2362 25.2035 13.9046 23.4844 12.1855C21.7653 10.4664 19.4338 9.50065 17.0026 9.50065ZM18.6693 27.834H15.3359V31.1673H18.6693V27.834Z" fill="#9BD5E8"/>
</svg>
