<svg width="34" height="34" viewBox="0 0 34 34" fill="none" xmlns="http://www.w3.org/2000/svg">
<path d="M15.3359 33.6673C14.8637 33.6673 14.4682 33.5073 14.1493 33.1873C13.8293 32.8684 13.6693 32.4729 13.6693 32.0007V23.2923C13.6693 23.2368 13.697 23.0979 13.7526 22.8757L16.0026 16.4173C16.1415 16.1118 16.3426 15.8551 16.6059 15.6473C16.8704 15.4384 17.197 15.334 17.5859 15.334H29.7526C30.1415 15.334 30.4682 15.4384 30.7326 15.6473C30.9959 15.8551 31.197 16.1118 31.3359 16.4173L33.5859 22.8757L33.6693 23.2923V32.0007C33.6693 32.4729 33.5093 32.8684 33.1893 33.1873C32.8704 33.5073 32.4748 33.6673 32.0026 33.6673C31.5304 33.6673 31.1348 33.5073 30.8159 33.1873C30.4959 32.8684 30.3359 32.4729 30.3359 32.0007V31.1673H17.0026V32.0007C17.0026 32.4729 16.8432 32.8684 16.5243 33.1873C16.2043 33.5073 15.8082 33.6673 15.3359 33.6673ZM17.0026 21.1673H30.3359L29.1693 17.834H18.1693L17.0026 21.1673ZM18.6693 27.834C19.1415 27.834 19.5376 27.674 19.8576 27.354C20.1765 27.0351 20.3359 26.6395 20.3359 26.1673C20.3359 25.6951 20.1765 25.2995 19.8576 24.9806C19.5376 24.6607 19.1415 24.5007 18.6693 24.5007C18.197 24.5007 17.8015 24.6607 17.4826 24.9806C17.1626 25.2995 17.0026 25.6951 17.0026 26.1673C17.0026 26.6395 17.1626 27.0351 17.4826 27.354C17.8015 27.674 18.197 27.834 18.6693 27.834ZM28.6693 27.834C29.1415 27.834 29.537 27.674 29.8559 27.354C30.1759 27.0351 30.3359 26.6395 30.3359 26.1673C30.3359 25.6951 30.1759 25.2995 29.8559 24.9806C29.537 24.6607 29.1415 24.5007 28.6693 24.5007C28.197 24.5007 27.8015 24.6607 27.4826 24.9806C27.1626 25.2995 27.0026 25.6951 27.0026 26.1673C27.0026 26.6395 27.1626 27.0351 27.4826 27.354C27.8015 27.674 28.197 27.834 28.6693 27.834ZM7.0026 20.334V17.0007H10.3359V20.334H7.0026ZM15.3359 10.334V7.00065H18.6693V10.334H15.3359ZM7.0026 27.0007V23.6673H10.3359V27.0007H7.0026ZM7.0026 33.6673V30.334H10.3359V33.6673H7.0026ZM0.335938 33.6673V13.6673C0.335938 12.7507 0.662604 11.9657 1.31594 11.3123C1.96816 10.6601 2.7526 10.334 3.66927 10.334H8.66927V3.66732C8.66927 2.75065 8.99594 1.96565 9.64927 1.31232C10.3015 0.660095 11.0859 0.333984 12.0026 0.333984H22.0026C22.9193 0.333984 23.7043 0.660095 24.3576 1.31232C25.0098 1.96565 25.3359 2.75065 25.3359 3.66732V12.0007H22.0026V3.66732H12.0026V13.6673H3.66927V33.6673H0.335938ZM16.1693 28.6673H31.1693V23.6673H16.1693V28.6673Z" fill="#6AAD8E"/>
</svg>
