<svg width="48" height="50" viewBox="0 0 48 50" fill="none" xmlns="http://www.w3.org/2000/svg">
<g filter="url(#filter0_d_1_19632)">
<rect width="48" height="48" rx="8" fill="#4A9D77"/>
<path d="M28.1391 14.9591L19.1091 17.9591C13.0391 19.9891 13.0391 23.2991 19.1091 25.3191L21.7891 26.2091L22.6791 28.8891C24.6991 34.9591 28.0191 34.9591 30.0391 28.8891L33.0491 19.8691C34.3891 15.8191 32.1891 13.6091 28.1391 14.9591ZM28.4591 20.3391L24.6591 24.1591C24.5091 24.3091 24.3191 24.3791 24.1291 24.3791C23.9391 24.3791 23.7491 24.3091 23.5991 24.1591C23.3091 23.8691 23.3091 23.3891 23.5991 23.0991L27.3991 19.2791C27.6891 18.9891 28.1691 18.9891 28.4591 19.2791C28.7491 19.5691 28.7491 20.0491 28.4591 20.3391Z" fill="white"/>
<rect x="0.5" y="0.5" width="47" height="47" rx="7.5" stroke="#4A9D77"/>
</g>
<defs>
<filter id="filter0_d_1_19632" x="0" y="0" width="48" height="50" filterUnits="userSpaceOnUse" color-interpolation-filters="sRGB">
<feFlood flood-opacity="0" result="BackgroundImageFix"/>
<feColorMatrix in="SourceAlpha" type="matrix" values="0 0 0 0 0 0 0 0 0 0 0 0 0 0 0 0 0 0 127 0" result="hardAlpha"/>
<feOffset dy="2"/>
<feColorMatrix type="matrix" values="0 0 0 0 0 0 0 0 0 0 0 0 0 0 0 0 0 0 0.043 0"/>
<feBlend mode="normal" in2="BackgroundImageFix" result="effect1_dropShadow_1_19632"/>
<feBlend mode="normal" in="SourceGraphic" in2="effect1_dropShadow_1_19632" result="shape"/>
</filter>
</defs>
</svg>
