<svg xmlns="http://www.w3.org/2000/svg" width="24" height="24" viewBox="0 0 24 24" id="preview"><path fill="none" d="M0,0H24V24H0Z" data-name="Path 3621"></path><path fill="#525863" d="M59.173,277.184a.205.205,0,0,0,0-.024.069.069,0,0,0,0-.013.168.168,0,0,0,0-.018c0-.007,0-.014,0-.021a.006.006,0,0,1,0,0,.752.752,0,0,0-.2-.409,14.778,14.778,0,0,0-2.082-2.034,13.174,13.174,0,0,0-5.435-2.865,8.659,8.659,0,0,0-1.864-.2,9.009,9.009,0,0,0-1.642.153,10.782,10.782,0,0,0-3.051,1.117,16.611,16.611,0,0,0-4.073,3.124c-.221.228-.441.46-.643.708a.783.783,0,0,0,0,1.048,14.822,14.822,0,0,0,2.082,2.034,13.172,13.172,0,0,0,5.436,2.865,8.639,8.639,0,0,0,1.865.2,8.974,8.974,0,0,0,1.641-.153,10.824,10.824,0,0,0,3.052-1.117,16.649,16.649,0,0,0,4.072-3.124c.222-.228.441-.46.643-.708a.757.757,0,0,0,.2-.409v0c0-.007,0-.014,0-.021l0-.018s0-.008,0-.012a.228.228,0,0,1,0-.024c0-.012,0-.025,0-.038S59.174,277.2,59.173,277.184Zm-11.33-2.11a.993.993,0,1,1-1,.993A1,1,0,0,1,47.843,275.075Zm9.182,2.148a14.773,14.773,0,0,1-3.624,2.789,9.041,9.041,0,0,1-2.534.937,7.173,7.173,0,0,1-1.308.122,6.857,6.857,0,0,1-1.472-.161,11.386,11.386,0,0,1-4.674-2.494,15.618,15.618,0,0,1-1.3-1.187l.008-.008a14.733,14.733,0,0,1,3.625-2.789c.222-.118.439-.224.652-.321a3.705,3.705,0,0,0-.618,2.051,3.8,3.8,0,0,0,7.6,0,3.707,3.707,0,0,0-.617-2.048,13.581,13.581,0,0,1,2.973,1.915,15.577,15.577,0,0,1,1.3,1.187Z" data-name="Shape 5" transform="translate(-37.574 -265.296)"></path></svg>