<svg width="38" height="38" viewBox="0 0 38 38" fill="none" xmlns="http://www.w3.org/2000/svg">
<path d="M27.5 17.19H24.61C22.24 17.19 20.31 15.26 20.31 12.89V10C20.31 9.45 19.86 9 19.31 9H15.07C11.99 9 9.5 11 9.5 14.57V23.43C9.5 27 11.99 29 15.07 29H22.93C26.01 29 28.5 27 28.5 23.43V18.19C28.5 17.64 28.05 17.19 27.5 17.19ZM19.28 22.78L17.28 24.78C17.21 24.85 17.12 24.91 17.03 24.94C16.94 24.98 16.85 25 16.75 25C16.65 25 16.56 24.98 16.47 24.94C16.39 24.91 16.31 24.85 16.25 24.79C16.24 24.78 16.23 24.78 16.23 24.77L14.23 22.77C13.94 22.48 13.94 22 14.23 21.71C14.52 21.42 15 21.42 15.29 21.71L16 22.44V18.25C16 17.84 16.34 17.5 16.75 17.5C17.16 17.5 17.5 17.84 17.5 18.25V22.44L18.22 21.72C18.51 21.43 18.99 21.43 19.28 21.72C19.57 22.01 19.57 22.49 19.28 22.78Z" fill="#A0A3BD"/>
<path d="M24.4297 15.8105C25.3797 15.8205 26.6997 15.8205 27.8297 15.8205C28.3997 15.8205 28.6997 15.1505 28.2997 14.7505C26.8597 13.3005 24.2797 10.6905 22.7997 9.21048C22.3897 8.80048 21.6797 9.08048 21.6797 9.65048V13.1405C21.6797 14.6005 22.9197 15.8105 24.4297 15.8105Z" fill="#A0A3BD"/>
</svg>
