<svg width="17" height="20" viewBox="0 0 17 20" fill="none" xmlns="http://www.w3.org/2000/svg">
<path d="M15.7208 12.49L14.7208 10.83C14.5108 10.46 14.3208 9.76 14.3208 9.35V6.82C14.3208 4.47 12.9408 2.44 10.9508 1.49C10.4308 0.57 9.4708 0 8.3708 0C7.2808 0 6.3008 0.59 5.7808 1.52C3.8308 2.49 2.4808 4.5 2.4808 6.82V9.35C2.4808 9.76 2.2908 10.46 2.0808 10.82L1.0708 12.49C0.670802 13.16 0.580802 13.9 0.830802 14.58C1.0708 15.25 1.6408 15.77 2.3808 16.02C4.3208 16.68 6.3608 17 8.4008 17C10.4408 17 12.4808 16.68 14.4208 16.03C15.1208 15.8 15.6608 15.27 15.9208 14.58C16.1808 13.89 16.1108 13.13 15.7208 12.49Z" fill="#4783FF"/>
<path d="M16.2706 6.43C15.9906 6.43 15.7706 6.21 15.7706 5.93C15.7706 3.86 14.5606 1.95 12.6906 1.05C12.4406 0.929999 12.3406 0.629999 12.4506 0.379999C12.5606 0.129999 12.8706 0.0199994 13.1206 0.139999C15.3406 1.2 16.7706 3.47 16.7706 5.92C16.7706 6.21 16.5406 6.43 16.2706 6.43Z" fill="#4783FF"/>
<path d="M0.5 6.43001C0.22 6.43001 0 6.21001 0 5.93001C0 3.48001 1.43 1.21001 3.65 0.150009C3.9 0.0300092 4.2 0.140009 4.32 0.390009C4.44 0.640009 4.33 0.940009 4.08 1.06001C2.21 1.95001 1 3.86001 1 5.93001C1 6.21001 0.78 6.43001 0.5 6.43001Z" fill="#4783FF"/>
<path d="M11.2105 18.01C10.7905 19.17 9.68055 20 8.38055 20C7.59055 20 6.81055 19.68 6.26055 19.11C5.94055 18.81 5.70055 18.41 5.56055 18C5.69055 18.02 5.82055 18.03 5.96055 18.05C6.19055 18.08 6.43055 18.11 6.67055 18.13C7.24055 18.18 7.82055 18.21 8.40055 18.21C8.97055 18.21 9.54055 18.18 10.1005 18.13C10.3105 18.11 10.5205 18.1 10.7205 18.07C10.8805 18.05 11.0405 18.03 11.2105 18.01Z" fill="#4783FF"/>
</svg>
