<svg width="24" height="24" viewBox="0 0 24 24" fill="none" xmlns="http://www.w3.org/2000/svg">
<g clip-path="url(#clip0_55977_52122)">
<path d="M12 0C5.37284 0 0 5.37284 0 12C0 18.6272 5.37284 24 12 24C18.6272 24 24 18.6272 24 12C24 5.37284 18.6272 0 12 0Z" fill="#D83A52"/>
<path d="M12.0015 18.8569C12.9483 18.8569 13.7159 18.0893 13.7159 17.1425C13.7159 16.1957 12.9483 15.4281 12.0015 15.4281C11.0547 15.4281 10.2871 16.1957 10.2871 17.1425C10.2871 18.0893 11.0547 18.8569 12.0015 18.8569Z" fill="white"/>
<path d="M13.3722 12.9429C13.328 13.3835 12.955 13.7184 12.5117 13.7144H11.4831C11.0424 13.715 10.6734 13.3815 10.6292 12.9429L9.94347 6.08537C9.89793 5.61257 10.2448 5.19201 10.7176 5.14647C10.7464 5.1438 10.7752 5.14246 10.804 5.14246H13.2041C13.6796 5.1438 14.0633 5.53087 14.062 6.00567C14.062 6.03246 14.0607 6.05858 14.058 6.0847L13.3722 12.9429Z" fill="white"/>
</g>
<defs>
<clipPath id="clip0_55977_52122">
<rect width="24" height="24" fill="white"/>
</clipPath>
</defs>
</svg>
