<svg width="24" height="24" viewBox="0 0 24 24" fill="none" xmlns="http://www.w3.org/2000/svg">
<path d="M20.4849 20.4852C25.1711 15.799 25.1711 8.20105 20.4849 3.5148C15.7986 -1.17145 8.20074 -1.17145 3.5145 3.5148C-1.17175 8.20105 -1.17175 15.799 3.5145 20.4852C8.20074 25.1714 15.7986 25.1714 20.4849 20.4852Z" fill="#3DC575"/>
<path d="M9.27027 17.6186C9.38813 17.7364 9.54819 17.8027 9.71494 17.8027C9.88169 17.8027 10.0417 17.7364 10.1596 17.6186L18.7295 9.04869C18.8474 8.93082 18.9137 8.77077 18.9137 8.60402C18.9137 8.43727 18.8474 8.27722 18.7295 8.15935L16.9515 6.38135C16.7057 6.13558 16.3079 6.13558 16.0628 6.38135L9.7156 12.7286L7.9376 10.9506C7.81974 10.8327 7.65969 10.7664 7.49294 10.7664C7.32619 10.7664 7.16613 10.8327 7.04827 10.9506L5.27027 12.7286C5.02449 12.9744 5.02449 13.3721 5.27027 13.6172L9.27027 17.6186Z" fill="white"/>
</svg>
