<svg width="32" height="32" viewBox="0 0 32 32" fill="none" xmlns="http://www.w3.org/2000/svg">
<g clip-path="url(#clip0_1_25719)">
<path d="M28.0942 6.97464C25.9475 6.7613 23.8009 6.6013 21.6409 6.4813V6.46797L21.3475 4.73464C21.1475 3.50797 20.8542 1.66797 17.7342 1.66797H14.2409C11.1342 1.66797 10.8409 3.42797 10.6275 4.7213L10.3475 6.42797C9.10753 6.50797 7.86753 6.58797 6.62753 6.70797L3.90753 6.97464C3.34753 7.02797 2.94753 7.5213 3.00086 8.06797C3.05419 8.61464 3.53419 9.01464 4.09419 8.9613L6.81419 8.69464C13.8009 8.0013 20.8409 8.26797 27.9075 8.97464C27.9475 8.97464 27.9742 8.97464 28.0142 8.97464C28.5209 8.97464 28.9609 8.58797 29.0142 8.06797C29.0542 7.5213 28.6542 7.02797 28.0942 6.97464Z" fill="white"/>
<path d="M25.6403 10.852C25.3203 10.5187 24.8803 10.332 24.427 10.332H7.57365C7.12032 10.332 6.66698 10.5187 6.36032 10.852C6.05365 11.1854 5.88032 11.6387 5.90698 12.1054L6.73365 25.7854C6.88032 27.812 7.06698 30.3454 11.7203 30.3454H20.2803C24.9337 30.3454 25.1203 27.8254 25.267 25.7854L26.0937 12.1187C26.1203 11.6387 25.947 11.1854 25.6403 10.852ZM18.2136 23.6654H13.7737C13.227 23.6654 12.7737 23.212 12.7737 22.6654C12.7737 22.1187 13.227 21.6654 13.7737 21.6654H18.2136C18.7603 21.6654 19.2136 22.1187 19.2136 22.6654C19.2136 23.212 18.7603 23.6654 18.2136 23.6654ZM19.3337 18.332H12.667C12.1203 18.332 11.667 17.8787 11.667 17.332C11.667 16.7854 12.1203 16.332 12.667 16.332H19.3337C19.8803 16.332 20.3337 16.7854 20.3337 17.332C20.3337 17.8787 19.8803 18.332 19.3337 18.332Z" fill="white"/>
</g>
<defs>
<clipPath id="clip0_1_25719">
<rect width="32" height="32" fill="white"/>
</clipPath>
</defs>
</svg>
