<svg width="30" height="30" viewBox="0 0 30 30" fill="none" xmlns="http://www.w3.org/2000/svg">
<path d="M19.8545 0L26.1254 6.27094V30H3.4707V0H19.8545Z" fill="#E2E2E2"/>
<path d="M26.1254 6.27094H19.8535V0L26.1254 6.27094Z" fill="#999999"/>
<path d="M23.8782 24.7786H1.29102V17.168H28.7082L23.8782 24.7786Z" fill="#14A085"/>
<path d="M3.4707 26.9561V24.7773H1.29102L3.4707 26.9561Z" fill="#999999"/>
<path d="M10.9021 18.7969V21.8166C10.9021 22.3781 10.8093 22.7503 10.6237 22.9341C10.438 23.1178 10.0593 23.2097 9.4893 23.2097C8.88273 23.2097 8.48898 23.1206 8.30805 22.9444C8.12805 22.7672 8.03711 22.3781 8.03711 21.7809L8.04742 21.4575H8.83867C8.8518 21.6197 8.85836 21.7416 8.85836 21.8222C8.85836 21.8991 8.86211 21.9928 8.86867 22.1016C8.8818 22.3659 9.0918 22.4991 9.49961 22.4991C9.74336 22.4991 9.89992 22.4513 9.9693 22.3566C10.0387 22.2619 10.0734 22.0481 10.0734 21.7144V18.7969H10.9021Z" fill="white"/>
<path d="M11.6699 23.1712V18.7969H13.4324H13.6499C14.2424 18.7969 14.6409 18.9 14.8462 19.1062C15.0534 19.3125 15.1555 19.7109 15.1555 20.2997C15.1555 20.8847 15.058 21.2737 14.8612 21.4659C14.6652 21.6581 14.2677 21.7547 13.6696 21.7547L13.4774 21.7575H12.5005V23.1712H11.6699ZM12.5005 21.06H13.4455C13.8215 21.06 14.0605 21.0159 14.1618 20.9297C14.263 20.8425 14.3146 20.6381 14.3146 20.3166C14.3146 19.9463 14.2724 19.7175 14.1871 19.6294C14.1027 19.5403 13.8843 19.4963 13.529 19.4963H12.5005V21.06Z" fill="white"/>
<path d="M17.4059 20.8447H19.3324L19.3455 21.7138C19.3455 22.3456 19.2265 22.7525 18.9884 22.9363C18.7502 23.1181 18.2177 23.21 17.3937 23.21C16.6371 23.21 16.1365 23.0881 15.8909 22.8444C15.6443 22.6006 15.5215 22.1038 15.5215 21.3547C15.5215 20.3975 15.5712 19.7928 15.6687 19.5397C15.7905 19.2322 15.9752 19.025 16.2237 18.9191C16.4712 18.8122 16.8921 18.7578 17.4865 18.7578C18.2627 18.7578 18.7662 18.8413 18.9912 19.0072C19.218 19.1731 19.3315 19.5388 19.3315 20.1078H18.4915C18.4765 19.8209 18.4146 19.6438 18.3049 19.5744C18.1952 19.505 17.9187 19.4712 17.4762 19.4712C16.9952 19.4712 16.6905 19.5303 16.5612 19.6503C16.4318 19.7694 16.3671 20.0506 16.3671 20.4922L16.3643 20.9319L16.3709 21.4925C16.3709 21.9266 16.4346 22.2022 16.563 22.3213C16.6915 22.4394 16.9877 22.4984 17.4537 22.4984C17.9055 22.4984 18.1943 22.4478 18.3171 22.3475C18.4399 22.2481 18.4999 22.0109 18.4999 21.6369L18.5037 21.4578H17.4049V20.8447H17.4059Z" fill="white"/>
</svg>
