<svg width="32" height="32" viewBox="0 0 32 32" fill="none" xmlns="http://www.w3.org/2000/svg">
<path d="M28 29.332H4C3.45333 29.332 3 28.8787 3 28.332C3 27.7854 3.45333 27.332 4 27.332H28C28.5467 27.332 29 27.7854 29 28.332C29 28.8787 28.5467 29.332 28 29.332Z" fill="white"/>
<path d="M25.3608 4.64086C22.7741 2.05419 20.2407 1.98753 17.5874 4.64086L15.9741 6.25419C15.8407 6.38753 15.7874 6.60086 15.8408 6.78753C16.8541 10.3209 19.6808 13.1475 23.2141 14.1609C23.2674 14.1742 23.3208 14.1875 23.3741 14.1875C23.5208 14.1875 23.6541 14.1342 23.7608 14.0275L25.3608 12.4142C26.6808 11.1075 27.3208 9.84086 27.3208 8.56086C27.3341 7.24086 26.6941 5.96086 25.3608 4.64086Z" fill="white"/>
<path d="M20.8131 15.3731C20.4264 15.1864 20.0531 14.9997 19.6931 14.7864C19.3998 14.6131 19.1198 14.4264 18.8398 14.2264C18.6131 14.0797 18.3464 13.8664 18.0931 13.6531C18.0664 13.6397 17.9731 13.5597 17.8664 13.4531C17.4264 13.0797 16.9331 12.5997 16.4931 12.0664C16.4531 12.0397 16.3864 11.9464 16.2931 11.8264C16.1598 11.6664 15.9331 11.3997 15.7331 11.0931C15.5731 10.8931 15.3864 10.5997 15.2131 10.3064C14.9998 9.94641 14.8131 9.58641 14.6264 9.21307C14.4398 8.81307 14.2931 8.42641 14.1598 8.06641L5.78644 16.4397C5.61311 16.6131 5.45311 16.9464 5.41311 17.1731L4.69311 22.2797C4.55977 23.1864 4.81311 24.0397 5.37311 24.6131C5.85311 25.0797 6.51977 25.3331 7.23977 25.3331C7.39977 25.3331 7.55977 25.3197 7.71977 25.2931L12.8398 24.5731C13.0798 24.5331 13.4131 24.3731 13.5731 24.1997L21.9464 15.8264C21.5731 15.6931 21.2131 15.5464 20.8131 15.3731Z" fill="white"/>
</svg>
