<svg width="24" height="24" viewBox="0 0 24 24" fill="none" xmlns="http://www.w3.org/2000/svg">
<g clip-path="url(#clip0_20753_65702)">
<path d="M23.23 15.0076C21.8033 20.3323 16.2919 23.5143 10.9672 22.0875C10.5688 21.9808 10.3301 21.5674 10.4369 21.169C10.5437 20.7705 10.957 20.5319 11.3555 20.6386C15.8832 21.8518 20.5679 19.1472 21.7811 14.6194C22.9943 10.0916 20.2896 5.40696 15.7619 4.19374C11.2341 2.98053 6.54943 5.68521 5.33621 10.213C5.22945 10.6114 4.8161 10.8501 4.41765 10.7433C4.01921 10.6366 3.78056 10.2232 3.88732 9.82476C5.31406 4.50009 10.8254 1.31811 16.1501 2.74485C21.4747 4.17159 24.6567 9.68295 23.23 15.0076Z" fill="#A0A3BD"/>
<path d="M8.98354 9.64147C8.93502 9.82258 8.81404 9.98428 8.63033 10.0903L4.58867 12.4238C4.22125 12.6359 3.78658 12.5195 3.57445 12.152L1.241 8.11038C1.02887 7.74295 1.14534 7.30829 1.51276 7.09615C1.88018 6.88402 2.31485 7.00049 2.52698 7.36791L4.4892 10.7666L7.88787 8.80436C8.25529 8.59223 8.68996 8.7087 8.90209 9.07612C9.01786 9.22361 9.04178 9.42413 8.98354 9.64147Z" fill="#A0A3BD"/>
</g>
<defs>
<clipPath id="clip0_20753_65702">
<rect width="24" height="24" fill="white"/>
</clipPath>
</defs>
</svg>
