<svg width="62" height="64" viewBox="0 0 62 64" fill="none" xmlns="http://www.w3.org/2000/svg">
<path d="M52.957 27.172H45.4912C39.3687 27.172 34.3829 22.0254 34.3829 15.7054V7.9987C34.3829 6.53203 33.2204 5.33203 31.7995 5.33203H20.8462C12.8895 5.33203 6.45703 10.6654 6.45703 20.1854V43.812C6.45703 53.332 12.8895 58.6654 20.8462 58.6654H41.1512C49.1079 58.6654 55.5404 53.332 55.5404 43.812V29.8387C55.5404 28.372 54.3779 27.172 52.957 27.172ZM29.7845 36.0787C29.397 36.4787 28.9062 36.6654 28.4154 36.6654C27.9245 36.6654 27.4337 36.4787 27.0462 36.0787L25.1862 34.1587V45.332C25.1862 46.4254 24.3079 47.332 23.2487 47.332C22.1895 47.332 21.3112 46.4254 21.3112 45.332V34.1587L19.4512 36.0787C18.702 36.852 17.462 36.852 16.7129 36.0787C15.9637 35.3054 15.9637 34.0254 16.7129 33.252L21.8795 27.9187C22.0604 27.7587 22.2412 27.6254 22.4479 27.5187C22.4995 27.492 22.577 27.4654 22.6287 27.4387C22.7837 27.3854 22.9387 27.3587 23.1195 27.332C23.197 27.332 23.2487 27.332 23.3262 27.332C23.5329 27.332 23.7395 27.3854 23.9462 27.4654C23.972 27.4654 23.972 27.4654 23.9979 27.4654C24.2045 27.5454 24.4112 27.7054 24.5662 27.8654C24.592 27.892 24.6179 27.892 24.6179 27.9187L29.7845 33.252C30.5337 34.0254 30.5337 35.3054 29.7845 36.0787Z" fill="#8686A3"/>
<path d="M45.028 23.4946C47.4822 23.5213 50.8922 23.5213 53.8113 23.5213C55.2838 23.5213 56.0588 21.7346 55.0255 20.6679C51.3055 16.8013 44.6405 9.84128 40.8172 5.89462C39.758 4.80128 37.9238 5.54795 37.9238 7.06795V16.3746C37.9238 20.268 41.1272 23.4946 45.028 23.4946Z" fill="#8686A3"/>
</svg>
