<svg width="40" height="40" viewBox="0 0 40 40" fill="none" xmlns="http://www.w3.org/2000/svg">
<path d="M3.75 16.2499H7.5V26.2499H5C4.66848 26.2499 4.35054 26.3816 4.11612 26.6161C3.8817 26.8505 3.75 27.1684 3.75 27.4999C3.75 27.8315 3.8817 28.1494 4.11612 28.3838C4.35054 28.6182 4.66848 28.7499 5 28.7499H35C35.3315 28.7499 35.6495 28.6182 35.8839 28.3838C36.1183 28.1494 36.25 27.8315 36.25 27.4999C36.25 27.1684 36.1183 26.8505 35.8839 26.6161C35.6495 26.3816 35.3315 26.2499 35 26.2499H32.5V16.2499H36.25C36.5216 16.2495 36.7857 16.1605 37.0023 15.9965C37.2189 15.8326 37.3761 15.6025 37.4503 15.3412C37.5245 15.0799 37.5115 14.8015 37.4133 14.5482C37.3151 14.2949 37.1371 14.0805 36.9062 13.9374L20.6562 3.93744C20.4596 3.81401 20.2322 3.74854 20 3.74854C19.7678 3.74854 19.5404 3.81401 19.3438 3.93744L3.09375 13.9374C2.86286 14.0805 2.68486 14.2949 2.5867 14.5482C2.48854 14.8015 2.47555 15.0799 2.54971 15.3412C2.62387 15.6025 2.78113 15.8326 2.9977 15.9965C3.21427 16.1605 3.47836 16.2495 3.75 16.2499ZM10 16.2499H15V26.2499H10V16.2499ZM22.5 16.2499V26.2499H17.5V16.2499H22.5ZM30 26.2499H25V16.2499H30V26.2499ZM20 6.46869L31.8281 13.7499H8.17188L20 6.46869ZM38.75 32.4999C38.75 32.8315 38.6183 33.1494 38.3839 33.3838C38.1495 33.6182 37.8315 33.7499 37.5 33.7499H2.5C2.16848 33.7499 1.85054 33.6182 1.61612 33.3838C1.3817 33.1494 1.25 32.8315 1.25 32.4999C1.25 32.1684 1.3817 31.8505 1.61612 31.6161C1.85054 31.3816 2.16848 31.2499 2.5 31.2499H37.5C37.8315 31.2499 38.1495 31.3816 38.3839 31.6161C38.6183 31.8505 38.75 32.1684 38.75 32.4999Z" fill="white"/>
</svg>
