<svg width="44" height="44" viewBox="0 0 44 44" fill="none" xmlns="http://www.w3.org/2000/svg">
<path d="M26.1914 11.051L23.4297 12.1028L23.9058 12.9633L24.382 13.8239C24.5344 13.5179 27.6834 12.7402 29.2388 12.3896C28.4008 10.5538 26.858 10.7323 26.1914 11.051Z" fill="#E5E6F8"/>
<g filter="url(#filter0_d_31273_463546)">
<path d="M20.7628 10H12.6681H12.2872C10.3826 10 9.96991 11.721 10.0017 12.5815V31.5139C10.0017 33.3498 11.7793 33.9363 12.6681 34H31.524C33.3524 34 33.9365 32.4701 34 31.7052V16.8844C34 14.8193 32.4132 14.3029 31.6195 14.3028H31.6192H25.0481C23.9051 14.3028 23.2387 10 20.7628 10Z" fill="white"/>
</g>
<path d="M29.8125 12.2937C29.0506 12.2937 25.8128 13.1861 24.2891 13.6324L24.3843 13.8236C24.5367 14.2825 24.7652 14.3973 24.8605 14.3973H32.479C31.7171 12.0068 29.8125 12.1981 29.8125 12.2937Z" fill="#E5E6F8"/>
<defs>
<filter id="filter0_d_31273_463546" x="0" y="0" width="44" height="44" filterUnits="userSpaceOnUse" color-interpolation-filters="sRGB">
<feFlood flood-opacity="0" result="BackgroundImageFix"/>
<feColorMatrix in="SourceAlpha" type="matrix" values="0 0 0 0 0 0 0 0 0 0 0 0 0 0 0 0 0 0 127 0" result="hardAlpha"/>
<feMorphology radius="2" operator="dilate" in="SourceAlpha" result="effect1_dropShadow_31273_463546"/>
<feOffset/>
<feGaussianBlur stdDeviation="4"/>
<feComposite in2="hardAlpha" operator="out"/>
<feColorMatrix type="matrix" values="0 0 0 0 0.0352941 0 0 0 0 0.631373 0 0 0 0 0.854902 0 0 0 0.1 0"/>
<feBlend mode="normal" in2="BackgroundImageFix" result="effect1_dropShadow_31273_463546"/>
<feBlend mode="normal" in="SourceGraphic" in2="effect1_dropShadow_31273_463546" result="shape"/>
</filter>
</defs>
</svg>
