<svg width="34" height="34" viewBox="0 0 34 34" fill="none" xmlns="http://www.w3.org/2000/svg">
<path d="M15.3359 33.6666C14.8637 33.6666 14.4682 33.5066 14.1493 33.1866C13.8293 32.8677 13.6693 32.4721 13.6693 31.9999V23.2916C13.6693 23.236 13.697 23.0971 13.7526 22.8749L16.0026 16.4166C16.1415 16.111 16.3426 15.8544 16.6059 15.6466C16.8704 15.4377 17.197 15.3333 17.5859 15.3333H29.7526C30.1415 15.3333 30.4682 15.4377 30.7326 15.6466C30.9959 15.8544 31.197 16.111 31.3359 16.4166L33.5859 22.8749L33.6693 23.2916V31.9999C33.6693 32.4721 33.5093 32.8677 33.1893 33.1866C32.8704 33.5066 32.4748 33.6666 32.0026 33.6666C31.5304 33.6666 31.1348 33.5066 30.8159 33.1866C30.4959 32.8677 30.3359 32.4721 30.3359 31.9999V31.1666H17.0026V31.9999C17.0026 32.4721 16.8432 32.8677 16.5243 33.1866C16.2043 33.5066 15.8082 33.6666 15.3359 33.6666ZM17.0026 21.1666H30.3359L29.1693 17.8333H18.1693L17.0026 21.1666ZM18.6693 27.8333C19.1415 27.8333 19.5376 27.6733 19.8576 27.3533C20.1765 27.0344 20.3359 26.6388 20.3359 26.1666C20.3359 25.6944 20.1765 25.2988 19.8576 24.9799C19.5376 24.6599 19.1415 24.4999 18.6693 24.4999C18.197 24.4999 17.8015 24.6599 17.4826 24.9799C17.1626 25.2988 17.0026 25.6944 17.0026 26.1666C17.0026 26.6388 17.1626 27.0344 17.4826 27.3533C17.8015 27.6733 18.197 27.8333 18.6693 27.8333ZM28.6693 27.8333C29.1415 27.8333 29.537 27.6733 29.8559 27.3533C30.1759 27.0344 30.3359 26.6388 30.3359 26.1666C30.3359 25.6944 30.1759 25.2988 29.8559 24.9799C29.537 24.6599 29.1415 24.4999 28.6693 24.4999C28.197 24.4999 27.8015 24.6599 27.4826 24.9799C27.1626 25.2988 27.0026 25.6944 27.0026 26.1666C27.0026 26.6388 27.1626 27.0344 27.4826 27.3533C27.8015 27.6733 28.197 27.8333 28.6693 27.8333ZM7.0026 20.3333V16.9999H10.3359V20.3333H7.0026ZM15.3359 10.3333V6.99992H18.6693V10.3333H15.3359ZM7.0026 26.9999V23.6666H10.3359V26.9999H7.0026ZM7.0026 33.6666V30.3333H10.3359V33.6666H7.0026ZM0.335938 33.6666V13.6666C0.335938 12.7499 0.662604 11.9649 1.31594 11.3116C1.96816 10.6594 2.7526 10.3333 3.66927 10.3333H8.66927V3.66659C8.66927 2.74992 8.99594 1.96492 9.64927 1.31159C10.3015 0.659363 11.0859 0.333252 12.0026 0.333252H22.0026C22.9193 0.333252 23.7043 0.659363 24.3576 1.31159C25.0098 1.96492 25.3359 2.74992 25.3359 3.66659V11.9999H22.0026V3.66659H12.0026V13.6666H3.66927V33.6666H0.335938ZM16.1693 28.6666H31.1693V23.6666H16.1693V28.6666Z" fill="white"/>
</svg>
