<svg width="42" height="42" viewBox="0 0 42 42" fill="none" xmlns="http://www.w3.org/2000/svg">
<path d="M21 38.5C30.665 38.5 38.5 30.665 38.5 21C38.5 11.335 30.665 3.5 21 3.5C11.335 3.5 3.5 11.335 3.5 21C3.5 30.665 11.335 38.5 21 38.5Z" fill="#D83A52"/>
<path d="M22.8549 20.9999L26.8799 16.9749C27.3874 16.4674 27.3874 15.6274 26.8799 15.1199C26.3724 14.6124 25.5324 14.6124 25.0249 15.1199L20.9999 19.1449L16.9749 15.1199C16.4674 14.6124 15.6274 14.6124 15.1199 15.1199C14.6124 15.6274 14.6124 16.4674 15.1199 16.9749L19.1449 20.9999L15.1199 25.0249C14.6124 25.5324 14.6124 26.3724 15.1199 26.8799C15.3824 27.1424 15.7149 27.2649 16.0474 27.2649C16.3799 27.2649 16.7124 27.1424 16.9749 26.8799L20.9999 22.8549L25.0249 26.8799C25.2874 27.1424 25.6199 27.2649 25.9524 27.2649C26.2849 27.2649 26.6174 27.1424 26.8799 26.8799C27.3874 26.3724 27.3874 25.5324 26.8799 25.0249L22.8549 20.9999Z" fill="white"/>
</svg>
