<svg width="68" height="68" viewBox="0 0 68 68" fill="none" xmlns="http://www.w3.org/2000/svg">
<g filter="url(#filter0_d_38127_361016)">
<rect x="10" y="10" width="48" height="47.9999" rx="8" fill="white"/>
<g clip-path="url(#clip0_38127_361016)">
<path d="M43.0697 27.23C41.4597 27.07 39.8497 26.95 38.2297 26.86V26.85L38.0097 25.55C37.8597 24.63 37.6397 23.25 35.2997 23.25H32.6797C30.3497 23.25 30.1297 24.57 29.9697 25.54L29.7597 26.82C28.8297 26.88 27.8997 26.94 26.9697 27.03L24.9297 27.23C24.5097 27.27 24.2097 27.64 24.2497 28.05C24.2897 28.46 24.6497 28.76 25.0697 28.72L27.1097 28.52C32.3497 28 37.6297 28.2 42.9297 28.73C42.9597 28.73 42.9797 28.73 43.0097 28.73C43.3897 28.73 43.7197 28.44 43.7597 28.05C43.7897 27.64 43.4897 27.27 43.0697 27.23Z" fill="#A0A3BD"/>
<path d="M41.2317 30.14C40.9917 29.89 40.6617 29.75 40.3217 29.75H27.6817C27.3417 29.75 27.0017 29.89 26.7717 30.14C26.5417 30.39 26.4117 30.73 26.4317 31.08L27.0517 41.34C27.1617 42.86 27.3017 44.76 30.7917 44.76H37.2117C40.7017 44.76 40.8417 42.87 40.9517 41.34L41.5717 31.09C41.5917 30.73 41.4617 30.39 41.2317 30.14ZM35.6617 39.75H32.3317C31.9217 39.75 31.5817 39.41 31.5817 39C31.5817 38.59 31.9217 38.25 32.3317 38.25H35.6617C36.0717 38.25 36.4117 38.59 36.4117 39C36.4117 39.41 36.0717 39.75 35.6617 39.75ZM36.5017 35.75H31.5017C31.0917 35.75 30.7517 35.41 30.7517 35C30.7517 34.59 31.0917 34.25 31.5017 34.25H36.5017C36.9117 34.25 37.2517 34.59 37.2517 35C37.2517 35.41 36.9117 35.75 36.5017 35.75Z" fill="#A0A3BD"/>
</g>
</g>
<defs>
<filter id="filter0_d_38127_361016" x="0" y="0" width="68" height="68" filterUnits="userSpaceOnUse" color-interpolation-filters="sRGB">
<feFlood flood-opacity="0" result="BackgroundImageFix"/>
<feColorMatrix in="SourceAlpha" type="matrix" values="0 0 0 0 0 0 0 0 0 0 0 0 0 0 0 0 0 0 127 0" result="hardAlpha"/>
<feMorphology radius="2" operator="dilate" in="SourceAlpha" result="effect1_dropShadow_38127_361016"/>
<feOffset/>
<feGaussianBlur stdDeviation="4"/>
<feComposite in2="hardAlpha" operator="out"/>
<feColorMatrix type="matrix" values="0 0 0 0 0.0352941 0 0 0 0 0.631373 0 0 0 0 0.854902 0 0 0 0.1 0"/>
<feBlend mode="normal" in2="BackgroundImageFix" result="effect1_dropShadow_38127_361016"/>
<feBlend mode="normal" in="SourceGraphic" in2="effect1_dropShadow_38127_361016" result="shape"/>
</filter>
<clipPath id="clip0_38127_361016">
<rect width="24" height="24" fill="white" transform="translate(22 22)"/>
</clipPath>
</defs>
</svg>
