<svg width="48" height="48" viewBox="0 0 48 48" fill="none" xmlns="http://www.w3.org/2000/svg">
<path d="M30.1109 0C31.1717 0 32.1891 0.421427 32.9393 1.17157L40.6296 8.86193C41.3798 9.61207 41.8012 10.6295 41.8012 11.6904V44C41.8012 46.2091 40.0104 48 37.8012 48H9.55371C7.34457 48 5.55371 46.2091 5.55371 44V4C5.55371 1.79086 7.34457 0 9.55371 0H30.1109Z" fill="#E2E2E2"/>
<path d="M41.8014 10.0335H35.7664C33.5572 10.0335 31.7664 8.24264 31.7664 6.0335V0L41.8014 10.0335Z" fill="#999999"/>
<path d="M38.7948 38.7184C38.4279 39.2965 37.7908 39.6467 37.1062 39.6467H2.06616V29.4697C2.06616 28.3652 2.96159 27.4697 4.06616 27.4697H42.2956C43.8727 27.4697 44.8293 29.2098 43.9843 30.5414L38.7948 38.7184Z" fill="#E94E5D"/>
<path d="M5.55366 43.1325V39.6465H2.06616L5.55366 43.1325Z" fill="#999999"/>
<path d="M13.5908 37.0742V30.0752H16.4108H16.7588C17.7053 30.0752 18.3443 30.2402 18.6728 30.5702C19.0028 30.9002 19.1678 31.5377 19.1678 32.4797C19.1678 33.4157 19.0103 34.0382 18.6968 34.3457C18.3833 34.6532 17.7473 34.8077 16.7903 34.8077L16.4828 34.8122H14.9198V37.0742H13.5908ZM14.9183 33.6962H16.4303C17.0318 33.6962 17.4143 33.6257 17.5763 33.4877C17.7383 33.3482 17.8208 33.0212 17.8208 32.5067C17.8208 31.9142 17.7533 31.5482 17.6183 31.4072C17.4833 31.2647 17.1323 31.1942 16.5653 31.1942H14.9198V33.6962H14.9183Z" fill="white"/>
<path d="M20.0154 37.0742V30.0752H23.4549C24.4329 30.0752 25.1169 30.2897 25.5084 30.7172C25.8999 31.1447 26.0964 31.8932 26.0964 32.9627C26.0964 34.7087 25.9389 35.8307 25.6254 36.3287C25.3104 36.8252 24.6009 37.0742 23.4969 37.0742H20.0154ZM21.3429 35.9567H23.2344C23.8704 35.9567 24.2799 35.8097 24.4674 35.5187C24.6534 35.2262 24.7464 34.5812 24.7464 33.5822C24.7464 32.5502 24.6624 31.8947 24.4959 31.6142C24.3279 31.3337 23.9349 31.1957 23.3169 31.1957H21.3429V35.9567Z" fill="white"/>
<path d="M28.3927 31.1942V33.0812H31.5292V34.1972H28.3927V37.0742H27.0637V30.0752H31.6987V31.1942H28.3927Z" fill="white"/>
</svg>
