<svg width="32" height="32" viewBox="0 0 32 32" fill="none" xmlns="http://www.w3.org/2000/svg">
<circle cx="16" cy="16" r="16" fill="#E9F8E7"/>
<path d="M15.9634 3.65479C9.14854 3.65479 3.61768 9.18565 3.61768 16.0005C3.61768 22.8153 9.14854 28.3461 15.9634 28.3461C22.7782 28.3461 28.309 22.8153 28.309 16.0005C28.309 9.18565 22.7905 3.65479 15.9634 3.65479ZM19.6671 18.7535L16.0868 20.8153C15.6424 21.0745 15.1485 21.198 14.6671 21.198C14.1732 21.198 13.6917 21.0745 13.2473 20.8153C12.3584 20.2968 11.8276 19.3832 11.8276 18.3461V14.2103C11.8276 13.1856 12.3584 12.2597 13.2473 11.7412C14.1362 11.2227 15.1979 11.2227 16.0992 11.7412L19.6794 13.8029C20.5683 14.3215 21.0992 15.235 21.0992 16.2721C21.0992 17.3091 20.5683 18.235 19.6671 18.7535Z" fill="#7DD46E"/>
</svg>
