<svg width="42" height="42" viewBox="0 0 42 42" fill="none" xmlns="http://www.w3.org/2000/svg">
<g clip-path="url(#clip0_31670_483495)">
<path d="M40.6367 29.3081L27.7611 6.1425C26.0286 3.01875 23.6398 1.3125 21.0017 1.3125C18.3636 1.3125 15.9748 3.01875 14.2423 6.1425L1.36672 29.3081C-0.260782 32.2612 -0.444532 35.0963 0.867968 37.3275C2.18047 39.5588 4.75297 40.7925 8.12609 40.7925H33.8773C37.2505 40.7925 39.8361 39.5719 41.1355 37.3275C42.448 35.1094 42.2642 32.2481 40.6367 29.3081Z" fill="#FFC15D"/>
<path d="M21.0015 33.062C22.6552 33.062 24.0071 31.7233 24.0071 30.0564C24.0071 28.4027 22.6683 27.0508 21.0015 27.0508C19.3346 27.0508 17.9958 28.3895 17.9958 30.0564C17.9958 31.7233 19.3477 33.062 21.0015 33.062Z" fill="white"/>
<path d="M23.4035 22.7193C23.3247 23.4937 22.6685 24.0712 21.8941 24.0712H20.096C19.3216 24.0712 18.6785 23.4937 18.5997 22.7193L17.4053 10.7231C17.3266 9.89621 17.9303 9.16121 18.7572 9.08246C18.8097 9.08246 18.8622 9.06934 18.9147 9.06934H23.1147C23.9416 9.06934 24.6241 9.75184 24.611 10.5787C24.611 10.6312 24.611 10.6706 24.5978 10.7231L23.4035 22.7193Z" fill="white"/>
</g>
<defs>
<clipPath id="clip0_31670_483495">
<rect width="42" height="42" fill="white"/>
</clipPath>
</defs>
</svg>
