<svg width="42" height="42" viewBox="0 0 42 42" fill="none" xmlns="http://www.w3.org/2000/svg">
<path d="M21 3.5C11.3575 3.5 3.5 11.3575 3.5 21C3.5 30.6425 11.3575 38.5 21 38.5C30.6425 38.5 38.5 30.6425 38.5 21C38.5 11.3575 30.6425 3.5 21 3.5ZM29.365 16.975L19.4425 26.8975C19.1975 27.1425 18.865 27.2825 18.515 27.2825C18.165 27.2825 17.8325 27.1425 17.5875 26.8975L12.635 21.945C12.1275 21.4375 12.1275 20.5975 12.635 20.09C13.1425 19.5825 13.9825 19.5825 14.49 20.09L18.515 24.115L27.51 15.12C28.0175 14.6125 28.8575 14.6125 29.365 15.12C29.8725 15.6275 29.8725 16.45 29.365 16.975Z" fill="#3DC575"/>
</svg>
