<svg width="866" height="606" viewBox="0 0 866 606" fill="none" xmlns="http://www.w3.org/2000/svg">
<g clip-path="url(#clip0_46916_359831)">
<path d="M711.95 230.9C711.44 227.62 708.37 225.38 705.08 225.89C701.8 226.4 699.56 229.48 700.07 232.76C700.93 238.36 702.03 255.9 695.98 262.95C694.67 264.48 693.09 265.39 691.1 265.76L691.65 232.36C691.73 227.51 687.82 223.53 682.96 223.53C678.1 223.53 674.15 227.55 674.27 232.43L675.84 295.82C673.76 295.48 672.11 294.57 670.76 292.99C664.71 285.93 665.81 268.4 666.67 262.8C667.18 259.52 664.94 256.45 661.66 255.93C658.37 255.42 655.31 257.66 654.79 260.94C654.36 263.7 650.88 288.25 661.62 300.8C665.31 305.11 670.31 307.56 676.14 307.94L676.82 335.53H689.94L690.89 277.89C696.59 277.45 701.48 275.01 705.11 270.77C715.84 258.23 712.37 233.67 711.94 230.91L711.95 230.9Z" fill="#E94E5D"/>
<path d="M151.95 284.64C151.62 282.55 149.67 281.12 147.57 281.45C145.48 281.78 144.05 283.74 144.38 285.83C144.93 289.4 145.63 300.58 141.77 305.08C140.93 306.05 139.93 306.64 138.66 306.87L139.01 285.58C139.06 282.49 136.57 279.95 133.47 279.95C130.37 279.95 127.86 282.51 127.93 285.63L128.93 326.04C127.6 325.83 126.55 325.24 125.69 324.23C121.83 319.73 122.53 308.55 123.08 304.98C123.41 302.89 121.98 300.93 119.89 300.6C117.8 300.27 115.84 301.7 115.51 303.79C115.23 305.55 113.02 321.2 119.86 329.2C122.21 331.95 125.4 333.51 129.12 333.75L129.56 351.34H137.92L138.53 314.59C142.17 314.31 145.28 312.76 147.59 310.05C154.43 302.05 152.22 286.4 151.94 284.64H151.95Z" fill="#E94E5D"/>
<path d="M432.51 605.75C671.379 605.75 865.02 537.196 865.02 452.63C865.02 368.064 671.379 299.51 432.51 299.51C193.641 299.51 0 368.064 0 452.63C0 537.196 193.641 605.75 432.51 605.75Z" fill="url(#paint0_linear_46916_359831)"/>
<path d="M430.78 105.1L157.88 401.34L553.06 405.19L535.37 140.37L430.78 105.1Z" fill="url(#paint1_linear_46916_359831)"/>
<path d="M544.01 179.84C544.97 180.16 546 180.29 547.07 180.17C550.95 179.72 553.73 176.22 553.28 172.34L549.41 138.76C548.96 134.88 545.45 132.11 541.58 132.54C537.7 132.99 534.92 136.49 535.37 140.37L539.24 173.95C539.56 176.76 541.49 178.99 544.01 179.84Z" fill="url(#paint2_linear_46916_359831)"/>
<path d="M533.42 168.43C530.88 175.96 534.93 184.13 542.46 186.67C549.99 189.21 558.16 185.16 560.7 177.63C563.24 170.1 559.19 161.93 551.66 159.39C544.13 156.85 535.96 160.9 533.42 168.43Z" fill="url(#paint3_linear_46916_359831)"/>
<path d="M400 131.28C399.04 130.96 398.14 130.43 397.37 129.69C394.55 126.98 394.46 122.51 397.17 119.69L420.58 95.3099C423.29 92.4899 427.76 92.4099 430.57 95.0999C433.39 97.8099 433.48 102.28 430.77 105.1L407.36 129.48C405.4 131.52 402.51 132.13 400 131.28Z" fill="url(#paint4_linear_46916_359831)"/>
<path d="M415.34 128.61C412.8 136.14 404.64 140.19 397.1 137.65C389.57 135.11 385.52 126.95 388.06 119.41C390.6 111.88 398.76 107.83 406.3 110.37C413.83 112.91 417.88 121.07 415.34 128.61Z" fill="url(#paint5_linear_46916_359831)"/>
<path d="M487.42 116.49C455.94 105.88 427.18 94.4701 403.59 83.6001C417.69 106.21 444.31 126.68 478.16 138.09C511.72 149.41 545.03 149.35 569.88 140.14C545.45 134.54 517.18 126.53 487.41 116.5L487.42 116.49Z" fill="url(#paint6_linear_46916_359831)"/>
<path d="M649.245 142.839C653.961 128.85 588.249 94.0674 502.472 65.1504C416.696 36.2335 343.338 24.132 338.622 38.121C333.906 52.1101 399.618 86.8923 485.394 115.809C571.171 144.726 644.529 156.828 649.245 142.839Z" fill="url(#paint7_linear_46916_359831)"/>
<path opacity="0.2" d="M487.33 110.11C407.47 83.1801 345.02 51.1801 340.59 35.6101C339.63 36.3301 338.97 37.1701 338.64 38.1301C333.92 52.1201 399.63 86.9001 485.41 115.82C571.18 144.74 644.54 156.85 649.26 142.86C649.59 141.9 649.56 140.83 649.24 139.68C636.28 149.39 567.2 137.05 487.34 110.12L487.33 110.11Z" fill="white"/>
<path d="M499.85 79.36C539.66 92.78 578.4 98.13 578.4 98.13C585.61 58.1 562.71 17.77 523.01 4.38C483.19 -9.05 440.4 9.35 421.99 45.8C421.99 45.8 460.04 65.94 499.85 79.36Z" fill="url(#paint8_linear_46916_359831)"/>
</g>
<defs>
<linearGradient id="paint0_linear_46916_359831" x1="432.51" y1="230.12" x2="432.51" y2="470.56" gradientUnits="userSpaceOnUse">
<stop stop-color="#E5E5E5"/>
<stop offset="0.48" stop-color="#F3F3F3"/>
<stop offset="1" stop-color="white"/>
</linearGradient>
<linearGradient id="paint1_linear_46916_359831" x1="377.179" y1="-12.4521" x2="352.561" y2="459.25" gradientUnits="userSpaceOnUse">
<stop stop-color="#9BD5E8"/>
<stop offset="0.83" stop-color="#9BD5E8" stop-opacity="0"/>
</linearGradient>
<linearGradient id="paint2_linear_46916_359831" x1="545.871" y1="177.237" x2="540.724" y2="107.235" gradientUnits="userSpaceOnUse">
<stop stop-color="#A50404"/>
<stop offset="1" stop-color="#E64D4E"/>
</linearGradient>
<linearGradient id="paint3_linear_46916_359831" x1="555.792" y1="190.944" x2="538.442" y2="155.262" gradientUnits="userSpaceOnUse">
<stop stop-color="#A50404"/>
<stop offset="1" stop-color="#E64D4E"/>
</linearGradient>
<linearGradient id="paint4_linear_46916_359831" x1="407.819" y1="118.445" x2="434.719" y2="91.9603" gradientUnits="userSpaceOnUse">
<stop stop-color="#A50404"/>
<stop offset="1" stop-color="#E64D4E"/>
</linearGradient>
<linearGradient id="paint5_linear_46916_359831" x1="391.594" y1="132.108" x2="412.64" y2="115.226" gradientUnits="userSpaceOnUse">
<stop stop-color="#A50404"/>
<stop offset="1" stop-color="#E64D4E"/>
</linearGradient>
<linearGradient id="paint6_linear_46916_359831" x1="489.686" y1="101.331" x2="468.929" y2="175.391" gradientUnits="userSpaceOnUse">
<stop stop-color="#A50404"/>
<stop offset="1" stop-color="#E64D4E"/>
</linearGradient>
<linearGradient id="paint7_linear_46916_359831" x1="465.01" y1="176.244" x2="496.518" y2="82.7821" gradientUnits="userSpaceOnUse">
<stop stop-color="#A50404"/>
<stop offset="1" stop-color="#E64D4E"/>
</linearGradient>
<linearGradient id="paint8_linear_46916_359831" x1="483.231" y1="-2.44928" x2="528.886" y2="156.03" gradientUnits="userSpaceOnUse">
<stop stop-color="#9BD5E8"/>
<stop offset="0.19" stop-color="#9BD5E8"/>
<stop offset="0.71" stop-color="#363565"/>
<stop offset="1" stop-color="#363565"/>
</linearGradient>
<clipPath id="clip0_46916_359831">
<rect width="865.03" height="605.75" fill="white"/>
</clipPath>
</defs>
</svg>
