<svg width="24" height="24" viewBox="0 0 24 24" fill="none" xmlns="http://www.w3.org/2000/svg">
<path d="M16.8291 15.6402C17.4991 15.2002 18.3791 15.6802 18.3791 16.4802V17.7702C18.3791 19.0402 17.3891 20.4002 16.1991 20.8002L13.0091 21.8602C12.4491 22.0502 11.5391 22.0502 10.9891 21.8602L7.79914 20.8002C6.59914 20.4002 5.61914 19.0402 5.61914 17.7702V16.4702C5.61914 15.6802 6.49914 15.2002 7.15914 15.6302L9.21914 16.9702C10.0091 17.5002 11.0091 17.7602 12.0091 17.7602C13.0091 17.7602 14.0091 17.5002 14.7991 16.9702L16.8291 15.6402Z" fill="#70C9B7"/>
<path d="M19.9795 6.46055L13.9895 2.53055C12.9095 1.82055 11.1295 1.82055 10.0495 2.53055L4.02953 6.46055C2.09953 7.71055 2.09953 10.5405 4.02953 11.8005L5.62953 12.8405L10.0495 15.7205C11.1295 16.4305 12.9095 16.4305 13.9895 15.7205L18.3795 12.8405L19.7495 11.9405V15.0005C19.7495 15.4105 20.0895 15.7505 20.4995 15.7505C20.9095 15.7505 21.2495 15.4105 21.2495 15.0005V10.0805C21.6495 8.79055 21.2395 7.29055 19.9795 6.46055Z" fill="#70C9B7"/>
</svg>
