<svg width="30" height="30" viewBox="0 0 30 30" fill="#000" xmlns="http://www.w3.org/2000/svg">
<path d="M22.5167 26.6132L22.5162 26.6129L16.4206 23.2279C16.4198 23.2274 16.419 23.227 16.4182 23.2265C16.0056 22.9926 15.4937 22.8906 15.0094 22.8906C14.5237 22.8906 14.0098 22.9931 13.5927 23.2256C13.5926 23.2257 13.5925 23.2258 13.5924 23.2258L7.49477 26.612C7.49449 26.6122 7.49422 26.6123 7.49395 26.6125C6.60302 27.1028 5.90317 27.0782 5.4553 26.8145C5.00768 26.5509 4.64844 25.952 4.64844 24.9375V7.325C4.64844 4.9503 6.58792 3 8.97344 3H21.0234C23.4081 3 25.3491 4.94971 25.3609 7.32618V24.9375C25.3609 25.9596 25.0008 26.5607 24.5541 26.8239C24.1076 27.0868 23.4085 27.1099 22.5167 26.6132Z" stroke="#14142A"/>
</svg>
