<svg width="12" height="12" viewBox="0 0 12 12" fill="none" xmlns="http://www.w3.org/2000/svg">
<path d="M5.13672 6.38105C5.36023 6.66362 5.6454 6.89742 5.97287 7.0666C6.30034 7.23579 6.66245 7.33639 7.03466 7.3616C7.40686 7.38681 7.78045 7.33602 8.13007 7.2127C8.47969 7.08937 8.79718 6.89638 9.061 6.64682L10.6224 5.17034C11.0964 4.70623 11.3587 4.08463 11.3528 3.43941C11.3469 2.7942 11.0732 2.177 10.5907 1.72075C10.1082 1.2645 9.4555 1.0057 8.77318 1.00009C8.09087 0.994486 7.43352 1.24252 6.94272 1.69077L6.04753 2.53237" stroke="#5E5E5E" stroke-width="1.26848" stroke-linecap="round" stroke-linejoin="round"/>
<path d="M7.21616 5.39674C6.99265 5.11418 6.70748 4.88038 6.38001 4.7112C6.05254 4.54201 5.69042 4.44141 5.31822 4.4162C4.94601 4.39099 4.57243 4.44177 4.22281 4.5651C3.87318 4.68843 3.5557 4.88142 3.29188 5.13098L1.7305 6.60746C1.25647 7.07157 0.994169 7.69317 1.0001 8.33838C1.00603 8.9836 1.27971 9.6008 1.7622 10.057C2.24469 10.5133 2.89738 10.7721 3.57969 10.7777C4.26201 10.7833 4.91936 10.5353 5.41016 10.087L6.30015 9.24543" stroke="#5E5E5E" stroke-width="1.26848" stroke-linecap="round" stroke-linejoin="round"/>
</svg>
