<svg width="50" height="50" viewBox="0 0 50 50" fill="none" xmlns="http://www.w3.org/2000/svg">
<path d="M27.8741 34.9226C27.6171 34.9226 27.36 34.8633 27.1228 34.7051L20.9933 31.0476C19.4708 30.1381 18.3438 28.1413 18.3438 26.3817V18.2758C18.3438 17.4652 19.016 16.793 19.8267 16.793C20.6374 16.793 21.3096 17.4652 21.3096 18.2758V26.3817C21.3096 27.0934 21.9028 28.1413 22.5158 28.4972L28.6452 32.1547C29.3571 32.5699 29.5746 33.4793 29.1593 34.1911C28.8627 34.6656 28.3684 34.9226 27.8741 34.9226Z" fill="#4783FF"/>
<path d="M0.762443 24.0307C0.762443 12.3068 10.2928 2.77734 22.0179 2.77734C33.7431 2.77734 43.2734 12.3068 43.2734 24.0307C43.2734 24.8413 42.6012 25.5135 41.7905 25.5135C40.9798 25.5135 40.3076 24.8413 40.3076 24.0307C40.3076 13.9477 32.1019 5.74293 22.0179 5.74293C11.9339 5.74293 3.72832 13.9477 3.72832 24.0307C3.72832 34.1137 11.9339 42.3185 22.0179 42.3185C22.8286 42.3185 23.5009 42.9907 23.5009 43.8013C23.5009 44.6119 22.8286 45.2841 22.0179 45.2841C10.2928 45.2841 0.762442 35.7547 0.762443 24.0307Z" fill="#4783FF"/>
<path d="M34.7344 44.8574L38.0604 41.3808C38.2947 41.1298 38.4829 40.908 38.6252 40.7156C38.7758 40.5148 38.8846 40.3265 38.9515 40.1508C39.0184 39.9667 39.0519 39.7826 39.0519 39.5986C39.0519 39.2304 38.9306 38.9417 38.6879 38.7325C38.4536 38.5234 38.1482 38.4188 37.7717 38.4188C37.3868 38.4188 37.0437 38.5192 36.7425 38.72C36.4497 38.9208 36.1735 39.2388 35.9142 39.6739L34.7469 38.6823C35.0984 38.0883 35.5335 37.6406 36.0522 37.3394C36.5794 37.0298 37.1818 36.875 37.8596 36.875C38.4369 36.875 38.9389 36.988 39.3657 37.2139C39.8008 37.4398 40.1355 37.7536 40.3697 38.1552C40.604 38.5568 40.7212 39.0254 40.7212 39.5609C40.7212 39.9207 40.6752 40.247 40.5831 40.5399C40.4994 40.8327 40.353 41.1256 40.1438 41.4184C39.943 41.7029 39.6627 42.0251 39.3029 42.3849L36.8806 44.8574H34.7344ZM34.7344 45.8364V44.8574L36.1903 44.3554H40.9094V45.8364H34.7344Z" fill="#4783FF"/>
<path d="M41.6592 42.7237L44.6714 37.0131H46.554L43.4665 42.7237H41.6592ZM41.6592 43.7278V42.7237L42.2867 42.2343H48.6124V43.7278H41.6592ZM45.8261 45.8364V40.2135H47.5079V45.8364H45.8261Z" fill="#4783FF"/>
<path d="M49.1562 20.2308L43.4245 25.9619C42.837 26.5494 41.8626 26.5494 41.2751 25.9619L35.5434 20.2308C34.9559 19.6434 34.9559 18.6691 35.5434 18.0817C36.1309 17.4942 37.1053 17.4942 37.6928 18.0817L42.3498 22.7382L47.0068 18.0817C47.5943 17.4942 48.5687 17.4942 49.1562 18.0817C49.7437 18.6691 49.7437 19.6434 49.1562 20.2308Z" fill="#4783FF"/>
</svg>
