<svg width="50" height="50" viewBox="0 0 50 50" fill="none" xmlns="http://www.w3.org/2000/svg">
<path d="M24.9974 47.3971C12.6432 47.3971 2.60156 37.3555 2.60156 25.0013C2.60156 12.6471 12.6432 2.60547 24.9974 2.60547C25.8516 2.60547 26.5599 3.3138 26.5599 4.16797C26.5599 5.02214 25.8516 5.73047 24.9974 5.73047C14.3724 5.73047 5.72656 14.3763 5.72656 25.0013C5.72656 35.6263 14.3724 44.2721 24.9974 44.2721C35.6224 44.2721 44.2682 35.6263 44.2682 25.0013C44.2682 24.1471 44.9766 23.4388 45.8307 23.4388C46.6849 23.4388 47.3932 24.1471 47.3932 25.0013C47.3932 37.3555 37.3516 47.3971 24.9974 47.3971Z" fill="#E95060"/>
<path d="M45.8333 14.0638C44.9792 14.0638 44.2708 13.3555 44.2708 12.5013V5.73047H37.5C36.6458 5.73047 35.9375 5.02214 35.9375 4.16797C35.9375 3.3138 36.6458 2.60547 37.5 2.60547H45.8333C46.6875 2.60547 47.3958 3.3138 47.3958 4.16797V12.5013C47.3958 13.3555 46.6875 14.0638 45.8333 14.0638Z" fill="#E95060"/>
<path d="M35.4167 16.1458C35.0208 16.1458 34.625 16 34.3125 15.6875C33.7083 15.0833 33.7083 14.0833 34.3125 13.4792L44.7292 3.0625C45.3333 2.45833 46.3333 2.45833 46.9375 3.0625C47.5417 3.66667 47.5417 4.66666 46.9375 5.27083L36.5208 15.6875C36.2083 16 35.8125 16.1458 35.4167 16.1458Z" fill="#E95060"/>
<path d="M32.7292 33.1862C32.4583 33.1862 32.1875 33.1237 31.9375 32.957L25.4792 29.1029C23.875 28.1445 22.6875 26.0404 22.6875 24.1862V15.6445C22.6875 14.7904 23.3958 14.082 24.25 14.082C25.1042 14.082 25.8125 14.7904 25.8125 15.6445V24.1862C25.8125 24.9362 26.4375 26.0404 27.0833 26.4154L33.5417 30.2695C34.2917 30.707 34.5208 31.6654 34.0833 32.4154C33.7708 32.9154 33.25 33.1862 32.7292 33.1862Z" fill="#E95060"/>
</svg>
