<svg width="42" height="42" viewBox="0 0 42 42" fill="none" xmlns="http://www.w3.org/2000/svg">
<path d="M27.9999 39.8126H13.9999C5.91491 39.8126 4.40991 36.0501 4.02491 32.3926L2.71241 18.3751C2.51991 16.5376 2.46741 13.8251 4.28741 11.7951C5.86241 10.0451 8.46991 9.20508 12.2499 9.20508H29.7499C33.5474 9.20508 36.1549 10.0626 37.7124 11.7951C39.5324 13.8251 39.4799 16.5376 39.2874 18.3926L37.9749 32.3751C37.5899 36.0501 36.0849 39.8126 27.9999 39.8126ZM12.2499 11.8126C9.29241 11.8126 7.26241 12.3901 6.22991 13.5451C5.37241 14.4901 5.09241 15.9426 5.31991 18.1126L6.63241 32.1301C6.92991 34.8951 7.68241 37.1876 13.9999 37.1876H27.9999C34.2999 37.1876 35.0699 34.8951 35.3674 32.1126L36.6799 18.1301C36.9074 15.9426 36.6274 14.4901 35.7699 13.5451C34.7374 12.3901 32.7074 11.8126 29.7499 11.8126H12.2499Z" fill="#3DC575"/>
<path d="M28 11.8125C27.2825 11.8125 26.6875 11.2175 26.6875 10.5V9.1C26.6875 5.985 26.6875 4.8125 22.4 4.8125H19.6C15.3125 4.8125 15.3125 5.985 15.3125 9.1V10.5C15.3125 11.2175 14.7175 11.8125 14 11.8125C13.2825 11.8125 12.6875 11.2175 12.6875 10.5V9.1C12.6875 6.02 12.6875 2.1875 19.6 2.1875H22.4C29.3125 2.1875 29.3125 6.02 29.3125 9.1V10.5C29.3125 11.2175 28.7175 11.8125 28 11.8125Z" fill="#3DC575"/>
<path d="M21 29.3125C16.1875 29.3125 16.1875 26.3375 16.1875 24.5525V22.75C16.1875 20.2825 16.7825 19.6875 19.25 19.6875H22.75C25.2175 19.6875 25.8125 20.2825 25.8125 22.75V24.5C25.8125 26.32 25.8125 29.3125 21 29.3125ZM18.8125 22.3125C18.8125 22.4525 18.8125 22.61 18.8125 22.75V24.5525C18.8125 26.355 18.8125 26.6875 21 26.6875C23.1875 26.6875 23.1875 26.4075 23.1875 24.535V22.75C23.1875 22.61 23.1875 22.4525 23.1875 22.3125C23.0475 22.3125 22.89 22.3125 22.75 22.3125H19.25C19.11 22.3125 18.9525 22.3125 18.8125 22.3125Z" fill="#3DC575"/>
<path d="M24.5001 25.8484C23.8526 25.8484 23.2751 25.3584 23.2051 24.6934C23.1176 23.9759 23.6251 23.3109 24.3426 23.2234C28.9626 22.6459 33.3901 20.8959 37.1176 18.1834C37.6951 17.7459 38.5176 17.8859 38.9551 18.4809C39.3751 19.0584 39.2526 19.8809 38.6576 20.3184C34.5626 23.2934 29.7326 25.2009 24.6576 25.8484C24.6051 25.8484 24.5526 25.8484 24.5001 25.8484Z" fill="#3DC575"/>
<path d="M17.4998 25.8646C17.4473 25.8646 17.3948 25.8646 17.3423 25.8646C12.5473 25.3221 7.8748 23.5721 3.8323 20.8071C3.2373 20.4046 3.0798 19.5821 3.4823 18.9871C3.8848 18.3921 4.7073 18.2346 5.3023 18.6371C8.9948 21.1571 13.2473 22.7496 17.6223 23.2571C18.3398 23.3446 18.8648 23.9921 18.7773 24.7096C18.7248 25.3746 18.1648 25.8646 17.4998 25.8646Z" fill="#3DC575"/>
</svg>
