<svg width="40" height="40" viewBox="0 0 40 40" fill="none" xmlns="http://www.w3.org/2000/svg">
<path d="M19.9974 10.8333C23.062 10.8231 26.0672 11.678 28.6676 13.2995C31.268 14.9211 33.358 17.2436 34.6974 20C31.9474 25.6167 26.3307 29.1667 19.9974 29.1667C13.6641 29.1667 8.0474 25.6167 5.2974 20C6.63676 17.2436 8.72678 14.9211 11.3272 13.2995C13.9276 11.678 16.9328 10.8231 19.9974 10.8333ZM19.9974 7.5C11.6641 7.5 4.5474 12.6833 1.66406 20C4.5474 27.3167 11.6641 32.5 19.9974 32.5C28.3307 32.5 35.4474 27.3167 38.3307 20C35.4474 12.6833 28.3307 7.5 19.9974 7.5ZM19.9974 15.8333C21.1025 15.8333 22.1623 16.2723 22.9437 17.0537C23.7251 17.8351 24.1641 18.8949 24.1641 20C24.1641 21.1051 23.7251 22.1649 22.9437 22.9463C22.1623 23.7277 21.1025 24.1667 19.9974 24.1667C18.8923 24.1667 17.8325 23.7277 17.0511 22.9463C16.2697 22.1649 15.8307 21.1051 15.8307 20C15.8307 18.8949 16.2697 17.8351 17.0511 17.0537C17.8325 16.2723 18.8923 15.8333 19.9974 15.8333ZM19.9974 12.5C15.8641 12.5 12.4974 15.8667 12.4974 20C12.4974 24.1333 15.8641 27.5 19.9974 27.5C24.1307 27.5 27.4974 24.1333 27.4974 20C27.4974 15.8667 24.1307 12.5 19.9974 12.5Z" fill="#4A9D77"/>
</svg>
