<svg width="42" height="42" viewBox="0 0 42 42" fill="none" xmlns="http://www.w3.org/2000/svg">
<path d="M20.0972 1.70312C13.9869 1.70312 9.00244 6.70465 9.00244 12.8149C9.00244 16.551 10.8702 19.8595 13.7158 21.8724C7.08147 24.5307 2.375 31.0175 2.375 38.5863C2.38515 39.0437 2.57399 39.4789 2.90107 39.7988C3.22815 40.1187 3.66748 40.298 4.125 40.298C4.58252 40.298 5.02185 40.1187 5.34893 39.7988C5.67601 39.4789 5.86485 39.0437 5.875 38.5863C5.875 30.5537 12.3482 24.0805 20.3809 24.0805C23.1848 24.0805 25.7876 24.8798 28.0029 26.2509C28.1991 26.373 28.4174 26.4552 28.6453 26.4928C28.8733 26.5303 29.1064 26.5224 29.3314 26.4697C29.5563 26.4171 29.7686 26.3206 29.9562 26.1857C30.1438 26.0509 30.303 25.8804 30.4246 25.6839C30.5462 25.4875 30.6278 25.2691 30.6648 25.0411C30.7019 24.813 30.6936 24.5798 30.6404 24.355C30.5872 24.1302 30.4902 23.9181 30.3549 23.7309C30.2197 23.5436 30.0488 23.3847 29.852 23.2636C28.8538 22.6458 27.7702 22.1622 26.6528 21.7461C29.4054 19.7227 31.209 16.4755 31.209 12.8149C31.209 6.70465 26.2074 1.70312 20.0972 1.70312ZM20.0972 5.20641C24.3159 5.20641 27.7056 8.59617 27.7056 12.8149C27.7056 17.0336 24.3159 20.4096 20.0972 20.4096C15.8785 20.4096 12.5024 17.0336 12.5024 12.8149C12.5024 8.59617 15.8785 5.20641 20.0972 5.20641ZM29.0762 27.9598C28.7269 27.9592 28.3854 28.0631 28.0957 28.2581C27.8059 28.4532 27.5811 28.7306 27.4503 29.0544C27.3194 29.3783 27.2884 29.7338 27.3614 30.0754C27.4343 30.417 27.6077 30.729 27.8594 30.9712L30.9937 34.1053L27.8594 37.2363C27.691 37.3971 27.5565 37.5899 27.4635 37.8033C27.3706 38.0168 27.3212 38.2465 27.3182 38.4793C27.3152 38.7121 27.3587 38.9432 27.4461 39.159C27.5335 39.3747 27.6631 39.571 27.8273 39.736C27.9915 39.9011 28.1869 40.0318 28.4022 40.1204C28.6175 40.209 28.8483 40.2537 29.0811 40.252C29.3139 40.2503 29.544 40.2022 29.7579 40.1105C29.9719 40.0187 30.1654 39.8851 30.3272 39.7177L33.4683 36.5799L36.606 39.7177C36.9352 40.0457 37.3812 40.2298 37.846 40.2294C38.3108 40.2289 38.7565 40.0441 39.0851 39.7154C39.4138 39.3868 39.5986 38.9411 39.5991 38.4763C39.5995 38.0115 39.4155 37.5656 39.0874 37.2363L35.9497 34.1053L39.0874 30.9712C39.3433 30.7254 39.5185 30.4076 39.5897 30.06C39.6609 29.7124 39.6248 29.3515 39.4861 29.0249C39.3475 28.6984 39.1129 28.4217 38.8134 28.2315C38.5139 28.0413 38.1636 27.9464 37.8091 27.9598C37.3544 27.9733 36.9229 28.1634 36.606 28.4896L33.4683 31.6274L30.3272 28.4896C30.1645 28.3224 29.97 28.1894 29.7552 28.0985C29.5403 28.0075 29.3095 27.9603 29.0762 27.9598Z" fill="#E96F7C"/>
</svg>
