<svg width="24" height="24" viewBox="0 0 24 24" fill="none" xmlns="http://www.w3.org/2000/svg">
<path d="M9.04837 11.4L11.4871 6C11.9722 6 12.4374 6.18964 12.7804 6.5272C13.1234 6.86477 13.3161 7.3226 13.3161 7.79999V10.2H16.7668C16.9436 10.198 17.1187 10.2339 17.2799 10.3051C17.4412 10.3763 17.5848 10.4812 17.7008 10.6125C17.8168 10.7437 17.9024 10.8983 17.9516 11.0653C18.0009 11.2324 18.0127 11.408 17.9862 11.58L17.1448 16.9799C17.1007 17.2661 16.9531 17.5269 16.729 17.7143C16.5049 17.9018 16.2196 18.0032 15.9255 17.9999H9.04837M9.04837 11.4V17.9999M9.04837 11.4H7.21935C6.89596 11.4 6.58581 11.5264 6.35714 11.7514C6.12847 11.9765 6 12.2817 6 12.6V16.7999C6 17.1182 6.12847 17.4234 6.35714 17.6485C6.58581 17.8735 6.89596 17.9999 7.21935 17.9999H9.04837" stroke="#8991A0" stroke-width="0.950457" stroke-linecap="round" stroke-linejoin="round"/>
</svg>
