<svg width="40" height="40" viewBox="0 0 40 40" fill="none" xmlns="http://www.w3.org/2000/svg">
<path d="M11.1693 29.9987H6.91931C4.53598 29.9987 3.33594 28.7987 3.33594 26.4153V6.91541C3.33594 4.53207 4.53598 3.33203 6.91931 3.33203H14.086C16.4693 3.33203 17.6692 4.53207 17.6692 6.91541V9.9987" stroke="#4CA4FD" stroke-width="1.5" stroke-miterlimit="10" stroke-linecap="round" stroke-linejoin="round"/>
<path d="M28.9474 14.0333V32.6334C28.9474 35.3167 27.6141 36.6667 24.9307 36.6667H15.1974C12.514 36.6667 11.1641 35.3167 11.1641 32.6334V14.0333C11.1641 11.35 12.514 10 15.1974 10H24.9307C27.6141 10 28.9474 11.35 28.9474 14.0333Z" stroke="#4CA4FD" stroke-width="1.5" stroke-miterlimit="10" stroke-linecap="round" stroke-linejoin="round"/>
<path d="M22.3359 9.9987V6.91541C22.3359 4.53207 23.5359 3.33203 25.9192 3.33203H33.0859C35.4692 3.33203 36.6692 4.53207 36.6692 6.91541V26.4153C36.6692 28.7987 35.4692 29.9987 33.0859 29.9987H28.9526" stroke="#4CA4FD" stroke-width="1.5" stroke-miterlimit="10" stroke-linecap="round" stroke-linejoin="round"/>
<path d="M16.6641 18.332H23.3307" stroke="#4CA4FD" stroke-width="1.5" stroke-miterlimit="10" stroke-linecap="round" stroke-linejoin="round"/>
<path d="M16.6641 23.332H23.3307" stroke="#4CA4FD" stroke-width="1.5" stroke-miterlimit="10" stroke-linecap="round" stroke-linejoin="round"/>
<path d="M20 36.668V31.668" stroke="#4CA4FD" stroke-width="1.5" stroke-miterlimit="10" stroke-linecap="round" stroke-linejoin="round"/>
</svg>
