<svg width="40" height="40" viewBox="0 0 40 40" fill="none" xmlns="http://www.w3.org/2000/svg">
<path d="M20.1693 30.9167L20.0026 31.0833L19.8193 30.9167C11.9026 23.7333 6.66927 18.9833 6.66927 14.1667C6.66927 10.8333 9.16927 8.33333 12.5026 8.33333C15.0693 8.33333 17.5693 10 18.4526 12.2667H21.5526C22.4359 10 24.9359 8.33333 27.5026 8.33333C30.8359 8.33333 33.3359 10.8333 33.3359 14.1667C33.3359 18.9833 28.1026 23.7333 20.1693 30.9167ZM27.5026 5C24.6026 5 21.8193 6.35 20.0026 8.46667C18.1859 6.35 15.4026 5 12.5026 5C7.36927 5 3.33594 9.01667 3.33594 14.1667C3.33594 20.45 9.0026 25.6 17.5859 33.3833L20.0026 35.5833L22.4193 33.3833C31.0026 25.6 36.6693 20.45 36.6693 14.1667C36.6693 9.01667 32.6359 5 27.5026 5Z" fill="#E94E5D"/>
</svg>
