<svg width="42" height="42" viewBox="0 0 42 42" fill="none" xmlns="http://www.w3.org/2000/svg">
<path d="M25.27 33.3358L27.93 35.9958L33.25 30.6758" stroke="#3DC575" stroke-width="2.625" stroke-linecap="round" stroke-linejoin="round"/>
<path d="M21.28 19.0225C21.105 19.005 20.895 19.005 20.7025 19.0225C16.5375 18.8825 13.23 15.47 13.23 11.27C13.2125 6.9825 16.695 3.5 20.9825 3.5C25.27 3.5 28.7525 6.9825 28.7525 11.27C28.7525 15.47 25.4275 18.8825 21.28 19.0225Z" stroke="#3DC575" stroke-width="2.625" stroke-linecap="round" stroke-linejoin="round"/>
<path d="M20.9828 38.167C17.7978 38.167 14.6303 37.362 12.2153 35.752C7.98031 32.917 7.98031 28.297 12.2153 25.4795C17.0278 22.2595 24.9203 22.2595 29.7328 25.4795" stroke="#3DC575" stroke-width="2.625" stroke-linecap="round" stroke-linejoin="round"/>
</svg>
