<svg width="40" height="40" viewBox="0 0 40 40" fill="none" xmlns="http://www.w3.org/2000/svg">
<path d="M37.9141 36.668H37.4974V17.868C37.4974 16.4346 36.8474 15.118 35.7307 14.2513L34.1474 13.0346C34.1474 13.0346 34.1641 12.9513 34.1641 12.9013L34.1141 7.9013C34.1141 7.21797 33.5474 6.66797 32.8641 6.66797H25.9807L24.0641 5.18464C22.3974 3.9013 20.0807 3.9013 18.4307 5.18464L16.8474 6.41797C15.6141 3.61797 12.8307 1.66797 9.58073 1.66797C5.21406 1.66797 1.66406 5.21797 1.66406 9.58464C1.66406 12.3846 3.11406 14.8513 5.31406 16.2513C5.0974 16.768 4.9974 17.318 4.9974 17.868L4.91406 36.668H4.58073C3.8974 36.668 3.33073 37.2346 3.33073 37.918C3.33073 38.6013 3.8974 39.168 4.58073 39.168H37.9141C38.5974 39.168 39.1641 38.6013 39.1641 37.918C39.1641 37.2346 38.5974 36.668 37.9141 36.668ZM31.6307 9.16797V11.0846L29.1974 9.16797H31.6307ZM4.16406 9.58464C4.16406 6.6013 6.5974 4.16797 9.58073 4.16797C12.0307 4.16797 14.1141 5.8013 14.7641 8.03464C14.9141 8.53464 14.9974 9.0513 14.9974 9.58464C14.9974 10.1513 14.9141 10.6846 14.7474 11.2013C14.0807 13.3013 12.1807 14.8513 9.91406 14.9846C9.81406 15.0013 9.6974 15.0013 9.58073 15.0013C8.56406 15.0013 7.61406 14.718 6.7974 14.2346C5.23073 13.2846 4.16406 11.5513 4.16406 9.58464ZM24.1641 36.668H18.3307V32.0846C18.3307 31.4013 18.8974 30.8346 19.5807 30.8346H22.9141C23.5974 30.8346 24.1641 31.4013 24.1641 32.0846V36.668ZM34.9974 36.668H26.6641V32.0846C26.6641 30.018 24.9807 28.3346 22.9141 28.3346H19.5807C17.5141 28.3346 15.8307 30.018 15.8307 32.0846V36.668H7.41406L7.4974 17.868C7.4974 17.668 7.53073 17.4513 7.61406 17.2513C8.2474 17.418 8.8974 17.5013 9.58073 17.5013C13.9474 17.5013 17.4974 13.9513 17.4974 9.58464C17.4974 9.41797 17.4974 9.2513 17.4807 9.08463L19.9641 7.1513C20.7141 6.56797 21.7641 6.56797 22.5307 7.1513L24.6307 8.78464C24.6307 8.78464 24.6474 8.8013 24.6641 8.81797C24.7307 8.88463 24.7974 8.93464 24.8641 8.98463L34.1807 16.218C34.6974 16.618 34.9807 17.218 34.9807 17.868V36.668H34.9974Z" fill="#E96F7C"/>
<path d="M17.0859 17.082H13.7526C12.1526 17.082 10.8359 18.3987 10.8359 19.9987V22.4987C10.8359 24.0987 12.1526 25.4154 13.7526 25.4154H17.0859C18.6859 25.4154 20.0026 24.0987 20.0026 22.4987V19.9987C20.0026 18.3987 18.6859 17.082 17.0859 17.082ZM17.5026 22.4987C17.5026 22.732 17.3193 22.9154 17.0859 22.9154H13.7526C13.5193 22.9154 13.3359 22.732 13.3359 22.4987V19.9987C13.3359 19.7654 13.5193 19.582 13.7526 19.582H17.0859C17.3193 19.582 17.5026 19.7654 17.5026 19.9987V22.4987Z" fill="#E96F7C"/>
<path d="M28.75 17.082H25.4167C23.8167 17.082 22.5 18.3987 22.5 19.9987V22.4987C22.5 24.0987 23.8167 25.4154 25.4167 25.4154H28.75C30.35 25.4154 31.6667 24.0987 31.6667 22.4987V19.9987C31.6667 18.3987 30.35 17.082 28.75 17.082ZM29.1667 22.4987C29.1667 22.732 28.9833 22.9154 28.75 22.9154H25.4167C25.1833 22.9154 25 22.732 25 22.4987V19.9987C25 19.7654 25.1833 19.582 25.4167 19.582H28.75C28.9833 19.582 29.1667 19.7654 29.1667 19.9987V22.4987Z" fill="#E96F7C"/>
<path d="M9.5849 7.64922C9.71823 7.64922 9.81823 7.54922 9.81823 7.41589V6.93255C9.81823 6.79922 9.71823 6.69922 9.5849 6.69922C9.45156 6.69922 9.35156 6.79922 9.35156 6.93255V7.41589C9.35156 7.54922 9.45156 7.64922 9.5849 7.64922Z" fill="#E96F7C"/>
<path d="M8.04896 7.66745C8.14896 7.76745 8.29896 7.76745 8.38229 7.66745C8.48229 7.56745 8.48229 7.41745 8.38229 7.33411L8.04896 7.00078C7.94896 6.90078 7.79896 6.90078 7.71563 7.00078C7.61562 7.10078 7.61562 7.25078 7.71563 7.33411L8.04896 7.66745Z" fill="#E96F7C"/>
<path d="M11.1115 7.66915L11.4448 7.33582C11.5448 7.23582 11.5448 7.08582 11.4448 7.00249C11.3448 6.91915 11.1948 6.90249 11.1115 7.00249L10.7781 7.33582C10.6781 7.43582 10.6781 7.58582 10.7781 7.66915C10.8781 7.76915 11.0281 7.76915 11.1115 7.66915Z" fill="#E96F7C"/>
<path d="M10.5229 7.96562C10.3563 7.83229 10.1563 7.76562 9.93958 7.76562C9.67292 7.76562 9.40625 7.88229 9.23958 8.09896L7.47292 10.2156L6.72292 9.46562C6.55625 9.29896 6.32292 9.19896 6.07292 9.19896C5.82292 9.19896 5.58958 9.29896 5.42292 9.46562C5.25625 9.63229 5.15625 9.86563 5.15625 10.1156C5.15625 10.3656 5.25625 10.599 5.42292 10.7656L6.88958 12.2323C7.05625 12.399 7.30625 12.499 7.57292 12.499C7.82292 12.499 8.07292 12.3656 8.23958 12.1656L10.6562 9.26562C10.9729 8.88229 10.9229 8.29896 10.5396 7.96562H10.5229Z" fill="#E96F7C"/>
<path d="M10.5839 12.668C10.8505 12.668 11.0839 12.5346 11.2505 12.3346L13.6839 9.41797C14.0005 9.03464 13.9505 8.4513 13.5672 8.11797C13.4005 7.98464 13.2005 7.91797 12.9839 7.91797C12.7172 7.91797 12.4505 8.03464 12.2839 8.2513L10.5005 10.3846L10.3005 10.1846L9.11719 11.6013L9.91719 12.4013C10.0839 12.568 10.3339 12.668 10.6005 12.668H10.5839Z" fill="#E96F7C"/>
</svg>
