<svg width="42" height="42" viewBox="0 0 42 42" fill="none" xmlns="http://www.w3.org/2000/svg">
<path d="M31.5001 12.53C31.3951 12.5125 31.2726 12.5125 31.1676 12.53C28.7526 12.4425 26.8276 10.465 26.8276 8.015C26.8276 5.5125 28.8401 3.5 31.3426 3.5C33.8451 3.5 35.8576 5.53 35.8576 8.015C35.8401 10.465 33.9151 12.4425 31.5001 12.53Z" stroke="#4783FF" stroke-width="2.625" stroke-linecap="round" stroke-linejoin="round"/>
<path d="M29.6978 25.2703C32.0953 25.6728 34.7378 25.2528 36.5928 24.0103C39.0603 22.3653 39.0603 19.6703 36.5928 18.0253C34.7203 16.7828 32.0428 16.3628 29.6453 16.7828" stroke="#4783FF" stroke-width="2.625" stroke-linecap="round" stroke-linejoin="round"/>
<path d="M10.4473 12.53C10.5523 12.5125 10.6748 12.5125 10.7798 12.53C13.1948 12.4425 15.1198 10.465 15.1198 8.015C15.1198 5.5125 13.1073 3.5 10.6048 3.5C8.10235 3.5 6.08984 5.53 6.08984 8.015C6.10734 10.465 8.03235 12.4425 10.4473 12.53Z" stroke="#4783FF" stroke-width="2.625" stroke-linecap="round" stroke-linejoin="round"/>
<path d="M12.25 25.2703C9.85252 25.6728 7.21002 25.2528 5.35502 24.0103C2.88752 22.3653 2.88752 19.6703 5.35502 18.0253C7.22752 16.7828 9.90501 16.3628 12.3025 16.7828" stroke="#4783FF" stroke-width="2.625" stroke-linecap="round" stroke-linejoin="round"/>
<path d="M20.9999 25.6042C20.8949 25.5867 20.7724 25.5867 20.6674 25.6042C18.2524 25.5167 16.3274 23.5392 16.3274 21.0892C16.3274 18.5867 18.3399 16.5742 20.8424 16.5742C23.3449 16.5742 25.3574 18.6042 25.3574 21.0892C25.3399 23.5392 23.4149 25.5342 20.9999 25.6042Z" stroke="#4783FF" stroke-width="2.625" stroke-linecap="round" stroke-linejoin="round"/>
<path d="M15.9073 31.1178C13.4398 32.7628 13.4398 35.4578 15.9073 37.1028C18.7073 38.9753 23.2923 38.9753 26.0923 37.1028C28.5598 35.4578 28.5598 32.7628 26.0923 31.1178C23.3098 29.2628 18.7073 29.2628 15.9073 31.1178Z" stroke="#4783FF" stroke-width="2.625" stroke-linecap="round" stroke-linejoin="round"/>
</svg>
