<svg width="40" height="40" viewBox="0 0 40 40" fill="none" xmlns="http://www.w3.org/2000/svg">
<path d="M37.9141 36.668H37.4974V17.868C37.4974 16.4346 36.8474 15.118 35.7307 14.2513L34.1474 13.0346C34.1474 13.0346 34.1641 12.9513 34.1641 12.9013L34.1141 7.9013C34.1141 7.21797 33.5474 6.66797 32.8641 6.66797H25.9807L24.0641 5.18464C22.3974 3.9013 20.0807 3.9013 18.4307 5.18464L16.8474 6.41797C15.6141 3.61797 12.8307 1.66797 9.58073 1.66797C5.21406 1.66797 1.66406 5.21797 1.66406 9.58464C1.66406 12.3846 3.11406 14.8513 5.31406 16.2513C5.0974 16.768 4.9974 17.318 4.9974 17.868L4.91406 36.668H4.58073C3.8974 36.668 3.33073 37.2346 3.33073 37.918C3.33073 38.6013 3.8974 39.168 4.58073 39.168H37.9141C38.5974 39.168 39.1641 38.6013 39.1641 37.918C39.1641 37.2346 38.5974 36.668 37.9141 36.668ZM31.6307 9.16797V11.0846L29.1974 9.16797H31.6307ZM4.16406 9.58464C4.16406 6.6013 6.5974 4.16797 9.58073 4.16797C12.0307 4.16797 14.1141 5.8013 14.7641 8.03464C14.9141 8.53464 14.9974 9.0513 14.9974 9.58464C14.9974 10.1513 14.9141 10.6846 14.7474 11.2013C14.0807 13.3013 12.1807 14.8513 9.91406 14.9846C9.81406 15.0013 9.6974 15.0013 9.58073 15.0013C8.56406 15.0013 7.61406 14.718 6.7974 14.2346C5.23073 13.2846 4.16406 11.5513 4.16406 9.58464ZM7.4974 17.868C7.4974 17.668 7.53073 17.4513 7.61406 17.2513C8.2474 17.418 8.8974 17.5013 9.58073 17.5013C13.9474 17.5013 17.4974 13.9513 17.4974 9.58464C17.4974 9.41797 17.4974 9.2513 17.4807 9.08463L19.9641 7.1513C20.7141 6.56797 21.7641 6.56797 22.5307 7.1513L24.6307 8.78464C24.6307 8.78464 24.6474 8.8013 24.6641 8.81797C24.7307 8.88463 24.7974 8.93464 24.8641 8.98463L34.1807 16.218C34.6974 16.618 34.9807 17.218 34.9807 17.868V36.668H26.6474V32.0846C26.6474 30.018 24.9641 28.3346 22.8974 28.3346H19.5641C17.4974 28.3346 15.8141 30.018 15.8141 32.0846V36.668H7.41406L7.4974 17.868ZM18.3307 36.668V32.0846C18.3307 31.4013 18.8974 30.8346 19.5807 30.8346H22.9141C23.5974 30.8346 24.1641 31.4013 24.1641 32.0846V36.668H18.3307Z" fill="#FDC871"/>
<path d="M17.082 25.4154C18.682 25.4154 19.9987 24.0987 19.9987 22.4987V19.9987C19.9987 18.3987 18.682 17.082 17.082 17.082H13.7487C12.1487 17.082 10.832 18.3987 10.832 19.9987V22.4987C10.832 24.0987 12.1487 25.4154 13.7487 25.4154H17.082ZM13.332 22.4987V19.9987C13.332 19.7654 13.5154 19.582 13.7487 19.582H17.082C17.3154 19.582 17.4987 19.7654 17.4987 19.9987V22.4987C17.4987 22.732 17.3154 22.9154 17.082 22.9154H13.7487C13.5154 22.9154 13.332 22.732 13.332 22.4987Z" fill="#FDC871"/>
<path d="M25.4167 25.4154H28.75C30.35 25.4154 31.6667 24.0987 31.6667 22.4987V19.9987C31.6667 18.3987 30.35 17.082 28.75 17.082H25.4167C23.8167 17.082 22.5 18.3987 22.5 19.9987V22.4987C22.5 24.0987 23.8167 25.4154 25.4167 25.4154ZM25 19.9987C25 19.7654 25.1833 19.582 25.4167 19.582H28.75C28.9833 19.582 29.1667 19.7654 29.1667 19.9987V22.4987C29.1667 22.732 28.9833 22.9154 28.75 22.9154H25.4167C25.1833 22.9154 25 22.732 25 22.4987V19.9987Z" fill="#FDC871"/>
<path d="M7.18802 11.714C7.58802 12.114 8.12135 12.314 8.65469 12.314C8.92135 12.314 9.17135 12.264 9.42135 12.1807C9.42135 12.164 9.45469 12.164 9.47135 12.164C9.68802 12.064 9.88802 11.9307 10.0714 11.764L10.6214 11.264L13.038 9.03066C13.538 8.56399 13.5714 7.78066 13.1047 7.26399C12.638 6.76399 11.8547 6.73066 11.338 7.19732L8.67135 9.66399L7.87135 8.86399C7.38802 8.38066 6.58802 8.38066 6.10469 8.86399C5.62135 9.34732 5.62135 10.1473 6.10469 10.6307L7.18802 11.714Z" fill="#FDC871"/>
</svg>
