<svg width="60" height="60" viewBox="0 0 60 60" fill="none" xmlns="http://www.w3.org/2000/svg">
<rect width="60" height="60" rx="6" fill="#A0A3BD" fill-opacity="0.15"/>
<path d="M38.0312 13.3359H21.9646C18.4146 13.3359 15.5312 16.2359 15.5312 19.7693V43.2526C15.5312 46.2526 17.6813 47.5193 20.3146 46.0693L28.4479 41.5526C29.3146 41.0693 30.7146 41.0693 31.5646 41.5526L39.6979 46.0693C42.3312 47.5359 44.4813 46.2693 44.4813 43.2526V19.7693C44.4646 16.2359 41.5812 13.3359 38.0312 13.3359Z" stroke="#A0A3BD" stroke-width="3"/>
<path d="M29.9973 27.132C28.2973 27.132 26.5973 26.832 24.9807 26.2486C24.3307 26.0153 23.9973 25.2986 24.2307 24.6486C24.4807 23.9986 25.1973 23.6653 25.8473 23.8986C28.5307 24.8653 31.4807 24.8653 34.164 23.8986C34.814 23.6653 35.5307 23.9986 35.764 24.6486C35.9973 25.2986 35.664 26.0153 35.014 26.2486C33.3973 26.832 31.6973 27.132 29.9973 27.132Z" fill="#A0A3BD"/>
</svg>
