<svg width="23" height="22" viewBox="0 0 23 22" fill="none" xmlns="http://www.w3.org/2000/svg">
<path d="M1.42486 19.2507C1.38823 19.2507 1.3516 19.2441 1.31576 19.2302C1.18421 19.1797 1.10031 19.0449 1.11016 18.8989C1.11803 18.7833 2.03733 7.42055 14.0582 6.44578L14.0299 2.16382C14.0287 2.02937 14.1075 1.90763 14.2272 1.85762C14.3469 1.80761 14.4848 1.83835 14.5738 1.93673L21.19 9.22253C21.3046 9.34878 21.3046 9.54636 21.1904 9.67261L14.5328 17.0236C14.4438 17.1224 14.3056 17.1535 14.1858 17.1031C14.0653 17.0531 13.9869 16.931 13.9881 16.7957L14.0263 12.6224C5.939 13.227 1.72105 19.0576 1.67851 19.117C1.61786 19.2027 1.52293 19.2507 1.42486 19.2507Z" fill="white"/>
</svg>
