<svg width="56" height="56" viewBox="0 0 56 56" fill="none" xmlns="http://www.w3.org/2000/svg">
<path d="M28 44.25C36.9746 44.25 44.25 36.9746 44.25 28C44.25 19.0254 36.9746 11.75 28 11.75C19.0254 11.75 11.75 19.0254 11.75 28C11.75 36.9746 19.0254 44.25 28 44.25Z" fill="#F5C12E"/>
<path d="M28 0.5C27.6685 0.5 27.3505 0.631696 27.1161 0.866116C26.8817 1.10054 26.75 1.41848 26.75 1.75V8C26.75 8.33152 26.8817 8.64946 27.1161 8.88388C27.3505 9.1183 27.6685 9.25 28 9.25C28.3315 9.25 28.6495 9.1183 28.8839 8.88388C29.1183 8.64946 29.25 8.33152 29.25 8V1.75C29.25 1.41848 29.1183 1.10054 28.8839 0.866116C28.6495 0.631696 28.3315 0.5 28 0.5Z" fill="#F9D67A"/>
<path d="M28 46.75C27.6685 46.75 27.3505 46.8817 27.1161 47.1161C26.8817 47.3505 26.75 47.6685 26.75 48V54.25C26.75 54.5815 26.8817 54.8995 27.1161 55.1339C27.3505 55.3683 27.6685 55.5 28 55.5C28.3315 55.5 28.6495 55.3683 28.8839 55.1339C29.1183 54.8995 29.25 54.5815 29.25 54.25V48C29.25 47.6685 29.1183 47.3505 28.8839 47.1161C28.6495 46.8817 28.3315 46.75 28 46.75Z" fill="#F9D67A"/>
<path d="M9.25 28C9.25 27.6685 9.1183 27.3505 8.88388 27.1161C8.64946 26.8817 8.33152 26.75 8 26.75H1.75C1.41848 26.75 1.10054 26.8817 0.866116 27.1161C0.631696 27.3505 0.5 27.6685 0.5 28C0.5 28.3315 0.631696 28.6495 0.866116 28.8839C1.10054 29.1183 1.41848 29.25 1.75 29.25H8C8.33152 29.25 8.64946 29.1183 8.88388 28.8839C9.1183 28.6495 9.25 28.3315 9.25 28Z" fill="#F9D67A"/>
<path d="M54.25 26.75H48C47.6685 26.75 47.3505 26.8817 47.1161 27.1161C46.8817 27.3505 46.75 27.6685 46.75 28C46.75 28.3315 46.8817 28.6495 47.1161 28.8839C47.3505 29.1183 47.6685 29.25 48 29.25H54.25C54.5815 29.25 54.8995 29.1183 55.1339 28.8839C55.3683 28.6495 55.5 28.3315 55.5 28C55.5 27.6685 55.3683 27.3505 55.1339 27.1161C54.8995 26.8817 54.5815 26.75 54.25 26.75Z" fill="#F9D67A"/>
<path d="M42.1369 15.1137C42.3023 15.113 42.4659 15.0795 42.6183 15.0152C42.7706 14.9508 42.9087 14.8568 43.0244 14.7387L47.4494 10.3262C47.566 10.2097 47.6584 10.0713 47.7215 9.91902C47.7846 9.76674 47.817 9.60353 47.817 9.43871C47.817 9.27388 47.7846 9.11067 47.7215 8.9584C47.6584 8.80612 47.566 8.66776 47.4494 8.55121C47.3329 8.43466 47.1945 8.34221 47.0422 8.27913C46.89 8.21606 46.7268 8.18359 46.5619 8.18359C46.3971 8.18359 46.2339 8.21606 46.0816 8.27913C45.9293 8.34221 45.791 8.43466 45.6744 8.55121L41.2619 13.0012C41.0291 13.2354 40.8984 13.5522 40.8984 13.8825C40.8984 14.2127 41.0291 14.5295 41.2619 14.7637C41.4968 14.9901 41.8108 15.1157 42.1369 15.1137Z" fill="#F9D67A"/>
<path d="M12.9994 41.2629L8.54944 45.6754C8.43227 45.7916 8.33928 45.9298 8.27582 46.0821C8.21236 46.2345 8.17969 46.3978 8.17969 46.5629C8.17969 46.7279 8.21236 46.8913 8.27582 47.0436C8.33928 47.1959 8.43227 47.3342 8.54944 47.4504C8.66624 47.5662 8.80476 47.6579 8.95705 47.7201C9.10935 47.7823 9.27243 47.8138 9.43694 47.8129C9.60144 47.8138 9.76452 47.7823 9.91682 47.7201C10.0691 47.6579 10.2076 47.5662 10.3244 47.4504L14.7369 43.0004C14.8885 42.8966 15.0154 42.7608 15.1085 42.6025C15.2016 42.4442 15.2587 42.2673 15.2757 42.0844C15.2927 41.9015 15.2692 41.7171 15.2068 41.5444C15.1445 41.3716 15.0448 41.2147 14.9149 41.0849C14.7851 40.955 14.6282 40.8553 14.4554 40.793C14.2826 40.7306 14.0983 40.7071 13.9154 40.7241C13.7325 40.7411 13.5556 40.7982 13.3973 40.8913C13.239 40.9844 13.1032 41.1113 12.9994 41.2629Z" fill="#F9D67A"/>
<path d="M12.9973 14.7387C13.2315 14.9715 13.5483 15.1022 13.8786 15.1022C14.2088 15.1022 14.5256 14.9715 14.7598 14.7387C14.9926 14.5045 15.1233 14.1877 15.1233 13.8575C15.1233 13.5272 14.9926 13.2104 14.7598 12.9762L10.3223 8.55121C10.2058 8.43466 10.0674 8.34221 9.91511 8.27913C9.76284 8.21606 9.59963 8.18359 9.4348 8.18359C9.26998 8.18359 9.10677 8.21606 8.95449 8.27913C8.80221 8.34221 8.66385 8.43466 8.5473 8.55121C8.43075 8.66776 8.3383 8.80612 8.27523 8.9584C8.21215 9.11067 8.17969 9.27388 8.17969 9.43871C8.17969 9.60353 8.21215 9.76674 8.27523 9.91902C8.3383 10.0713 8.43075 10.2097 8.5473 10.3262L12.9973 14.7387Z" fill="#F9D67A"/>
<path d="M43.0004 41.2629C42.8966 41.1113 42.7608 40.9844 42.6025 40.8913C42.4442 40.7982 42.2673 40.7411 42.0844 40.7241C41.9015 40.7071 41.7171 40.7306 41.5444 40.793C41.3716 40.8553 41.2147 40.955 41.0849 41.0849C40.955 41.2147 40.8553 41.3716 40.793 41.5444C40.7306 41.7171 40.7071 41.9015 40.7241 42.0844C40.7411 42.2673 40.7982 42.4442 40.8913 42.6025C40.9844 42.7608 41.1113 42.8966 41.2629 43.0004L45.6754 47.4254C45.7922 47.5412 45.9307 47.6329 46.083 47.6951C46.2353 47.7573 46.3984 47.7888 46.5629 47.7879C46.7274 47.7888 46.8904 47.7573 47.0427 47.6951C47.195 47.6329 47.3336 47.5412 47.4504 47.4254C47.5675 47.3092 47.6605 47.1709 47.724 47.0186C47.7874 46.8663 47.8201 46.7029 47.8201 46.5379C47.8201 46.3728 47.7874 46.2095 47.724 46.0571C47.6605 45.9048 47.5675 45.7666 47.4504 45.6504L43.0004 41.2629Z" fill="#F9D67A"/>
</svg>
