<svg width="32" height="32" viewBox="0 0 32 32" fill="none" xmlns="http://www.w3.org/2000/svg">
<path d="M16.1622 17.0341C16.0689 17.0208 15.9489 17.0208 15.8422 17.0341C13.4956 16.9541 11.6289 15.0341 11.6289 12.6741C11.6289 10.2608 13.5756 8.30078 16.0022 8.30078C18.4156 8.30078 20.3756 10.2608 20.3756 12.6741C20.3622 15.0341 18.5089 16.9541 16.1622 17.0341Z" stroke="#E95060" stroke-width="2" stroke-linecap="round" stroke-linejoin="round"/>
<path d="M24.9851 25.842C22.6117 28.0154 19.4651 29.3354 15.9984 29.3354C12.5317 29.3354 9.38505 28.0154 7.01172 25.842C7.14505 24.5887 7.94505 23.362 9.37172 22.402C13.0251 19.9754 18.9984 19.9754 22.6251 22.402C24.0517 23.362 24.8517 24.5887 24.9851 25.842Z" stroke="#E95060" stroke-width="2" stroke-linecap="round" stroke-linejoin="round"/>
<path d="M16.0013 29.3346C23.3651 29.3346 29.3346 23.3651 29.3346 16.0013C29.3346 8.63751 23.3651 2.66797 16.0013 2.66797C8.63751 2.66797 2.66797 8.63751 2.66797 16.0013C2.66797 23.3651 8.63751 29.3346 16.0013 29.3346Z" stroke="#E95060" stroke-width="2" stroke-linecap="round" stroke-linejoin="round"/>
</svg>
