<svg width="40" height="40" viewBox="0 0 40 40" fill="none" xmlns="http://www.w3.org/2000/svg">
<path d="M25.4167 25.4193H28.75C30.35 25.4193 31.6667 24.1026 31.6667 22.5026V20.0026C31.6667 18.4026 30.35 17.0859 28.75 17.0859H25.4167C23.8167 17.0859 22.5 18.4026 22.5 20.0026V22.5026C22.5 24.1026 23.8167 25.4193 25.4167 25.4193ZM25 20.0026C25 19.7693 25.1833 19.5859 25.4167 19.5859H28.75C28.9833 19.5859 29.1667 19.7693 29.1667 20.0026V22.5026C29.1667 22.7359 28.9833 22.9193 28.75 22.9193H25.4167C25.1833 22.9193 25 22.7359 25 22.5026V20.0026Z" fill="#4A9D77"/>
<path d="M37.918 36.668H37.5013V17.868C37.5013 16.4346 36.8513 15.118 35.7346 14.2513L34.1513 13.0346C34.1513 13.0346 34.168 12.9513 34.168 12.9013L34.118 7.9013C34.118 7.21797 33.5513 6.66797 32.868 6.66797H25.9846L24.068 5.18464C22.4013 3.9013 20.0846 3.9013 18.4346 5.18464L16.8513 6.41797C15.618 3.61797 12.8346 1.66797 9.58464 1.66797C5.21797 1.66797 1.66797 5.21797 1.66797 9.58464C1.66797 12.3846 3.11797 14.8513 5.31797 16.2513C5.1013 16.768 5.0013 17.318 5.0013 17.868L4.91797 36.668H4.58464C3.9013 36.668 3.33464 37.2346 3.33464 37.918C3.33464 38.6013 3.9013 39.168 4.58464 39.168H37.918C38.6013 39.168 39.168 38.6013 39.168 37.918C39.168 37.2346 38.6013 36.668 37.918 36.668ZM31.6346 9.16797V11.0846L29.2013 9.16797H31.6346ZM4.16797 9.58464C4.16797 6.6013 6.6013 4.16797 9.58464 4.16797C12.0346 4.16797 14.118 5.8013 14.768 8.03464C14.918 8.53464 15.0013 9.0513 15.0013 9.58464C15.0013 10.1513 14.918 10.6846 14.7513 11.2013C14.0846 13.3013 12.1846 14.8513 9.91797 14.9846C9.81797 15.0013 9.7013 15.0013 9.58464 15.0013C8.56797 15.0013 7.61797 14.718 6.8013 14.2346C5.23464 13.2846 4.16797 11.5513 4.16797 9.58464ZM7.5013 17.868C7.5013 17.668 7.53464 17.4513 7.61797 17.2513C8.2513 17.418 8.9013 17.5013 9.58464 17.5013C13.9513 17.5013 17.5013 13.9513 17.5013 9.58464C17.5013 9.41797 17.5013 9.2513 17.4846 9.08463L19.968 7.1513C20.718 6.56797 21.768 6.56797 22.5346 7.1513L24.6346 8.78464C24.6346 8.78464 24.6513 8.8013 24.668 8.81797C24.7346 8.88463 24.8013 8.93464 24.868 8.98463L34.1846 16.218C34.7013 16.618 34.9846 17.218 34.9846 17.868V36.668H26.6513V32.0846C26.6513 30.018 24.968 28.3346 22.9013 28.3346H19.568C17.5013 28.3346 15.818 30.018 15.818 32.0846V36.668H7.41797L7.5013 17.868ZM18.3346 36.668V32.0846C18.3346 31.4013 18.9013 30.8346 19.5846 30.8346H22.918C23.6013 30.8346 24.168 31.4013 24.168 32.0846V36.668H18.3346Z" fill="#4A9D77"/>
<path d="M17.0859 25.4193C18.6859 25.4193 20.0026 24.1026 20.0026 22.5026V20.0026C20.0026 18.4026 18.6859 17.0859 17.0859 17.0859H13.7526C12.1526 17.0859 10.8359 18.4026 10.8359 20.0026V22.5026C10.8359 24.1026 12.1526 25.4193 13.7526 25.4193H17.0859ZM13.3359 22.5026V20.0026C13.3359 19.7693 13.5193 19.5859 13.7526 19.5859H17.0859C17.3193 19.5859 17.5026 19.7693 17.5026 20.0026V22.5026C17.5026 22.7359 17.3193 22.9193 17.0859 22.9193H13.7526C13.5193 22.9193 13.3359 22.7359 13.3359 22.5026Z" fill="#4A9D77"/>
<path d="M6.92396 12.2544C7.17396 12.5044 7.49062 12.6211 7.80729 12.6211C8.12396 12.6211 8.44062 12.5044 8.69062 12.2544L9.60729 11.3378L10.4906 12.2044C10.7406 12.4544 11.0573 12.5711 11.374 12.5711C11.6906 12.5711 12.024 12.4544 12.2573 12.2044C12.7406 11.7211 12.7406 10.9211 12.2573 10.4378L11.3906 9.57109L12.2406 8.72109C12.724 8.23776 12.724 7.43776 12.2406 6.95443C11.7573 6.47109 10.9573 6.47109 10.474 6.95443L9.62396 7.80443L8.74062 6.92109C8.25729 6.43776 7.45729 6.43776 6.97396 6.92109C6.49062 7.40443 6.49062 8.20443 6.97396 8.68776L7.85729 9.57109L6.94063 10.4878C6.45729 10.9711 6.45729 11.7711 6.94063 12.2544H6.92396Z" fill="#4A9D77"/>
</svg>
