<svg width="60" height="60" viewBox="0 0 60 60" fill="none" xmlns="http://www.w3.org/2000/svg">
<rect opacity="0.1" width="60" height="60" rx="8" fill="#6AAD8E"/>
<path d="M39.6792 19.1507V20.384L33.7792 16.9673C31.5458 15.684 28.4292 15.684 26.2125 16.9673L20.3125 20.4007V19.1507C20.3125 15.4007 22.3625 13.334 26.1125 13.334H33.8792C37.6292 13.334 39.6792 15.4007 39.6792 19.1507Z" fill="#4A9D77"/>
<path d="M39.7359 23.2837L39.5026 23.1671L37.2359 21.8671L32.5359 19.1504C31.1026 18.3171 28.9026 18.3171 27.4693 19.1504L22.7693 21.8504L20.5026 23.1837L20.2026 23.3337C17.2859 25.3004 17.0859 25.6671 17.0859 28.8171V36.3504C17.0859 39.5004 17.2859 39.8671 20.2693 41.8837L27.4693 46.0337C28.1859 46.4671 29.0859 46.6504 30.0026 46.6504C30.9026 46.6504 31.8193 46.4504 32.5359 46.0337L39.8026 41.8337C42.7359 39.8671 42.9193 39.5171 42.9193 36.3504V28.8171C42.9193 25.6671 42.7193 25.3004 39.7359 23.2837ZM34.6526 32.5004L33.6359 33.7504C33.4693 33.9337 33.3526 34.2837 33.3693 34.5337L33.4693 36.1337C33.5359 37.1171 32.8359 37.6171 31.9193 37.2671L30.4359 36.6671C30.2026 36.5837 29.8193 36.5837 29.5859 36.6671L28.1026 37.2504C27.1859 37.6171 26.4859 37.1004 26.5526 36.1171L26.6526 34.5171C26.6693 34.2671 26.5526 33.9171 26.3859 33.7337L25.3526 32.5004C24.7193 31.7504 25.0026 30.9171 25.9526 30.6671L27.5026 30.2671C27.7526 30.2004 28.0359 29.9671 28.1693 29.7671L29.0359 28.4337C29.5693 27.6004 30.4193 27.6004 30.9693 28.4337L31.8359 29.7671C31.9693 29.9837 32.2693 30.2004 32.5026 30.2671L34.0526 30.6671C35.0026 30.9171 35.2859 31.7504 34.6526 32.5004Z" fill="#4A9D77"/>
</svg>
