<svg width="60" height="60" viewBox="0 0 60 60" fill="none" xmlns="http://www.w3.org/2000/svg">
<rect opacity="0.1" width="60" height="60" rx="8" fill="#FFC15D"/>
<path d="M48.1338 13.1342L44.3838 16.8842C44.1494 17.1186 43.8314 17.2504 43.5 17.2504H39.0176L30.6338 25.6342C30.3896 25.8783 30.0698 26.0004 29.75 26.0004C29.4302 26.0004 29.1104 25.8783 28.8662 25.6342C28.3779 25.1459 28.3779 24.3549 28.8662 23.8666L37.25 15.4828V11.0004C37.25 10.669 37.3818 10.351 37.6162 10.1166L41.3662 6.36662C41.7245 6.00834 42.2604 5.90153 42.7285 6.09562C43.1954 6.28911 43.5 6.74504 43.5 7.25041V11.0004H47.25C47.7554 11.0004 48.2113 11.305 48.4048 11.7719C48.5983 12.2394 48.4915 12.7765 48.1338 13.1342ZM37.9873 21.8128L32.4001 27.4006C31.6873 28.1128 30.7498 28.5004 29.75 28.5004C28.7502 28.5004 27.8127 28.1128 27.0999 27.4006C25.6375 25.9382 25.6375 23.5627 27.0999 22.1003L32.6876 16.5131C31.7751 16.1756 30.7876 16.0004 29.75 16.0004C24.9252 16.0004 21 19.9256 21 24.7504C21 29.5752 24.9252 33.5004 29.75 33.5004C34.5748 33.5004 38.5 29.5752 38.5 24.7504C38.5 23.7128 38.3248 22.7253 37.9873 21.8128ZM48.5 24.7504C48.5 35.0879 40.0875 43.5004 29.75 43.5004C19.4125 43.5004 11 35.0879 11 24.7504C11 14.4129 19.4125 6.00041 29.75 6.00041C32.1877 6.00041 34.5748 6.47526 36.8002 7.40056L35.8499 8.35026C35.1376 9.06315 34.75 10.0007 34.75 11.0004V14.4501L34.5999 14.6003C33.1252 13.9002 31.4877 13.5004 29.75 13.5004C23.55 13.5004 18.5 18.5505 18.5 24.7504C18.5 30.9504 23.55 36.0004 29.75 36.0004C35.95 36.0004 41 30.9504 41 24.7504C41 23.0127 40.6002 21.3752 39.9001 19.9006L40.0503 19.7504H43.5C44.4998 19.7504 45.4373 19.3628 46.1501 18.6506L47.0999 17.7002C48.0251 19.9256 48.5 22.3127 48.5 24.7504Z" fill="#FFC15D"/>
</svg>
