<svg width="24" height="24" viewBox="0 0 24 24" fill="none" xmlns="http://www.w3.org/2000/svg">
<path d="M15.4778 2H7.52781C4.06781 2 2.00781 4.05999 2.00781 7.51999V15.47C2.00781 18.93 4.07781 20.99 7.52781 20.99H15.4778C18.9378 20.99 20.9978 18.93 20.9978 15.47V7.51999C20.9978 4.05999 18.9278 2 15.4778 2Z" fill="white"/>
<path d="M21.9577 18.8385L20.3277 19.3885C19.8777 19.5385 19.5177 19.8885 19.3677 20.3485L18.8177 21.9785C18.3477 23.3885 16.3677 23.3585 15.9277 21.9485L14.0777 15.9985C13.7177 14.8185 14.8077 13.7185 15.9777 14.0885L21.9377 15.9385C23.3377 16.3785 23.3577 18.3685 21.9577 18.8385Z" fill="#8686A3"/>
</svg>
