<svg width="24" height="24" viewBox="0 0 24 24" fill="none" xmlns="http://www.w3.org/2000/svg">
<path d="M3.9928 14.6584L2.47281 13.1385C1.85281 12.5185 1.85281 11.4985 2.47281 10.8785L3.9928 9.35843C4.2528 9.09843 4.4628 8.58843 4.4628 8.22843V6.07846C4.4628 5.19846 5.18281 4.47843 6.06281 4.47843H8.2128C8.5728 4.47843 9.08281 4.26846 9.34281 4.00846L10.8628 2.48844C11.4828 1.86844 12.5028 1.86844 13.1228 2.48844L14.6428 4.00846C14.9028 4.26846 15.4128 4.47843 15.7728 4.47843H17.9228C18.8028 4.47843 19.5228 5.19846 19.5228 6.07846V8.22843C19.5228 8.58843 19.7328 9.09843 19.9928 9.35843L21.5128 10.8785C22.1328 11.4985 22.1328 12.5185 21.5128 13.1385L19.9928 14.6584C19.7328 14.9184 19.5228 15.4284 19.5228 15.7884V17.9384C19.5228 18.8184 18.8028 19.5384 17.9228 19.5384H15.7728C15.4128 19.5384 14.9028 19.7485 14.6428 20.0085L13.1228 21.5285C12.5028 22.1485 11.4828 22.1485 10.8628 21.5285L9.34281 20.0085C9.08281 19.7485 8.5728 19.5384 8.2128 19.5384H6.06281C5.18281 19.5384 4.4628 18.8184 4.4628 17.9384V15.7884C4.4628 15.4184 4.2528 14.9084 3.9928 14.6584Z" fill="white"/>
<path d="M15.0022 16C14.4422 16 13.9922 15.55 13.9922 15C13.9922 14.45 14.4422 14 14.9922 14C15.5422 14 15.9922 14.45 15.9922 15C15.9922 15.55 15.5522 16 15.0022 16Z" fill="#8686A3"/>
<path d="M9.01001 10C8.45001 10 8 9.55 8 9C8 8.45 8.45 8 9 8C9.55 8 10 8.45 10 9C10 9.55 9.56001 10 9.01001 10Z" fill="#8686A3"/>
<path d="M8.9975 15.7514C8.8075 15.7514 8.6175 15.6815 8.4675 15.5315C8.1775 15.2415 8.1775 14.7614 8.4675 14.4714L14.4675 8.47141C14.7575 8.18141 15.2375 8.18141 15.5275 8.47141C15.8175 8.76141 15.8175 9.24146 15.5275 9.53146L9.5275 15.5315C9.3775 15.6815 9.1875 15.7514 8.9975 15.7514Z" fill="#8686A3"/>
</svg>
