<svg width="24" height="24" viewBox="0 0 24 24" fill="none" xmlns="http://www.w3.org/2000/svg">
<path d="M19.5998 12.6044H21.5659V11.2028C21.5659 9.18794 19.921 7.54297 17.9061 7.54297H6.73207C4.71723 7.54297 3.07227 9.18794 3.07227 11.2028V15.4563C3.74388 14.921 4.59069 14.5998 5.50564 14.5998C7.65675 14.5998 9.39905 16.3421 9.39905 18.4932C9.39905 19.2232 9.19464 19.9143 8.8345 20.4983C8.6301 20.8487 8.36729 21.1601 8.06555 21.4132H17.9061C19.921 21.4132 21.5659 19.7682 21.5659 17.7534V16.5951H19.7166C18.6653 16.5951 17.7017 15.8262 17.6141 14.775C17.5557 14.1617 17.7893 13.5875 18.1981 13.1884C18.5583 12.8185 19.0547 12.6044 19.5998 12.6044Z" fill="white"/>
<path d="M15.0931 3.84429V7.54301H6.73207C4.71723 7.54301 3.07227 9.18799 3.07227 11.2028V7.63064C3.07227 6.47235 3.78281 5.44056 4.86323 5.03175L12.5916 2.1117C13.7986 1.66396 15.0931 2.54974 15.0931 3.84429Z" fill="#8686A3"/>
<path d="M22.5999 13.5982V15.6034C22.5999 16.1387 22.1716 16.5767 21.6265 16.5962H19.7187C18.6675 16.5962 17.7039 15.8272 17.6163 14.776C17.5579 14.1628 17.7915 13.5885 18.2003 13.1895C18.5605 12.8196 19.0569 12.6055 19.6019 12.6055H21.6265C22.1716 12.6249 22.5999 13.0629 22.5999 13.5982Z" fill="#8686A3"/>
<path d="M14.2661 12.4112H7.45267C7.0536 12.4112 6.72266 12.0803 6.72266 11.6812C6.72266 11.2821 7.0536 10.9512 7.45267 10.9512H14.2661C14.6652 10.9512 14.9961 11.2821 14.9961 11.6812C14.9961 12.0803 14.6652 12.4112 14.2661 12.4112Z" fill="#8686A3"/>
<path d="M8.25891 15.7413C7.61194 15.0944 6.78603 14.7227 5.93258 14.6264C4.79695 14.4956 3.62002 14.8741 2.75281 15.7413C2.23661 16.2575 1.89248 16.8907 1.73418 17.5583C1.4107 18.8316 1.74794 20.2426 2.75281 21.2474C3.44795 21.9426 4.33581 22.3211 5.2512 22.3693C5.64351 22.4037 6.04959 22.3693 6.4419 22.2661C7.10951 22.1078 7.74271 21.7636 8.25891 21.2474C9.77997 19.7264 9.77997 17.2624 8.25891 15.7413ZM4.79005 17.0353C4.79005 16.6361 5.12041 16.3057 5.51961 16.3057C5.92568 16.3126 6.24917 16.6361 6.25605 17.0422L6.24919 17.7648L6.94434 17.7579C7.35042 17.7648 7.6739 18.0883 7.68078 18.4944C7.6739 18.9005 7.35041 19.2239 6.94434 19.2308L6.24919 19.2239L6.25606 19.9466C6.24918 20.3527 5.92569 20.6762 5.51961 20.6831C5.32002 20.6762 5.14109 20.5936 5.01033 20.4628C4.87955 20.332 4.79694 20.1531 4.79005 19.9535L4.79008 19.2239L4.03299 19.2239C3.82651 19.2239 3.64754 19.1414 3.51677 19.0106C3.386 18.8798 3.30344 18.7008 3.30344 18.4944C3.30344 18.0952 3.6338 17.7648 4.03299 17.7648L4.79007 17.7648L4.79005 17.0353Z" fill="#8686A3"/>
</svg>
