<svg width="24" height="24" viewBox="0 0 24 24" fill="none" xmlns="http://www.w3.org/2000/svg">
<path d="M19.78 16.5495C19.12 16.5495 18.52 16.7495 18.01 17.0895L16.54 15.6195C16.94 15.1195 17.25 14.5595 17.47 13.9495C17.57 13.6595 17.66 13.3595 17.71 13.0495C17.71 13.0195 17.71 12.9795 17.73 12.9495C17.78 12.6395 17.81 12.3295 17.81 12.0095C17.81 11.6895 17.78 11.3595 17.72 11.0495C17.72 11.0295 17.72 11.0095 17.72 10.9895C17.55 10.0195 17.14 9.12953 16.54 8.38953L18.01 6.91953C18.52 7.25953 19.13 7.45953 19.78 7.45953C21.56 7.45953 23 6.00953 23 4.23953C23 2.46953 21.55 1.01953 19.78 1.01953C18.01 1.01953 16.56 2.46953 16.56 4.23953C16.56 4.89953 16.76 5.49953 17.1 6.00953L15.63 7.47953C14.89 6.88953 14 6.47953 13.03 6.29953C13.01 6.29953 12.99 6.29953 12.97 6.29953C12.66 6.24953 12.34 6.20953 12.01 6.20953C11.68 6.20953 11.36 6.23953 11.05 6.29953C11.03 6.29953 11.01 6.29953 10.99 6.29953C10.02 6.46953 9.13 6.87953 8.39 7.47953L6.92 6.00953C7.26 5.49953 7.46 4.88953 7.46 4.23953C7.46 2.45953 6.01 1.01953 4.24 1.01953C2.47 1.01953 1 2.44953 1 4.21953C1 5.98953 2.45 7.43953 4.22 7.43953C4.88 7.43953 5.48 7.23953 5.99 6.89953L7.46 8.36953C6.87 9.10953 6.46 9.99953 6.28 10.9695C6.28 10.9895 6.28 11.0095 6.28 11.0295C6.23 11.3395 6.19 11.6595 6.19 11.9895C6.19 12.3195 6.22 12.6195 6.27 12.9295C6.27 12.9595 6.27 12.9995 6.29 13.0295C6.35 13.3395 6.43 13.6395 6.53 13.9295C6.75 14.5395 7.06 15.0995 7.46 15.5995L5.99 17.0695C5.48 16.7295 4.87 16.5295 4.22 16.5295C2.44 16.5295 1 17.9795 1 19.7495C1 21.5195 2.45 22.9695 4.22 22.9695C5.99 22.9695 7.44 21.5195 7.44 19.7495C7.44 19.0895 7.24 18.4895 6.9 17.9795L8.37 16.5095C9.36 17.2995 10.62 17.7795 11.99 17.7795C13.36 17.7795 14.62 17.2995 15.61 16.5095L17.08 17.9795C16.74 18.4895 16.54 19.0995 16.54 19.7495C16.54 21.5295 17.99 22.9695 19.76 22.9695C21.53 22.9695 22.98 21.5195 22.98 19.7495C22.98 17.9795 21.53 16.5295 19.76 16.5295L19.78 16.5495Z" fill="white"/>
<path d="M11.9422 11.7598C11.9422 11.7598 12.0222 11.7598 12.0422 11.7598H12.0722C13.2822 11.7198 14.2322 10.7298 14.2422 9.50977C14.2422 8.26977 13.2322 7.25977 11.9922 7.25977C10.7522 7.25977 9.74219 8.26977 9.74219 9.50977C9.74219 10.7498 10.6922 11.7098 11.9322 11.7598H11.9422Z" fill="#8686A3"/>
<path d="M14.4119 13.0194C13.0919 12.1394 10.9319 12.1394 9.60188 13.0194C9.00188 13.4194 8.67188 13.9694 8.67188 14.5494C8.67188 15.1294 9.00188 15.6694 9.60188 16.0694C10.2619 16.5194 11.1319 16.7394 12.0119 16.7394C12.8919 16.7394 13.7519 16.5194 14.4219 16.0694C15.0219 15.6694 15.3519 15.1294 15.3519 14.5394C15.3519 13.9594 15.0219 13.4194 14.4219 13.0194H14.4119Z" fill="#8686A3"/>
</svg>
