<svg width="24" height="24" viewBox="0 0 24 24" fill="none" xmlns="http://www.w3.org/2000/svg">
<path d="M19.987 12.6069H21.957V11.2069C21.957 9.19687 20.317 7.54688 18.297 7.54688H7.11703C5.10703 7.54688 3.45703 9.18687 3.45703 11.2069V15.4569C4.12703 14.9169 4.97703 14.5969 5.88703 14.5969C8.03703 14.5969 9.77703 16.3369 9.77703 18.4869C9.77703 19.2169 9.57703 19.9069 9.21703 20.4969C9.01703 20.8469 8.74703 21.1569 8.44703 21.4069H18.287C20.297 21.4069 21.947 19.7569 21.947 17.7469V16.5869H20.097C19.047 16.5869 18.087 15.8169 17.997 14.7669C17.937 14.1569 18.177 13.5769 18.577 13.1769C18.937 12.8069 19.437 12.5969 19.977 12.5969L19.987 12.6069Z" fill="white"/>
<path d="M15.477 3.84824V7.54824H7.11703C5.10703 7.54824 3.45703 9.18824 3.45703 11.2082V7.63824C3.45703 6.47824 4.16703 5.44824 5.24703 5.03824L12.977 2.11824C14.187 1.66824 15.477 2.55824 15.477 3.84824Z" fill="#8686A3"/>
<path d="M22.9852 13.5994V15.6094C22.9852 16.1494 22.5552 16.5794 22.0152 16.5994H20.1052C19.0552 16.5994 18.0952 15.8294 18.0052 14.7794C17.9452 14.1694 18.1852 13.5894 18.5852 13.1894C18.9452 12.8194 19.4452 12.6094 19.9852 12.6094H22.0052C22.5552 12.6294 22.9752 13.0694 22.9752 13.5994H22.9852Z" fill="#8686A3"/>
<path d="M14.6455 12.417H7.83547C7.43547 12.417 7.10547 12.087 7.10547 11.687C7.10547 11.287 7.43547 10.957 7.83547 10.957H14.6455C15.0455 10.957 15.3755 11.287 15.3755 11.687C15.3755 12.087 15.0455 12.417 14.6455 12.417Z" fill="#8686A3"/>
<path d="M9.61027 17.3394C9.58027 17.2194 9.53027 17.0994 9.48027 16.9894C9.29027 16.5394 9.02027 16.1194 8.65027 15.7494C8.40027 15.4994 8.13027 15.2994 7.84027 15.1394C7.76027 15.0794 7.67027 15.0294 7.57027 14.9994C7.35027 14.8794 7.12027 14.7994 6.88027 14.7394C6.69027 14.6894 6.51027 14.6594 6.32027 14.6394C6.18027 14.6194 6.04027 14.6094 5.90027 14.6094H5.86027C5.74027 14.6094 5.63027 14.6194 5.51027 14.6294C5.41027 14.6394 5.31027 14.6494 5.22027 14.6694C5.12027 14.6894 5.01027 14.7094 4.90027 14.7394C4.79027 14.7694 4.69027 14.7994 4.59027 14.8394C4.48027 14.8694 4.38027 14.9194 4.28027 14.9594C4.17027 15.0094 4.06027 15.0594 3.96027 15.1294C3.88027 15.1694 3.80027 15.2194 3.72027 15.2794C3.63027 15.3294 3.54027 15.3994 3.46027 15.4694C3.35027 15.5494 3.24027 15.6494 3.14027 15.7494C2.63027 16.2694 2.28027 16.8994 2.12027 17.5694C1.80027 18.8394 2.14027 20.2494 3.14027 21.2594C3.84027 21.9494 4.73027 22.3294 5.64027 22.3794C6.03027 22.4094 6.44027 22.3794 6.83027 22.2794C7.42027 22.1394 7.98027 21.8494 8.46027 21.4194C8.53027 21.3794 8.59027 21.3194 8.65027 21.2594C8.66027 21.2494 8.68027 21.2294 8.68027 21.2194C8.76027 21.1494 8.82027 21.0794 8.88027 20.9994C8.94027 20.9294 9.00027 20.8494 9.06027 20.7594C9.12027 20.6794 9.17027 20.5994 9.22027 20.5094C9.24027 20.4794 9.25027 20.4494 9.27027 20.4094C9.43027 20.1394 9.56027 19.8594 9.64027 19.5594C9.69027 19.3994 9.72027 19.2294 9.75027 19.0594C9.75027 19.0394 9.76027 19.0294 9.75027 19.0094C9.78027 18.8494 9.79027 18.6794 9.79027 18.5094C9.79027 18.1094 9.73027 17.7194 9.61027 17.3394ZM7.85027 18.9394C7.85027 19.2794 7.57027 19.5694 7.23027 19.5694C6.89027 19.5694 6.61027 19.2794 6.61027 18.9394V18.6894L5.02027 20.2694C4.78027 20.5194 4.38027 20.5194 4.13027 20.2694C3.89027 20.0194 3.89027 19.6294 4.13027 19.3794L5.72027 17.7994H5.46027C5.29027 17.7994 5.14027 17.7294 5.02027 17.6094C4.91027 17.4994 4.84027 17.3394 4.84027 17.1794C4.83027 16.8294 5.12027 16.5494 5.46027 16.5494H7.24027C7.32027 16.5494 7.39027 16.5694 7.46027 16.5994H7.47027C7.54027 16.6394 7.59027 16.6694 7.64027 16.7194L7.68027 16.7694C7.73027 16.8094 7.75027 16.8494 7.77027 16.8994C7.78027 16.9194 7.80027 16.9294 7.80027 16.9594C7.83027 17.0294 7.85027 17.0994 7.85027 17.1794V18.9394Z" fill="#8686A3"/>
</svg>
