<svg width="24" height="24" viewBox="0 0 24 24" fill="none" xmlns="http://www.w3.org/2000/svg">
<path d="M16.19 2H7.81C4.17 2 2 4.17 2 7.81V16.18C2 19.83 4.17 22 7.81 22H16.18C19.82 22 21.99 19.83 21.99 16.19V7.81C22 4.17 19.83 2 16.19 2Z" fill="white"/>
<path d="M7.32816 15.24C7.16816 15.24 7.00816 15.19 6.86816 15.08C6.53816 14.83 6.47816 14.36 6.72816 14.03L9.10816 10.94C9.39816 10.57 9.80816 10.33 10.2782 10.27C10.7382 10.21 11.2082 10.34 11.5782 10.63L13.4082 12.07C13.4782 12.13 13.5482 12.13 13.5982 12.12C13.6382 12.12 13.7082 12.1 13.7682 12.02L16.0782 9.04001C16.3282 8.71001 16.8082 8.65001 17.1282 8.91001C17.4582 9.16001 17.5182 9.63001 17.2582 9.96001L14.9482 12.94C14.6582 13.31 14.2482 13.55 13.7782 13.6C13.3082 13.66 12.8482 13.53 12.4782 13.24L10.6482 11.8C10.5782 11.74 10.4982 11.74 10.4582 11.75C10.4182 11.75 10.3482 11.77 10.2882 11.85L7.90816 14.94C7.77816 15.14 7.55816 15.24 7.32816 15.24Z" fill="#8686A3"/>
</svg>
