<svg width="24" height="24" viewBox="0 0 24 24" fill="none" xmlns="http://www.w3.org/2000/svg">
<path d="M10.6159 1.48663C11.3746 0.837791 12.6171 0.837791 13.3868 1.48663L15.1242 2.98224C15.4541 3.26817 16.0698 3.49914 16.5097 3.49914H18.379C19.5445 3.49914 20.5012 4.4559 20.5012 5.62161V7.49109C20.5012 7.91998 20.7321 8.54683 21.018 8.87675L22.5134 10.6143C23.1622 11.3731 23.1622 12.6159 22.5134 13.3857L21.018 15.1232C20.7321 15.4531 20.5012 16.069 20.5012 16.5088V18.3784C20.5012 19.5441 19.5445 20.5009 18.379 20.5009H16.5097C16.0808 20.5009 15.4541 20.7318 15.1242 21.0178L13.3868 22.5134C12.6281 23.1622 11.3856 23.1622 10.6159 22.5134L8.87856 21.0178C8.54868 20.7318 7.9329 20.5009 7.49306 20.5009H5.59077C4.4252 20.5009 3.46857 19.5441 3.46857 18.3784V16.4978C3.46857 16.0689 3.23767 15.4531 2.96277 15.1232L1.47832 13.3747C0.84056 12.6158 0.84056 11.3842 1.47832 10.6253L2.96277 8.87675C3.23767 8.54683 3.46857 7.93099 3.46857 7.50209V5.62161C3.46857 4.4559 4.4252 3.49914 5.59077 3.49914H7.49306C7.9219 3.49914 8.54868 3.26817 8.87856 2.98224L10.6159 1.48663Z" fill="white"/>
<path d="M16.8222 11.0003C16.6226 10.7079 16.2865 10.5455 15.8873 10.5455H13.8388C13.7022 10.5455 13.5762 10.4913 13.4921 10.383C13.4081 10.2747 13.3661 10.1339 13.3871 9.98228L13.6392 8.29283C13.7442 7.79465 13.4186 7.22066 12.9354 7.05821C12.4836 6.88493 11.9479 7.12317 11.7378 7.44807L9.69978 10.5671V10.1772C9.69978 9.41912 9.38465 9.10507 8.60727 9.10507H8.0925C7.31513 9.10507 7 9.41912 7 10.1772V15.3539C7 16.112 7.31513 16.4261 8.0925 16.4261H8.60727C9.34263 16.4261 9.65778 16.1336 9.6893 15.4405L11.2335 16.6643C11.4436 16.8809 11.9164 17 12.2525 17H14.1959C14.8683 17 15.5406 16.4802 15.6877 15.8412L16.9168 11.9858C17.0534 11.6392 17.0218 11.2819 16.8222 11.0003Z" fill="#8686A3"/>
</svg>
