<svg width="24" height="24" viewBox="0 0 24 24" fill="none" xmlns="http://www.w3.org/2000/svg">
<path d="M13.2495 20.0382C14.0099 20.0382 14.6263 20.6546 14.6263 21.415C14.6263 22.1754 14.0099 22.7918 13.2495 22.7918H11.5635C10.8031 22.7918 10.1867 22.1754 10.1867 21.415C10.1867 21.0499 10.3318 20.6997 10.59 20.4414C10.8482 20.1832 11.1984 20.0382 11.5635 20.0382H13.2495Z" fill="#8686A3"/>
<path d="M6.15934 19.8836C5.68415 19.4084 5.34396 18.8234 5.16346 18.1882C5.11316 18.0112 4.93471 17.8855 4.7507 17.8842C4.51256 17.8824 4.33685 18.0914 4.39798 18.3215C4.60804 19.1125 5.02377 19.8418 5.61242 20.4305C6.49042 21.3085 7.68127 21.8017 8.92296 21.8017H9.05915C9.26159 21.8017 9.41324 21.6174 9.41324 21.415C9.41324 21.2126 9.26187 21.0283 9.05946 21.0283H8.92296C7.88641 21.0283 6.89231 20.6165 6.15934 19.8836Z" fill="#8686A3"/>
<path d="M1.8786 16.2055C2.32217 16.6491 2.8904 16.9394 3.50104 17.0423C3.66479 17.07 4.58893 17.2195 5.18483 17.0128C5.40131 16.9031 5.54969 16.6785 5.54969 16.4194V9.88336C5.54969 6.32086 8.43766 3.43288 12.0002 3.43288C15.5627 3.43288 18.4507 6.32086 18.4507 9.88336V16.4194C18.4507 16.7864 18.7483 17.0841 19.1154 17.0841H20.0006C20.7962 17.0841 21.5592 16.7681 22.1217 16.2055C22.6843 15.6429 23.0003 14.8799 23.0003 14.0843V12.2563C23.0003 11.4607 22.6843 10.6977 22.1217 10.1351C21.5592 9.57257 20.7962 9.25648 20.0006 9.25648H19.8009C19.4817 5.22784 16.1111 2.05786 12.0002 2.05786C7.8892 2.05786 4.51859 5.22784 4.19942 9.25648H3.99974C3.20416 9.25648 2.44115 9.57257 1.8786 10.1351C1.31604 10.6977 1 11.4607 1 12.2563V14.0843C1 14.8799 1.31604 15.6429 1.8786 16.2055Z" fill="white"/>
</svg>
