<svg width="100" height="100" viewBox="0 0 100 100" fill="none" xmlns="http://www.w3.org/2000/svg">
<path d="M66.1828 0L87.0859 20.9031V100H11.5703V0H66.1828Z" fill="#E2E2E2"/>
<path d="M87.0859 20.9031H66.1797V0L87.0859 20.9031Z" fill="#999999"/>
<path d="M79.5953 82.5969H4.30469V57.2281H95.6953L79.5953 82.5969Z" fill="#09A1DA"/>
<path d="M11.5703 89.8594V82.5969H4.30469L11.5703 89.8594Z" fill="#999999"/>
<path d="M25.1891 77.2375V62.6562H32.3578C34.3922 62.6562 35.8172 63.1031 36.6328 63.9938C37.4516 64.8844 37.8578 66.4438 37.8578 68.6719C37.8578 72.3094 37.5328 74.6469 36.8766 75.6844C36.2234 76.7188 34.7422 77.2375 32.4453 77.2375H25.1891ZM27.9547 74.9094H31.8953C33.2203 74.9094 34.0766 74.6031 34.4641 73.9969C34.8516 73.3875 35.0484 72.0438 35.0484 69.9625C35.0484 67.8125 34.8734 66.4469 34.5234 65.8625C34.1766 65.2781 33.3578 64.9906 32.0672 64.9906H27.9578V74.9094H27.9547Z" fill="white"/>
<path d="M45.9297 62.5281C48.5797 62.5281 50.2859 62.9718 51.0484 63.8499C51.8078 64.7281 52.1891 66.6968 52.1891 69.7499C52.1891 73.0906 51.8078 75.1937 51.0422 76.0656C50.2766 76.9374 48.4234 77.3687 45.4828 77.3687C42.8328 77.3687 41.1203 76.9375 40.3453 76.0812C39.5672 75.225 39.1797 73.3343 39.1797 70.4187C39.1797 66.9437 39.5609 64.7593 40.3234 63.8687C41.0828 62.9718 42.9547 62.5281 45.9297 62.5281ZM45.7172 64.9031C43.8578 64.9031 42.7734 65.1406 42.4609 65.6187C42.1453 66.0937 41.9922 67.7499 41.9922 70.5749C41.9922 72.6687 42.1766 73.9281 42.5422 74.3562C42.9078 74.7843 43.9891 74.9968 45.7828 74.9968C47.5016 74.9968 48.5297 74.7562 48.8703 74.2781C49.2109 73.7968 49.3828 72.3406 49.3828 69.9062C49.3828 67.4625 49.2203 66.0187 48.8984 65.5718C48.5703 65.1218 47.5109 64.9031 45.7172 64.9031Z" fill="white"/>
<path d="M63.0609 72.0374H65.8391V72.5374C65.8391 74.5656 65.4734 75.8781 64.7297 76.4749C63.9922 77.0687 62.3547 77.3656 59.8172 77.3656C56.9453 77.3656 55.1766 76.8968 54.5141 75.9562C53.8516 75.0156 53.5203 72.5031 53.5203 68.4156C53.5203 66.0062 53.9703 64.4281 54.8672 63.6656C55.7641 62.9093 57.6422 62.5281 60.4984 62.5281C62.5734 62.5281 63.9641 62.8437 64.6609 63.4656C65.3641 64.0874 65.7109 65.3249 65.7109 67.1781L65.7172 67.5093H62.9391V67.1343C62.9391 66.1781 62.7609 65.5687 62.4016 65.3031C62.0422 65.0343 61.2234 64.9031 59.9422 64.9031C58.2234 64.9031 57.1953 65.1093 56.8516 65.5312C56.5047 65.9531 56.3328 67.1968 56.3328 69.2687C56.3328 72.0624 56.4891 73.7125 56.7953 74.225C57.1078 74.7375 58.1047 74.9937 59.8016 74.9937C61.1734 74.9937 62.0672 74.8499 62.4734 74.5656C62.8797 74.2812 63.0891 73.6531 63.0891 72.6843L63.0609 72.0374Z" fill="white"/>
</svg>
