<svg width="32" height="32" viewBox="0 0 32 32" fill="none" xmlns="http://www.w3.org/2000/svg">
<path d="M19.5217 0C20.5825 0 21.5999 0.421427 22.3501 1.17157L26.6959 5.51743C27.4461 6.26757 27.8675 7.28499 27.8675 8.34585V28C27.8675 30.2091 26.0767 32 23.8675 32H7.70252C5.49338 32 3.70251 30.2091 3.70251 28V4C3.70251 1.79086 5.49338 0 7.70251 0H19.5217Z" fill="#E2E2E2"/>
<path d="M27.8675 6.689H25.1775C22.9684 6.689 21.1775 4.89814 21.1775 2.689V0L27.8675 6.689Z" fill="#999999"/>
<path d="M26.0596 25.5027C25.6927 26.0807 25.0556 26.431 24.371 26.431H1.37744V20.313C1.37744 19.2084 2.27287 18.313 3.37744 18.313H26.9844C28.5615 18.313 29.5181 20.0531 28.673 21.3847L26.0596 25.5027Z" fill="#E94E5D"/>
<path d="M3.70244 28.755V26.431H1.37744L3.70244 28.755Z" fill="#999999"/>
<path d="M9.06055 24.716V20.05H10.9405H11.1725C11.8035 20.05 12.2295 20.16 12.4485 20.38C12.6685 20.6 12.7785 21.025 12.7785 21.653C12.7785 22.277 12.6735 22.692 12.4645 22.897C12.2555 23.102 11.8315 23.205 11.1935 23.205L10.9885 23.208H9.94655V24.716H9.06055ZM9.94555 22.4641H10.9535C11.3545 22.4641 11.6095 22.4171 11.7175 22.3251C11.8255 22.2321 11.8805 22.014 11.8805 21.671C11.8805 21.276 11.8355 21.032 11.7455 20.938C11.6555 20.843 11.4215 20.796 11.0435 20.796H9.94655V22.4641H9.94555Z" fill="white"/>
<path d="M13.3435 24.716V20.05H15.6365C16.2885 20.05 16.7445 20.1931 17.0055 20.4781C17.2665 20.7631 17.3975 21.262 17.3975 21.975C17.3975 23.1391 17.2925 23.887 17.0835 24.219C16.8735 24.55 16.4005 24.716 15.6645 24.716H13.3435ZM14.2285 23.9711H15.4895C15.9135 23.9711 16.1865 23.8731 16.3115 23.6791C16.4355 23.4841 16.4975 23.054 16.4975 22.3881C16.4975 21.7001 16.4415 21.263 16.3305 21.076C16.2185 20.889 15.9565 20.7971 15.5445 20.7971H14.2285V23.9711Z" fill="white"/>
<path d="M18.9286 20.796V22.0541H21.0196V22.798H18.9286V24.716H18.0426V20.05H21.1326V20.796H18.9286Z" fill="white"/>
</svg>
