<svg width="100" height="100" viewBox="0 0 100 100" fill="none" xmlns="http://www.w3.org/2000/svg">
<path d="M64.526 0C65.5868 0 66.6042 0.421427 67.3544 1.17157L85.9144 19.7316C86.6645 20.4817 87.0859 21.4991 87.0859 22.56V96C87.0859 98.2091 85.2951 100 83.0859 100H15.5703C13.3612 100 11.5703 98.2091 11.5703 96V4C11.5703 1.79086 13.3612 0 15.5703 0H64.526Z" fill="#E2E2E2"/>
<path d="M87.0859 20.9031H70.1797C67.9705 20.9031 66.1797 19.1123 66.1797 16.9031V0L87.0859 20.9031Z" fill="#999999"/>
<path d="M80.1845 81.6686C79.8176 82.2467 79.1805 82.5969 78.4958 82.5969H4.30469V59.2281C4.30469 58.1236 5.20012 57.2281 6.30469 57.2281H92.0573C93.6343 57.2281 94.591 58.9683 93.7459 60.2998L80.1845 81.6686Z" fill="#E94E5D"/>
<path d="M11.5703 89.8594V82.5969H4.30469L11.5703 89.8594Z" fill="#999999"/>
<path d="M28.3145 77.2375V62.6562H34.1895H34.9145C36.8863 62.6562 38.2176 63 38.902 63.6875C39.5895 64.375 39.9332 65.7031 39.9332 67.6656C39.9332 69.6156 39.6051 70.9125 38.952 71.5531C38.2988 72.1938 36.9738 72.5156 34.9801 72.5156L34.3395 72.525H31.0832V77.2375H28.3145ZM31.0801 70.2H34.2301C35.4832 70.2 36.2801 70.0531 36.6176 69.7656C36.9551 69.475 37.127 68.7938 37.127 67.7219C37.127 66.4875 36.9863 65.725 36.7051 65.4313C36.4238 65.1344 35.6926 64.9875 34.5113 64.9875H31.0832V70.2H31.0801Z" fill="white"/>
<path d="M41.6992 77.2375V62.6562H48.8648C50.9023 62.6562 52.3273 63.1031 53.143 63.9938C53.9586 64.8844 54.368 66.4438 54.368 68.6719C54.368 72.3094 54.0398 74.6469 53.3867 75.6844C52.7305 76.7188 51.2523 77.2375 48.9523 77.2375H41.6992ZM44.4648 74.9094H48.4055C49.7305 74.9094 50.5836 74.6031 50.9742 73.9969C51.3617 73.3875 51.5555 72.0438 51.5555 69.9625C51.5555 67.8125 51.3805 66.4469 51.0336 65.8625C50.6836 65.2781 49.8648 64.9906 48.5773 64.9906H44.4648V74.9094Z" fill="white"/>
<path d="M59.1516 64.9875V68.9188H65.6859V71.2438H59.1516V77.2375H56.3828V62.6562H66.0391V64.9875H59.1516Z" fill="white"/>
</svg>
