<svg width="100" height="100" viewBox="0 0 100 100" fill="none" xmlns="http://www.w3.org/2000/svg">
<path d="M64.526 0C65.5868 0 66.6042 0.421427 67.3544 1.17157L85.9144 19.7316C86.6645 20.4817 87.0859 21.4991 87.0859 22.56V96C87.0859 98.2091 85.2951 100 83.0859 100H15.5703C13.3612 100 11.5703 98.2091 11.5703 96V4C11.5703 1.79086 13.3612 0 15.5703 0H64.526Z" fill="#E2E2E2"/>
<path d="M87.0859 20.9031H70.1797C67.9705 20.9031 66.1797 19.1123 66.1797 16.9031V0L87.0859 20.9031Z" fill="#999999"/>
<path d="M80.1845 81.6686C79.8176 82.2467 79.1805 82.5969 78.4958 82.5969H4.30469V59.2281C4.30469 58.1236 5.20012 57.2281 6.30469 57.2281H92.0573C93.6343 57.2281 94.591 58.9683 93.7459 60.2998L80.1845 81.6686Z" fill="#E94E5D"/>
<path d="M11.5703 89.8594V82.5969H4.30469L11.5703 89.8594Z" fill="#999999"/>
<path d="M28.3125 77.2375V62.6562H34.1875H34.9125C36.8844 62.6562 38.2156 63 38.9 63.6875C39.5875 64.375 39.9312 65.7031 39.9312 67.6656C39.9312 69.6156 39.6031 70.9125 38.95 71.5531C38.2969 72.1938 36.9719 72.5156 34.9781 72.5156L34.3375 72.525H31.0812V77.2375H28.3125ZM31.0781 70.2H34.2281C35.4812 70.2 36.2781 70.0531 36.6156 69.7656C36.9531 69.475 37.125 68.7938 37.125 67.7219C37.125 66.4875 36.9844 65.725 36.7031 65.4313C36.4219 65.1344 35.6906 64.9875 34.5094 64.9875H31.0812V70.2H31.0781Z" fill="white"/>
<path d="M41.6953 77.2375V62.6562H48.8609C50.8984 62.6562 52.3234 63.1031 53.1391 63.9938C53.9547 64.8844 54.3641 66.4438 54.3641 68.6719C54.3641 72.3094 54.0359 74.6469 53.3828 75.6844C52.7266 76.7188 51.2484 77.2375 48.9484 77.2375H41.6953ZM44.4609 74.9094H48.4016C49.7266 74.9094 50.5797 74.6031 50.9703 73.9969C51.3578 73.3875 51.5516 72.0438 51.5516 69.9625C51.5516 67.8125 51.3766 66.4469 51.0297 65.8625C50.6797 65.2781 49.8609 64.9906 48.5734 64.9906H44.4609V74.9094Z" fill="white"/>
<path d="M59.1516 64.9875V68.9188H65.6859V71.2438H59.1516V77.2375H56.3828V62.6562H66.0391V64.9875H59.1516Z" fill="white"/>
</svg>
