<svg width="32" height="32" viewBox="0 0 32 32" fill="none" xmlns="http://www.w3.org/2000/svg">
<path d="M21.1785 0L27.8675 6.689V32H3.70251V0H21.1785Z" fill="#E2E2E2"/>
<path d="M27.8675 6.689H21.1775V0L27.8675 6.689Z" fill="#999999"/>
<path d="M25.4704 26.431H1.37744V18.313H30.6224L25.4704 26.431Z" fill="#09A1DA"/>
<path d="M3.70244 28.755V26.431H1.37744L3.70244 28.755Z" fill="#999999"/>
<path d="M8.06055 24.716V20.05H10.3545C11.0055 20.05 11.4615 20.1931 11.7225 20.4781C11.9845 20.7631 12.1145 21.262 12.1145 21.975C12.1145 23.1391 12.0105 23.887 11.8005 24.219C11.5915 24.55 11.1175 24.716 10.3825 24.716H8.06055ZM8.94555 23.9711H10.2065C10.6305 23.9711 10.9045 23.8731 11.0285 23.6791C11.1525 23.4841 11.2155 23.054 11.2155 22.3881C11.2155 21.7001 11.1595 21.263 11.0475 21.076C10.9365 20.889 10.6745 20.7971 10.2615 20.7971H8.94655V23.9711H8.94555Z" fill="white"/>
<path d="M14.6976 20.009C15.5456 20.009 16.0916 20.151 16.3356 20.432C16.5786 20.713 16.7006 21.343 16.7006 22.32C16.7006 23.389 16.5786 24.062 16.3336 24.341C16.0886 24.62 15.4956 24.758 14.5546 24.758C13.7066 24.758 13.1586 24.62 12.9106 24.346C12.6616 24.072 12.5376 23.467 12.5376 22.534C12.5376 21.422 12.6596 20.723 12.9036 20.438C13.1466 20.151 13.7456 20.009 14.6976 20.009ZM14.6296 20.769C14.0346 20.769 13.6876 20.845 13.5876 20.998C13.4866 21.15 13.4376 21.68 13.4376 22.584C13.4376 23.254 13.4966 23.657 13.6136 23.794C13.7306 23.931 14.0766 23.999 14.6506 23.999C15.2006 23.999 15.5296 23.922 15.6386 23.769C15.7476 23.615 15.8026 23.149 15.8026 22.37C15.8026 21.588 15.7506 21.126 15.6476 20.983C15.5426 20.839 15.2036 20.769 14.6296 20.769Z" fill="white"/>
<path d="M20.1796 23.052H21.0686V23.212C21.0686 23.861 20.9516 24.281 20.7136 24.472C20.4776 24.662 19.9536 24.757 19.1416 24.757C18.2226 24.757 17.6566 24.607 17.4446 24.306C17.2326 24.005 17.1266 23.201 17.1266 21.893C17.1266 21.122 17.2706 20.617 17.5576 20.373C17.8446 20.131 18.4456 20.009 19.3596 20.009C20.0236 20.009 20.4686 20.11 20.6916 20.309C20.9166 20.508 21.0276 20.904 21.0276 21.497L21.0296 21.603H20.1406V21.483C20.1406 21.177 20.0836 20.982 19.9686 20.897C19.8536 20.811 19.5916 20.769 19.1816 20.769C18.6316 20.769 18.3026 20.835 18.1926 20.97C18.0816 21.105 18.0266 21.503 18.0266 22.166C18.0266 23.06 18.0766 23.588 18.1746 23.752C18.2746 23.916 18.5936 23.998 19.1366 23.998C19.5756 23.998 19.8616 23.952 19.9916 23.861C20.1216 23.77 20.1886 23.569 20.1886 23.259L20.1796 23.052Z" fill="white"/>
</svg>
