<svg width="32" height="32" viewBox="0 0 32 32" fill="none" xmlns="http://www.w3.org/2000/svg">
<path d="M19.5223 0C20.5831 0 21.6006 0.421427 22.3507 1.17157L26.6966 5.51743C27.4467 6.26757 27.8681 7.28499 27.8681 8.34585V28C27.8681 30.2091 26.0773 32 23.8681 32H7.70313C5.49399 32 3.70312 30.2091 3.70312 28V4C3.70312 1.79086 5.49399 0 7.70312 0H19.5223Z" fill="#E2E2E2"/>
<path d="M27.8677 6.689H25.1777C22.9686 6.689 21.1777 4.89814 21.1777 2.689V0L27.8677 6.689Z" fill="#999999"/>
<path d="M26.0591 25.5027C25.6922 26.0807 25.0551 26.431 24.3705 26.431H1.37695V20.313C1.37695 19.2084 2.27238 18.313 3.37695 18.313H26.9839C28.561 18.313 29.5176 20.0531 28.6725 21.3847L26.0591 25.5027Z" fill="#E94E5D"/>
<path d="M3.70195 28.755V26.431H1.37695L3.70195 28.755Z" fill="#999999"/>
<path d="M9.06055 24.716V20.05H10.9405H11.1725C11.8035 20.05 12.2295 20.16 12.4485 20.38C12.6685 20.6 12.7785 21.025 12.7785 21.653C12.7785 22.277 12.6735 22.692 12.4645 22.897C12.2555 23.102 11.8315 23.205 11.1935 23.205L10.9885 23.208H9.94655V24.716H9.06055ZM9.94555 22.4641H10.9535C11.3545 22.4641 11.6095 22.4171 11.7175 22.3251C11.8255 22.2321 11.8805 22.014 11.8805 21.671C11.8805 21.276 11.8355 21.032 11.7455 20.938C11.6555 20.843 11.4215 20.796 11.0435 20.796H9.94655V22.4641H9.94555Z" fill="white"/>
<path d="M13.3438 24.716V20.05H15.6368C16.2888 20.05 16.7448 20.1931 17.0058 20.4781C17.2668 20.7631 17.3977 21.262 17.3977 21.975C17.3977 23.1391 17.2927 23.887 17.0837 24.219C16.8737 24.55 16.4008 24.716 15.6648 24.716H13.3438ZM14.2288 23.9711H15.4897C15.9137 23.9711 16.1868 23.8731 16.3118 23.6791C16.4358 23.4841 16.4977 23.054 16.4977 22.3881C16.4977 21.7001 16.4417 21.263 16.3307 21.076C16.2187 20.889 15.9568 20.7971 15.5448 20.7971H14.2288V23.9711Z" fill="white"/>
<path d="M18.929 20.796V22.0541H21.02V22.798H18.929V24.716H18.043V20.05H21.133V20.796H18.929Z" fill="white"/>
</svg>
