<svg width="22" height="22" viewBox="0 0 22 22" fill="none" xmlns="http://www.w3.org/2000/svg">
<path d="M12.7289 2.51001L14.4889 6.03001C14.7289 6.52002 15.3689 6.99001 15.9089 7.08001L19.0989 7.61001C21.1389 7.95001 21.6189 9.43001 20.1489 10.89L17.6689 13.37C17.2489 13.79 17.0189 14.6 17.1489 15.18L17.8589 18.25C18.4189 20.68 17.1289 21.62 14.9789 20.35L11.9889 18.58C11.4489 18.26 10.5589 18.26 10.0089 18.58L7.01893 20.35C4.87893 21.62 3.57893 20.67 4.13893 18.25L4.84893 15.18C4.97893 14.6 4.74893 13.79 4.32893 13.37L1.84893 10.89C0.388932 9.43001 0.858933 7.95001 2.89893 7.61001L6.08893 7.08001C6.61893 6.99001 7.25893 6.52002 7.49893 6.03001L9.25893 2.51001C10.2189 0.600015 11.7789 0.600015 12.7289 2.51001Z" stroke="#A0A3BD" stroke-width="1.5" stroke-linecap="round" stroke-linejoin="round"/>
</svg>
