<svg width="10" height="6" viewBox="0 0 10 6" fill="none" xmlns="http://www.w3.org/2000/svg">
<path d="M5.00142 5.66664C4.91369 5.66714 4.82671 5.65033 4.74549 5.61715C4.66426 5.58397 4.59038 5.53509 4.52809 5.4733L0.528092 1.4733C0.402557 1.34776 0.332031 1.1775 0.332031 0.999962C0.332031 0.822427 0.402557 0.652164 0.528092 0.526628C0.653628 0.401092 0.823891 0.330566 1.00143 0.330566C1.17896 0.330566 1.34922 0.401092 1.47476 0.526628L5.00142 4.05997L8.52809 0.533295C8.65562 0.424077 8.81967 0.367006 8.98746 0.373487C9.15524 0.379967 9.3144 0.449523 9.43313 0.568253C9.55186 0.686983 9.62141 0.846142 9.62789 1.01393C9.63437 1.18171 9.5773 1.34576 9.46809 1.4733L5.46809 5.4733C5.34392 5.59647 5.17632 5.6659 5.00142 5.66664Z" fill="#A0A3BD"/>
</svg>
