<svg width="30" height="31" viewBox="0 0 30 31" fill="none" xmlns="http://www.w3.org/2000/svg">
<g clip-path="url(#clip0_35994_426162)">
<path d="M18.1976 0.890625C19.2585 0.890625 20.2759 1.31205 21.026 2.0622L24.9538 5.98999C25.704 6.74013 26.1254 7.75755 26.1254 8.81842V26.8906C26.1254 29.0998 24.3345 30.8906 22.1254 30.8906H7.47071C5.26157 30.8906 3.4707 29.0998 3.4707 26.8906V4.89062C3.4707 2.68149 5.26156 0.890625 7.4707 0.890625H18.1976Z" fill="#E2E2E2"/>
<path d="M26.1254 7.16156H23.8535C21.6444 7.16156 19.8535 5.3707 19.8535 3.16156V0.890625L26.1254 7.16156Z" fill="#999999"/>
<path d="M24.4674 24.7409C24.1005 25.319 23.4634 25.6692 22.7787 25.6692H1.29102V20.0586C1.29102 18.954 2.18645 18.0586 3.29102 18.0586H25.0702C26.6472 18.0586 27.6039 19.7987 26.7588 21.1303L24.4674 24.7409Z" fill="#E94E5D"/>
<path d="M3.4707 27.8487V25.6699H1.29102L3.4707 27.8487Z" fill="#999999"/>
<path d="M8.49414 24.0619V19.6875H10.2566H10.4741C11.0657 19.6875 11.4651 19.7906 11.6704 19.9969C11.8766 20.2031 11.9798 20.6016 11.9798 21.1903C11.9798 21.7753 11.8813 22.1644 11.6854 22.3566C11.4895 22.5488 11.092 22.6453 10.4938 22.6453L10.3016 22.6481H9.32477V24.0619H8.49414ZM9.32383 21.9506H10.2688C10.6448 21.9506 10.8838 21.9066 10.9851 21.8203C11.0863 21.7331 11.1379 21.5288 11.1379 21.2072C11.1379 20.8369 11.0957 20.6081 11.0113 20.52C10.927 20.4309 10.7076 20.3869 10.3532 20.3869H9.32477V21.9506H9.32383Z" fill="white"/>
<path d="M12.5098 24.0619V19.6875H14.6595C15.2707 19.6875 15.6982 19.8216 15.9429 20.0888C16.1876 20.3559 16.3104 20.8238 16.3104 21.4922C16.3104 22.5834 16.212 23.2847 16.016 23.5959C15.8191 23.9062 15.3757 24.0619 14.6857 24.0619H12.5098ZM13.3395 23.3634H14.5216C14.9191 23.3634 15.1751 23.2716 15.2923 23.0897C15.4085 22.9069 15.4666 22.5038 15.4666 21.8794C15.4666 21.2344 15.4141 20.8247 15.3101 20.6494C15.2051 20.4741 14.9595 20.3878 14.5732 20.3878H13.3395V23.3634Z" fill="white"/>
<path d="M17.7457 20.3869V21.5663H19.706V22.2638H17.7457V24.0619H16.915V19.6875H19.8119V20.3869H17.7457Z" fill="white"/>
</g>
<defs>
<clipPath id="clip0_35994_426162">
<rect width="30" height="30" fill="white" transform="translate(0 0.890625)"/>
</clipPath>
</defs>
</svg>
