<svg width="24" height="25" viewBox="0 0 24 25" fill="none" xmlns="http://www.w3.org/2000/svg">
<path d="M12.0002 16.8908C11.8686 16.8916 11.7381 16.8664 11.6163 16.8166C11.4944 16.7668 11.3836 16.6935 11.2902 16.6008L5.29019 10.6008C5.10188 10.4125 4.99609 10.1571 4.99609 9.89081C4.99609 9.62451 5.10188 9.36911 5.29019 9.18081C5.47849 8.99251 5.73388 8.88672 6.00018 8.88672C6.26649 8.88672 6.52188 8.99251 6.71018 9.18081L12.0002 14.4808L17.2902 9.19081C17.4815 9.02698 17.7276 8.94138 17.9792 8.9511C18.2309 8.96082 18.4696 9.06515 18.6477 9.24325C18.8258 9.42134 18.9302 9.66008 18.9399 9.91176C18.9496 10.1634 18.864 10.4095 18.7002 10.6008L12.7002 16.6008C12.5139 16.7856 12.2625 16.8897 12.0002 16.8908Z" fill="#A0A3BD"/>
</svg>
