<svg width="24" height="25" viewBox="0 0 24 25" fill="none" xmlns="http://www.w3.org/2000/svg">
<path d="M23.1213 10.7693C24.2929 11.9409 24.2929 13.8404 23.1213 15.0119C21.9497 16.1835 20.0502 16.1835 18.8787 15.0119C17.7071 13.8404 17.7071 11.9409 18.8787 10.7693C20.0502 9.59773 21.9497 9.59773 23.1213 10.7693Z" fill="#A0A3BD"/>
<path d="M14.1213 10.7693C15.2929 11.9409 15.2929 13.8404 14.1213 15.0119C12.9497 16.1835 11.0502 16.1835 9.87868 15.0119C8.70711 13.8404 8.70711 11.9409 9.87868 10.7693C11.0502 9.59773 12.9497 9.59773 14.1213 10.7693Z" fill="#A0A3BD"/>
<path d="M5.12131 10.7693C6.29288 11.9409 6.29288 13.8404 5.12131 15.0119C3.94974 16.1835 2.05024 16.1835 0.878676 15.0119C-0.292892 13.8404 -0.292892 11.9409 0.878676 10.7693C2.05024 9.59773 3.94974 9.59773 5.12131 10.7693Z" fill="#A0A3BD"/>
</svg>
