<svg width="24" height="25" viewBox="0 0 24 25" fill="none" xmlns="http://www.w3.org/2000/svg">
<path d="M16.7502 4.45062V2.89062C16.7502 2.48063 16.4102 2.14062 16.0002 2.14062C15.5902 2.14062 15.2502 2.48063 15.2502 2.89062V4.39062H8.75023V2.89062C8.75023 2.48063 8.41023 2.14062 8.00023 2.14062C7.59023 2.14062 7.25023 2.48063 7.25023 2.89062V4.45062C4.55023 4.70062 3.24023 6.31063 3.04023 8.70062C3.02023 8.99062 3.26023 9.23063 3.54023 9.23063H20.4602C20.7502 9.23063 20.9902 8.98063 20.9602 8.70062C20.7602 6.31063 19.4502 4.70062 16.7502 4.45062Z" fill="#A0A3BD"/>
<path d="M20 10.7305H4C3.45 10.7305 3 11.1805 3 11.7305V17.8905C3 20.8905 4.5 22.8905 8 22.8905H16C19.5 22.8905 21 20.8905 21 17.8905V11.7305C21 11.1805 20.55 10.7305 20 10.7305ZM9.21 19.1005C9.16 19.1405 9.11 19.1905 9.06 19.2205C9 19.2605 8.94 19.2905 8.88 19.3105C8.82 19.3405 8.76 19.3605 8.7 19.3705C8.63 19.3805 8.57 19.3905 8.5 19.3905C8.37 19.3905 8.24 19.3605 8.12 19.3105C7.99 19.2605 7.89 19.1905 7.79 19.1005C7.61 18.9105 7.5 18.6505 7.5 18.3905C7.5 18.1305 7.61 17.8705 7.79 17.6805C7.89 17.5905 7.99 17.5205 8.12 17.4705C8.3 17.3905 8.5 17.3705 8.7 17.4105C8.76 17.4205 8.82 17.4405 8.88 17.4705C8.94 17.4905 9 17.5205 9.06 17.5605C9.11 17.6005 9.16 17.6405 9.21 17.6805C9.39 17.8705 9.5 18.1305 9.5 18.3905C9.5 18.6505 9.39 18.9105 9.21 19.1005ZM9.21 15.6005C9.02 15.7805 8.76 15.8905 8.5 15.8905C8.24 15.8905 7.98 15.7805 7.79 15.6005C7.61 15.4105 7.5 15.1505 7.5 14.8905C7.5 14.6305 7.61 14.3705 7.79 14.1805C8.07 13.9005 8.51 13.8105 8.88 13.9705C9.01 14.0205 9.12 14.0905 9.21 14.1805C9.39 14.3705 9.5 14.6305 9.5 14.8905C9.5 15.1505 9.39 15.4105 9.21 15.6005ZM12.71 19.1005C12.52 19.2805 12.26 19.3905 12 19.3905C11.74 19.3905 11.48 19.2805 11.29 19.1005C11.11 18.9105 11 18.6505 11 18.3905C11 18.1305 11.11 17.8705 11.29 17.6805C11.66 17.3105 12.34 17.3105 12.71 17.6805C12.89 17.8705 13 18.1305 13 18.3905C13 18.6505 12.89 18.9105 12.71 19.1005ZM12.71 15.6005C12.66 15.6405 12.61 15.6805 12.56 15.7205C12.5 15.7605 12.44 15.7905 12.38 15.8105C12.32 15.8405 12.26 15.8605 12.2 15.8705C12.13 15.8805 12.07 15.8905 12 15.8905C11.74 15.8905 11.48 15.7805 11.29 15.6005C11.11 15.4105 11 15.1505 11 14.8905C11 14.6305 11.11 14.3705 11.29 14.1805C11.38 14.0905 11.49 14.0205 11.62 13.9705C11.99 13.8105 12.43 13.9005 12.71 14.1805C12.89 14.3705 13 14.6305 13 14.8905C13 15.1505 12.89 15.4105 12.71 15.6005ZM16.21 19.1005C16.02 19.2805 15.76 19.3905 15.5 19.3905C15.24 19.3905 14.98 19.2805 14.79 19.1005C14.61 18.9105 14.5 18.6505 14.5 18.3905C14.5 18.1305 14.61 17.8705 14.79 17.6805C15.16 17.3105 15.84 17.3105 16.21 17.6805C16.39 17.8705 16.5 18.1305 16.5 18.3905C16.5 18.6505 16.39 18.9105 16.21 19.1005ZM16.21 15.6005C16.16 15.6405 16.11 15.6805 16.06 15.7205C16 15.7605 15.94 15.7905 15.88 15.8105C15.82 15.8405 15.76 15.8605 15.7 15.8705C15.63 15.8805 15.56 15.8905 15.5 15.8905C15.24 15.8905 14.98 15.7805 14.79 15.6005C14.61 15.4105 14.5 15.1505 14.5 14.8905C14.5 14.6305 14.61 14.3705 14.79 14.1805C14.89 14.0905 14.99 14.0205 15.12 13.9705C15.3 13.8905 15.5 13.8705 15.7 13.9105C15.76 13.9205 15.82 13.9405 15.88 13.9705C15.94 13.9905 16 14.0205 16.06 14.0605C16.11 14.1005 16.16 14.1405 16.21 14.1805C16.39 14.3705 16.5 14.6305 16.5 14.8905C16.5 15.1505 16.39 15.4105 16.21 15.6005Z" fill="#A0A3BD"/>
</svg>
