<svg width="38" height="25" viewBox="0 0 38 25" fill="none" xmlns="http://www.w3.org/2000/svg">
<g clip-path="url(#clip0_35994_427008)">
<path opacity="0.07" d="M35 0.890625H3C1.3 0.890625 0 2.19062 0 3.89062V21.8906C0 23.5906 1.4 24.8906 3 24.8906H35C36.7 24.8906 38 23.5906 38 21.8906V3.89062C38 2.19062 36.6 0.890625 35 0.890625Z" fill="black"/>
<path d="M35 1.89062C36.1 1.89062 37 2.79062 37 3.89062V21.8906C37 22.9906 36.1 23.8906 35 23.8906H3C1.9 23.8906 1 22.9906 1 21.8906V3.89062C1 2.79062 1.9 1.89062 3 1.89062H35Z" fill="white"/>
<path d="M28.3 10.9906H28C27.6 11.9906 27.3 12.4906 27 13.9906H28.9C28.6 12.4906 28.6 11.7906 28.3 10.9906ZM31.2 16.8906H29.5C29.4 16.8906 29.4 16.8906 29.3 16.7906L29.1 15.8906L29 15.6906H26.6C26.5 15.6906 26.4 15.6906 26.4 15.8906L26.1 16.7906C26.1 16.8906 26 16.8906 26 16.8906H23.9L24.1 16.3906L27 9.59062C27 9.09062 27.3 8.89062 27.8 8.89062H29.3C29.4 8.89062 29.5 8.89062 29.5 9.09062L30.9 15.5906C31 15.9906 31.1 16.2906 31.1 16.6906C31.2 16.7906 31.2 16.7906 31.2 16.8906ZM17.8 16.5906L18.2 14.7906C18.3 14.7906 18.4 14.8906 18.4 14.8906C19.1 15.1906 19.8 15.3906 20.5 15.2906C20.7 15.2906 21 15.1906 21.2 15.0906C21.7 14.8906 21.7 14.3906 21.3 13.9906C21.1 13.7906 20.8 13.6906 20.5 13.4906C20.1 13.2906 19.7 13.0906 19.4 12.7906C18.2 11.7906 18.6 10.3906 19.3 9.69063C19.9 9.29063 20.2 8.89062 21 8.89062C22.2 8.89062 23.5 8.89062 24.1 9.09062H24.2C24.1 9.69062 24 10.1906 23.8 10.7906C23.3 10.5906 22.8 10.3906 22.3 10.3906C22 10.3906 21.7 10.3906 21.4 10.4906C21.2 10.4906 21.1 10.5906 21 10.6906C20.8 10.8906 20.8 11.1906 21 11.3906L21.5 11.7906C21.9 11.9906 22.3 12.1906 22.6 12.3906C23.1 12.6906 23.6 13.1906 23.7 13.7906C23.9 14.6906 23.6 15.4906 22.8 16.0906C22.3 16.4906 22.1 16.6906 21.4 16.6906C20 16.6906 18.9 16.7906 18 16.4906C17.9 16.6906 17.9 16.6906 17.8 16.5906ZM14.3 16.8906C14.4 16.1906 14.4 16.1906 14.5 15.8906C15 13.6906 15.5 11.3906 15.9 9.19063C16 8.99063 16 8.89062 16.2 8.89062H18C17.8 10.0906 17.6 10.9906 17.3 12.0906C17 13.5906 16.7 15.0906 16.3 16.5906C16.3 16.7906 16.2 16.7906 16 16.7906L14.3 16.8906ZM5 9.09062C5 8.99062 5.2 8.89062 5.3 8.89062H8.7C9.2 8.89062 9.6 9.19063 9.7 9.69063L10.6 14.0906C10.6 14.1906 10.6 14.1906 10.7 14.2906C10.7 14.1906 10.8 14.1906 10.8 14.1906L12.9 9.09062C12.8 8.99062 12.9 8.89062 13 8.89062H15.1C15.1 8.99063 15.1 8.99062 15 9.09062L11.9 16.3906C11.8 16.5906 11.8 16.6906 11.7 16.7906C11.6 16.8906 11.4 16.7906 11.2 16.7906H9.7C9.6 16.7906 9.5 16.7906 9.5 16.5906L7.9 10.3906C7.7 10.1906 7.4 9.89062 7 9.79062C6.4 9.49062 5.3 9.29062 5.1 9.29062L5 9.09062Z" fill="#142688"/>
</g>
<defs>
<clipPath id="clip0_35994_427008">
<rect width="38" height="24" fill="white" transform="translate(0 0.890625)"/>
</clipPath>
</defs>
</svg>
