<svg width="92" height="90" viewBox="0 0 92 90" fill="none" xmlns="http://www.w3.org/2000/svg">
<path d="M38.6333 25.9217V13H33.5052C25.984 14.8727 10.7365 23.7868 9.91602 44.4615M38.6333 25.9217H31.9668V57.9451H54.5V34.3489L43.7614 25.9217H38.6333Z" stroke="#4A9D77" stroke-width="2.545"/>
<path d="M10.1016 51.1975C11.3768 58.1265 15.0205 73.1082 32.51 73.1082V66.3664C29.4129 66.1791 23.0001 64.0068 22.1256 56.8156V33.7812H28.1376" stroke="#4A9D77" stroke-width="2.545"/>
<path d="M31.9648 33.7812H39.07C39.7987 34.1558 41.5841 35.3542 42.8958 37.1519" stroke="#4A9D77" stroke-width="2.545"/>
<path d="M37 46.1796L40.8258 49.5503L49.5706 40" stroke="#4A9D77" stroke-width="2.545"/>
<path d="M32.5117 66.3813H43.4427V59.0781" stroke="#4A9D77" stroke-width="2.545"/>
<path d="M36.8828 66.375V77.6106C41.6196 77.7979 52.4047 76.487 57.6516 69.7457" stroke="#4A9D77" stroke-width="2.545"/>
<path d="M90.1963 45C90.1963 69.8528 70.0051 90 45.0981 90C20.1911 90 0 69.8528 0 45C0 20.1472 20.1911 0 45.0981 0C70.0051 0 90.1963 20.1472 90.1963 45ZM4.08987 45C4.08987 67.599 22.4499 85.919 45.0981 85.919C67.7464 85.919 86.1064 67.599 86.1064 45C86.1064 22.401 67.7464 4.08096 45.0981 4.08096C22.4499 4.08096 4.08987 22.401 4.08987 45Z" fill="#4A9D77"/>
<path d="M52.47 13.4981C52.0585 13.3444 51.7398 13.1393 51.5139 12.8828C51.2879 12.6264 51.1205 12.3114 51.0115 11.9381L51.8316 11.5736C51.8892 11.8359 51.9925 12.0638 52.1415 12.2571C52.2926 12.4455 52.5218 12.5971 52.8291 12.7119C53.1167 12.8193 53.3693 12.8449 53.5871 12.7887C53.8099 12.7343 53.9644 12.6027 54.0506 12.3941C54.1224 12.2202 54.1363 12.0619 54.0922 11.9193C54.0481 11.7767 53.9661 11.6428 53.8461 11.5177C53.7332 11.3894 53.5987 11.2647 53.4429 11.1433C53.294 11.0189 53.1447 10.8885 52.995 10.7523C52.8523 10.613 52.7291 10.4609 52.6256 10.296C52.527 10.133 52.469 9.94787 52.4516 9.74065C52.4342 9.53343 52.4809 9.29569 52.5917 9.02742C52.719 8.71941 52.9011 8.48637 53.1381 8.32832C53.3821 8.16715 53.6566 8.0776 53.9615 8.05965C54.2665 8.04171 54.5776 8.09201 54.8949 8.21055C55.2369 8.33836 55.5141 8.51934 55.7264 8.7535C55.9436 8.98951 56.0934 9.24333 56.1757 9.51496L55.3556 9.87949C55.2767 9.65502 55.1718 9.47247 55.0411 9.33186C54.9173 9.18813 54.7514 9.07737 54.5432 8.99957C54.2854 8.90325 54.0606 8.87947 53.8688 8.92823C53.6819 8.97884 53.5495 9.09854 53.4715 9.28732C53.4058 9.4463 53.3971 9.59213 53.4452 9.72483C53.4955 9.85257 53.5781 9.97807 53.6931 10.1013C53.8151 10.2215 53.9506 10.3438 54.0995 10.4682C54.2533 10.5945 54.4016 10.7273 54.5443 10.8667C54.692 11.0079 54.813 11.165 54.9075 11.3379C55.009 11.5078 55.0664 11.7012 55.0797 11.9184C55.093 12.1356 55.0422 12.3832 54.9272 12.6614C54.7343 13.1284 54.4153 13.4365 53.9703 13.5856C53.5302 13.7366 53.0301 13.7074 52.47 13.4981Z" fill="#4A9D77"/>
<path d="M56.0836 14.9982L57.9907 11.6288L58.7635 12.0343L56.8564 15.4037L56.0836 14.9982ZM58.7267 11.2138C58.5956 11.145 58.5107 11.0428 58.472 10.9072C58.438 10.774 58.4581 10.6419 58.5323 10.5109C58.6064 10.3798 58.7108 10.292 58.8455 10.2473C58.9848 10.2051 59.12 10.2184 59.2512 10.2872C59.387 10.3584 59.4719 10.4607 59.5059 10.5938C59.5398 10.727 59.5197 10.859 59.4456 10.9901C59.3714 11.1211 59.267 11.209 59.1324 11.2537C58.9978 11.2983 58.8625 11.285 58.7267 11.2138Z" fill="#4A9D77"/>
<path d="M59.6112 19.1227C59.2817 18.8925 59.0382 18.6306 58.8806 18.3369C58.7198 18.0476 58.6436 17.7419 58.6518 17.4198L59.4656 17.2803C59.4762 17.5237 59.5328 17.7403 59.6357 17.9302C59.7385 18.12 59.9027 18.2937 60.1281 18.4512C60.41 18.6481 60.6876 18.7307 60.9612 18.6989C61.2315 18.6714 61.4595 18.5323 61.645 18.2817L62.2113 17.5168L62.8436 16.9161L63.2336 16.1362L63.8527 15.3L64.5681 15.7998L62.3605 18.7815C62.1397 19.0796 61.8784 19.2905 61.5764 19.4139C61.2713 19.5417 60.9488 19.5819 60.6089 19.5345C60.269 19.4872 59.9364 19.3499 59.6112 19.1227ZM60.6345 17.674C60.357 17.4801 60.1551 17.2375 60.0288 16.946C59.9101 16.6532 59.8737 16.3426 59.9196 16.014C59.9698 15.6885 60.1037 15.3788 60.3213 15.085C60.5388 14.7912 60.7969 14.5715 61.0954 14.426C61.3982 14.2835 61.7098 14.2225 62.0301 14.2431C62.3579 14.2623 62.6606 14.3688 62.9381 14.5627C63.1852 14.7354 63.3652 14.9365 63.4781 15.1662C63.5909 15.3958 63.6338 15.6356 63.6067 15.8854C63.5828 16.131 63.4844 16.3704 63.3117 16.6038L62.7454 17.3686C62.5758 17.5977 62.3712 17.7629 62.1316 17.8643C61.8964 17.9688 61.6488 18.0056 61.3888 17.9748C61.1287 17.9439 60.8773 17.8436 60.6345 17.674ZM61.2767 17.0999C61.4501 17.221 61.6291 17.2903 61.8135 17.3077C61.998 17.3251 62.1729 17.2933 62.3383 17.2121C62.5112 17.1296 62.6632 16.9998 62.7944 16.8226C62.9256 16.6455 63.0023 16.4663 63.0246 16.2852C63.0544 16.1028 63.0314 15.9294 62.9557 15.765C62.8801 15.6007 62.7555 15.458 62.5821 15.3368C62.4086 15.2156 62.2275 15.1448 62.0387 15.1244C61.8543 15.107 61.6756 15.1395 61.5027 15.2219C61.333 15.3001 61.1826 15.4277 61.0514 15.6049C60.9234 15.7778 60.8467 15.9569 60.8212 16.1424C60.7957 16.3278 60.8208 16.5027 60.8965 16.6671C60.9765 16.8344 61.1033 16.9787 61.2767 17.0999Z" fill="#4A9D77"/>
<path d="M65.5504 21.9471L67.1206 20.3603C67.302 20.177 67.3918 19.9697 67.39 19.7383C67.3921 19.5105 67.301 19.3091 67.1169 19.1341C66.9941 19.0175 66.8583 18.9403 66.7095 18.9026C66.5606 18.8649 66.4121 18.8683 66.2639 18.9127C66.1158 18.9572 65.9812 19.0405 65.8603 19.1627L65.7488 18.7901C65.9567 18.58 66.186 18.4385 66.4368 18.3657C66.6914 18.2889 66.9446 18.2813 67.1965 18.3428C67.4559 18.4041 67.6873 18.5313 67.8907 18.7246C68.0978 18.9214 68.2291 19.1499 68.2844 19.4099C68.3435 19.6662 68.336 19.9221 68.2618 20.1776C68.1914 20.4293 68.0673 20.6449 67.8897 20.8244L66.1834 22.5486L65.5504 21.9471ZM63.657 20.1479L66.3779 17.3983L67.011 17.9998L64.29 20.7494L63.657 20.1479Z" fill="#4A9D77"/>
<path d="M68.4609 25.5221C68.227 25.2207 68.0842 24.8966 68.0326 24.5501C67.9885 24.2045 68.0331 23.8681 68.1663 23.541C68.3028 23.2181 68.5229 22.9416 68.8265 22.7115C69.13 22.4813 69.4552 22.3446 69.8018 22.3013C70.1528 22.2547 70.4898 22.2952 70.8128 22.4227C71.1391 22.5544 71.4143 22.7647 71.6385 23.0536C71.8562 23.3341 71.9816 23.6314 72.0148 23.9454C72.0512 24.2636 72.001 24.5709 71.8644 24.8673C71.7309 25.168 71.5167 25.4301 71.2217 25.6538C71.1704 25.6926 71.1137 25.729 71.0516 25.7627C70.997 25.7974 70.9328 25.8328 70.8589 25.8689L68.9388 23.3944L69.516 22.9568L71.1584 25.0733L70.7277 24.9909C70.9093 24.8399 71.0399 24.6844 71.1194 24.5243C71.199 24.3643 71.2275 24.1997 71.2049 24.0306C71.1856 23.8657 71.111 23.6995 70.981 23.532C70.8445 23.3562 70.6875 23.2325 70.5098 23.1611C70.3321 23.0896 70.1451 23.0718 69.9487 23.1076C69.7567 23.1401 69.5645 23.2293 69.372 23.3752C69.1796 23.521 69.04 23.6867 68.9531 23.8723C68.8662 24.0578 68.8357 24.2505 68.8617 24.4503C68.892 24.6468 68.9769 24.835 69.1166 25.0151C69.2369 25.17 69.3751 25.2913 69.5314 25.379C69.691 25.4708 69.8599 25.5223 70.0383 25.5334L69.9241 26.3182C69.6351 26.3045 69.3644 26.227 69.1122 26.0858C68.8599 25.9445 68.6428 25.7566 68.4609 25.5221Z" fill="#4A9D77"/>
<path d="M71.2902 29.8878C71.1222 29.5863 71.0469 29.2697 71.0644 28.9381C71.0845 28.6111 71.1856 28.3029 71.3676 28.0134C71.5569 27.7261 71.8154 27.4913 72.1432 27.3093C72.4756 27.1247 72.8116 27.0291 73.1514 27.0226C73.4983 27.0181 73.8163 27.0936 74.1052 27.249C74.4014 27.4064 74.6335 27.6358 74.8015 27.9373C74.9437 28.1924 75.0128 28.4486 75.009 28.7058C75.0125 28.965 74.9506 29.206 74.8232 29.4285C74.6959 29.6511 74.5105 29.83 74.2671 29.9653L73.2979 30.5036C73.0545 30.6388 72.8045 30.7018 72.5479 30.6924C72.2939 30.6878 72.0552 30.6169 71.8317 30.4799C71.6128 30.3402 71.4323 30.1429 71.2902 29.8878ZM72.0903 29.6073C72.1963 29.7975 72.3302 29.9387 72.492 30.0311C72.6611 30.1254 72.8449 30.1691 73.0433 30.1622C73.2417 30.1552 73.4416 30.0958 73.6429 29.984C73.8442 29.8721 74.0002 29.7339 74.1107 29.5692C74.2213 29.4045 74.2786 29.2269 74.2828 29.0363C74.2942 28.8478 74.2469 28.6584 74.1409 28.4682C74.0375 28.2827 73.9013 28.1428 73.7322 28.0484C73.5704 27.956 73.389 27.911 73.188 27.9134C72.9895 27.9203 72.7896 27.9797 72.5883 28.0916C72.387 28.2034 72.2311 28.3417 72.1205 28.5063C72.0125 28.6756 71.9529 28.8546 71.9414 29.0431C71.9373 29.2337 71.9869 29.4218 72.0903 29.6073ZM72.3569 31.6368L71.9304 30.8715L72.8363 30.3683L73.7316 30.044L74.4725 29.4593L76.9866 28.0628L77.4131 28.8281L72.3569 31.6368Z" fill="#4A9D77"/>
<path d="M74.5681 38.5003C74.482 38.1647 74.4888 37.8368 74.5885 37.5168C74.6895 37.2019 74.8636 36.9251 75.1108 36.6864C75.3645 36.4514 75.6715 36.2848 76.0318 36.1865C76.3972 36.0868 76.7439 36.0752 77.0719 36.1515C77.4063 36.2315 77.6929 36.3827 77.9316 36.6049C78.1768 36.8309 78.3424 37.1117 78.4284 37.4474C78.5013 37.7314 78.5037 37.9987 78.4358 38.2493C78.3743 38.5037 78.2546 38.7242 78.0767 38.9108C77.8988 39.0975 77.676 39.2274 77.4083 39.3004L76.3429 39.591C76.0752 39.664 75.8193 39.6647 75.5752 39.5932C75.3324 39.5268 75.1207 39.3994 74.9403 39.2111C74.765 39.0213 74.6409 38.7844 74.5681 38.5003ZM75.4068 38.4208C75.4611 38.6325 75.5544 38.8032 75.6868 38.9328C75.8256 39.0663 75.9912 39.1537 76.1836 39.1952C76.3759 39.2366 76.5828 39.2272 76.8041 39.1668C77.0254 39.1064 77.2098 39.0092 77.3571 38.8751C77.5045 38.7409 77.6039 38.5812 77.6555 38.3958C77.7136 38.2142 77.7155 38.0176 77.6612 37.8058C77.6083 37.5992 77.5124 37.4292 77.3735 37.2958C77.2412 37.1662 77.0781 37.078 76.8844 37.0314C76.6921 36.9899 76.4852 36.9994 76.2639 37.0598C76.0426 37.1201 75.8582 37.2174 75.7109 37.3515C75.5649 37.4908 75.4628 37.6512 75.4047 37.8328C75.3531 38.0182 75.3538 38.2142 75.4068 38.4208ZM75.1557 40.4701L74.9372 39.618L75.9332 39.3463L76.8743 39.2471L77.7321 38.8557L80.4962 38.1017L80.7146 38.9538L75.1557 40.4701Z" fill="#4A9D77"/>
<path d="M75.3321 42.3688L79.1254 41.8135L79.2334 42.6883L75.4401 43.2436L75.3321 42.3688ZM79.8748 42.1491C79.8565 42.0006 79.8911 41.8687 79.9788 41.7533C80.0671 41.6432 80.185 41.5774 80.3325 41.5558C80.4801 41.5342 80.6098 41.5638 80.7216 41.6445C80.8342 41.7306 80.8996 41.8479 80.918 41.9964C80.9369 42.1501 80.9023 42.2821 80.814 42.3922C80.7257 42.5023 80.6077 42.5681 80.4602 42.5897C80.3127 42.6113 80.183 42.5817 80.0711 42.5009C79.9592 42.4201 79.8938 42.3029 79.8748 42.1491Z" fill="#4A9D77"/>
<path d="M73.9395 47.7235C73.9413 47.3167 74.0173 46.9589 74.1674 46.6503C74.3122 46.3417 74.5179 46.0906 74.7844 45.8969L75.3556 46.4614C75.1636 46.6212 75.0194 46.8013 74.9228 47.0016C74.8263 47.202 74.7774 47.4413 74.7762 47.7197C74.7746 48.0677 74.8637 48.3412 75.0434 48.5403C75.2178 48.7396 75.4591 48.8355 75.7672 48.8282L76.7076 48.8059L77.5517 48.9383L78.4051 48.7655L79.4331 48.741L79.4291 49.6243L75.7633 49.7115C75.3967 49.7202 75.0783 49.6421 74.8081 49.4773C74.5326 49.3125 74.3185 49.0794 74.1658 48.778C74.0131 48.4765 73.9377 48.125 73.9395 47.7235ZM75.6929 47.6417C75.6944 47.2991 75.7782 46.9866 75.9441 46.7044C76.1154 46.4273 76.3475 46.205 76.6404 46.0375C76.9333 45.8753 77.2604 45.7899 77.6217 45.7813C77.983 45.7727 78.3067 45.8426 78.5929 45.991C78.8791 46.1448 79.1039 46.3562 79.2674 46.6253C79.4361 46.8997 79.5197 47.2081 79.5182 47.5507C79.5168 47.8559 79.4545 48.125 79.3313 48.3581C79.208 48.5912 79.0372 48.7745 78.8188 48.9082C78.6057 49.0417 78.3557 49.1119 78.0688 49.1187L77.1284 49.1411C76.8469 49.1478 76.5975 49.0868 76.3802 48.9582C76.163 48.8349 75.9938 48.6596 75.8726 48.4323C75.7515 48.205 75.6916 47.9415 75.6929 47.6417ZM76.5209 47.7986C76.5199 48.0128 76.5643 48.1991 76.6539 48.3575C76.7435 48.516 76.8678 48.6361 77.0268 48.718C77.191 48.8051 77.3821 48.846 77.5999 48.8408C77.8178 48.8357 78.0066 48.7857 78.1664 48.6909C78.3315 48.6013 78.4595 48.4751 78.5506 48.3124C78.6416 48.1497 78.6876 47.9612 78.6886 47.7471C78.6895 47.533 78.6452 47.344 78.5557 47.1802C78.4661 47.0217 78.3391 46.899 78.1748 46.8119C78.0159 46.7247 77.8275 46.6837 77.6096 46.6888C77.3971 46.6939 77.2083 46.7439 77.0432 46.8388C76.8781 46.9337 76.75 47.0626 76.659 47.2253C76.5679 47.3934 76.5219 47.5845 76.5209 47.7986Z" fill="#4A9D77"/>
<path d="M75.2969 51.6326L79.0981 52.0088L78.9826 52.886L75.1813 52.5098L75.2969 51.6326ZM79.7372 52.5164C79.7568 52.3675 79.8235 52.2475 79.9371 52.1564C80.05 52.0707 80.1804 52.0351 80.3282 52.0497C80.476 52.0644 80.5938 52.1245 80.6815 52.2301C80.7685 52.3411 80.8022 52.471 80.7826 52.6198C80.7623 52.774 80.6957 52.894 80.5827 52.9798C80.4698 53.0655 80.3394 53.1011 80.1916 53.0865C80.0438 53.0718 79.926 53.0117 79.8383 52.9061C79.7506 52.8005 79.7169 52.6706 79.7372 52.5164Z" fill="#4A9D77"/>
<path d="M74.4693 55.9149L79.7493 57.0665L79.5309 57.9252L74.2509 56.7735L74.4693 55.9149ZM77.6482 55.6608L78.4247 55.8301L77.7496 58.4841L76.9731 58.3148L77.6482 55.6608Z" fill="#4A9D77"/>
<path d="M72.4669 61.521C72.5992 61.1976 72.8011 60.9343 73.0727 60.7311C73.3423 60.5329 73.6476 60.408 73.9887 60.3565C74.3326 60.3117 74.6784 60.3536 75.0259 60.4819C75.3783 60.6121 75.663 60.8032 75.88 61.0551C76.0999 61.3139 76.2389 61.6029 76.297 61.9221C76.3579 62.2482 76.3223 62.5729 76.1901 62.8963C76.0782 63.17 75.92 63.3893 75.7154 63.5542C75.5138 63.726 75.2858 63.8365 75.0314 63.8857C74.777 63.9349 74.5208 63.9118 74.2626 63.8164L73.235 63.4369C72.9769 63.3415 72.7715 63.1941 72.6188 62.9945C72.4641 62.7999 72.3709 62.5736 72.3392 62.3157C72.3125 62.0595 72.3551 61.7947 72.4669 61.521ZM73.1864 61.9414C73.0624 62.2449 73.0645 62.5263 73.1927 62.7856C73.319 63.0498 73.5409 63.2406 73.8587 63.358C74.0721 63.4368 74.278 63.4642 74.4764 63.4402C74.6748 63.4161 74.8502 63.3434 75.0027 63.2222C75.158 63.1078 75.2774 62.9486 75.3608 62.7446C75.4421 62.5456 75.4672 62.3515 75.4359 62.1624C75.4076 61.9802 75.3298 61.814 75.2026 61.6639C75.0734 61.5188 74.902 61.4069 74.6885 61.328C74.4751 61.2492 74.2692 61.2218 74.0708 61.2458C73.8703 61.2749 73.6924 61.3466 73.5371 61.461C73.3847 61.5823 73.2678 61.7424 73.1864 61.9414ZM72.0929 62.6456L73.0535 63.0004L73.8667 63.464L74.7885 63.6413L75.6671 63.9659L75.3315 64.7868L71.7573 63.4665L72.0929 62.6456Z" fill="#4A9D77"/>
<path d="M70.7471 65.1445L75.8155 67.7794L75.3813 68.5532L70.3129 65.9183L70.7471 65.1445Z" fill="#4A9D77"/>
<path d="M68.6692 68.4374L73.4359 71.5849L72.926 72.311L68.1594 69.1635L68.6692 68.4374Z" fill="#4A9D77"/>
<path d="M65.4558 72.354L69.4793 73.6385L68.8261 74.3629L65.9293 73.3574L66.1182 73.1478L67.4602 75.8776L66.8016 76.608L65.0887 72.7611L65.4558 72.354ZM65.055 70.488L66.0969 72.97L65.0887 72.7611L64.3964 71.2184L65.055 70.488Z" fill="#4A9D77"/>
</svg>
