<svg width="32" height="33" viewBox="0 0 32 33" fill="none" xmlns="http://www.w3.org/2000/svg">
<path d="M16.0001 30.2233C23.3639 30.2233 29.3334 24.2538 29.3334 16.89C29.3334 9.52618 23.3639 3.55664 16.0001 3.55664C8.63628 3.55664 2.66675 9.52618 2.66675 16.89C2.66675 24.2538 8.63628 30.2233 16.0001 30.2233Z" fill="#A0A3BD"/>
<path d="M17.4133 16.8911L20.48 13.8244C20.8666 13.4378 20.8666 12.7978 20.48 12.4111C20.0933 12.0244 19.4533 12.0244 19.0666 12.4111L16 15.4778L12.9333 12.4111C12.5466 12.0244 11.9066 12.0244 11.52 12.4111C11.1333 12.7978 11.1333 13.4378 11.52 13.8244L14.5866 16.8911L11.52 19.9578C11.1333 20.3444 11.1333 20.9844 11.52 21.3711C11.72 21.5711 11.9733 21.6644 12.2266 21.6644C12.48 21.6644 12.7333 21.5711 12.9333 21.3711L16 18.3044L19.0666 21.3711C19.2666 21.5711 19.52 21.6644 19.7733 21.6644C20.0266 21.6644 20.28 21.5711 20.48 21.3711C20.8666 20.9844 20.8666 20.3444 20.48 19.9578L17.4133 16.8911Z" fill="white"/>
</svg>
