<svg width="38" height="25" viewBox="0 0 38 25" fill="none" xmlns="http://www.w3.org/2000/svg">
<g clip-path="url(#clip0_35994_426991)">
<path opacity="0.07" d="M35 0.890625H3C1.3 0.890625 0 2.19062 0 3.89062V21.8906C0 23.5906 1.4 24.8906 3 24.8906H35C36.7 24.8906 38 23.5906 38 21.8906V3.89062C38 2.19062 36.6 0.890625 35 0.890625Z" fill="black"/>
<path d="M35 1.89062C36.1 1.89062 37 2.79062 37 3.89062V21.8906C37 22.9906 36.1 23.8906 35 23.8906H3C1.9 23.8906 1 22.9906 1 21.8906V3.89062C1 2.79062 1.9 1.89062 3 1.89062H35Z" fill="white"/>
<path d="M15 19.8906C18.866 19.8906 22 16.7566 22 12.8906C22 9.02463 18.866 5.89062 15 5.89062C11.134 5.89062 8 9.02463 8 12.8906C8 16.7566 11.134 19.8906 15 19.8906Z" fill="#EB001B"/>
<path d="M23 19.8906C26.866 19.8906 30 16.7566 30 12.8906C30 9.02463 26.866 5.89062 23 5.89062C19.134 5.89062 16 9.02463 16 12.8906C16 16.7566 19.134 19.8906 23 19.8906Z" fill="#F79E1B"/>
<path d="M22 12.8914C22 10.4914 20.8 8.39141 19 7.19141C17.2 8.49141 16 10.5914 16 12.8914C16 15.1914 17.2 17.3914 19 18.5914C20.8 17.3914 22 15.2914 22 12.8914Z" fill="#FF5F00"/>
</g>
<defs>
<clipPath id="clip0_35994_426991">
<rect width="38" height="24" fill="white" transform="translate(0 0.890625)"/>
</clipPath>
</defs>
</svg>
