<svg width="24" height="25" viewBox="0 0 24 25" fill="none" xmlns="http://www.w3.org/2000/svg">
<path d="M20.5 11.0806H17.61C15.24 11.0806 13.31 9.15062 13.31 6.78062V3.89062C13.31 3.34062 12.86 2.89062 12.31 2.89062H8.07C4.99 2.89062 2.5 4.89063 2.5 8.46063V17.3206C2.5 20.8906 4.99 22.8906 8.07 22.8906H15.93C19.01 22.8906 21.5 20.8906 21.5 17.3206V12.0806C21.5 11.5306 21.05 11.0806 20.5 11.0806ZM12.28 16.6706L10.28 18.6706C10.21 18.7406 10.12 18.8006 10.03 18.8306C9.94 18.8706 9.85 18.8906 9.75 18.8906C9.65 18.8906 9.56 18.8706 9.47 18.8306C9.39 18.8006 9.31 18.7406 9.25 18.6806C9.24 18.6706 9.23 18.6706 9.23 18.6606L7.23 16.6606C6.94 16.3706 6.94 15.8906 7.23 15.6006C7.52 15.3106 8 15.3106 8.29 15.6006L9 16.3306V12.1406C9 11.7306 9.34 11.3906 9.75 11.3906C10.16 11.3906 10.5 11.7306 10.5 12.1406V16.3306L11.22 15.6106C11.51 15.3206 11.99 15.3206 12.28 15.6106C12.57 15.9006 12.57 16.3806 12.28 16.6706Z" fill="#A0A3BD"/>
<path d="M17.4297 9.70111C18.3797 9.71111 19.6997 9.71111 20.8297 9.71111C21.3997 9.71111 21.6997 9.04111 21.2997 8.64111C19.8597 7.19111 17.2797 4.58111 15.7997 3.10111C15.3897 2.69111 14.6797 2.97111 14.6797 3.54111V7.03111C14.6797 8.49111 15.9197 9.70111 17.4297 9.70111Z" fill="#A0A3BD"/>
</svg>
