<svg width="24" height="25" viewBox="0 0 24 25" fill="none" xmlns="http://www.w3.org/2000/svg">
<path d="M12 22.8906C17.5228 22.8906 22 18.4135 22 12.8906C22 7.36778 17.5228 2.89062 12 2.89062C6.47715 2.89062 2 7.36778 2 12.8906C2 18.4135 6.47715 22.8906 12 22.8906Z" fill="#A0A3BD"/>
<path d="M13.0594 12.89L15.3594 10.59C15.6494 10.3 15.6494 9.82 15.3594 9.53C15.0694 9.24 14.5894 9.24 14.2994 9.53L11.9994 11.83L9.69937 9.53C9.40937 9.24 8.92937 9.24 8.63938 9.53C8.34938 9.82 8.34938 10.3 8.63938 10.59L10.9394 12.89L8.63938 15.19C8.34938 15.48 8.34938 15.96 8.63938 16.25C8.78938 16.4 8.97937 16.47 9.16937 16.47C9.35937 16.47 9.54937 16.4 9.69937 16.25L11.9994 13.95L14.2994 16.25C14.4494 16.4 14.6394 16.47 14.8294 16.47C15.0194 16.47 15.2094 16.4 15.3594 16.25C15.6494 15.96 15.6494 15.48 15.3594 15.19L13.0594 12.89Z" fill="white"/>
</svg>
