<svg width="20" height="21" viewBox="0 0 20 21" fill="none" xmlns="http://www.w3.org/2000/svg">
<path d="M10 0.890625C4.49 0.890625 0 5.38062 0 10.8906C0 16.4006 4.49 20.8906 10 20.8906C15.51 20.8906 20 16.4006 20 10.8906C20 5.38062 15.51 0.890625 10 0.890625ZM9.25 6.89062C9.25 6.48063 9.59 6.14062 10 6.14062C10.41 6.14062 10.75 6.48063 10.75 6.89062V11.8906C10.75 12.3006 10.41 12.6406 10 12.6406C9.59 12.6406 9.25 12.3006 9.25 11.8906V6.89062ZM10.92 15.2706C10.87 15.4006 10.8 15.5006 10.71 15.6006C10.61 15.6906 10.5 15.7606 10.38 15.8106C10.26 15.8606 10.13 15.8906 10 15.8906C9.87 15.8906 9.74 15.8606 9.62 15.8106C9.5 15.7606 9.39 15.6906 9.29 15.6006C9.2 15.5006 9.13 15.4006 9.08 15.2706C9.03 15.1506 9 15.0206 9 14.8906C9 14.7606 9.03 14.6306 9.08 14.5106C9.13 14.3906 9.2 14.2806 9.29 14.1806C9.39 14.0906 9.5 14.0206 9.62 13.9706C9.86 13.8706 10.14 13.8706 10.38 13.9706C10.5 14.0206 10.61 14.0906 10.71 14.1806C10.8 14.2806 10.87 14.3906 10.92 14.5106C10.97 14.6306 11 14.7606 11 14.8906C11 15.0206 10.97 15.1506 10.92 15.2706Z" fill="#A0A3BD"/>
</svg>
