<svg width="48" height="48" viewBox="0 0 48 48" fill="none" xmlns="http://www.w3.org/2000/svg">
<path d="M30.1118 0C31.1727 0 32.1901 0.421427 32.9403 1.17157L40.6306 8.86193C41.3808 9.61207 41.8022 10.6295 41.8022 11.6904V44C41.8022 46.2091 40.0113 48 37.8022 48H9.55468C7.34554 48 5.55469 46.2091 5.55469 44V4C5.55469 1.79086 7.34555 0 9.55469 0H30.1118Z" fill="#E2E2E2"/>
<path d="M41.8006 10.0335H35.7656C33.5565 10.0335 31.7656 8.24264 31.7656 6.0335V0L41.8006 10.0335Z" fill="#999999"/>
<path d="M38.7951 38.7174C38.4282 39.2955 37.7911 39.6458 37.1064 39.6458H2.06641V29.4687C2.06641 28.3642 2.96184 27.4688 4.06641 27.4688H42.2959C43.8729 27.4688 44.8296 29.2089 43.9845 30.5404L38.7951 38.7174Z" fill="#E94E5D"/>
<path d="M5.55391 43.1325V39.6465H2.06641L5.55391 43.1325Z" fill="#999999"/>
<path d="M13.5898 37.0732V30.0742H16.4098H16.7578C17.7043 30.0742 18.3433 30.2392 18.6718 30.5692C19.0018 30.8992 19.1668 31.5367 19.1668 32.4787C19.1668 33.4147 19.0093 34.0372 18.6958 34.3447C18.3823 34.6522 17.7463 34.8067 16.7893 34.8067L16.4818 34.8112H14.9188V37.0732H13.5898ZM14.9173 33.6952H16.4293C17.0308 33.6952 17.4133 33.6247 17.5753 33.4867C17.7373 33.3472 17.8198 33.0202 17.8198 32.5057C17.8198 31.9132 17.7523 31.5472 17.6173 31.4062C17.4823 31.2637 17.1313 31.1932 16.5643 31.1932H14.9188V33.6952H14.9173Z" fill="white"/>
<path d="M20.0137 37.0732V30.0742H23.4532C24.4312 30.0742 25.1152 30.2887 25.5067 30.7162C25.8982 31.1437 26.0947 31.8922 26.0947 32.9617C26.0947 34.7077 25.9372 35.8297 25.6237 36.3277C25.3087 36.8242 24.5992 37.0732 23.4952 37.0732H20.0137ZM21.3412 35.9557H23.2327C23.8687 35.9557 24.2782 35.8087 24.4657 35.5177C24.6517 35.2252 24.7447 34.5802 24.7447 33.5812C24.7447 32.5492 24.6607 31.8937 24.4942 31.6132C24.3262 31.3327 23.9332 31.1947 23.3152 31.1947H21.3412V35.9557Z" fill="white"/>
<path d="M28.3915 31.1932V33.0802H31.528V34.1962H28.3915V37.0732H27.0625V30.0742H31.6975V31.1932H28.3915Z" fill="white"/>
</svg>
