<svg width="48" height="48" viewBox="0 0 48 48" fill="none" xmlns="http://www.w3.org/2000/svg">
<path d="M30.1109 0C31.1718 0 32.1892 0.421427 32.9393 1.17157L40.6297 8.86193C41.3798 9.61207 41.8012 10.6295 41.8012 11.6904V44C41.8012 46.2091 40.0104 48 37.8012 48H9.55374C7.3446 48 5.55374 46.2091 5.55374 44V4C5.55374 1.79086 7.3446 0 9.55374 0H30.1109Z" fill="#E2E2E2"/>
<path d="M41.8012 10.0335H35.7662C33.5571 10.0335 31.7662 8.24264 31.7662 6.0335V0L41.8012 10.0335Z" fill="#999999"/>
<path d="M38.7949 38.7182C38.428 39.2962 37.7909 39.6465 37.1063 39.6465H2.06625V29.4695C2.06625 28.3649 2.96168 27.4695 4.06625 27.4695H42.2957C43.8728 27.4695 44.8294 29.2096 43.9843 30.5412L38.7949 38.7182Z" fill="#4AAA5C"/>
<path d="M5.55375 43.1325V39.6465H2.06625L5.55375 43.1325Z" fill="#999999"/>
<path d="M12.35 33.5C12.35 32.8133 12.5033 32.2 12.81 31.66C13.1233 31.1133 13.5467 30.69 14.08 30.39C14.62 30.0833 15.2233 29.93 15.89 29.93C16.67 29.93 17.3533 30.13 17.94 30.53C18.5267 30.93 18.9367 31.4833 19.17 32.19H17.56C17.4 31.8567 17.1733 31.6067 16.88 31.44C16.5933 31.2733 16.26 31.19 15.88 31.19C15.4733 31.19 15.11 31.2867 14.79 31.48C14.4767 31.6667 14.23 31.9333 14.05 32.28C13.8767 32.6267 13.79 33.0333 13.79 33.5C13.79 33.96 13.8767 34.3667 14.05 34.72C14.23 35.0667 14.4767 35.3367 14.79 35.53C15.11 35.7167 15.4733 35.81 15.88 35.81C16.26 35.81 16.5933 35.7267 16.88 35.56C17.1733 35.3867 17.4 35.1333 17.56 34.8H19.17C18.9367 35.5133 18.5267 36.07 17.94 36.47C17.36 36.8633 16.6767 37.06 15.89 37.06C15.2233 37.06 14.62 36.91 14.08 36.61C13.5467 36.3033 13.1233 35.88 12.81 35.34C12.5033 34.8 12.35 34.1867 12.35 33.5ZM22.7758 37.07C22.2891 37.07 21.8491 36.9867 21.4558 36.82C21.0691 36.6533 20.7624 36.4133 20.5358 36.1C20.3091 35.7867 20.1924 35.4167 20.1858 34.99H21.6858C21.7058 35.2767 21.8058 35.5033 21.9858 35.67C22.1724 35.8367 22.4258 35.92 22.7458 35.92C23.0724 35.92 23.3291 35.8433 23.5158 35.69C23.7024 35.53 23.7958 35.3233 23.7958 35.07C23.7958 34.8633 23.7324 34.6933 23.6058 34.56C23.4791 34.4267 23.3191 34.3233 23.1258 34.25C22.9391 34.17 22.6791 34.0833 22.3458 33.99C21.8924 33.8567 21.5224 33.7267 21.2358 33.6C20.9558 33.4667 20.7124 33.27 20.5058 33.01C20.3058 32.7433 20.2058 32.39 20.2058 31.95C20.2058 31.5367 20.3091 31.1767 20.5158 30.87C20.7224 30.5633 21.0124 30.33 21.3858 30.17C21.7591 30.0033 22.1858 29.92 22.6658 29.92C23.3858 29.92 23.9691 30.0967 24.4158 30.45C24.8691 30.7967 25.1191 31.2833 25.1658 31.91H23.6258C23.6124 31.67 23.5091 31.4733 23.3158 31.32C23.1291 31.16 22.8791 31.08 22.5658 31.08C22.2924 31.08 22.0724 31.15 21.9058 31.29C21.7458 31.43 21.6658 31.6333 21.6658 31.9C21.6658 32.0867 21.7258 32.2433 21.8458 32.37C21.9724 32.49 22.1258 32.59 22.3058 32.67C22.4924 32.7433 22.7524 32.83 23.0858 32.93C23.5391 33.0633 23.9091 33.1967 24.1958 33.33C24.4824 33.4633 24.7291 33.6633 24.9358 33.93C25.1424 34.1967 25.2458 34.5467 25.2458 34.98C25.2458 35.3533 25.1491 35.7 24.9558 36.02C24.7624 36.34 24.4791 36.5967 24.1058 36.79C23.7324 36.9767 23.2891 37.07 22.7758 37.07ZM32.7295 30.02L30.1695 37H28.4695L25.9095 30.02H27.4095L29.3295 35.57L31.2395 30.02H32.7295Z" fill="white"/>
</svg>
