<svg width="48" height="48" viewBox="0 0 48 48" fill="none" xmlns="http://www.w3.org/2000/svg">
<path d="M30.1109 0C31.1718 0 32.1892 0.421427 32.9393 1.17157L40.6297 8.86193C41.3798 9.61207 41.8012 10.6295 41.8012 11.6904V44C41.8012 46.2091 40.0104 48 37.8012 48H9.55374C7.3446 48 5.55374 46.2091 5.55374 44V4C5.55374 1.79086 7.3446 0 9.55374 0H30.1109Z" fill="#E2E2E2"/>
<path d="M41.8012 10.0335H35.7662C33.5571 10.0335 31.7662 8.24264 31.7662 6.0335V0L41.8012 10.0335Z" fill="#999999"/>
<path d="M38.7949 38.7182C38.428 39.2962 37.7909 39.6465 37.1063 39.6465H2.06625V29.4695C2.06625 28.3649 2.96168 27.4695 4.06625 27.4695H42.2957C43.8728 27.4695 44.8294 29.2096 43.9843 30.5412L38.7949 38.7182Z" fill="#2059B4"/>
<path d="M5.55375 43.1325V39.6465H2.06625L5.55375 43.1325Z" fill="#999999"/>
<path d="M13.13 30.02C13.8633 30.02 14.5067 30.1633 15.06 30.45C15.62 30.7367 16.05 31.1467 16.35 31.68C16.6567 32.2067 16.81 32.82 16.81 33.52C16.81 34.22 16.6567 34.8333 16.35 35.36C16.05 35.88 15.62 36.2833 15.06 36.57C14.5067 36.8567 13.8633 37 13.13 37H10.69V30.02H13.13ZM13.08 35.81C13.8133 35.81 14.38 35.61 14.78 35.21C15.18 34.81 15.38 34.2467 15.38 33.52C15.38 32.7933 15.18 32.2267 14.78 31.82C14.38 31.4067 13.8133 31.2 13.08 31.2H12.09V35.81H13.08ZM20.318 37.09C19.7846 37.09 19.3046 36.9733 18.878 36.74C18.4513 36.5 18.1146 36.1633 17.868 35.73C17.628 35.2967 17.508 34.7967 17.508 34.23C17.508 33.6633 17.6313 33.1633 17.878 32.73C18.1313 32.2967 18.4746 31.9633 18.908 31.73C19.3413 31.49 19.8246 31.37 20.358 31.37C20.8913 31.37 21.3746 31.49 21.808 31.73C22.2413 31.9633 22.5813 32.2967 22.828 32.73C23.0813 33.1633 23.208 33.6633 23.208 34.23C23.208 34.7967 23.078 35.2967 22.818 35.73C22.5646 36.1633 22.218 36.5 21.778 36.74C21.3446 36.9733 20.858 37.09 20.318 37.09ZM20.318 35.87C20.5713 35.87 20.808 35.81 21.028 35.69C21.2546 35.5633 21.4346 35.3767 21.568 35.13C21.7013 34.8833 21.768 34.5833 21.768 34.23C21.768 33.7033 21.628 33.3 21.348 33.02C21.0746 32.7333 20.738 32.59 20.338 32.59C19.938 32.59 19.6013 32.7333 19.328 33.02C19.0613 33.3 18.928 33.7033 18.928 34.23C18.928 34.7567 19.058 35.1633 19.318 35.45C19.5846 35.73 19.918 35.87 20.318 35.87ZM23.8749 34.23C23.8749 33.6567 23.9916 33.1567 24.2249 32.73C24.4583 32.2967 24.7816 31.9633 25.1949 31.73C25.6083 31.49 26.0816 31.37 26.6149 31.37C27.3016 31.37 27.8683 31.5433 28.3149 31.89C28.7683 32.23 29.0716 32.71 29.2249 33.33H27.7149C27.6349 33.09 27.4983 32.9033 27.3049 32.77C27.1183 32.63 26.8849 32.56 26.6049 32.56C26.2049 32.56 25.8883 32.7067 25.6549 33C25.4216 33.2867 25.3049 33.6967 25.3049 34.23C25.3049 34.7567 25.4216 35.1667 25.6549 35.46C25.8883 35.7467 26.2049 35.89 26.6049 35.89C27.1716 35.89 27.5416 35.6367 27.7149 35.13H29.2249C29.0716 35.73 28.7683 36.2067 28.3149 36.56C27.8616 36.9133 27.2949 37.09 26.6149 37.09C26.0816 37.09 25.6083 36.9733 25.1949 36.74C24.7816 36.5 24.4583 36.1667 24.2249 35.74C23.9916 35.3067 23.8749 34.8033 23.8749 34.23ZM33.3105 37L32.1705 35.28L31.1605 37H29.6605L31.4705 34.22L29.6405 31.46H31.2205L32.3505 33.17L33.3705 31.46H34.8705L33.0505 34.22L34.8905 37H33.3105Z" fill="white"/>
</svg>
