<svg width="48" height="48" viewBox="0 0 48 48" fill="none" xmlns="http://www.w3.org/2000/svg">
<path d="M30.1109 0C31.1718 0 32.1892 0.421427 32.9393 1.17157L40.6297 8.86193C41.3798 9.61207 41.8012 10.6295 41.8012 11.6904V44C41.8012 46.2091 40.0104 48 37.8012 48H9.55374C7.3446 48 5.55374 46.2091 5.55374 44V4C5.55374 1.79086 7.3446 0 9.55374 0H30.1109Z" fill="#E2E2E2"/>
<path d="M41.8012 10.0335H35.7662C33.5571 10.0335 31.7662 8.24264 31.7662 6.0335V0L41.8012 10.0335Z" fill="#999999"/>
<path d="M38.7949 38.7182C38.428 39.2962 37.7909 39.6465 37.1063 39.6465H2.06625V29.4695C2.06625 28.3649 2.96168 27.4695 4.06625 27.4695H42.2957C43.8728 27.4695 44.8294 29.2096 43.9843 30.5412L38.7949 38.7182Z" fill="#5CE6FE"/>
<path d="M5.55375 43.1325V39.6465H2.06625L5.55375 43.1325Z" fill="#999999"/>
<path d="M14.76 30.02V34.92C14.76 35.6 14.5633 36.13 14.17 36.51C13.7767 36.8833 13.25 37.07 12.59 37.07C11.9233 37.07 11.3833 36.8767 10.97 36.49C10.5633 36.1033 10.36 35.5633 10.36 34.87H11.76C11.7667 35.17 11.8367 35.4033 11.97 35.57C12.11 35.7367 12.31 35.82 12.57 35.82C12.8233 35.82 13.0167 35.74 13.15 35.58C13.2833 35.42 13.35 35.2 13.35 34.92V30.02H14.76ZM21.4831 32.18C21.4831 32.5533 21.3931 32.9033 21.2131 33.23C21.0398 33.5567 20.7631 33.82 20.3831 34.02C20.0098 34.22 19.5365 34.32 18.9631 34.32H17.7931V37H16.3931V30.02H18.9631C19.5031 30.02 19.9631 30.1133 20.3431 30.3C20.7231 30.4867 21.0065 30.7433 21.1931 31.07C21.3865 31.3967 21.4831 31.7667 21.4831 32.18ZM18.9031 33.19C19.2898 33.19 19.5765 33.1033 19.7631 32.93C19.9498 32.75 20.0431 32.5 20.0431 32.18C20.0431 31.5 19.6631 31.16 18.9031 31.16H17.7931V33.19H18.9031ZM23.8771 31.15V32.9H26.2271V34.01H23.8771V35.86H26.5271V37H22.4771V30.01H26.5271V31.15H23.8771ZM32.6594 32.12C32.4994 31.8267 32.2794 31.6033 31.9994 31.45C31.7194 31.2967 31.3927 31.22 31.0194 31.22C30.606 31.22 30.2394 31.3133 29.9194 31.5C29.5994 31.6867 29.3494 31.9533 29.1694 32.3C28.9894 32.6467 28.8994 33.0467 28.8994 33.5C28.8994 33.9667 28.9894 34.3733 29.1694 34.72C29.356 35.0667 29.6127 35.3333 29.9394 35.52C30.266 35.7067 30.646 35.8 31.0794 35.8C31.6127 35.8 32.0494 35.66 32.3894 35.38C32.7294 35.0933 32.9527 34.6967 33.0594 34.19H30.6594V33.12H34.4394V34.34C34.346 34.8267 34.146 35.2767 33.8394 35.69C33.5327 36.1033 33.136 36.4367 32.6494 36.69C32.1694 36.9367 31.6294 37.06 31.0294 37.06C30.356 37.06 29.746 36.91 29.1994 36.61C28.6594 36.3033 28.2327 35.88 27.9194 35.34C27.6127 34.8 27.4594 34.1867 27.4594 33.5C27.4594 32.8133 27.6127 32.2 27.9194 31.66C28.2327 31.1133 28.6594 30.69 29.1994 30.39C29.746 30.0833 30.3527 29.93 31.0194 29.93C31.806 29.93 32.4894 30.1233 33.0694 30.51C33.6494 30.89 34.0494 31.4267 34.2694 32.12H32.6594Z" fill="white"/>
</svg>
