<svg width="48" height="48" viewBox="0 0 48 48" fill="none" xmlns="http://www.w3.org/2000/svg">
<path d="M31.7687 0L41.8022 10.0335V48H5.55469V0H31.7687Z" fill="#E2E2E2"/>
<path d="M41.8006 10.0335H31.7656V0L41.8006 10.0335Z" fill="#999999"/>
<path d="M38.2059 39.6458H2.06641V27.4688H45.9339L38.2059 39.6458Z" fill="#14A085"/>
<path d="M5.55391 43.1325V39.6465H2.06641L5.55391 43.1325Z" fill="#999999"/>
<path d="M17.4434 30.0742V34.9057C17.4434 35.8042 17.2949 36.3997 16.9979 36.6937C16.7009 36.9877 16.0949 37.1347 15.1829 37.1347C14.2124 37.1347 13.5824 36.9922 13.2929 36.7102C13.0049 36.4267 12.8594 35.8042 12.8594 34.8487L12.8759 34.3312H14.1419C14.1629 34.5907 14.1734 34.7857 14.1734 34.9147C14.1734 35.0377 14.1794 35.1877 14.1899 35.3617C14.2109 35.7847 14.5469 35.9977 15.1994 35.9977C15.5894 35.9977 15.8399 35.9212 15.9509 35.7697C16.0619 35.6182 16.1174 35.2762 16.1174 34.7422V30.0742H17.4434Z" fill="white"/>
<path d="M18.6738 37.0732V30.0742H21.4938H21.8418C22.7898 30.0742 23.4273 30.2392 23.7558 30.5692C24.0873 30.8992 24.2508 31.5367 24.2508 32.4787C24.2508 33.4147 24.0948 34.0372 23.7798 34.3447C23.4663 34.6522 22.8303 34.8067 21.8733 34.8067L21.5658 34.8112H20.0028V37.0732H18.6738ZM20.0028 33.6952H21.5148C22.1163 33.6952 22.4988 33.6247 22.6608 33.4867C22.8228 33.3472 22.9053 33.0202 22.9053 32.5057C22.9053 31.9132 22.8378 31.5472 22.7013 31.4062C22.5663 31.2637 22.2168 31.1932 21.6483 31.1932H20.0028V33.6952Z" fill="white"/>
<path d="M27.8509 33.3507H30.9334L30.9544 34.7412C30.9544 35.7522 30.7639 36.4032 30.3829 36.6972C30.0019 36.9882 29.1499 37.1352 27.8314 37.1352C26.6209 37.1352 25.8199 36.9402 25.4269 36.5502C25.0324 36.1602 24.8359 35.3652 24.8359 34.1667C24.8359 32.6352 24.9154 31.6677 25.0714 31.2627C25.2664 30.7707 25.5619 30.4392 25.9594 30.2697C26.3554 30.0987 27.0289 30.0117 27.9799 30.0117C29.2219 30.0117 30.0274 30.1452 30.3874 30.4107C30.7504 30.6762 30.9319 31.2612 30.9319 32.1717H29.5879C29.5639 31.7127 29.4649 31.4292 29.2894 31.3182C29.1139 31.2072 28.6714 31.1532 27.9634 31.1532C27.1939 31.1532 26.7064 31.2477 26.4994 31.4397C26.2924 31.6302 26.1889 32.0802 26.1889 32.7867L26.1844 33.4902L26.1949 34.3872C26.1949 35.0817 26.2969 35.5227 26.5024 35.7132C26.7079 35.9022 27.1819 35.9967 27.9274 35.9967C28.6504 35.9967 29.1124 35.9157 29.3089 35.7552C29.5054 35.5962 29.6014 35.2167 29.6014 34.6182L29.6074 34.3317H27.8494V33.3507H27.8509Z" fill="white"/>
</svg>
