<svg width="32" height="32" viewBox="0 0 32 32" fill="none" xmlns="http://www.w3.org/2000/svg">
<circle cx="16" cy="16" r="16" fill="#E9F8E7"/>
<path d="M15.9653 3.65625C9.15049 3.65625 3.61963 9.18711 3.61963 16.0019C3.61963 22.8167 9.15049 28.3476 15.9653 28.3476C22.7801 28.3476 28.311 22.8167 28.311 16.0019C28.311 9.18711 22.7925 3.65625 15.9653 3.65625ZM19.669 18.755L16.0888 20.8167C15.6443 21.076 15.1505 21.1995 14.669 21.1995C14.1752 21.1995 13.6937 21.076 13.2493 20.8167C12.3604 20.2982 11.8295 19.3846 11.8295 18.3476V14.2118C11.8295 13.1871 12.3604 12.2612 13.2493 11.7427C14.1381 11.2242 15.1999 11.2242 16.1011 11.7427L19.6814 13.8044C20.5702 14.3229 21.1011 15.2365 21.1011 16.2735C21.1011 17.3106 20.5702 18.2365 19.669 18.755Z" fill="#7DD46E"/>
</svg>
