<svg width="48" height="48" viewBox="0 0 48 48" fill="none" xmlns="http://www.w3.org/2000/svg">
<path d="M30.1109 0C31.1718 0 32.1892 0.421427 32.9393 1.17157L40.6297 8.86193C41.3798 9.61207 41.8012 10.6295 41.8012 11.6904V44C41.8012 46.2091 40.0104 48 37.8012 48H9.55374C7.3446 48 5.55374 46.2091 5.55374 44V4C5.55374 1.79086 7.3446 0 9.55374 0H30.1109Z" fill="#E2E2E2"/>
<path d="M41.8012 10.0335H35.7662C33.5571 10.0335 31.7662 8.24264 31.7662 6.0335V0L41.8012 10.0335Z" fill="#999999"/>
<path d="M38.7949 38.7182C38.428 39.2962 37.7909 39.6465 37.1063 39.6465H2.06625V29.4695C2.06625 28.3649 2.96168 27.4695 4.06625 27.4695H42.2957C43.8728 27.4695 44.8294 29.2096 43.9843 30.5412L38.7949 38.7182Z" fill="#7E64FA"/>
<path d="M5.55375 43.1325V39.6465H2.06625L5.55375 43.1325Z" fill="#999999"/>
<path d="M17.78 32.18C17.78 32.5533 17.69 32.9033 17.51 33.23C17.3367 33.5567 17.06 33.82 16.68 34.02C16.3067 34.22 15.8333 34.32 15.26 34.32H14.09V37H12.69V30.02H15.26C15.8 30.02 16.26 30.1133 16.64 30.3C17.02 30.4867 17.3033 30.7433 17.49 31.07C17.6833 31.3967 17.78 31.7667 17.78 32.18ZM15.2 33.19C15.5867 33.19 15.8733 33.1033 16.06 32.93C16.2467 32.75 16.34 32.5 16.34 32.18C16.34 31.5 15.96 31.16 15.2 31.16H14.09V33.19H15.2ZM24.744 37H23.344L20.174 32.21V37H18.774V30.01H20.174L23.344 34.81V30.01H24.744V37ZM30.9875 32.12C30.8275 31.8267 30.6075 31.6033 30.3275 31.45C30.0475 31.2967 29.7208 31.22 29.3475 31.22C28.9342 31.22 28.5675 31.3133 28.2475 31.5C27.9275 31.6867 27.6775 31.9533 27.4975 32.3C27.3175 32.6467 27.2275 33.0467 27.2275 33.5C27.2275 33.9667 27.3175 34.3733 27.4975 34.72C27.6842 35.0667 27.9408 35.3333 28.2675 35.52C28.5942 35.7067 28.9742 35.8 29.4075 35.8C29.9408 35.8 30.3775 35.66 30.7175 35.38C31.0575 35.0933 31.2808 34.6967 31.3875 34.19H28.9875V33.12H32.7675V34.34C32.6742 34.8267 32.4742 35.2767 32.1675 35.69C31.8608 36.1033 31.4642 36.4367 30.9775 36.69C30.4975 36.9367 29.9575 37.06 29.3575 37.06C28.6842 37.06 28.0742 36.91 27.5275 36.61C26.9875 36.3033 26.5608 35.88 26.2475 35.34C25.9408 34.8 25.7875 34.1867 25.7875 33.5C25.7875 32.8133 25.9408 32.2 26.2475 31.66C26.5608 31.1133 26.9875 30.69 27.5275 30.39C28.0742 30.0833 28.6808 29.93 29.3475 29.93C30.1342 29.93 30.8175 30.1233 31.3975 30.51C31.9775 30.89 32.3775 31.4267 32.5975 32.12H30.9875Z" fill="white"/>
</svg>
