<svg width="23" height="22" viewBox="0 0 23 22" fill="none" xmlns="http://www.w3.org/2000/svg">
<path d="M1.42437 19.2507C1.38774 19.2507 1.35111 19.2441 1.31527 19.2302C1.18372 19.1797 1.09982 19.0449 1.10967 18.8989C1.11755 18.7833 2.03684 7.42055 14.0577 6.44578L14.0294 2.16382C14.0282 2.02937 14.107 1.90763 14.2267 1.85762C14.3465 1.80761 14.4843 1.83835 14.5733 1.93673L21.1895 9.22253C21.3042 9.34878 21.3042 9.54636 21.1899 9.67261L14.5324 17.0236C14.4433 17.1224 14.3051 17.1535 14.1854 17.1031C14.0648 17.0531 13.9865 16.931 13.9876 16.7957L14.0258 12.6224C5.93851 13.227 1.72056 19.0576 1.67802 19.117C1.61737 19.2027 1.52244 19.2507 1.42437 19.2507Z" fill="white"/>
</svg>
