<svg width="60" height="60" viewBox="0 0 60 60" fill="none" xmlns="http://www.w3.org/2000/svg">
<rect opacity="0.1" width="60" height="60" rx="8" fill="#E96F7C"/>
<path d="M31.0972 11.7031C24.9869 11.7031 20.0024 16.7046 20.0024 22.8149C20.0024 26.551 21.8702 29.8595 24.7158 31.8724C18.0815 34.5307 13.375 41.0175 13.375 48.5863C13.3852 49.0437 13.574 49.4789 13.9011 49.7988C14.2282 50.1187 14.6675 50.298 15.125 50.298C15.5825 50.298 16.0218 50.1187 16.3489 49.7988C16.676 49.4789 16.8648 49.0437 16.875 48.5863C16.875 40.5537 23.3482 34.0805 31.3809 34.0805C34.1848 34.0805 36.7876 34.8798 39.0029 36.2509C39.1991 36.373 39.4174 36.4552 39.6453 36.4928C39.8733 36.5303 40.1064 36.5224 40.3314 36.4697C40.5563 36.4171 40.7686 36.3206 40.9562 36.1857C41.1438 36.0509 41.303 35.8804 41.4246 35.6839C41.5462 35.4875 41.6278 35.2691 41.6648 35.0411C41.7019 34.813 41.6936 34.5798 41.6404 34.355C41.5872 34.1302 41.4902 33.9181 41.3549 33.7309C41.2197 33.5436 41.0488 33.3847 40.852 33.2636C39.8538 32.6458 38.7702 32.1622 37.6528 31.7461C40.4054 29.7227 42.209 26.4755 42.209 22.8149C42.209 16.7046 37.2074 11.7031 31.0972 11.7031ZM31.0972 15.2064C35.3159 15.2064 38.7056 18.5962 38.7056 22.8149C38.7056 27.0336 35.3159 30.4096 31.0972 30.4096C26.8785 30.4096 23.5024 27.0336 23.5024 22.8149C23.5024 18.5962 26.8785 15.2064 31.0972 15.2064ZM40.0762 37.9598C39.7269 37.9592 39.3854 38.0631 39.0957 38.2581C38.8059 38.4532 38.5811 38.7306 38.4503 39.0544C38.3194 39.3783 38.2884 39.7338 38.3614 40.0754C38.4343 40.417 38.6077 40.729 38.8594 40.9712L41.9937 44.1053L38.8594 47.2363C38.691 47.3971 38.5565 47.5899 38.4635 47.8033C38.3706 48.0168 38.3212 48.2465 38.3182 48.4793C38.3152 48.7121 38.3587 48.9432 38.4461 49.159C38.5335 49.3747 38.6631 49.571 38.8273 49.736C38.9915 49.9011 39.1869 50.0318 39.4022 50.1204C39.6175 50.209 39.8483 50.2537 40.0811 50.252C40.3139 50.2503 40.544 50.2022 40.7579 50.1105C40.9719 50.0187 41.1654 49.8851 41.3272 49.7177L44.4683 46.5799L47.606 49.7177C47.9352 50.0457 48.3812 50.2298 48.846 50.2294C49.3108 50.2289 49.7565 50.0441 50.0851 49.7154C50.4138 49.3868 50.5986 48.9411 50.5991 48.4763C50.5995 48.0115 50.4155 47.5656 50.0874 47.2363L46.9497 44.1053L50.0874 40.9712C50.3433 40.7254 50.5185 40.4076 50.5897 40.06C50.6609 39.7124 50.6248 39.3515 50.4861 39.0249C50.3475 38.6984 50.1129 38.4217 49.8134 38.2315C49.5139 38.0413 49.1636 37.9464 48.8091 37.9598C48.3544 37.9733 47.9229 38.1634 47.606 38.4896L44.4683 41.6274L41.3272 38.4896C41.1645 38.3224 40.97 38.1894 40.7552 38.0985C40.5403 38.0075 40.3095 37.9603 40.0762 37.9598Z" fill="#E96F7C"/>
</svg>
