<svg width="50" height="50" viewBox="0 0 50 50" fill="none" xmlns="http://www.w3.org/2000/svg">
<path d="M22.3998 35.125V39.3542C22.3998 42.9376 19.0664 45.8334 14.9623 45.8334C10.8581 45.8334 7.50391 42.9376 7.50391 39.3542V35.125C7.50391 38.7083 10.8373 41.25 14.9623 41.25C19.0664 41.25 22.3998 38.6875 22.3998 35.125Z" stroke="#4A9D77" stroke-width="2" stroke-linecap="round" stroke-linejoin="round"/>
<path d="M22.3951 29.3958C22.3951 30.4374 22.1034 31.3958 21.6034 32.2291C20.3743 34.2499 17.8534 35.5208 14.9368 35.5208C12.0201 35.5208 9.49923 34.2291 8.27007 32.2291C7.77007 31.3958 7.47852 30.4374 7.47852 29.3958C7.47852 27.6041 8.3118 25.9999 9.64514 24.8333C10.9993 23.6458 12.8534 22.9375 14.9159 22.9375C16.9784 22.9375 18.8326 23.6666 20.1868 24.8333C21.5618 25.9791 22.3951 27.6041 22.3951 29.3958Z" stroke="#4A9D77" stroke-width="2" stroke-linecap="round" stroke-linejoin="round"/>
<path d="M22.3998 29.3952V35.1243C22.3998 38.7077 19.0664 41.2493 14.9623 41.2493C10.8581 41.2493 7.50391 38.6868 7.50391 35.1243V29.3952C7.50391 25.8118 10.8373 22.916 14.9623 22.916C17.0248 22.916 18.879 23.6451 20.2332 24.8118C21.5665 25.9785 22.3998 27.6035 22.3998 29.3952Z" stroke="#4A9D77" stroke-width="2" stroke-linecap="round" stroke-linejoin="round"/>
<path d="M45.8341 22.8534V27.1452C45.8341 28.2911 44.9174 29.2285 43.7508 29.2701H39.6674C37.4174 29.2701 35.3549 27.6243 35.1674 25.3743C35.0424 24.0618 35.5424 22.8326 36.4174 21.9785C37.1882 21.1868 38.2507 20.7285 39.4174 20.7285H43.7508C44.9174 20.7702 45.8341 21.7076 45.8341 22.8534Z" stroke="#4A9D77" stroke-width="2" stroke-linecap="round" stroke-linejoin="round"/>
<path d="M4.16602 21.8744V17.7077C4.16602 12.041 7.58269 8.08268 12.8952 7.41601C13.4369 7.33268 13.9993 7.29102 14.5827 7.29102H33.3327C33.8743 7.29102 34.3952 7.31182 34.8952 7.39516C40.2702 8.02016 43.7493 11.9993 43.7493 17.7077V20.7285H39.416C38.2493 20.7285 37.1868 21.1868 36.416 21.9785C35.541 22.8327 35.041 24.0618 35.166 25.3743C35.3535 27.6243 37.416 29.2702 39.666 29.2702H43.7493V32.291C43.7493 38.541 39.5827 42.7077 33.3327 42.7077H28.1243" stroke="#4A9D77" stroke-width="2" stroke-linecap="round" stroke-linejoin="round"/>
</svg>
