<svg width="60" height="60" viewBox="0 0 60 60" fill="none" xmlns="http://www.w3.org/2000/svg">
<rect opacity="0.05" width="60" height="60" rx="10.9091" fill="#4783FF"/>
<path d="M40.5006 21.53C40.3956 21.5125 40.2731 21.5125 40.1681 21.53C37.7531 21.4425 35.8281 19.465 35.8281 17.015C35.8281 14.5125 37.8406 12.5 40.3431 12.5C42.8456 12.5 44.8581 14.53 44.8581 17.015C44.8406 19.465 42.9156 21.4425 40.5006 21.53Z" stroke="#4783FF" stroke-width="2.625" stroke-linecap="round" stroke-linejoin="round"/>
<path d="M38.697 34.2703C41.0945 34.6728 43.737 34.2528 45.592 33.0103C48.0595 31.3653 48.0595 28.6703 45.592 27.0253C43.7195 25.7828 41.042 25.3628 38.6445 25.7828" stroke="#4783FF" stroke-width="2.625" stroke-linecap="round" stroke-linejoin="round"/>
<path d="M19.4454 21.53C19.5504 21.5125 19.6729 21.5125 19.7779 21.53C22.1929 21.4425 24.1179 19.465 24.1179 17.015C24.1179 14.5125 22.1054 12.5 19.6029 12.5C17.1004 12.5 15.0879 14.53 15.0879 17.015C15.1054 19.465 17.0304 21.4425 19.4454 21.53Z" stroke="#4783FF" stroke-width="2.625" stroke-linecap="round" stroke-linejoin="round"/>
<path d="M21.2495 34.2703C18.852 34.6728 16.2095 34.2528 14.3545 33.0103C11.887 31.3653 11.887 28.6703 14.3545 27.0253C16.227 25.7828 18.9045 25.3628 21.302 25.7828" stroke="#4783FF" stroke-width="2.625" stroke-linecap="round" stroke-linejoin="round"/>
<path d="M30.0006 34.6042C29.8956 34.5867 29.7731 34.5867 29.6681 34.6042C27.2531 34.5167 25.3281 32.5392 25.3281 30.0892C25.3281 27.5867 27.3406 25.5742 29.8431 25.5742C32.3456 25.5742 34.3581 27.6042 34.3581 30.0892C34.3406 32.5392 32.4156 34.5342 30.0006 34.6042Z" stroke="#4783FF" stroke-width="2.625" stroke-linecap="round" stroke-linejoin="round"/>
<path d="M24.9092 40.1178C22.4417 41.7628 22.4417 44.4578 24.9092 46.1028C27.7092 47.9753 32.2942 47.9753 35.0942 46.1028C37.5617 44.4578 37.5617 41.7628 35.0942 40.1178C32.3117 38.2628 27.7092 38.2628 24.9092 40.1178Z" stroke="#4783FF" stroke-width="2.625" stroke-linecap="round" stroke-linejoin="round"/>
</svg>
