<svg width="60" height="60" viewBox="0 0 60 60" fill="none" xmlns="http://www.w3.org/2000/svg">
<rect opacity="0.1" width="60" height="60" rx="8" fill="#4A9D77"/>
<path d="M29.1011 10.7031C22.9908 10.7031 18.0063 15.7046 18.0063 21.8149C18.0063 25.55 19.8754 28.8594 22.7197 30.8724C16.0854 33.5307 11.3789 40.0175 11.3789 47.5863C11.3891 48.0437 11.5779 48.4789 11.905 48.7988C12.2321 49.1187 12.6714 49.298 13.1289 49.298C13.5864 49.298 14.0258 49.1187 14.3528 48.7988C14.6799 48.4789 14.8688 48.0437 14.8789 47.5863C14.8789 39.5537 21.3556 33.0805 29.3882 33.0805C32.1921 33.0805 34.7949 33.8798 37.0103 35.2509C37.2064 35.3728 37.4247 35.4546 37.6525 35.4919C37.8804 35.5293 38.1134 35.5214 38.3382 35.4685C38.563 35.4157 38.7751 35.3191 38.9625 35.1841C39.1499 35.0492 39.3088 34.8788 39.4302 34.6823C39.5516 34.4859 39.633 34.2674 39.6698 34.0394C39.7067 33.8115 39.6982 33.5784 39.6448 33.3538C39.5915 33.1291 39.4943 32.9171 39.359 32.7301C39.2236 32.543 39.0527 32.3845 38.856 32.2636C37.8577 31.6458 36.7741 31.1622 35.6567 30.7461C38.4093 28.7227 40.2129 25.4755 40.2129 21.8149C40.2129 15.7046 35.2113 10.7031 29.1011 10.7031ZM29.1011 14.2064C33.3198 14.2064 36.7129 17.5962 36.7129 21.8149C36.7129 26.0336 33.3198 29.4096 29.1011 29.4096C24.8824 29.4096 21.5063 26.0336 21.5063 21.8149C21.5064 17.5962 24.8824 14.2064 29.1011 14.2064ZM46.813 35.21C46.5285 35.2182 46.2504 35.2955 46.0026 35.4354C45.7549 35.5754 45.545 35.7737 45.3911 36.0131L39.3584 45.0537L35.5747 42.5209C35.3828 42.3919 35.1674 42.3021 34.9407 42.2565C34.7141 42.2109 34.4807 42.2105 34.2538 42.2553C34.027 42.3001 33.8113 42.3893 33.619 42.5177C33.4267 42.646 33.2616 42.8111 33.1332 43.0033C33.0048 43.1956 32.9156 43.4111 32.8707 43.6379C32.8259 43.8647 32.8262 44.0984 32.8717 44.325C32.9172 44.5517 33.007 44.7671 33.1359 44.959C33.2649 45.151 33.4304 45.3155 33.623 45.4433L38.8833 48.9433C39.0749 49.0705 39.2897 49.1586 39.5154 49.2027C39.7411 49.2468 39.9733 49.2458 40.1987 49.2001C40.424 49.1544 40.6382 49.0648 40.8289 48.9363C41.0196 48.8078 41.1831 48.643 41.3101 48.4512L48.3135 37.9478C48.4961 37.681 48.6013 37.3687 48.6172 37.0458C48.6332 36.7228 48.5594 36.4017 48.404 36.1181C48.2486 35.8345 48.0176 35.5996 47.7368 35.4393C47.456 35.279 47.1362 35.1996 46.813 35.21Z" fill="#4A9D77"/>
</svg>
