<svg width="38" height="38" viewBox="0 0 38 38" fill="none" xmlns="http://www.w3.org/2000/svg">
<path d="M0 19C0 8.50659 8.50659 0 19 0C29.4934 0 38 8.50659 38 19C38 29.4934 29.4934 38 19 38C8.50659 38 0 29.4934 0 19Z" fill="#55ACEE"/>
<path d="M18.931 15.0434L18.9708 15.7009L18.3063 15.6204C15.8875 15.3118 13.7744 14.2652 11.9802 12.5076L11.1031 11.6355L10.8771 12.2795C10.3987 13.7151 10.7044 15.2313 11.7011 16.251C12.2327 16.8145 12.1131 16.895 11.1961 16.5596C10.8771 16.4522 10.5981 16.3717 10.5715 16.412C10.4784 16.5059 10.7974 17.7269 11.0499 18.2099C11.3955 18.8808 12.0998 19.5382 12.8707 19.9273L13.5219 20.2359L12.7511 20.2493C12.0068 20.2493 11.9802 20.2627 12.06 20.5445C12.3258 21.4166 13.3757 22.3424 14.5452 22.7449L15.3692 23.0267L14.6515 23.456C13.5883 24.0732 12.3391 24.4221 11.0898 24.4489C10.4917 24.4623 10 24.516 10 24.5562C10 24.6904 11.6214 25.4418 12.565 25.7369C15.3958 26.6091 18.7582 26.2334 21.2833 24.7441C23.0775 23.6841 24.8716 21.5776 25.7089 19.5382C26.1608 18.4514 26.6126 16.4657 26.6126 15.513C26.6126 14.8958 26.6525 14.8153 27.3967 14.0774C27.8353 13.648 28.2473 13.1784 28.3271 13.0443C28.46 12.7893 28.4467 12.7893 27.7689 13.0174C26.6392 13.42 26.4797 13.3663 27.0379 12.7625C27.4499 12.3332 27.9416 11.555 27.9416 11.3269C27.9416 11.2866 27.7423 11.3537 27.5164 11.4745C27.2771 11.6086 26.7455 11.8099 26.3468 11.9306L25.6292 12.1587L24.978 11.716C24.6191 11.4745 24.1141 11.2061 23.8483 11.1256C23.1705 10.9378 22.1339 10.9646 21.5225 11.1793C19.8613 11.7831 18.8113 13.3395 18.931 15.0434Z" fill="white"/>
</svg>
