<svg width="38" height="38" viewBox="0 0 38 38" fill="none" xmlns="http://www.w3.org/2000/svg">
<path d="M19 38C29.4934 38 38 29.4934 38 19C38 8.50659 29.4934 0 19 0C8.50659 0 0 8.50659 0 19C0 29.4934 8.50659 38 19 38Z" fill="#25D366"/>
<path fill-rule="evenodd" clip-rule="evenodd" d="M19.6273 29.5709H19.6226C17.7318 29.5702 15.8738 29.0958 14.2236 28.1957L8.23438 29.7668L9.8372 23.9123C8.8485 22.1989 8.32825 20.2553 8.3291 18.2641C8.33158 12.0348 13.3999 6.9668 19.6272 6.9668C22.6495 6.9681 25.4862 8.14469 27.6193 10.2802C29.7523 12.4157 30.9264 15.2542 30.9252 18.273C30.9227 24.5008 25.8565 29.5683 19.6273 29.5709ZM14.5027 26.1503L14.8456 26.3538C16.2874 27.2094 17.9401 27.6621 19.6251 27.6628H19.629C24.8047 27.6628 29.0172 23.4501 29.0193 18.2723C29.0202 15.7631 28.0444 13.4038 26.2715 11.6289C24.4986 9.85386 22.1408 8.87587 19.6326 8.875C14.4529 8.875 10.2403 13.0872 10.2383 18.2647C10.2376 20.039 10.734 21.767 11.674 23.2621L11.8973 23.6174L10.9486 27.0826L14.5027 26.1503ZM24.9328 20.7057C25.1297 20.8009 25.2626 20.8651 25.3194 20.9599C25.3899 21.0776 25.3899 21.6428 25.1548 22.3023C24.9195 22.9617 23.7917 23.5636 23.2493 23.6446C22.7629 23.7173 22.1475 23.7476 21.4712 23.5327C21.0612 23.4026 20.5354 23.2289 19.8619 22.9381C17.2154 21.7953 15.4269 19.2303 15.0889 18.7455C15.0652 18.7115 15.0487 18.6878 15.0394 18.6755L15.0371 18.6724C14.8877 18.4731 13.8867 17.1375 13.8867 15.7552C13.8867 14.4548 14.5255 13.7733 14.8195 13.4595C14.8396 13.438 14.8582 13.4183 14.8747 13.4002C15.1335 13.1175 15.4394 13.0469 15.6275 13.0469C15.8157 13.0469 16.0041 13.0486 16.1686 13.0569C16.1889 13.0579 16.21 13.0578 16.2318 13.0576C16.3963 13.0567 16.6014 13.0555 16.8037 13.5415C16.8816 13.7285 16.9955 14.0058 17.1156 14.2982C17.3585 14.8896 17.6269 15.543 17.6741 15.6376C17.7447 15.7789 17.7917 15.9437 17.6977 16.1322C17.6835 16.1604 17.6705 16.1871 17.658 16.2126C17.5873 16.3569 17.5353 16.463 17.4154 16.6031C17.3682 16.6581 17.3194 16.7175 17.2707 16.7769C17.1736 16.8951 17.0765 17.0134 16.9919 17.0977C16.8506 17.2384 16.7035 17.3911 16.8681 17.6738C17.0328 17.9564 17.5994 18.8808 18.4386 19.6294C19.3407 20.434 20.1248 20.7741 20.5222 20.9465C20.5998 20.9802 20.6627 21.0074 20.7088 21.0305C20.991 21.1719 21.1557 21.1482 21.3204 20.9599C21.485 20.7715 22.026 20.1355 22.2142 19.853C22.4024 19.5705 22.5906 19.6175 22.8494 19.7117C23.1082 19.806 24.4961 20.4888 24.7784 20.6301C24.8335 20.6577 24.885 20.6826 24.9328 20.7057Z" fill="#FDFDFD"/>
</svg>
