<svg width="60" height="60" viewBox="0 0 60 60" fill="none" xmlns="http://www.w3.org/2000/svg">
<rect opacity="0.1" width="60" height="60" rx="8" fill="#4CA4FD"/>
<path d="M36.9833 13.3333H23.0167C16.95 13.3333 13.3333 16.95 13.3333 23.0167V36.9667C13.3333 43.05 16.95 46.6667 23.0167 46.6667H36.9667C43.0333 46.6667 46.65 43.05 46.65 36.9833V23.0167C46.6667 16.95 43.05 13.3333 36.9833 13.3333Z" fill="#4783FF"/>
<path d="M27.7324 25.834C27.4158 25.834 27.0991 25.7174 26.8491 25.4674C25.6658 24.284 23.7324 24.284 22.5491 25.4674C22.0658 25.9507 21.2658 25.9507 20.7824 25.4674C20.2991 24.984 20.2991 24.184 20.7824 23.7007C22.9324 21.5507 26.4491 21.5507 28.6158 23.7007C29.0991 24.184 29.0991 24.984 28.6158 25.4674C28.3658 25.7174 28.0491 25.834 27.7324 25.834Z" fill="#EDF6FF"/>
<path d="M32.268 25.834C31.9513 25.834 31.6346 25.7174 31.3846 25.4674C30.9013 24.984 30.9013 24.184 31.3846 23.7007C33.5346 21.5507 37.0513 21.5507 39.218 23.7007C39.7013 24.184 39.7013 24.984 39.218 25.4674C38.7346 25.9507 37.9346 25.9507 37.4513 25.4674C36.268 24.284 34.3346 24.284 33.1513 25.4674C32.918 25.7174 32.6013 25.834 32.268 25.834Z" fill="#EDF6FF"/>
<path d="M29.9986 29.8665C25.5152 29.8665 21.8652 33.5165 21.8652 37.9999C21.8652 39.1665 22.8152 40.1332 23.9819 40.1332H35.9819C37.1486 40.1332 38.0986 39.1832 38.0986 37.9999C38.1319 33.5165 34.4819 29.8665 29.9986 29.8665Z" fill="#EDF6FF"/>
</svg>
