<svg width="14" height="14" viewBox="0 0 14 14" fill="none" xmlns="http://www.w3.org/2000/svg">
<path d="M6.11051 12.688C6.11051 12.3547 6.23331 12.0214 6.49644 11.7583L10.8293 7.4254L6.49644 3.09254C5.98772 2.58383 5.98772 1.74182 6.49644 1.2331C7.00515 0.724383 7.84717 0.724383 8.35588 1.2331L13.6185 6.49568C14.1272 7.0044 14.1272 7.84641 13.6185 8.35512L8.35588 13.6177C7.84717 14.1264 7.00515 14.1264 6.49644 13.6177C6.23331 13.3546 6.11051 13.0213 6.11051 12.688Z" fill="white"/>
<path d="M-5.9395e-07 7.31564C-5.62512e-07 6.59643 0.596425 6 1.31564 6L11.8408 6C12.56 6 13.1564 6.59643 13.1564 7.31564C13.1564 8.03486 12.56 8.63129 11.8408 8.63129L1.31564 8.63129C0.596425 8.63129 -6.25389e-07 8.03486 -5.9395e-07 7.31564Z" fill="white"/>
</svg>
