<svg width="24" height="24" viewBox="0 0 24 24" fill="none" xmlns="http://www.w3.org/2000/svg">
<path d="M5.06875 3.15289L15.1045 9.03134C17.5525 10.4652 18.627 13.3983 17.8653 16.0356C18.3715 15.8942 18.9328 15.947 19.4206 16.2327C20.3874 16.799 20.7191 18.0551 20.1584 19.0405C19.6003 20.0213 18.3621 20.3579 17.3953 19.7916C16.9075 19.5058 16.5793 19.0436 16.4494 18.5236C14.5765 20.5161 11.5426 21.0366 9.09018 19.6001C6.51361 18.0908 5.4528 14.9259 6.46139 12.1872L1.56102 9.31685C1.02441 9.00253 0.840731 8.30704 1.15054 7.76263L3.53938 3.56484C3.84663 3.02493 4.53215 2.83857 5.06875 3.15289ZM18.0124 18.7073C18.3894 18.9281 18.872 18.7969 19.0896 18.4144C19.3073 18.032 19.1779 17.5423 18.801 17.3215C18.424 17.1007 17.9414 17.2319 17.7238 17.6144C17.5017 17.9942 17.631 18.4839 18.0124 18.7073Z" fill="white"/>
<path d="M19.1558 10.7443C18.8628 10.9266 18.4827 10.8359 18.3049 10.5458C18.1226 10.2531 18.2145 9.86298 18.5049 9.68515L21.3813 7.87255C21.6672 7.69212 22.0499 7.77827 22.2296 8.0755C22.4119 8.36824 22.3199 8.75833 22.0295 8.93616L19.1558 10.7443Z" fill="white"/>
<path d="M22.244 13.3805L18.9478 12.5955C18.7803 12.5574 18.6442 12.4537 18.5628 12.316C18.4815 12.1784 18.448 12.0088 18.4874 11.8459C18.567 11.5086 18.8982 11.3007 19.2307 11.3814L22.525 12.1593C22.8575 12.2401 23.0624 12.5761 22.9828 12.9134C22.9032 13.2507 22.572 13.4586 22.244 13.3805Z" fill="white"/>
<path d="M17.2384 9.80149C17.0709 9.76336 16.9374 9.65514 16.8535 9.52201C16.7721 9.38439 16.7386 9.21476 16.7806 9.0474L17.5517 5.70774C17.6313 5.37043 17.9625 5.16249 18.295 5.24326C18.6275 5.32402 18.8324 5.66004 18.7528 5.99734L17.9791 9.34151C17.9046 9.66982 17.5734 9.87775 17.2384 9.80149Z" fill="white"/>
</svg>
