<svg width="41" height="40" viewBox="0 0 41 40" fill="none" xmlns="http://www.w3.org/2000/svg">
<path d="M22.295 27.9412C22.0893 27.9412 21.8837 27.8938 21.6939 27.7672L16.7903 24.8412C15.5723 24.1136 14.6707 22.5162 14.6707 21.1085V14.6237C14.6707 13.9753 15.2085 13.4375 15.857 13.4375C16.5055 13.4375 17.0434 13.9753 17.0434 14.6237V21.1085C17.0434 21.6779 17.5179 22.5162 18.0083 22.8009L22.9119 25.7269C23.4813 26.059 23.6553 26.7866 23.3231 27.356C23.0859 27.7356 22.6904 27.9412 22.295 27.9412Z" fill="#363565"/>
<path d="M0.614005 19.2273C0.614006 9.84814 8.2383 2.22461 17.6184 2.22461C26.9985 2.22461 34.6228 9.84815 34.6228 19.2273C34.6228 19.8758 34.085 20.4135 33.4364 20.4135C32.7879 20.4135 32.2501 19.8758 32.2501 19.2273C32.2501 11.1609 25.6856 4.59708 17.6184 4.59708C9.5512 4.59708 2.98671 11.1609 2.98671 19.2273C2.98671 27.2937 9.5512 33.8575 17.6184 33.8575C18.2669 33.8575 18.8048 34.3953 18.8048 35.0438C18.8048 35.6922 18.2669 36.23 17.6184 36.23C8.2383 36.23 0.614005 28.6065 0.614005 19.2273Z" fill="#363565"/>
<path d="M28.9441 37.3805L31.7158 34.4833C31.911 34.2742 32.0679 34.0894 32.1864 33.929C32.3119 33.7617 32.4026 33.6048 32.4584 33.4583C32.5141 33.3049 32.542 33.1515 32.542 32.9981C32.542 32.6913 32.4409 32.4508 32.2387 32.2765C32.0435 32.1021 31.789 32.015 31.4752 32.015C31.1545 32.015 30.8686 32.0987 30.6175 32.266C30.3735 32.4334 30.1434 32.6983 29.9272 33.0609L28.9546 32.2346C29.2474 31.7396 29.61 31.3665 30.0423 31.1155C30.4816 30.8575 30.9836 30.7285 31.5484 30.7285C32.0295 30.7285 32.4479 30.8226 32.8035 31.0109C33.1661 31.1992 33.445 31.4607 33.6402 31.7953C33.8355 32.13 33.9331 32.5205 33.9331 32.9668C33.9331 33.2666 33.8947 33.5385 33.818 33.7826C33.7483 34.0266 33.6263 34.2707 33.452 34.5147C33.2846 34.7518 33.051 35.0202 32.7512 35.3201L30.7326 37.3805H28.9441ZM28.9441 38.1963V37.3805L30.1573 36.9621H34.09V38.1963H28.9441Z" fill="#363565"/>
<path d="M34.7147 35.6025L37.2249 30.8436H38.7938L36.2209 35.6025H34.7147ZM34.7147 36.4392V35.6025L35.2377 35.1946H40.5091V36.4392H34.7147ZM38.1872 38.1963V33.5106H39.5887V38.1963H38.1872Z" fill="#363565"/>
<path d="M39.3217 16.1858L34.7364 20.7707C34.2664 21.2407 33.4869 21.2407 33.0169 20.7707L28.4315 16.1858C27.9615 15.7159 27.9615 14.9365 28.4315 14.4665C28.9015 13.9966 29.681 13.9966 30.151 14.4665L33.8766 18.1917L37.6022 14.4665C38.0722 13.9966 38.8517 13.9966 39.3217 14.4665C39.7917 14.9365 39.7917 15.7159 39.3217 16.1858Z" fill="#363565"/>
</svg>
