<svg width="30" height="30" viewBox="0 0 30 30" fill="none" xmlns="http://www.w3.org/2000/svg">
<path d="M18.1976 0C19.2585 0 20.2759 0.421427 21.026 1.17157L24.9538 5.09936C25.704 5.84951 26.1254 6.86693 26.1254 7.92779V26C26.1254 28.2091 24.3345 30 22.1254 30H7.47071C5.26157 30 3.4707 28.2091 3.4707 26V4C3.4707 1.79086 5.26156 0 7.4707 0H18.1976Z" fill="#E2E2E2"/>
<path d="M26.1254 6.27094H23.8535C21.6444 6.27094 19.8535 4.48008 19.8535 2.27094V0L26.1254 6.27094Z" fill="#999999"/>
<path d="M24.4674 23.8503C24.1005 24.4284 23.4634 24.7786 22.7787 24.7786H1.29102V19.168C1.29102 18.0634 2.18645 17.168 3.29102 17.168H25.0702C26.6472 17.168 27.6039 18.9081 26.7588 20.2396L24.4674 23.8503Z" fill="#E94E5D"/>
<path d="M3.4707 26.958V24.7793H1.29102L3.4707 26.958Z" fill="#999999"/>
<path d="M8.49414 23.1713V18.7969H10.2566H10.4741C11.0657 18.7969 11.4651 18.9 11.6704 19.1062C11.8766 19.3125 11.9798 19.7109 11.9798 20.2997C11.9798 20.8847 11.8813 21.2738 11.6854 21.4659C11.4895 21.6581 11.092 21.7547 10.4938 21.7547L10.3016 21.7575H9.32477V23.1713H8.49414ZM9.32383 21.06H10.2688C10.6448 21.06 10.8838 21.0159 10.9851 20.9297C11.0863 20.8425 11.1379 20.6381 11.1379 20.3166C11.1379 19.9463 11.0957 19.7175 11.0113 19.6294C10.927 19.5403 10.7076 19.4963 10.3532 19.4963H9.32477V21.06H9.32383Z" fill="white"/>
<path d="M12.5098 23.1712V18.7969H14.6595C15.2707 18.7969 15.6982 18.9309 15.9429 19.1981C16.1876 19.4653 16.3104 19.9331 16.3104 20.6016C16.3104 21.6928 16.212 22.3941 16.016 22.7053C15.8191 23.0156 15.3757 23.1712 14.6857 23.1712H12.5098ZM13.3395 22.4728H14.5216C14.9191 22.4728 15.1751 22.3809 15.2923 22.1991C15.4085 22.0163 15.4666 21.6131 15.4666 20.9888C15.4666 20.3438 15.4141 19.9341 15.3101 19.7588C15.2051 19.5834 14.9595 19.4972 14.5732 19.4972H13.3395V22.4728Z" fill="white"/>
<path d="M17.7457 19.4963V20.6756H19.706V21.3731H17.7457V23.1712H16.915V18.7969H19.8119V19.4963H17.7457Z" fill="white"/>
</svg>
