<svg width="30" height="30" viewBox="0 0 30 30" fill="none" xmlns="http://www.w3.org/2000/svg">
<path d="M19.8545 0L26.1254 6.27094V30H3.4707V0H19.8545Z" fill="#E2E2E2"/>
<path d="M26.1254 6.27094H19.8535V0L26.1254 6.27094Z" fill="#999999"/>
<path d="M23.8782 24.7786H1.29102V17.168H28.7082L23.8782 24.7786Z" fill="#14A085"/>
<path d="M3.4707 26.958V24.7793H1.29102L3.4707 26.958Z" fill="#999999"/>
<path d="M10.9021 18.7969V21.8166C10.9021 22.3781 10.8093 22.7503 10.6237 22.9341C10.438 23.1178 10.0593 23.2097 9.4893 23.2097C8.88273 23.2097 8.48898 23.1206 8.30805 22.9444C8.12805 22.7672 8.03711 22.3781 8.03711 21.7809L8.04742 21.4575H8.83867C8.8518 21.6197 8.85836 21.7416 8.85836 21.8222C8.85836 21.8991 8.86211 21.9928 8.86867 22.1016C8.8818 22.3659 9.0918 22.4991 9.49961 22.4991C9.74336 22.4991 9.89992 22.4513 9.9693 22.3566C10.0387 22.2619 10.0734 22.0481 10.0734 21.7144V18.7969H10.9021Z" fill="white"/>
<path d="M11.6709 23.1712V18.7969H13.4334H13.6509C14.2434 18.7969 14.6418 18.9 14.8471 19.1062C15.0543 19.3125 15.1565 19.7109 15.1565 20.2997C15.1565 20.8847 15.059 21.2737 14.8621 21.4659C14.6662 21.6581 14.2687 21.7547 13.6706 21.7547L13.4784 21.7575H12.5015V23.1712H11.6709ZM12.5015 21.06H13.4465C13.8225 21.06 14.0615 21.0159 14.1628 20.9297C14.264 20.8425 14.3156 20.6381 14.3156 20.3166C14.3156 19.9463 14.2734 19.7175 14.1881 19.6294C14.1037 19.5403 13.8853 19.4963 13.53 19.4963H12.5015V21.06Z" fill="white"/>
<path d="M17.4068 20.8447H19.3334L19.3465 21.7138C19.3465 22.3456 19.2275 22.7525 18.9893 22.9363C18.7512 23.1181 18.2187 23.21 17.3946 23.21C16.6381 23.21 16.1375 23.0881 15.8918 22.8444C15.6453 22.6006 15.5225 22.1038 15.5225 21.3547C15.5225 20.3975 15.5721 19.7928 15.6696 19.5397C15.7915 19.2322 15.9762 19.025 16.2246 18.9191C16.4721 18.8122 16.8931 18.7578 17.4875 18.7578C18.2637 18.7578 18.7671 18.8413 18.9921 19.0072C19.219 19.1731 19.3325 19.5388 19.3325 20.1078H18.4925C18.4775 19.8209 18.4156 19.6438 18.3059 19.5744C18.1962 19.505 17.9196 19.4712 17.4771 19.4712C16.9962 19.4712 16.6915 19.5303 16.5621 19.6503C16.4328 19.7694 16.3681 20.0506 16.3681 20.4922L16.3653 20.9319L16.3718 21.4925C16.3718 21.9266 16.4356 22.2022 16.564 22.3213C16.6925 22.4394 16.9887 22.4984 17.4546 22.4984C17.9065 22.4984 18.1953 22.4478 18.3181 22.3475C18.4409 22.2481 18.5009 22.0109 18.5009 21.6369L18.5046 21.4578H17.4059V20.8447H17.4068Z" fill="white"/>
</svg>
