<svg width="60" height="60" viewBox="0 0 60 60" fill="none" xmlns="http://www.w3.org/2000/svg">
<rect opacity="0.1" width="60" height="60" rx="8" fill="#FFC15D"/>
<path d="M26.6667 11.6667H16.6667C13.9 11.6667 11.6667 13.9 11.6667 16.6667V26.6667C11.6667 29.4333 13.9 31.6667 16.6667 31.6667H24.1667C24.1667 27.5333 27.5333 24.1667 31.6667 24.1667V16.6667C31.6667 13.9 29.4333 11.6667 26.6667 11.6667ZM16.2833 17.1167C17.5667 16.2 19.3167 16.1833 20.6333 17.0833C21.2 17.4667 21.35 18.25 20.9667 18.8167C20.5833 19.3833 19.8 19.5333 19.2333 19.15C18.7833 18.8333 18.1667 18.8333 17.7167 19.1667C17.5 19.3167 17.25 19.3833 17 19.3833C16.6167 19.3833 16.2167 19.2 15.9833 18.8667C15.5833 18.3 15.7167 17.5167 16.2833 17.1167ZM25.45 23.7333C25.0167 24.2833 24.2333 24.3667 23.7 23.9333C23.1167 23.4667 22.4167 23.2167 21.6667 23.2167C20 23.2167 18.6167 24.4833 18.4333 26.1167H21.9333C22.6167 26.1167 23.1833 26.6833 23.1833 27.3667C23.1833 28.05 22.6167 28.6167 21.9333 28.6167H18.0667C16.8833 28.6167 15.9167 27.65 15.9167 26.4667C15.9167 23.3 18.5 20.7167 21.6667 20.7167C22.9667 20.7167 24.25 21.1667 25.2667 21.9833C25.8 22.4167 25.8833 23.2 25.45 23.7333ZM27.6333 18.8167C27.25 19.3833 26.4667 19.5333 25.9 19.15C25.45 18.8333 24.8333 18.8333 24.3833 19.1667C24.1667 19.3167 23.9167 19.3833 23.6667 19.3833C23.2833 19.3833 22.8833 19.2 22.65 18.8667C22.25 18.3 22.3833 17.5167 22.95 17.1167C24.2333 16.2 25.9833 16.1833 27.3 17.0833C27.8667 17.4667 28.0167 18.25 27.6333 18.8167Z" fill="#FFC15D"/>
<path d="M40.3667 37.8C40.25 37.6667 40.0833 37.6 39.9 37.6H33.4333C33.25 37.6 33.0833 37.6667 32.9667 37.8C32.85 37.9333 32.7833 38.1167 32.8167 38.2833C33.0333 40.25 34.6833 41.75 36.6667 41.75C38.65 41.75 40.3 40.2667 40.5167 38.2833C40.5333 38.1 40.4833 37.9333 40.3667 37.8Z" fill="#FFC15D"/>
<path d="M41.6667 26.6667H31.6667C28.9167 26.6667 26.6667 28.9167 26.6667 31.6667V41.6667C26.6667 44.4167 28.9167 46.6667 31.6667 46.6667H41.6667C44.4167 46.6667 46.6667 44.4167 46.6667 41.6667V31.6667C46.6667 28.9167 44.4167 26.6667 41.6667 26.6667ZM30.9833 31.95C31.3833 31.3833 32.1667 31.25 32.7333 31.65C33.1833 31.9667 33.7833 31.9667 34.2333 31.6667C34.8 31.2667 35.5833 31.4167 35.9667 32C36.35 32.5667 36.2167 33.35 35.6333 33.7333C34.9833 34.1667 34.2333 34.4 33.4833 34.4C32.7 34.4 31.9333 34.1667 31.2833 33.7C30.7167 33.2833 30.5833 32.5 30.9833 31.95ZM36.6667 43.6167C33.5 43.6167 30.9167 41.0333 30.9167 37.8667C30.9167 36.6833 31.8833 35.7167 33.0667 35.7167H40.2667C41.45 35.7167 42.4167 36.6833 42.4167 37.8667C42.4167 41.0333 39.8333 43.6167 36.6667 43.6167ZM42.3 33.7167C41.65 34.15 40.9 34.3833 40.15 34.3833C39.3667 34.3833 38.6 34.15 37.95 33.6833C37.3833 33.2833 37.25 32.5 37.65 31.9333C38.05 31.3667 38.8333 31.2333 39.4 31.6333C39.85 31.95 40.45 31.95 40.9 31.65C41.4667 31.25 42.25 31.4 42.6333 31.9833C43.0167 32.5667 42.8667 33.3333 42.3 33.7167Z" fill="#FFC15D"/>
</svg>
