<svg width="60" height="60" viewBox="0 0 60 60" fill="none" xmlns="http://www.w3.org/2000/svg">
<rect opacity="0.1" width="60" height="60" rx="8" fill="#E96F7C"/>
<path d="M48.1037 16.3767C47.9221 15.9408 47.7042 15.5413 47.4499 15.1599C47.3228 14.9783 47.1775 14.7967 47.0322 14.6151C46.8869 14.4335 46.7235 14.2519 46.56 14.1066C45.2706 12.7991 43.4909 12 41.5296 12C37.5887 12 34.3743 15.2144 34.3743 19.1552C34.3743 20.6262 34.8283 22.0064 35.6092 23.1506C35.7364 23.3322 35.8635 23.5138 36.0088 23.6954C36.1541 23.877 36.3175 24.0404 36.4809 24.2039C36.8078 24.5308 37.1529 24.8213 37.5343 25.0756C38.6784 25.8383 40.0586 26.2923 41.5296 26.2923C42.5102 26.2923 43.4546 26.0926 44.3081 25.7294C44.6169 25.6022 44.9256 25.4388 45.2162 25.2572C45.5067 25.0756 45.7791 24.8758 46.0515 24.6579C46.0515 24.6579 46.0515 24.6579 46.0697 24.6579C46.2331 24.5126 46.3966 24.3673 46.56 24.2039C46.7235 24.0404 46.8688 23.8588 47.0322 23.6954C47.1957 23.5138 47.3228 23.3322 47.4499 23.1324C47.7042 22.751 47.9221 22.3515 48.1037 21.9338C48.4669 21.0803 48.6667 20.1359 48.6667 19.1552C48.6667 18.1564 48.4669 17.2302 48.1037 16.3767ZM40.9848 16.2859C40.9848 15.9953 41.239 15.7592 41.5296 15.7592C41.8201 15.7592 42.0562 15.9953 42.0562 16.2859V19.8635C42.0562 20.1541 41.8201 20.4083 41.5296 20.4083C41.239 20.4083 40.9848 20.1541 40.9848 19.8635V16.2859ZM42.1834 22.2789C42.147 22.3697 42.0926 22.4423 42.0381 22.5149C41.9654 22.5876 41.8928 22.6239 41.802 22.6602C41.7112 22.6965 41.6204 22.7329 41.5296 22.7329C41.4388 22.7329 41.348 22.6965 41.2572 22.6602C41.1664 22.6239 41.0937 22.5876 41.0211 22.5149C40.9484 22.4423 40.9121 22.3697 40.8758 22.2789C40.8395 22.1881 40.8213 22.0973 40.8213 22.0064C40.8213 21.9156 40.8395 21.8248 40.8758 21.734C40.9121 21.6614 40.9484 21.5706 41.0211 21.498C41.0937 21.4435 41.1664 21.389 41.2572 21.3527C41.4206 21.28 41.6204 21.28 41.802 21.3527C41.8928 21.389 41.9654 21.4435 42.0381 21.498C42.0926 21.5706 42.147 21.6614 42.1834 21.734C42.2197 21.8248 42.2378 21.9156 42.2378 22.0064C42.2378 22.0973 42.2197 22.1881 42.1834 22.2789Z" fill="#E96F7C"/>
<path d="M39.2589 28.4004C35.8084 27.565 33.0844 24.8409 32.2671 21.4086C32.1037 20.7366 31.4862 20.2645 30.7961 20.2645H20.263C15.7047 20.2645 12 23.9692 12 28.5275V40.4045C12 44.9628 15.7047 48.6675 20.263 48.6675H32.14C37.3158 48.6675 40.4031 45.5802 40.4031 40.4226V29.8714C40.4031 29.1813 39.9309 28.5638 39.2589 28.4004ZM18.4107 30.4525C17.993 30.0348 17.993 29.3447 18.4107 28.927C20.263 27.0747 23.2777 27.0747 25.1482 28.927C25.5659 29.3447 25.5659 30.0348 25.1482 30.4525C24.9303 30.6704 24.6579 30.7612 24.3855 30.7612C24.1131 30.7612 23.8407 30.6523 23.6227 30.4525C22.6057 29.4355 20.9531 29.4355 19.9361 30.4525C19.5185 30.8884 18.8284 30.8884 18.4107 30.4525ZM31.4862 43.0559H21.1711C20.1722 43.0559 19.355 42.2387 19.355 41.2217C19.355 37.3717 22.4968 34.2299 26.3468 34.2299C30.1968 34.2299 33.3386 37.3717 33.3386 41.2217C33.3205 42.2205 32.4851 43.0559 31.4862 43.0559ZM34.2466 30.4525C33.829 30.8702 33.1389 30.8702 32.7212 30.4525C31.7042 29.4355 30.0516 29.4355 29.0346 30.4525C28.8166 30.6704 28.5442 30.7612 28.2718 30.7612C27.9994 30.7612 27.727 30.6523 27.5091 30.4525C27.0914 30.0348 27.0914 29.3447 27.5091 28.927C29.3615 27.0747 32.3761 27.0747 34.2466 28.927C34.6643 29.3629 34.6643 30.0348 34.2466 30.4525Z" fill="#E96F7C"/>
</svg>
