<svg width="60" height="60" viewBox="0 0 60 60" fill="none" xmlns="http://www.w3.org/2000/svg">
<rect opacity="0.1" width="60" height="60" rx="8" fill="#6AAD8E"/>
<path d="M36.65 13H22.6833C16.6167 13 13 16.6167 13 22.6833V36.6333C13 42.7167 16.6167 46.3333 22.6833 46.3333H36.6333C42.7 46.3333 46.3167 42.7167 46.3167 36.65V22.6833C46.3333 16.6167 42.7167 13 36.65 13ZM23.8333 20.3C25.55 20.3 26.9667 21.7 26.9667 23.4333C26.9667 25.1667 25.5667 26.5667 23.8333 26.5667C22.1 26.5667 20.7 25.1333 20.7 23.4167C20.7 21.7 22.1167 20.3 23.8333 20.3ZM29.6667 41.4667C25.1833 41.4667 21.5333 37.8167 21.5333 33.3333C21.5333 32.1667 22.4833 31.2 23.65 31.2H35.65C36.8167 31.2 37.7667 32.15 37.7667 33.3333C37.8 37.8167 34.15 41.4667 29.6667 41.4667ZM35.5 26.5333C33.7833 26.5333 32.3667 25.1333 32.3667 23.4C32.3667 21.6667 33.7667 20.2667 35.5 20.2667C37.2333 20.2667 38.6333 21.6667 38.6333 23.4C38.6333 25.1333 37.2167 26.5333 35.5 26.5333Z" fill="#4A9D77"/>
</svg>
