<svg width="41" height="40" viewBox="0 0 41 40" fill="none" xmlns="http://www.w3.org/2000/svg">
<path d="M22.2968 27.9393C22.0911 27.9393 21.8855 27.8918 21.6957 27.7653L16.7921 24.8392C15.5741 24.1117 14.6725 22.5142 14.6725 21.1065V14.6218C14.6725 13.9733 15.2103 13.4355 15.8588 13.4355C16.5074 13.4355 17.0452 13.9733 17.0452 14.6218V21.1065C17.0452 21.6759 17.5197 22.5142 18.0101 22.7989L22.9137 25.7249C23.4831 26.0571 23.6571 26.7846 23.325 27.354C23.0877 27.7336 22.6922 27.9393 22.2968 27.9393Z" fill="#4783FF"/>
<path d="M0.615348 19.2234C0.615348 9.84424 8.23965 2.2207 17.6197 2.2207C26.9998 2.2207 34.6241 9.84424 34.6241 19.2234C34.6241 19.8719 34.0863 20.4096 33.4378 20.4096C32.7893 20.4096 32.2514 19.8719 32.2514 19.2234C32.2514 11.157 25.6869 4.59317 17.6197 4.59317C9.55254 4.59317 2.98806 11.157 2.98806 19.2234C2.98806 27.2898 9.55254 33.8536 17.6197 33.8536C18.2683 33.8536 18.8061 34.3914 18.8061 35.0399C18.8061 35.6883 18.2683 36.2261 17.6197 36.2261C8.23965 36.2261 0.615348 28.6026 0.615348 19.2234Z" fill="#4783FF"/>
<path d="M28.9445 37.3776L31.7161 34.4804C31.9114 34.2712 32.0682 34.0864 32.1868 33.9261C32.3123 33.7587 32.4029 33.6018 32.4587 33.4554C32.5145 33.302 32.5424 33.1486 32.5424 32.9952C32.5424 32.6884 32.4413 32.4479 32.2391 32.2735C32.0438 32.0992 31.7893 32.0121 31.4756 32.0121C31.1548 32.0121 30.8689 32.0957 30.6179 32.2631C30.3739 32.4304 30.1438 32.6954 29.9276 33.058L28.9549 32.2317C29.2478 31.7366 29.6104 31.3636 30.0427 31.1126C30.4819 30.8546 30.984 30.7256 31.5488 30.7256C32.0299 30.7256 32.4483 30.8197 32.8039 31.008C33.1665 31.1962 33.4454 31.4577 33.6406 31.7924C33.8358 32.1271 33.9335 32.5176 33.9335 32.9638C33.9335 33.2637 33.8951 33.5356 33.8184 33.7796C33.7487 34.0237 33.6267 34.2677 33.4523 34.5118C33.285 34.7489 33.0514 35.0173 32.7516 35.3171L30.733 37.3776H28.9445ZM28.9445 38.1934V37.3776L30.1577 36.9592H34.0903V38.1934H28.9445Z" fill="#4783FF"/>
<path d="M34.7151 35.5995L37.2253 30.8406H38.7942L36.2212 35.5995H34.7151ZM34.7151 36.4363V35.5995L35.2381 35.1916H40.5095V36.4363H34.7151ZM38.1875 38.1934V33.5077H39.5891V38.1934H38.1875Z" fill="#4783FF"/>
<path d="M39.3208 16.1849L34.7355 20.7697C34.2655 21.2397 33.486 21.2397 33.016 20.7697L28.4307 16.1849C27.9607 15.7149 27.9607 14.9355 28.4307 14.4655C28.9007 13.9956 29.6802 13.9956 30.1502 14.4655L33.8758 18.1907L37.6013 14.4655C38.0713 13.9956 38.8509 13.9956 39.3208 14.4655C39.7908 14.9355 39.7908 15.7149 39.3208 16.1849Z" fill="#4783FF"/>
</svg>
