<svg width="40" height="40" viewBox="0 0 40 40" fill="none" xmlns="http://www.w3.org/2000/svg">
<path d="M20 37.9163C10.1167 37.9163 2.08337 29.883 2.08337 19.9997C2.08337 10.1163 10.1167 2.08301 20 2.08301C20.6834 2.08301 21.25 2.64967 21.25 3.33301C21.25 4.01634 20.6834 4.58301 20 4.58301C11.5 4.58301 4.58337 11.4997 4.58337 19.9997C4.58337 28.4997 11.5 35.4163 20 35.4163C28.5 35.4163 35.4167 28.4997 35.4167 19.9997C35.4167 19.3163 35.9834 18.7497 36.6667 18.7497C37.35 18.7497 37.9167 19.3163 37.9167 19.9997C37.9167 29.883 29.8834 37.9163 20 37.9163Z" fill="#E94E5D"/>
<path d="M36.6667 11.2497C35.9833 11.2497 35.4167 10.683 35.4167 9.99967V4.58301H30C29.3167 4.58301 28.75 4.01634 28.75 3.33301C28.75 2.64967 29.3167 2.08301 30 2.08301H36.6667C37.35 2.08301 37.9167 2.64967 37.9167 3.33301V9.99967C37.9167 10.683 37.35 11.2497 36.6667 11.2497Z" fill="#E94E5D"/>
<path d="M28.3332 12.9171C28.0166 12.9171 27.6999 12.8004 27.4499 12.5504C26.9666 12.0671 26.9666 11.2671 27.4499 10.7837L35.7832 2.45039C36.2666 1.96706 37.0666 1.96706 37.5499 2.45039C38.0332 2.93372 38.0332 3.73372 37.5499 4.21705L29.2166 12.5504C28.9666 12.8004 28.6499 12.9171 28.3332 12.9171Z" fill="#E94E5D"/>
<path d="M26.1827 26.5499C25.9661 26.5499 25.7494 26.4999 25.5494 26.3666L20.3827 23.2833C19.0994 22.5166 18.1494 20.8333 18.1494 19.3499V12.5166C18.1494 11.8333 18.7161 11.2666 19.3994 11.2666C20.0827 11.2666 20.6494 11.8333 20.6494 12.5166V19.3499C20.6494 19.9499 21.1494 20.8333 21.6661 21.1333L26.8327 24.2166C27.4327 24.5666 27.6161 25.3333 27.2661 25.9333C27.0161 26.3333 26.5994 26.5499 26.1827 26.5499Z" fill="#E94E5D"/>
</svg>
