<svg width="40" height="40" viewBox="0 0 40 40" fill="none" xmlns="http://www.w3.org/2000/svg">
<path d="M13.3333 9.58301C12.65 9.58301 12.0833 9.01634 12.0833 8.33301V3.33301C12.0833 2.64967 12.65 2.08301 13.3333 2.08301C14.0166 2.08301 14.5833 2.64967 14.5833 3.33301V8.33301C14.5833 9.01634 14.0166 9.58301 13.3333 9.58301Z" fill="#FFC15D"/>
<path d="M26.6667 9.58301C25.9834 9.58301 25.4167 9.01634 25.4167 8.33301V3.33301C25.4167 2.64967 25.9834 2.08301 26.6667 2.08301C27.35 2.08301 27.9167 2.64967 27.9167 3.33301V8.33301C27.9167 9.01634 27.35 9.58301 26.6667 9.58301Z" fill="#FFC15D"/>
<path d="M25 37.9163H15C5.63333 37.9163 3.75 33.4997 3.75 26.3663V16.083C3.75 8.18301 6.41667 4.96634 13.2667 4.58301H26.6667C26.6833 4.58301 26.7167 4.58301 26.7333 4.58301C33.5833 4.96634 36.25 8.18301 36.25 16.083V26.3663C36.25 33.4997 34.3667 37.9163 25 37.9163ZM13.3333 7.08301C8.66667 7.34967 6.25 8.81634 6.25 16.083V26.3663C6.25 32.7497 7.46667 35.4163 15 35.4163H25C32.5333 35.4163 33.75 32.7497 33.75 26.3663V16.083C33.75 8.83301 31.35 7.34967 26.6333 7.08301H13.3333Z" fill="#FFC15D"/>
<path d="M34.5834 30.584H5.41669C4.73335 30.584 4.16669 30.0173 4.16669 29.334C4.16669 28.6507 4.73335 28.084 5.41669 28.084H34.5834C35.2667 28.084 35.8334 28.6507 35.8334 29.334C35.8334 30.0173 35.2667 30.584 34.5834 30.584Z" fill="#FFC15D"/>
<path d="M20 13.75C17.95 13.75 16.2166 14.8667 16.2166 17.0333C16.2166 18.0667 16.7 18.85 17.4333 19.35C16.4166 19.95 15.8333 20.9167 15.8333 22.05C15.8333 24.1167 17.4166 25.4 20 25.4C22.5666 25.4 24.1666 24.1167 24.1666 22.05C24.1666 20.9167 23.5833 19.9333 22.55 19.35C23.3 18.8333 23.7666 18.0667 23.7666 17.0333C23.7666 14.8667 22.05 13.75 20 13.75ZM20 18.4833C19.1333 18.4833 18.5 17.9667 18.5 17.15C18.5 16.3167 19.1333 15.8333 20 15.8333C20.8666 15.8333 21.5 16.3167 21.5 17.15C21.5 17.9667 20.8666 18.4833 20 18.4833ZM20 23.3333C18.9 23.3333 18.1 22.7833 18.1 21.7833C18.1 20.7833 18.9 20.25 20 20.25C21.1 20.25 21.9 20.8 21.9 21.7833C21.9 22.7833 21.1 23.3333 20 23.3333Z" fill="#FFC15D"/>
</svg>
