<svg width="68" height="68" viewBox="0 0 68 68" fill="none" xmlns="http://www.w3.org/2000/svg">
<path d="M34 68C52.7777 68 68 52.7777 68 34C68 15.2223 52.7777 0 34 0C15.2223 0 0 15.2223 0 34C0 52.7777 15.2223 68 34 68Z" fill="#F4BC1E"/>
<path d="M34 68C52.7777 68 68 52.7777 68 34C68 15.2223 52.7777 0 34 0C15.2223 0 0 15.2223 0 34C0 52.7777 15.2223 68 34 68Z" fill="url(#paint0_linear_6711_319501)"/>
<path d="M34 68C52.7777 68 68 52.7777 68 34C68 15.2223 52.7777 0 34 0C15.2223 0 0 15.2223 0 34C0 52.7777 15.2223 68 34 68Z" fill="url(#paint1_linear_6711_319501)"/>
<path d="M34.0004 44.9077C27.9731 44.9077 23.0895 40.0241 23.0586 33.966C23.0586 33.286 23.615 32.7605 24.264 32.7605C24.9131 32.7605 25.4695 33.3169 25.4695 33.966C25.4695 38.6641 29.2713 42.466 33.9695 42.466C38.6677 42.466 42.4695 38.6641 42.4695 33.966C42.4695 33.286 43.0259 32.7605 43.675 32.7605C44.355 32.7605 44.8804 33.3169 44.8804 33.966C44.9113 40.0241 40.0277 44.9077 34.0004 44.9077Z" fill="#1E1E1E"/>
<path d="M27.4173 23.0284C27.4173 23.9866 27.0155 24.9138 26.3045 25.5938L23.7082 28.0666C22.1627 29.5193 19.7518 29.5193 18.2064 28.0666L15.8573 25.8411C14.3118 24.512 14.1573 22.163 15.5173 20.6484C15.6409 20.4939 15.7645 20.3702 15.9191 20.2466C17.4336 19.072 19.5973 19.1957 20.9882 20.4939C22.5027 19.103 24.8518 19.103 26.3355 20.4939C27.0155 21.143 27.4173 22.0702 27.4173 23.0284Z" fill="#DC2F02"/>
<path d="M27.4173 23.0284C27.4173 23.9866 27.0155 24.9138 26.3045 25.5938L23.7082 28.0666C22.1627 29.5193 19.7518 29.5193 18.2064 28.0666L15.8573 25.8411C14.3118 24.512 14.1573 22.163 15.5173 20.6484C15.6409 20.4939 15.7645 20.3702 15.9191 20.2466C17.4336 19.072 19.5973 19.1957 20.9882 20.4939C22.5027 19.103 24.8518 19.103 26.3355 20.4939C27.0155 21.143 27.4173 22.0702 27.4173 23.0284Z" fill="#DC2F02"/>
<path d="M53.4407 23.0286C53.4407 23.9868 53.0389 24.9141 52.328 25.5941L49.7316 28.0668C48.1862 29.5196 45.7753 29.5196 44.2298 28.0668L41.8807 25.8414C40.3353 24.5123 40.1807 22.1632 41.5407 20.6487C41.6643 20.4941 41.788 20.3705 41.9425 20.2468C43.4571 19.0723 45.6207 19.1959 47.0116 20.4941C48.5262 19.1032 50.8753 19.1032 52.3589 20.4941C53.008 21.1432 53.4098 22.0704 53.4407 23.0286Z" fill="#DC2F02"/>
<path d="M53.4407 23.0286C53.4407 23.9868 53.0389 24.9141 52.328 25.5941L49.7316 28.0668C48.1862 29.5196 45.7753 29.5196 44.2298 28.0668L41.8807 25.8414C40.3353 24.5123 40.1807 22.1632 41.5407 20.6487C41.6643 20.4941 41.788 20.3705 41.9425 20.2468C43.4571 19.0723 45.6207 19.1959 47.0116 20.4941C48.5262 19.1032 50.8753 19.1032 52.3589 20.4941C53.008 21.1432 53.4098 22.0704 53.4407 23.0286Z" fill="#DC2F02"/>
<defs>
<linearGradient id="paint0_linear_6711_319501" x1="10.0064" y1="10.0039" x2="58.0893" y2="58.0869" gradientUnits="userSpaceOnUse">
<stop offset="0.0219" stop-color="#F4BC1E" stop-opacity="0"/>
<stop offset="0.0823" stop-color="#F4B71C" stop-opacity="0.082"/>
<stop offset="0.2379" stop-color="#F3AA19" stop-opacity="0.269"/>
<stop offset="0.3945" stop-color="#F2A016" stop-opacity="0.424"/>
<stop offset="0.5497" stop-color="#F29713" stop-opacity="0.545"/>
<stop offset="0.7033" stop-color="#F19211" stop-opacity="0.631"/>
<stop offset="0.8543" stop-color="#F18E10" stop-opacity="0.683"/>
<stop offset="1" stop-color="#F18D10" stop-opacity="0.7"/>
</linearGradient>
<linearGradient id="paint1_linear_6711_319501" x1="17.0421" y1="4.59693" x2="51.0536" y2="63.4939" gradientUnits="userSpaceOnUse">
<stop stop-color="#FFFFC5" stop-opacity="0.6"/>
<stop offset="0.0135" stop-color="#FFFDC1" stop-opacity="0.584"/>
<stop offset="0.1808" stop-color="#FBE98F" stop-opacity="0.407"/>
<stop offset="0.3491" stop-color="#F9D966" stop-opacity="0.26"/>
<stop offset="0.516" stop-color="#F7CC47" stop-opacity="0.147"/>
<stop offset="0.681" stop-color="#F5C330" stop-opacity="0.065"/>
<stop offset="0.8433" stop-color="#F4BE23" stop-opacity="0.016"/>
<stop offset="1" stop-color="#F4BC1E" stop-opacity="0"/>
</linearGradient>
</defs>
</svg>
