<svg width="48" height="48" viewBox="0 0 48 48" fill="none" xmlns="http://www.w3.org/2000/svg">
<path d="M24 0C10.7345 0 0 10.7345 0 24C0 37.2436 10.7345 48 24 48C37.2436 48 48 37.2436 48 24C48 10.7345 37.2436 0 24 0ZM12.8291 19.8109L11.1709 18.2182C10.08 17.28 9.97091 15.6436 10.9309 14.5527C11.0182 14.4654 11.1055 14.3564 11.1927 14.2691C12.2836 13.4618 13.7891 13.5273 14.7709 14.4655C15.84 13.4618 17.4982 13.4618 18.5673 14.4655C19.0691 14.9236 19.3527 15.5782 19.3527 16.2545C19.3527 16.9309 19.0691 17.5855 18.5673 18.0436L16.7127 19.8109C15.6218 20.8145 13.92 20.8145 12.8291 19.8109ZM24 31.7018C19.7455 31.7018 16.2764 28.2545 16.2764 24C16.2764 23.52 16.6691 23.1491 17.1273 23.1491C17.6073 23.1491 18 23.52 18 24C18 27.3164 20.6836 30 24 30C27.3164 30 30 27.3164 30 24C30 23.52 30.3709 23.1491 30.8509 23.1491C31.3309 23.1491 31.7018 23.52 31.7018 24C31.7018 28.2545 28.2545 31.7018 24 31.7018ZM36.9164 18.0436L35.0836 19.8109C33.9927 20.8145 32.2909 20.8145 31.2 19.8109L29.52 18.2182C28.4509 17.28 28.3418 15.6436 29.28 14.5527C29.3673 14.4654 29.4545 14.3564 29.5636 14.2691C30.6327 13.4618 32.1382 13.5273 33.1418 14.4655C34.2109 13.4618 35.8473 13.4618 36.9164 14.4655C37.4182 14.9236 37.7018 15.5782 37.7018 16.2545C37.7018 16.9309 37.4182 17.5855 36.9164 18.0436Z" fill="#C3CCD7"/>
</svg>
