<svg width="48" height="48" viewBox="0 0 48 48" fill="none" xmlns="http://www.w3.org/2000/svg">
<rect width="48" height="48" rx="8" fill="#E6F4F9"/>
<path d="M32.5 22.19H29.61C27.24 22.19 25.31 20.26 25.31 17.89V15C25.31 14.45 24.86 14 24.31 14H20.07C16.99 14 14.5 16 14.5 19.57V28.43C14.5 32 16.99 34 20.07 34H27.93C31.01 34 33.5 32 33.5 28.43V23.19C33.5 22.64 33.05 22.19 32.5 22.19ZM24.28 27.78L22.28 29.78C22.21 29.85 22.12 29.91 22.03 29.94C21.94 29.98 21.85 30 21.75 30C21.65 30 21.56 29.98 21.47 29.94C21.39 29.91 21.31 29.85 21.25 29.79C21.24 29.78 21.23 29.78 21.23 29.77L19.23 27.77C18.94 27.48 18.94 27 19.23 26.71C19.52 26.42 20 26.42 20.29 26.71L21 27.44V23.25C21 22.84 21.34 22.5 21.75 22.5C22.16 22.5 22.5 22.84 22.5 23.25V27.44L23.22 26.72C23.51 26.43 23.99 26.43 24.28 26.72C24.57 27.01 24.57 27.49 24.28 27.78Z" fill="#A0A3BD"/>
<path d="M29.4297 20.8105C30.3797 20.8205 31.6997 20.8205 32.8297 20.8205C33.3997 20.8205 33.6997 20.1505 33.2997 19.7505C31.8597 18.3005 29.2797 15.6905 27.7997 14.2105C27.3897 13.8005 26.6797 14.0805 26.6797 14.6505V18.1405C26.6797 19.6005 27.9197 20.8105 29.4297 20.8105Z" fill="#A0A3BD"/>
</svg>
