<svg width="48" height="48" viewBox="0 0 48 48" fill="none" xmlns="http://www.w3.org/2000/svg">
<path d="M24 0C10.7564 0 0 10.7564 0 24C0 37.2654 10.7564 48 24 48C37.2655 48 48 37.2654 48 24C48 10.7564 37.2655 0 24 0ZM13.7236 18.8727C13.7236 16.0145 15.2509 13.7236 17.1491 13.7236C19.0473 13.7236 20.5745 16.0145 20.5745 18.8727C20.5745 21.7091 19.0473 24 17.1491 24C15.2509 24 13.7236 21.7091 13.7236 18.8727ZM24 38.5745C19.7455 38.5745 16.2982 35.1273 16.2982 30.8727C16.2982 30.3927 16.6909 30 17.1491 30C17.6291 30 18 30.3927 18 30.8727C18 34.1891 20.7055 36.8727 24.0218 36.8727C27.3164 36.8727 30.0218 34.1891 30.0218 30.8727C30.0218 30.3927 30.3927 30 30.8727 30C31.3527 30 31.7236 30.3927 31.7236 30.8727C31.7236 35.1273 28.2764 38.5745 24 38.5745ZM30.8727 24C28.9745 24 27.4473 21.7091 27.4473 18.8727C27.4473 16.0145 28.9745 13.7236 30.8727 13.7236C32.7709 13.7236 34.2982 16.0145 34.2982 18.8727C34.2982 21.7091 32.7709 24 30.8727 24Z" fill="#C3CCD7"/>
</svg>
