<svg width="48" height="48" viewBox="0 0 48 48" fill="none" xmlns="http://www.w3.org/2000/svg">
<path d="M24 0C10.7345 0 0 10.7345 0 24C0 37.2655 10.7345 48 24 48C37.2436 48 48 37.2655 48 24C48 10.7345 37.2436 0 24 0ZM13.7018 18.8509C13.7018 16.0145 15.2509 13.7236 17.1273 13.7236C19.0255 13.7236 20.5745 16.0145 20.5745 18.8509C20.5745 21.6873 19.0255 24 17.1273 24C15.2509 24 13.7018 21.6873 13.7018 18.8509ZM30.8509 31.7236H17.1273C16.6691 31.7236 16.2764 31.3309 16.2764 30.8509C16.2764 30.3927 16.6691 30 17.1273 30H30.8509C31.3309 30 31.7018 30.3927 31.7018 30.8509C31.7018 31.3309 31.3309 31.7236 30.8509 31.7236ZM30.8509 24C28.9527 24 27.4255 21.6873 27.4255 18.8509C27.4255 16.0145 28.9527 13.7236 30.8509 13.7236C32.7491 13.7236 34.2764 16.0145 34.2764 18.8509C34.2764 21.6873 32.7491 24 30.8509 24Z" fill="#C3CCD7"/>
</svg>
