<svg width="68" height="68" viewBox="0 0 68 68" fill="none" xmlns="http://www.w3.org/2000/svg">
<path d="M34 68C52.7777 68 68 52.7777 68 34C68 15.2223 52.7777 0 34 0C15.2223 0 0 15.2223 0 34C0 52.7777 15.2223 68 34 68Z" fill="#F4BC1E"/>
<path d="M34 68C52.7777 68 68 52.7777 68 34C68 15.2223 52.7777 0 34 0C15.2223 0 0 15.2223 0 34C0 52.7777 15.2223 68 34 68Z" fill="url(#paint0_linear_6711_319423)"/>
<path d="M34 68C52.7777 68 68 52.7777 68 34C68 15.2223 52.7777 0 34 0C15.2223 0 0 15.2223 0 34C0 52.7777 15.2223 68 34 68Z" fill="url(#paint1_linear_6711_319423)"/>
<path d="M43.7062 44.9402H24.2953C23.6153 44.9402 23.0898 44.3838 23.0898 43.7347C23.0898 43.0547 23.6462 42.5293 24.2953 42.5293H43.7371C44.4171 42.5293 44.9426 43.0857 44.9426 43.7347C44.9426 44.3838 44.3862 44.9402 43.7062 44.9402Z" fill="#1E1E1E"/>
<path d="M43.7043 33.9992C46.3844 33.9992 48.557 30.7334 48.557 26.7047C48.557 22.676 46.3844 19.4102 43.7043 19.4102C41.0242 19.4102 38.8516 22.676 38.8516 26.7047C38.8516 30.7334 41.0242 33.9992 43.7043 33.9992Z" fill="#1E1E1E"/>
<path d="M24.2941 33.9992C26.9742 33.9992 29.1469 30.7334 29.1469 26.7047C29.1469 22.676 26.9742 19.4102 24.2941 19.4102C21.614 19.4102 19.4414 22.676 19.4414 26.7047C19.4414 30.7334 21.614 33.9992 24.2941 33.9992Z" fill="#1E1E1E"/>
<defs>
<linearGradient id="paint0_linear_6711_319423" x1="10.013" y1="10.0083" x2="58.0959" y2="58.0912" gradientUnits="userSpaceOnUse">
<stop offset="0.0219" stop-color="#F4BC1E" stop-opacity="0"/>
<stop offset="0.0823" stop-color="#F4B71C" stop-opacity="0.082"/>
<stop offset="0.2379" stop-color="#F3AA19" stop-opacity="0.269"/>
<stop offset="0.3945" stop-color="#F2A016" stop-opacity="0.424"/>
<stop offset="0.5497" stop-color="#F29713" stop-opacity="0.545"/>
<stop offset="0.7033" stop-color="#F19211" stop-opacity="0.631"/>
<stop offset="0.8543" stop-color="#F18E10" stop-opacity="0.683"/>
<stop offset="1" stop-color="#F18D10" stop-opacity="0.7"/>
</linearGradient>
<linearGradient id="paint1_linear_6711_319423" x1="17.0487" y1="4.60124" x2="51.0536" y2="63.4982" gradientUnits="userSpaceOnUse">
<stop stop-color="#FFFFC5" stop-opacity="0.6"/>
<stop offset="0.0135" stop-color="#FFFDC1" stop-opacity="0.584"/>
<stop offset="0.1808" stop-color="#FBE98F" stop-opacity="0.407"/>
<stop offset="0.3491" stop-color="#F9D966" stop-opacity="0.26"/>
<stop offset="0.516" stop-color="#F7CC47" stop-opacity="0.147"/>
<stop offset="0.681" stop-color="#F5C330" stop-opacity="0.065"/>
<stop offset="0.8433" stop-color="#F4BE23" stop-opacity="0.016"/>
<stop offset="1" stop-color="#F4BC1E" stop-opacity="0"/>
</linearGradient>
</defs>
</svg>
