<svg width="48" height="48" viewBox="0 0 48 48" fill="none" xmlns="http://www.w3.org/2000/svg">
<path d="M24 0C10.7564 0 0 10.7345 0 24C0 37.2436 10.7564 48 24 48C37.2655 48 48 37.2436 48 24C48 10.7345 37.2655 0 24 0ZM17.1491 25.2873C15.2509 25.2873 13.7236 22.9745 13.7236 20.1382C13.7236 17.3018 15.2509 14.9891 17.1491 14.9891C19.0473 14.9891 20.5745 17.3018 20.5745 20.1382C20.5745 22.9745 19.0473 25.2873 17.1491 25.2873ZM27.7527 32.9891C27.2727 32.9891 26.9018 32.6182 26.9018 32.1382C26.9018 30.6327 25.68 29.4109 24.1745 29.4109C22.6691 29.4109 21.4473 30.6327 21.4473 32.1382C21.4473 32.6182 21.0545 32.9891 20.5745 32.9891C20.1164 32.9891 19.7236 32.6182 19.7236 32.1382C19.7236 29.6727 21.7091 27.6873 24.1745 27.6873C26.6182 27.6873 28.6036 29.6727 28.6036 32.1382C28.6036 32.6182 28.2327 32.9891 27.7527 32.9891ZM30.8727 25.2873C28.9745 25.2873 27.4473 22.9745 27.4473 20.1382C27.4473 17.3018 28.9745 14.9891 30.8727 14.9891C32.7709 14.9891 34.2982 17.3018 34.2982 20.1382C34.2982 22.9745 32.7709 25.2873 30.8727 25.2873Z" fill="#C3CCD7"/>
</svg>
