<svg width="48" height="48" viewBox="0 0 48 48" fill="none" xmlns="http://www.w3.org/2000/svg">
<path d="M24 0C10.7345 0 0 10.7345 0 24C0 37.2436 10.7345 48 24 48C37.2436 48 48 37.2436 48 24C48 10.7345 37.2436 0 24 0ZM13.7018 18C13.7018 17.4982 13.8764 16.9964 14.16 16.5818L13.3309 16.1673C12.9164 15.9709 12.7418 15.4691 12.9382 15.0545C13.1345 14.6182 13.6364 14.4436 14.0509 14.6618C14.0727 14.6618 14.0727 14.6618 14.0727 14.6618L20.9455 18.0873C21.3382 18.2618 21.5345 18.7418 21.36 19.1345C21.3382 19.1782 21.3382 19.2 21.3164 19.2218C21.1854 19.5273 20.88 19.7018 20.5527 19.7018C20.4218 19.7018 20.2909 19.68 20.1818 19.5927L18.6764 18.8509C18.3273 19.8764 17.3673 20.5527 16.2764 20.5527C14.8582 20.5527 13.7236 19.3964 13.7018 18ZM30.8509 33.4254C30.3709 33.4254 30 33.0327 30 32.5527C30 29.2582 27.2945 26.5527 24 26.5527C20.6836 26.5527 18 29.2582 18 32.5527C18 33.0327 17.6073 33.4254 17.1273 33.4254C16.6691 33.4254 16.2764 33.0327 16.2764 32.5527C16.2764 28.2982 19.7236 24.8509 24 24.8509C28.2545 24.8509 31.7018 28.2982 31.7018 32.5527C31.7018 33.0327 31.3309 33.4254 30.8509 33.4254ZM34.7345 16.1236C34.7127 16.1455 34.6909 16.1673 34.6473 16.1673L33.84 16.5818C34.1236 16.9964 34.2764 17.4982 34.2764 18C34.2764 19.3964 33.12 20.5527 31.7018 20.5527C30.6327 20.5527 29.6727 19.8764 29.3018 18.8509L27.7964 19.5927C27.6873 19.68 27.5564 19.7018 27.4255 19.7018C27.0982 19.7018 26.7927 19.5273 26.6618 19.2218C26.4436 18.8509 26.5745 18.3491 26.9673 18.1309C26.9891 18.1309 27.0109 18.1091 27.0327 18.0873L33.9054 14.6618C34.2982 14.4436 34.8 14.5964 35.0182 15.0109C35.0182 15.0109 35.0182 15.0327 35.04 15.0327C35.2582 15.4255 35.1273 15.9055 34.7345 16.1236Z" fill="#C3CCD7"/>
</svg>
