<svg width="68" height="68" viewBox="0 0 68 68" fill="none" xmlns="http://www.w3.org/2000/svg">
<path d="M34 68C52.7777 68 68 52.7777 68 34C68 15.2223 52.7777 0 34 0C15.2223 0 0 15.2223 0 34C0 52.7777 15.2223 68 34 68Z" fill="url(#paint0_linear_6711_319463)"/>
<path d="M49.1147 22.9041L47.9402 23.4914C48.342 24.0787 48.5584 24.7587 48.5584 25.4696C48.5584 27.4787 46.9202 29.086 44.9111 29.1169C43.3656 29.1169 42.0056 28.1278 41.5111 26.6751L39.3784 27.7569C39.2238 27.8496 39.0384 27.9114 38.8529 27.9114C38.3893 27.9114 37.9874 27.6642 37.7711 27.2314C37.462 26.706 37.6474 25.9951 38.1729 25.686C38.2038 25.6551 38.2656 25.6551 38.2965 25.6242L48.002 20.7714C48.5584 20.4623 49.2693 20.6787 49.5784 21.266C49.5784 21.2969 49.6093 21.2969 49.6093 21.3278C49.9184 21.8533 49.7329 22.5642 49.2074 22.8733C49.1765 22.8733 49.1456 22.9041 49.1147 22.9041Z" fill="#1E1E1E"/>
<path d="M30.1978 27.2301C30.0123 27.6628 29.5796 27.9101 29.1159 27.9101C28.9305 27.9101 28.745 27.8482 28.5905 27.7555L26.4578 26.6737C25.9632 28.1264 24.6032 29.0846 23.0578 29.1155C21.0487 29.1155 19.4414 27.4773 19.4105 25.4682C19.4105 24.7573 19.6268 24.0773 20.0287 23.4901L18.8541 22.9028C18.2668 22.6246 18.0196 21.9137 18.2978 21.2955C18.5759 20.7083 19.2868 20.461 19.905 20.7392C19.905 20.7392 19.9359 20.7392 19.9359 20.7701L29.6414 25.6228C30.2287 25.8701 30.4759 26.5192 30.2287 27.1064C30.2596 27.1682 30.2287 27.1992 30.1978 27.2301Z" fill="#1E1E1E"/>
<path d="M43.7062 47.3504C43.0262 47.3504 42.5008 46.794 42.5008 46.1449C42.5008 41.4468 38.6989 37.6449 34.0008 37.6449C29.3026 37.6449 25.5008 41.4468 25.5008 46.1449C25.5008 46.8249 24.9444 47.3504 24.2953 47.3504C23.6462 47.3504 23.0898 46.794 23.0898 46.1449C23.0898 40.1177 27.9735 35.2031 34.0317 35.2031C40.0898 35.2031 44.9735 40.0868 44.9735 46.1449C44.9426 46.794 44.3862 47.3504 43.7062 47.3504Z" fill="#1E1E1E"/>
<defs>
<linearGradient id="paint0_linear_6711_319463" x1="17.0487" y1="4.5931" x2="51.0536" y2="63.4901" gradientUnits="userSpaceOnUse">
<stop stop-color="#FFFFC5" stop-opacity="0.6"/>
<stop offset="0.0135" stop-color="#FFFDC1" stop-opacity="0.584"/>
<stop offset="0.1808" stop-color="#FBE98F" stop-opacity="0.407"/>
<stop offset="0.3491" stop-color="#F9D966" stop-opacity="0.26"/>
<stop offset="0.516" stop-color="#F7CC47" stop-opacity="0.147"/>
<stop offset="0.681" stop-color="#F5C330" stop-opacity="0.065"/>
<stop offset="0.8433" stop-color="#F4BE23" stop-opacity="0.016"/>
<stop offset="1" stop-color="#F4BC1E" stop-opacity="0"/>
</linearGradient>
</defs>
</svg>
