<svg width="50" height="50" viewBox="0 0 50 50" fill="none" xmlns="http://www.w3.org/2000/svg">
<g clip-path="url(#clip0_43914_99555)">
<path d="M44.8556 50H23.189C22.3765 50 21.7306 49.3333 21.7306 48.5417C21.7306 47.75 22.3973 47.0833 23.189 47.0833H44.8556C45.6681 47.0833 46.3348 46.4167 46.3348 45.625V11.8333L37.3973 2.9375H15.439C14.6265 2.9375 13.9598 3.58333 13.9598 4.39583V21.0625C13.9598 21.875 13.2931 22.5208 12.5015 22.5208C11.7098 22.5208 11.0431 21.8542 11.0431 21.0625V4.39583C11.0223 1.97917 13.0015 0 15.439 0H38.0015C38.3973 0 38.7723 0.145833 39.0431 0.4375L48.8556 10.2083C49.1265 10.4792 49.2931 10.8542 49.2931 11.25V45.6042C49.2931 48.0208 47.314 50 44.8765 50H44.8556Z" fill="#A0A3BD"/>
<path d="M48.8359 10.1925L39.0234 0.442527C38.6068 0.0258608 37.9609 -0.0991392 37.4193 0.130027C36.8776 0.359194 36.5234 0.900861 36.5234 1.48419V11.2342C36.5234 12.0467 37.1901 12.6925 37.9818 12.6925H47.7943C48.3984 12.6925 48.9193 12.3384 49.1484 11.7759C49.3776 11.2342 49.2526 10.5884 48.8359 10.1717V10.1925Z" fill="#A0A3BD"/>
<path d="M41.2754 29.4958H25.4004C24.7754 29.4958 24.2754 28.8291 24.2754 28.0374C24.2754 27.2458 24.7754 26.5791 25.4004 26.5791H41.2754C41.9004 26.5791 42.4004 27.2458 42.4004 28.0374C42.4004 28.8291 41.9004 29.4958 41.2754 29.4958Z" fill="#A0A3BD"/>
<path d="M40.9372 20.7067H19.3538C18.5413 20.7067 17.8955 20.04 17.8955 19.2484C17.8955 18.4567 18.5622 17.79 19.3538 17.79H40.9372C41.7497 17.79 42.3955 18.4567 42.3955 19.2484C42.3955 20.04 41.7288 20.7067 40.9372 20.7067Z" fill="#A0A3BD"/>
<path d="M41.2734 38.2848H28.4609C27.8359 38.2848 27.3359 37.6182 27.3359 36.8265C27.3359 36.0348 27.8359 35.3682 28.4609 35.3682H41.2734C41.8984 35.3682 42.3984 36.0348 42.3984 36.8265C42.3984 37.6182 41.8984 38.2848 41.2734 38.2848Z" fill="#A0A3BD"/>
<path d="M12.5 24.3164C5.60417 24.3164 0 29.9206 0 36.8164C0 43.7122 5.60417 49.3164 12.5 49.3164C19.3958 49.3164 25 43.7122 25 36.8164C25 29.9206 19.3958 24.3164 12.5 24.3164ZM18.4792 33.9414L11.3958 41.0247C11.2292 41.1914 10.9792 41.2956 10.7292 41.2956C10.4792 41.2956 10.25 41.1914 10.0625 41.0247L6.52083 37.4831C6.16667 37.1289 6.16667 36.5247 6.52083 36.1497C6.875 35.7956 7.47917 35.7956 7.85417 36.1497L10.7292 39.0247L17.1458 32.6081C17.5 32.2539 18.1042 32.2539 18.4792 32.6081C18.8333 32.9622 18.8333 33.5664 18.4792 33.9414Z" fill="#3DC575"/>
</g>
<defs>
<clipPath id="clip0_43914_99555">
<rect width="50" height="50" fill="white"/>
</clipPath>
</defs>
</svg>
