<svg width="40" height="40" viewBox="0 0 40 40" fill="none" xmlns="http://www.w3.org/2000/svg">
<path d="M23 30.75H17C11.57 30.75 9.25 28.43 9.25 23V17C9.25 11.57 11.57 9.25 17 9.25H23C28.43 9.25 30.75 11.57 30.75 17V23C30.75 28.43 28.43 30.75 23 30.75ZM17 10.75C12.39 10.75 10.75 12.39 10.75 17V23C10.75 27.61 12.39 29.25 17 29.25H23C27.61 29.25 29.25 27.61 29.25 23V17C29.25 12.39 27.61 10.75 23 10.75H17Z" fill="#FFC15D"/>
<path d="M23.75 17.75H16.25C15.84 17.75 15.5 17.41 15.5 17C15.5 16.59 15.84 16.25 16.25 16.25H23.75C24.16 16.25 24.5 16.59 24.5 17C24.5 17.41 24.16 17.75 23.75 17.75Z" fill="#FFC15D"/>
<path d="M23.75 23.75H16.25C15.84 23.75 15.5 23.41 15.5 23C15.5 22.59 15.84 22.25 16.25 22.25H23.75C24.16 22.25 24.5 22.59 24.5 23C24.5 23.41 24.16 23.75 23.75 23.75Z" fill="#FFC15D"/>
<rect opacity="0.1" width="40" height="40" rx="8" fill="#FFC15D"/>
</svg>
