<svg width="40" height="40" viewBox="0 0 40 40" fill="none" xmlns="http://www.w3.org/2000/svg">
<rect opacity="0.1" width="40" height="40" rx="8" fill="#FFC15D"/>
<path d="M24.75 30.5H14.75C10.34 30.5 9 29.16 9 24.75V14.75C9 10.34 10.34 9 14.75 9H16.25C18 9 18.55 9.57 19.25 10.5L20.75 12.5C21.08 12.94 21.13 13 21.75 13H24.75C29.16 13 30.5 14.34 30.5 18.75V24.75C30.5 29.16 29.16 30.5 24.75 30.5ZM14.75 10.5C11.18 10.5 10.5 11.18 10.5 14.75V24.75C10.5 28.32 11.18 29 14.75 29H24.75C28.32 29 29 28.32 29 24.75V18.75C29 15.18 28.32 14.5 24.75 14.5H21.75C20.47 14.5 20.05 14.06 19.55 13.4L18.05 11.4C17.53 10.71 17.38 10.5 16.25 10.5H14.75V10.5Z" fill="#6AAD8E"/>
</svg>
