<svg width="40" height="40" viewBox="0 0 40 40" fill="none" xmlns="http://www.w3.org/2000/svg">
<rect opacity="0.1" width="40" height="40" rx="8" fill="#4CA4FD"/>
<path d="M23 30.75H17C11.57 30.75 9.25 28.43 9.25 23V17C9.25 11.57 11.57 9.25 17 9.25H23C28.43 9.25 30.75 11.57 30.75 17V23C30.75 28.43 28.43 30.75 23 30.75ZM17 10.75C12.39 10.75 10.75 12.39 10.75 17V23C10.75 27.61 12.39 29.25 17 29.25H23C27.61 29.25 29.25 27.61 29.25 23V17C29.25 12.39 27.61 10.75 23 10.75H17Z" fill="#4CA4FD"/>
<path d="M17 18.75C15.48 18.75 14.25 17.52 14.25 16C14.25 14.48 15.48 13.25 17 13.25C18.52 13.25 19.75 14.48 19.75 16C19.75 17.52 18.52 18.75 17 18.75ZM17 14.75C16.31 14.75 15.75 15.31 15.75 16C15.75 16.69 16.31 17.25 17 17.25C17.69 17.25 18.25 16.69 18.25 16C18.25 15.31 17.69 14.75 17 14.75Z" fill="#4CA4FD"/>
<path d="M10.67 27.7C10.43 27.7 10.19 27.58 10.05 27.37C9.82 27.03 9.91 26.56 10.26 26.33L15.19 23.02C16.27 22.29 17.76 22.38 18.74 23.21L19.07 23.5C19.57 23.93 20.42 23.93 20.91 23.5L25.07 19.93C26.13 19.02 27.8 19.02 28.87 19.93L30.5 21.33C30.81 21.6 30.85 22.07 30.58 22.39C30.31 22.7 29.84 22.74 29.52 22.47L27.89 21.07C27.39 20.64 26.54 20.64 26.04 21.07L21.88 24.64C20.82 25.55 19.15 25.55 18.08 24.64L17.75 24.35C17.29 23.96 16.53 23.92 16.02 24.27L11.09 27.58C10.96 27.66 10.81 27.7 10.67 27.7Z" fill="#4CA4FD"/>
</svg>
