<svg width="51" height="50" viewBox="0 0 51 50" fill="none" xmlns="http://www.w3.org/2000/svg">
<g clip-path="url(#clip0_43914_99854)">
<path d="M44.9816 50H23.273C22.4589 50 21.8119 49.3333 21.8119 48.5417C21.8119 47.75 22.4798 47.0833 23.273 47.0833H44.9816C45.7957 47.0833 46.4636 46.4167 46.4636 45.625V11.8333L37.5088 2.9375H15.508C14.6939 2.9375 14.026 3.58333 14.026 4.39583V21.0625C14.026 21.875 13.358 22.5208 12.5648 22.5208C11.7716 22.5208 11.1037 21.8542 11.1037 21.0625V4.39583C11.0828 1.97917 13.0658 0 15.508 0H38.1142C38.5108 0 38.8865 0.145833 39.1578 0.4375L48.9893 10.2083C49.2607 10.4792 49.4277 10.8542 49.4277 11.25V45.6042C49.4277 48.0208 47.4447 50 45.0025 50H44.9816Z" fill="#A0A3BD"/>
<path d="M48.9691 10.1925L39.1376 0.442527C38.7202 0.0258608 38.0731 -0.0991392 37.5304 0.130027C36.9877 0.359194 36.6328 0.900861 36.6328 1.48419V11.2342C36.6328 12.0467 37.3008 12.6925 38.094 12.6925H47.9254C48.5308 12.6925 49.0526 12.3384 49.2822 11.7759C49.5118 11.2342 49.3866 10.5884 48.9691 10.1717V10.1925Z" fill="#A0A3BD"/>
<path d="M41.3942 29.4958H25.4885C24.8623 29.4958 24.3613 28.8291 24.3613 28.0374C24.3613 27.2458 24.8623 26.5791 25.4885 26.5791H41.3942C42.0204 26.5791 42.5214 27.2458 42.5214 28.0374C42.5214 28.8291 42.0204 29.4958 41.3942 29.4958Z" fill="#A0A3BD"/>
<path d="M41.055 20.7067H19.4299C18.6158 20.7067 17.9688 20.04 17.9688 19.2484C17.9688 18.4567 18.6367 17.79 19.4299 17.79H41.055C41.8691 17.79 42.5161 18.4567 42.5161 19.2484C42.5161 20.04 41.8482 20.7067 41.055 20.7067Z" fill="#A0A3BD"/>
<path d="M41.3922 38.2848H28.5549C27.9287 38.2848 27.4277 37.6182 27.4277 36.8265C27.4277 36.0348 27.9287 35.3682 28.5549 35.3682H41.3922C42.0184 35.3682 42.5194 36.0348 42.5194 36.8265C42.5194 37.6182 42.0184 38.2848 41.3922 38.2848Z" fill="#A0A3BD"/>
<path d="M12.5632 24.3164C5.65407 24.3164 0.0390625 29.9206 0.0390625 36.8164C0.0390625 43.7122 5.65407 49.3164 12.5632 49.3164C19.4724 49.3164 25.0874 43.7122 25.0874 36.8164C25.0874 29.9206 19.4724 24.3164 12.5632 24.3164ZM11.6239 31.8164C11.6239 31.2956 12.0414 30.8789 12.5632 30.8789C13.0851 30.8789 13.5026 31.2956 13.5026 31.8164V38.0664C13.5026 38.5872 13.0851 39.0039 12.5632 39.0039C12.0414 39.0039 11.6239 38.5872 11.6239 38.0664V31.8164ZM13.7113 42.2956C13.6487 42.4622 13.5652 42.5872 13.4399 42.7122C13.3147 42.8164 13.1686 42.9206 13.0225 42.9831C12.8763 43.0456 12.7094 43.0872 12.5424 43.0872C12.3754 43.0872 12.2084 43.0456 12.0623 42.9831C11.9162 42.9206 11.77 42.8372 11.6448 42.7122C11.5404 42.5872 11.4361 42.4622 11.3734 42.2956C11.3108 42.1497 11.2691 41.9831 11.2691 41.8164C11.2691 41.6497 11.3108 41.4831 11.3734 41.3372C11.4361 41.1914 11.5196 41.0456 11.6448 40.9206C11.77 40.8164 11.9162 40.7122 12.0623 40.6497C12.3545 40.5247 12.7094 40.5247 13.0225 40.6497C13.1686 40.7122 13.3147 40.7956 13.4399 40.9206C13.5443 41.0456 13.6487 41.1914 13.7113 41.3372C13.7739 41.4831 13.8157 41.6497 13.8157 41.8164C13.8157 41.9831 13.7739 42.1497 13.7113 42.2956Z" fill="#D83A52"/>
</g>
<defs>
<clipPath id="clip0_43914_99854">
<rect width="50.0967" height="50" fill="white" transform="translate(0.0390625)"/>
</clipPath>
</defs>
</svg>
