<svg width="18" height="22" viewBox="0 0 18 22" fill="none" xmlns="http://www.w3.org/2000/svg">
<path d="M17.6172 7.45C16.5672 2.83 12.5372 0.75 8.99717 0.75C8.99717 0.75 8.99717 0.75 8.98717 0.75C5.45717 0.75 1.41717 2.82 0.367166 7.44C-0.802834 12.6 2.35717 16.97 5.21717 19.72C6.27717 20.74 7.63717 21.25 8.99717 21.25C10.3572 21.25 11.7172 20.74 12.7672 19.72C15.6272 16.97 18.7872 12.61 17.6172 7.45ZM8.99717 12.46C7.25717 12.46 5.84717 11.05 5.84717 9.31C5.84717 7.57 7.25717 6.16 8.99717 6.16C10.7372 6.16 12.1472 7.57 12.1472 9.31C12.1472 11.05 10.7372 12.46 8.99717 12.46Z" fill="#A0A3BD"/>
</svg>
