<svg width="24" height="24" viewBox="0 0 24 24" fill="none" xmlns="http://www.w3.org/2000/svg">
<path d="M16.663 2.81543H7.33497C4.61797 2.81543 2.41797 5.02643 2.41797 7.73243V18.0834C2.41797 20.7894 4.62897 23.0004 7.33497 23.0004H16.652C19.369 23.0004 21.569 20.7894 21.569 18.0834V7.73243C21.58 5.01543 19.369 2.81543 16.663 2.81543Z" fill="white"/>
<path d="M14.5849 1H9.41494C8.27094 1 7.33594 1.924 7.33594 3.068V4.102C7.33594 5.246 8.25994 6.17 9.40394 6.17H14.5849C15.7289 6.17 16.6529 5.246 16.6529 4.102V3.068C16.6639 1.924 15.7289 1 14.5849 1Z" fill="#8686A3"/>
<path d="M10.691 17.4447C10.482 17.4447 10.273 17.3677 10.108 17.2027L8.458 15.5527C8.139 15.2337 8.139 14.7057 8.458 14.3867C8.777 14.0677 9.305 14.0677 9.624 14.3867L10.691 15.4537L14.508 11.6367C14.827 11.3177 15.355 11.3177 15.674 11.6367C15.993 11.9557 15.993 12.4837 15.674 12.8027L11.274 17.2027C11.12 17.3677 10.9 17.4447 10.691 17.4447Z" fill="#8686A3"/>
</svg>
