<svg width="24" height="24" viewBox="0 0 24 24" fill="none" xmlns="http://www.w3.org/2000/svg">
<g clip-path="url(#clip0_1_26322)">
<path d="M22.1259 17.1512H21.4274V16.2691C21.4274 14.1805 19.7282 12.4814 17.6397 12.4814H12.8602V9.21924H14.9555C15.9889 9.21924 16.8296 8.37853 16.8296 7.34512V2.79599C16.8296 1.76263 15.9889 0.921875 14.9555 0.921875H9.35735C8.32399 0.921875 7.48328 1.76258 7.48328 2.79599V7.34508C7.48328 8.37844 8.32399 9.21919 9.35735 9.21919H11.4527V12.4814H6.39161C4.30304 12.4814 2.60396 14.1805 2.60396 16.269V17.1511H1.87411C0.840705 17.1512 0 17.9919 0 19.0253V21.2043C0 22.2377 0.840705 23.0784 1.87411 23.0784H4.74128C5.77464 23.0784 6.61534 22.2377 6.61534 21.2043V19.0253C6.61534 17.9919 5.77464 17.1512 4.74128 17.1512H4.01148V16.2691C4.01148 14.9567 5.0792 13.889 6.39156 13.889H11.4526V17.1512H10.7228C9.68941 17.1512 8.84871 17.9919 8.84871 19.0253V21.2043C8.84871 22.2377 9.68941 23.0784 10.7228 23.0784H13.59C14.6233 23.0784 15.464 22.2377 15.464 21.2043V19.0253C15.464 17.9919 14.6233 17.1512 13.59 17.1512H12.8602V13.889H17.6397C18.9521 13.889 20.0198 14.9567 20.0198 16.2691V17.1512H19.2587C18.2254 17.1512 17.3847 17.9919 17.3847 19.0253V21.2043C17.3847 22.2377 18.2254 23.0784 19.2587 23.0784H22.1259C23.1593 23.0784 24 22.2377 24 21.2043V19.0253C24 17.9919 23.1593 17.1512 22.1259 17.1512Z" fill="#A0A3BD"/>
</g>
<defs>
<clipPath id="clip0_1_26322">
<rect width="24" height="24" fill="white"/>
</clipPath>
</defs>
</svg>
