<svg width="24" height="24" viewBox="0 0 24 24" fill="none" xmlns="http://www.w3.org/2000/svg">
<path d="M12 2C9.38 2 7.25 4.13 7.25 6.75C7.25 9.32 9.26 11.4 11.88 11.49C11.96 11.48 12.04 11.48 12.1 11.49C12.12 11.49 12.13 11.49 12.15 11.49C12.16 11.49 12.16 11.49 12.17 11.49C14.73 11.4 16.74 9.32 16.75 6.75C16.75 4.13 14.62 2 12 2Z" fill="#3DC575"/>
<path d="M17.0809 14.1596C14.2909 12.2996 9.74094 12.2996 6.93094 14.1596C5.66094 14.9996 4.96094 16.1496 4.96094 17.3796C4.96094 18.6096 5.66094 19.7496 6.92094 20.5896C8.32094 21.5296 10.1609 21.9996 12.0009 21.9996C13.8409 21.9996 15.6809 21.5296 17.0809 20.5896C18.3409 19.7396 19.0409 18.5996 19.0409 17.3596C19.0309 16.1396 18.3409 14.9896 17.0809 14.1596Z" fill="#3DC575"/>
<path d="M11.3683 19.26C11.2083 19.26 11.0483 19.19 10.9283 19.08L9.66828 17.82C9.42828 17.58 9.42828 17.18 9.66828 16.94C9.90828 16.7 10.3083 16.7 10.5483 16.94L11.3683 17.76L13.4483 15.68C13.6883 15.44 14.0883 15.44 14.3283 15.68C14.5683 15.92 14.5683 16.32 14.3283 16.56L11.8083 19.08C11.6883 19.2 11.5283 19.26 11.3683 19.26Z" fill="white"/>
</svg>
