<svg width="24" height="24" viewBox="0 0 24 24" fill="none" xmlns="http://www.w3.org/2000/svg">
<path d="M12 2C9.38 2 7.25 4.13 7.25 6.75C7.25 9.32 9.26 11.4 11.88 11.49C11.96 11.48 12.04 11.48 12.1 11.49C12.12 11.49 12.13 11.49 12.15 11.49C12.16 11.49 12.16 11.49 12.17 11.49C14.73 11.4 16.74 9.32 16.75 6.75C16.75 4.13 14.62 2 12 2Z" fill="#E95060"/>
<path d="M17.0809 14.15C14.2909 12.29 9.74094 12.29 6.93094 14.15C5.66094 15 4.96094 16.15 4.96094 17.38C4.96094 18.61 5.66094 19.75 6.92094 20.59C8.32094 21.53 10.1609 22 12.0009 22C13.8409 22 15.6809 21.53 17.0809 20.59C18.3409 19.74 19.0409 18.6 19.0409 17.36C19.0309 16.13 18.3409 14.99 17.0809 14.15ZM13.9409 18.26C14.2309 18.55 14.2309 19.03 13.9409 19.32C13.7909 19.47 13.6009 19.54 13.4109 19.54C13.2209 19.54 13.0309 19.47 12.8809 19.32L12.0009 18.44L11.1209 19.32C10.9709 19.47 10.7809 19.54 10.5909 19.54C10.4009 19.54 10.2109 19.47 10.0609 19.32C9.77094 19.03 9.77094 18.55 10.0609 18.26L10.9409 17.38L10.0609 16.5C9.77094 16.21 9.77094 15.73 10.0609 15.44C10.3509 15.15 10.8309 15.15 11.1209 15.44L12.0009 16.32L12.8809 15.44C13.1709 15.15 13.6509 15.15 13.9409 15.44C14.2309 15.73 14.2309 16.21 13.9409 16.5L13.0609 17.38L13.9409 18.26Z" fill="#E95060"/>
</svg>
