<svg width="1182" height="597" viewBox="0 0 1182 597" fill="none" xmlns="http://www.w3.org/2000/svg">
<rect width="1182" height="597" fill="#F5F5F5"/>
<g clip-path="url(#clip0_0_1)">
<path d="M477.587 556.111C458.108 531.736 447.048 495.271 444.413 446.735C441.793 398.475 448.843 361.17 465.572 334.825C482.302 308.481 507.806 294.377 542.099 292.512C576.388 290.653 603.277 301.919 622.756 326.294C642.236 350.679 653.29 386.999 655.91 435.26C658.53 483.526 651.48 520.891 634.761 547.375C618.041 573.859 592.532 588.029 558.249 589.893C523.955 591.752 497.076 580.497 477.592 556.111H477.587Z" fill="white"/>
<path d="M477.587 556.111C458.108 531.736 447.048 495.271 444.413 446.735C441.793 398.475 448.843 361.17 465.572 334.825C482.302 308.481 507.806 294.377 542.099 292.512C576.388 290.653 603.277 301.919 622.756 326.294C642.236 350.679 653.29 386.999 655.91 435.26C658.53 483.526 651.48 520.891 634.761 547.375C618.041 573.859 592.532 588.029 558.249 589.893C523.955 591.752 497.076 580.497 477.592 556.111H477.587Z" stroke="#E94E5D" stroke-width="5" stroke-miterlimit="10"/>
<path d="M595.327 520.436C602.897 502.843 605.677 475.394 603.652 438.099C601.612 400.534 595.877 373.55 586.463 357.146C577.043 340.743 563.004 333.051 544.354 334.061C525.7 335.075 512.581 344.312 505.006 361.77C497.421 379.238 494.646 406.612 496.671 443.902C498.696 481.197 504.421 508.181 513.861 524.854C523.29 541.532 537.335 549.364 555.989 548.35C574.638 547.34 587.753 538.034 595.327 520.431V520.436Z" fill="#E95060"/>
<path d="M595.327 520.436C602.897 502.843 605.677 475.394 603.652 438.099C601.612 400.534 595.877 373.55 586.463 357.146C577.043 340.743 563.004 333.051 544.354 334.061C525.7 335.075 512.581 344.312 505.006 361.77C497.421 379.238 494.646 406.612 496.671 443.902C498.696 481.197 504.421 508.181 513.861 524.854C523.29 541.532 537.335 549.364 555.989 548.35C574.638 547.34 587.753 538.034 595.327 520.431V520.436Z" fill="#E95060" stroke="#E94E5D" stroke-width="5" stroke-miterlimit="10"/>
<path d="M714.033 442.502H373.071V447.045H714.033V442.502Z" fill="#E94E5D"/>
<path d="M942.784 443.657H901.181C900.974 443.657 900.806 443.824 900.806 444.031V446.69C900.806 446.897 900.974 447.065 901.181 447.065H942.784C942.991 447.065 943.159 446.897 943.159 446.69V444.031C943.159 443.824 942.991 443.657 942.784 443.657Z" fill="#E94E5D"/>
<path d="M185.568 443.657H143.965C143.757 443.657 143.59 443.824 143.59 444.031V446.69C143.59 446.897 143.757 447.065 143.965 447.065H185.568C185.775 447.065 185.943 446.897 185.943 446.69V444.031C185.943 443.824 185.775 443.657 185.568 443.657Z" fill="#E94E5D"/>
<path d="M906.361 514.278H864.507C864.369 514.278 864.257 514.39 864.257 514.528V516.303C864.257 516.441 864.369 516.553 864.507 516.553H906.361C906.499 516.553 906.611 516.441 906.611 516.303V514.528C906.611 514.39 906.499 514.278 906.361 514.278Z" fill="#9BD5E8"/>
<path d="M205.947 152.089C213.892 152.089 220.797 146.321 221.872 138.454C222.062 137.045 222.162 135.6 222.162 134.141C222.162 116.623 207.957 102.424 190.433 102.424C189.713 102.424 189.003 102.459 188.293 102.504C186.843 85.2307 172.368 71.6612 154.714 71.6612C136.1 71.6612 121.005 86.7451 121.005 105.358C121.005 106.182 121.045 106.997 121.105 107.812C115.821 104.863 109.666 103.283 103.116 103.583C86.1868 104.358 72.2723 117.898 71.0773 134.796C71.0673 134.931 71.0573 135.066 71.0523 135.196C70.5074 144.387 77.9421 152.094 87.1517 152.094H205.947V152.089Z" fill="#9BD5E8"/>
<path d="M1035.3 229.873C1060.39 229.873 1061.78 192.128 1036.72 190.908C1036.04 190.873 1035.35 190.858 1034.66 190.858C1030.18 190.858 1025.88 191.568 1021.84 192.867C1018.48 172.436 1000.75 156.847 979.358 156.847C957.968 156.847 939.459 173.135 936.684 194.227C931.499 191.743 925.69 190.348 919.555 190.348C916.13 190.348 912.8 190.783 909.63 191.598C887.691 197.246 892.296 229.878 914.95 229.878H1035.31L1035.3 229.873Z" fill="#9BD5E8"/>
<path d="M816.399 73.0056C841.483 73.0056 842.868 35.2708 817.819 34.0513C817.134 34.0163 816.444 34.0013 815.754 34.0013C811.284 34.0013 806.974 34.711 802.934 36.0055C799.58 15.5787 781.85 -0.00500488 760.471 -0.00500488C739.092 -0.00500488 720.583 16.2785 717.808 37.365C712.623 34.881 706.813 33.4865 700.683 33.4865C697.258 33.4865 693.934 33.9214 690.759 34.736C668.824 40.3838 673.429 73.0006 696.078 73.0006H816.399V73.0056Z" fill="#9BD5E8"/>
<path d="M805.659 142.343C818.819 156.232 822.419 156.327 836.313 143.172C822.419 156.327 822.324 159.926 835.483 173.815C822.324 159.926 818.724 159.831 804.829 172.985C818.724 159.831 818.819 156.232 805.659 142.343Z" fill="#9BD5E8"/>
<path d="M324.722 34.761C337.882 48.6505 341.482 48.7454 355.376 35.5907C341.482 48.7454 341.387 52.344 354.546 66.2334C341.387 52.344 337.787 52.249 323.892 65.4037C337.787 52.249 337.882 48.6505 324.722 34.761Z" fill="#9BD5E8"/>
<path d="M194.448 233.191C207.607 247.081 211.207 247.176 225.101 234.021C211.207 247.176 211.112 250.774 224.271 264.664C211.112 250.774 207.512 250.679 193.618 263.834C207.512 250.679 207.607 247.081 194.448 233.191Z" fill="#9BD5E8"/>
<path d="M43.8532 197.965C57.0127 211.855 60.6126 211.95 74.5071 198.795C60.6126 211.95 60.5176 215.548 73.6771 229.438C60.5176 215.548 56.9177 215.453 43.0233 228.608C56.9177 215.453 57.0127 211.855 43.8532 197.965Z" fill="#9BD5E8"/>
<path d="M959.193 301.714C972.353 315.603 975.953 315.698 989.847 302.543C975.953 315.698 975.858 319.297 989.017 333.186C975.858 319.297 972.258 319.202 958.363 332.356C972.258 319.202 972.353 315.603 959.193 301.714Z" fill="#9BD5E8"/>
<path d="M485.047 257.107L605.207 221.831C607.457 221.171 608.747 218.812 608.082 216.563L559.039 49.6201C558.379 47.371 556.019 46.0815 553.769 46.7462L471.497 70.8965C470.447 71.2064 469.552 71.9061 469.007 72.8607L441.798 120.352C441.223 121.356 441.083 122.546 441.408 123.655L479.767 254.233C480.427 256.482 482.787 257.771 485.037 257.107H485.047Z" fill="white"/>
<path d="M485.047 257.107L605.207 221.831C607.457 221.171 608.747 218.812 608.082 216.563L559.039 49.6201C558.379 47.371 556.019 46.0815 553.769 46.7462L471.497 70.8965C470.447 71.2064 469.552 71.9061 469.007 72.8607L441.798 120.352C441.223 121.356 441.083 122.546 441.408 123.655L479.767 254.233C480.427 256.482 482.787 257.771 485.037 257.107H485.047Z" stroke="#E94E5D" stroke-width="4" stroke-linecap="round" stroke-linejoin="round"/>
<path d="M470.922 73.4855L480.952 107.637C481.657 110.036 480.287 112.555 477.892 113.274L442.183 123.925" fill="white"/>
<path d="M470.922 73.4855L480.952 107.637C481.657 110.036 480.287 112.555 477.892 113.274L442.183 123.925" stroke="#E94E5D" stroke-width="4" stroke-linecap="round" stroke-linejoin="round"/>
<path d="M494.39 199.276L487.583 201.275C487.053 201.43 486.75 201.986 486.905 202.516L495.311 231.12C495.467 231.65 496.023 231.953 496.553 231.797L503.36 229.799C503.89 229.643 504.193 229.087 504.038 228.558L495.632 199.953C495.476 199.424 494.92 199.12 494.39 199.276Z" fill="#9BD5E8"/>
<path d="M531.85 197.749L525.042 199.748C524.512 199.903 524.209 200.459 524.365 200.989L530.207 220.87C530.363 221.4 530.918 221.703 531.448 221.548L538.256 219.549C538.785 219.393 539.089 218.838 538.933 218.308L533.091 198.426C532.935 197.897 532.379 197.593 531.85 197.749Z" fill="#9BD5E8"/>
<path d="M546.733 183.901L539.926 185.9C539.396 186.056 539.092 186.611 539.248 187.141L547.653 215.745C547.809 216.275 548.365 216.578 548.895 216.423L555.702 214.424C556.232 214.268 556.535 213.713 556.38 213.183L547.974 184.578C547.819 184.049 547.263 183.745 546.733 183.901Z" fill="#9BD5E8"/>
<path d="M509.274 185.428L502.466 187.427C501.936 187.583 501.633 188.138 501.789 188.668L512.756 225.99C512.912 226.52 513.467 226.823 513.997 226.668L520.805 224.669C521.335 224.513 521.638 223.958 521.482 223.428L510.515 186.105C510.359 185.576 509.803 185.272 509.274 185.428Z" fill="#9BD5E8"/>
<path d="M469.022 141.693L549.719 118.008" stroke="#9BD5E8" stroke-width="3" stroke-linecap="round" stroke-linejoin="round"/>
<path d="M472.867 154.778L553.559 131.087" stroke="#9BD5E8" stroke-width="3" stroke-linecap="round" stroke-linejoin="round"/>
<path d="M476.707 167.858L557.404 144.167" stroke="#9BD5E8" stroke-width="3" stroke-linecap="round" stroke-linejoin="round"/>
<path d="M648.955 212.05L651.95 205.687C652.52 204.473 651.925 203.033 650.66 202.584L610.442 188.144L608.677 191.328L645.745 213.049C646.9 213.724 648.385 213.264 648.95 212.055L648.955 212.05Z" fill="#E94E5D"/>
<path d="M580.268 211.11C598.263 211.11 612.852 196.527 612.852 178.538C612.852 160.549 598.263 145.966 580.268 145.966C562.272 145.966 547.684 160.549 547.684 178.538C547.684 196.527 562.272 211.11 580.268 211.11Z" fill="#9BD5E8"/>
<path d="M580.268 204.318C594.511 204.318 606.057 192.776 606.057 178.538C606.057 164.301 594.511 152.759 580.268 152.759C566.025 152.759 554.479 164.301 554.479 178.538C554.479 192.776 566.025 204.318 580.268 204.318Z" fill="white"/>
<path d="M580.268 211.11C598.263 211.11 612.852 196.527 612.852 178.538C612.852 160.549 598.263 145.966 580.268 145.966C562.272 145.966 547.684 160.549 547.684 178.538C547.684 196.527 562.272 211.11 580.268 211.11Z" stroke="#E94E5D" stroke-width="4" stroke-linecap="round" stroke-linejoin="round"/>
<path d="M580.423 166.038L580.228 181.942" stroke="#E94E5D" stroke-width="4" stroke-linecap="round" stroke-linejoin="round"/>
<path d="M580.113 191.038C580.118 191.038 580.123 191.034 580.123 191.028C580.123 191.023 580.118 191.018 580.113 191.018C580.107 191.018 580.103 191.023 580.103 191.028C580.103 191.034 580.107 191.038 580.113 191.038Z" stroke="#E94E5D" stroke-width="4" stroke-linecap="round" stroke-linejoin="round"/>
<path d="M926.365 438.604L894.311 445.041L907.19 509.13L838.558 522.915L825.679 458.826L699.923 484.085L689.934 434.375L766.791 238.144L849.393 221.551L882.421 385.88L914.475 379.442L926.365 438.604ZM795.865 310.52L759.536 410.56L813.784 399.664L795.865 310.515V310.52Z" fill="#E94E5D"/>
<path d="M397.425 471.78L365.176 466.408L354.426 530.887L285.374 519.381L296.124 454.902L169.599 433.821L177.938 383.806L319.558 227.708L402.665 241.558L375.096 406.891L407.344 412.264L397.42 471.785L397.425 471.78ZM321.003 305.687L251.47 386.285L306.048 395.376L321.003 305.687Z" fill="#E94E5D"/>
<path d="M1182 447.06H0V597H1182V447.06Z" fill="#F5F5F5"/>
<path d="M198.647 517.397H156.794C156.656 517.397 156.544 517.509 156.544 517.647V519.422C156.544 519.56 156.656 519.672 156.794 519.672H198.647C198.785 519.672 198.897 519.56 198.897 519.422V517.647C198.897 517.509 198.785 517.397 198.647 517.397Z" fill="#9BD5E8"/>
<path d="M313.573 517.397H271.72C271.582 517.397 271.47 517.509 271.47 517.647V519.422C271.47 519.56 271.582 519.672 271.72 519.672H313.573C313.711 519.672 313.823 519.56 313.823 519.422V517.647C313.823 517.509 313.711 517.397 313.573 517.397Z" fill="#9BD5E8"/>
<path d="M418.169 490.413H376.316C376.178 490.413 376.066 490.525 376.066 490.663V492.438C376.066 492.576 376.178 492.688 376.316 492.688H418.169C418.307 492.688 418.419 492.576 418.419 492.438V490.663C418.419 490.525 418.307 490.413 418.169 490.413Z" fill="#9BD5E8"/>
<path d="M477.657 520.251H435.803C435.665 520.251 435.553 520.363 435.553 520.501V522.276C435.553 522.414 435.665 522.526 435.803 522.526H477.657C477.795 522.526 477.907 522.414 477.907 522.276V520.501C477.907 520.363 477.795 520.251 477.657 520.251Z" fill="#9BD5E8"/>
<path d="M624.431 520.251H582.578C582.44 520.251 582.328 520.363 582.328 520.501V522.276C582.328 522.414 582.44 522.526 582.578 522.526H624.431C624.569 522.526 624.681 522.414 624.681 522.276V520.501C624.681 520.363 624.569 520.251 624.431 520.251Z" fill="#9BD5E8"/>
<path d="M788.635 518.567H746.782C746.643 518.567 746.532 518.678 746.532 518.817V520.592C746.532 520.73 746.643 520.842 746.782 520.842H788.635C788.773 520.842 788.885 520.73 788.885 520.592V518.817C788.885 518.678 788.773 518.567 788.635 518.567Z" fill="#9BD5E8"/>
<path d="M266.995 486.04H225.142C225.003 486.04 224.892 486.152 224.892 486.29V488.065C224.892 488.203 225.003 488.315 225.142 488.315H266.995C267.133 488.315 267.245 488.203 267.245 488.065V486.29C267.245 486.152 267.133 486.04 266.995 486.04Z" fill="#9BD5E8"/>
<path d="M559.229 484.935H517.375C517.237 484.935 517.125 485.047 517.125 485.185V486.96C517.125 487.098 517.237 487.21 517.375 487.21H559.229C559.367 487.21 559.479 487.098 559.479 486.96V485.185C559.479 485.047 559.367 484.935 559.229 484.935Z" fill="#9BD5E8"/>
<path d="M856.977 484.755H815.124C814.986 484.755 814.874 484.867 814.874 485.005V486.78C814.874 486.918 814.986 487.03 815.124 487.03H856.977C857.115 487.03 857.227 486.918 857.227 486.78V485.005C857.227 484.867 857.115 484.755 856.977 484.755Z" fill="#9BD5E8"/>
<path d="M710.423 474.174H668.569C668.431 474.174 668.319 474.286 668.319 474.424V476.199C668.319 476.337 668.431 476.449 668.569 476.449H710.423C710.561 476.449 710.673 476.337 710.673 476.199V474.424C710.673 474.286 710.561 474.174 710.423 474.174Z" fill="#9BD5E8"/>
</g>
<defs>
<clipPath id="clip0_0_1">
<rect width="1182" height="597" fill="white"/>
</clipPath>
</defs>
</svg>
