<svg width="40" height="40" viewBox="0 0 40 40" fill="none" xmlns="http://www.w3.org/2000/svg">
<circle cx="20" cy="20" r="20" fill="#4783FF"/>
<path d="M23 30.75H17C11.57 30.75 9.25 28.43 9.25 23V17C9.25 11.57 11.57 9.25 17 9.25H19C19.41 9.25 19.75 9.59 19.75 10C19.75 10.41 19.41 10.75 19 10.75H17C12.39 10.75 10.75 12.39 10.75 17V23C10.75 27.61 12.39 29.25 17 29.25H23C27.61 29.25 29.25 27.61 29.25 23V21C29.25 20.59 29.59 20.25 30 20.25C30.41 20.25 30.75 20.59 30.75 21V23C30.75 28.43 28.43 30.75 23 30.75Z" fill="white"/>
<path d="M16.5033 25.6901C15.8933 25.6901 15.3333 25.4701 14.9233 25.0701C14.4333 24.5801 14.2233 23.8701 14.3333 23.1201L14.7633 20.1101C14.8433 19.5301 15.2233 18.7801 15.6333 18.3701L23.5133 10.4901C25.5033 8.50006 27.5233 8.50006 29.5133 10.4901C30.6033 11.5801 31.0933 12.6901 30.9933 13.8001C30.9033 14.7001 30.4233 15.5801 29.5133 16.4801L21.6333 24.3601C21.2233 24.7701 20.4733 25.1501 19.8933 25.2301L16.8833 25.6601C16.7533 25.6901 16.6233 25.6901 16.5033 25.6901ZM24.5733 11.5501L16.6933 19.4301C16.5033 19.6201 16.2833 20.0601 16.2433 20.3201L15.8133 23.3301C15.7733 23.6201 15.8333 23.8601 15.9833 24.0101C16.1333 24.1601 16.3733 24.2201 16.6633 24.1801L19.6733 23.7501C19.9333 23.7101 20.3833 23.4901 20.5633 23.3001L28.4433 15.4201C29.0933 14.7701 29.4333 14.1901 29.4833 13.6501C29.5433 13.0001 29.2033 12.3101 28.4433 11.5401C26.8433 9.94006 25.7433 10.3901 24.5733 11.5501Z" fill="white"/>
<path d="M27.8515 17.83C27.7815 17.83 27.7115 17.82 27.6515 17.8C25.0215 17.06 22.9315 14.97 22.1915 12.34C22.0815 11.94 22.3115 11.53 22.7115 11.41C23.1115 11.3 23.5215 11.53 23.6315 11.93C24.2315 14.06 25.9215 15.75 28.0515 16.35C28.4515 16.46 28.6815 16.88 28.5715 17.28C28.4815 17.62 28.1815 17.83 27.8515 17.83Z" fill="white"/>
</svg>
