<svg width="24" height="24" viewBox="0 0 24 24" fill="none" xmlns="http://www.w3.org/2000/svg">
<path d="M15.3264 5H8.66667C7.19516 5 6 6.21761 6 7.70113V17.5609C6 18.8205 6.89119 19.3524 7.98273 18.7436L11.3541 16.8472C11.7133 16.6442 12.2936 16.6442 12.6459 16.8472L16.0173 18.7436C17.1088 19.3594 18 18.8275 18 17.5609V7.70113C17.9931 6.21761 16.7979 5 15.3264 5Z" fill="#363565"/>
<path d="M12.0007 10.2801C10.9807 10.2801 9.96074 10.1001 8.99074 9.75005C8.60074 9.61005 8.40074 9.18005 8.54074 8.79005C8.69074 8.40005 9.12074 8.20005 9.51074 8.34005C11.1207 8.92005 12.8907 8.92005 14.5007 8.34005C14.8907 8.20005 15.3207 8.40005 15.4607 8.79005C15.6007 9.18005 15.4007 9.61005 15.0107 9.75005C14.0407 10.1001 13.0207 10.2801 12.0007 10.2801Z" fill="#363565"/>
</svg>
