<svg width="40" height="40" viewBox="0 0 40 40" fill="none" xmlns="http://www.w3.org/2000/svg">
<circle cx="20" cy="20" r="20" fill="#3DC575"/>
<path d="M23.9978 30.3199C23.6578 30.3199 23.3278 30.22 23.0378 30.03L18.7778 27.1899H16.8878C16.6578 27.1899 16.4378 27.08 16.2978 26.9C16.1578 26.71 16.1078 26.4699 16.1678 26.2499C16.2278 26.0099 16.2578 25.7699 16.2578 25.5099C16.2578 24.7099 15.9578 23.94 15.4178 23.34C14.8078 22.65 13.9378 22.2599 13.0078 22.2599C12.1178 22.2599 11.2978 22.6099 10.6778 23.2399C10.4878 23.4399 10.1978 23.5099 9.93781 23.4399C9.67781 23.3599 9.46781 23.1499 9.40781 22.8799C9.30781 22.4399 9.25781 21.9599 9.25781 21.4399V15.4399C9.25781 11.9999 11.5678 9.68994 15.0078 9.68994H25.0078C28.4478 9.68994 30.7578 11.9999 30.7578 15.4399V21.4399C30.7578 23.1099 30.2078 24.5499 29.1578 25.5999C28.2778 26.4799 27.1078 27.01 25.7578 27.15V28.5699C25.7578 29.2199 25.3978 29.8099 24.8278 30.1199C24.5578 30.2499 24.2778 30.3199 23.9978 30.3199ZM17.7478 25.6799H18.9978C19.1478 25.6799 19.2878 25.7199 19.4178 25.8099L23.8678 28.78C23.9778 28.85 24.0678 28.8199 24.1178 28.7899C24.1678 28.7599 24.2578 28.6999 24.2578 28.5599V26.4299C24.2578 26.0199 24.5978 25.6799 25.0078 25.6799C26.2778 25.6799 27.3478 25.28 28.0978 24.53C28.8578 23.77 29.2578 22.6999 29.2578 21.4299V15.4299C29.2578 12.8499 27.5878 11.1799 25.0078 11.1799H15.0078C12.4278 11.1799 10.7578 12.8499 10.7578 15.4299V21.3099C11.4378 20.9399 12.2078 20.7499 13.0078 20.7499C14.3678 20.7499 15.6578 21.33 16.5378 22.33C17.3178 23.2 17.7578 24.3199 17.7578 25.4999C17.7478 25.5599 17.7478 25.6199 17.7478 25.6799Z" fill="white"/>
<path d="M13 30.25C11.34 30.25 9.78 29.37 8.94 27.94C8.49 27.22 8.25 26.37 8.25 25.5C8.25 24.04 8.9 22.69 10.03 21.79C10.87 21.12 11.93 20.75 13 20.75C15.62 20.75 17.75 22.88 17.75 25.5C17.75 26.37 17.51 27.22 17.06 27.95C16.81 28.37 16.49 28.75 16.11 29.07C15.28 29.83 14.17 30.25 13 30.25ZM13 22.25C12.26 22.25 11.56 22.5 10.97 22.97C10.2 23.58 9.75 24.51 9.75 25.5C9.75 26.09 9.91 26.67 10.22 27.17C10.8 28.15 11.87 28.75 13 28.75C13.79 28.75 14.55 28.46 15.13 27.94C15.39 27.72 15.61 27.46 15.77 27.18C16.09 26.67 16.25 26.09 16.25 25.5C16.25 23.71 14.79 22.25 13 22.25Z" fill="white"/>
<path d="M12.4328 27.2401C12.2428 27.2401 12.0528 27.1701 11.9028 27.0201L10.9128 26.0301C10.6228 25.7401 10.6228 25.26 10.9128 24.97C11.2028 24.68 11.6828 24.68 11.9728 24.97L12.4528 25.4501L14.0528 23.97C14.3528 23.69 14.8328 23.7101 15.1128 24.0101C15.3928 24.3101 15.3728 24.7901 15.0728 25.0701L12.9428 27.04C12.7928 27.17 12.6128 27.2401 12.4328 27.2401Z" fill="white"/>
</svg>
