<svg width="12" height="12" viewBox="0 0 12 12" fill="none" xmlns="http://www.w3.org/2000/svg">
<g clip-path="url(#clip0_1601_72055)">
<path d="M6.34713 2.66512H5.65504C5.59173 2.66512 5.53993 2.71535 5.53993 2.77675V6.61814C5.53993 6.65442 5.5572 6.68791 5.58741 6.70884L7.96585 8.39302C8.01765 8.4293 8.08959 8.41954 8.127 8.3693L8.53852 7.82512C8.57736 7.77349 8.56585 7.70372 8.51405 7.66884L6.46224 6.23023V2.77675C6.46224 2.71535 6.41044 2.66512 6.34713 2.66512ZM9.50975 3.71442L11.7659 4.24884C11.8378 4.26558 11.9083 4.21256 11.9083 4.1414L11.9198 1.88791C11.9198 1.79442 11.809 1.7414 11.7342 1.8L9.46658 3.51768C9.44944 3.53053 9.43639 3.54782 9.42894 3.56755C9.42148 3.58728 9.41991 3.60865 9.42442 3.6292C9.42893 3.64975 9.43933 3.66865 9.45443 3.68373C9.46952 3.6988 9.4887 3.70944 9.50975 3.71442ZM11.9227 7.91581L11.1069 7.64372C11.0784 7.63427 11.0473 7.63598 11.0201 7.6485C10.993 7.66101 10.972 7.68334 10.9616 7.7107C10.9342 7.78186 10.9054 7.85163 10.8752 7.9214C10.6191 8.50884 10.2522 9.03767 9.78313 9.49116C9.31927 9.94239 8.76954 10.3021 8.16441 10.5502C7.53754 10.8073 6.8637 10.9392 6.1831 10.9381C5.49533 10.9381 4.82913 10.8084 4.20179 10.5502C3.59666 10.3021 3.04693 9.94239 2.58307 9.49116C2.11544 9.03767 1.74853 8.50884 1.49098 7.9214C1.2274 7.31314 1.09236 6.65978 1.09385 6C1.09385 5.33302 1.22767 4.68558 1.49386 4.07721C1.74997 3.48977 2.11688 2.96093 2.58595 2.50744C3.04981 2.05621 3.59954 1.69655 4.20467 1.44837C4.82913 1.19023 5.49676 1.06047 6.18454 1.06047C6.87231 1.06047 7.53851 1.19023 8.16585 1.44837C8.77098 1.69655 9.32071 2.05621 9.78457 2.50744C9.93133 2.65116 10.0695 2.80047 10.1961 2.95814L11.0565 2.30512C9.92414 0.901397 8.16153 -0.00139373 6.18166 1.61517e-06C2.73415 0.00139696 -0.0342131 2.71675 0.000319588 6.0614C0.0348522 9.34744 2.79027 12 6.18454 12C8.85363 12 11.127 10.3591 11.9932 8.06093C12.0148 8.00233 11.9831 7.93674 11.9227 7.91581Z" fill="#A0A3BD"/>
</g>
<defs>
<clipPath id="clip0_1601_72055">
<rect width="12" height="12" fill="white"/>
</clipPath>
</defs>
</svg>
