<svg width="40" height="40" viewBox="0 0 40 40" fill="none" xmlns="http://www.w3.org/2000/svg">
<circle cx="20" cy="20" r="20" fill="#1FBEC8"/>
<path d="M23.9628 29.32C23.7728 29.32 23.5828 29.25 23.4328 29.1L21.9128 27.58C21.6228 27.29 21.6228 26.81 21.9128 26.52C22.2028 26.23 22.6828 26.23 22.9728 26.52L23.9628 27.51L26.4728 25C26.7628 24.71 27.2428 24.71 27.5328 25C27.8228 25.29 27.8228 25.77 27.5328 26.06L24.4928 29.1C24.3428 29.25 24.1528 29.32 23.9628 29.32Z" fill="white"/>
<path d="M20.1626 19.62C20.1326 19.62 20.1126 19.62 20.0826 19.62C20.0326 19.61 19.9626 19.61 19.9026 19.62C17.0026 19.53 14.8126 17.25 14.8126 14.44C14.8026 13.06 15.3426 11.76 16.3226 10.78C17.3026 9.8 18.6026 9.25 19.9926 9.25C22.8526 9.25 25.1826 11.58 25.1826 14.44C25.1826 17.25 22.9926 19.52 20.1926 19.62C20.1826 19.62 20.1726 19.62 20.1626 19.62ZM19.9926 10.75C19.0026 10.75 18.0826 11.14 17.3826 11.83C16.6926 12.53 16.3126 13.45 16.3126 14.43C16.3126 16.43 17.8726 18.05 19.8626 18.11C19.9226 18.1 20.0526 18.1 20.1826 18.11C22.1526 18.02 23.6826 16.41 23.6826 14.43C23.6826 12.41 22.0226 10.75 19.9926 10.75Z" fill="white"/>
<path d="M19.9862 30.5601C17.9462 30.5601 16.0163 30.0301 14.5563 29.0501C13.1663 28.1201 12.4062 26.8501 12.4062 25.4801C12.4062 24.1101 13.1763 22.8501 14.5563 21.9301C17.5463 19.9301 22.4062 19.9301 25.3962 21.9301C25.7362 22.1601 25.8363 22.6301 25.6063 22.9701C25.3763 23.3201 24.9062 23.4101 24.5662 23.1801C22.0763 21.5201 17.8763 21.5201 15.3863 23.1801C14.4262 23.8201 13.9062 24.6301 13.9062 25.4801C13.9062 26.3301 14.4262 27.1601 15.3863 27.8001C16.5963 28.6101 18.2262 29.0501 19.9762 29.0501C20.3862 29.0501 20.7262 29.3901 20.7262 29.8001C20.7262 30.2101 20.3962 30.5601 19.9862 30.5601Z" fill="white"/>
</svg>
