<svg width="40" height="40" viewBox="0 0 40 40" fill="none" xmlns="http://www.w3.org/2000/svg">
<circle cx="20" cy="20" r="20" fill="#FFBB33"/>
<path d="M22.4272 26.82C22.2372 26.82 22.0472 26.75 21.8972 26.6C21.6072 26.31 21.6072 25.83 21.8972 25.54L27.4372 20L21.8972 14.46C21.6072 14.17 21.6072 13.69 21.8972 13.4C22.1872 13.11 22.6672 13.11 22.9572 13.4L29.0272 19.47C29.3172 19.76 29.3172 20.24 29.0272 20.53L22.9572 26.6C22.8072 26.75 22.6172 26.82 22.4272 26.82Z" fill="white"/>
<path d="M28.33 20.75H11.5C11.09 20.75 10.75 20.41 10.75 20C10.75 19.59 11.09 19.25 11.5 19.25H28.33C28.74 19.25 29.08 19.59 29.08 20C29.08 20.41 28.74 20.75 28.33 20.75Z" fill="white"/>
</svg>
