<svg width="40" height="40" viewBox="0 0 40 40" fill="none" xmlns="http://www.w3.org/2000/svg">
<path d="M25.8359 19.583C25.8359 19.2515 25.7042 18.9335 25.4698 18.6991C25.2354 18.4647 24.9175 18.333 24.5859 18.333C24.2544 18.333 23.9365 18.4647 23.7021 18.6991C23.4676 18.9335 23.3359 19.2515 23.3359 19.583V22.9163C23.3359 23.2479 23.4676 23.5658 23.7021 23.8002C23.9365 24.0346 24.2544 24.1663 24.5859 24.1663C24.9175 24.1663 25.2354 24.0346 25.4698 23.8002C25.7042 23.5658 25.8359 23.2479 25.8359 22.9163V19.583ZM19.5859 18.333C19.9175 18.333 20.2354 18.4647 20.4698 18.6991C20.7042 18.9335 20.8359 19.2515 20.8359 19.583V22.9163C20.8359 23.2479 20.7042 23.5658 20.4698 23.8002C20.2354 24.0346 19.9175 24.1663 19.5859 24.1663C19.2544 24.1663 18.9365 24.0346 18.7021 23.8002C18.4676 23.5658 18.3359 23.2479 18.3359 22.9163V19.583C18.3359 19.2515 18.4676 18.9335 18.7021 18.6991C18.9365 18.4647 19.2544 18.333 19.5859 18.333ZM15.8359 19.583C15.8359 19.2515 15.7042 18.9335 15.4698 18.6991C15.2354 18.4647 14.9175 18.333 14.5859 18.333C14.2544 18.333 13.9365 18.4647 13.7021 18.6991C13.4676 18.9335 13.3359 19.2515 13.3359 19.583V22.9163C13.3359 23.2479 13.4676 23.5658 13.7021 23.8002C13.9365 24.0346 14.2544 24.1663 14.5859 24.1663C14.9175 24.1663 15.2354 24.0346 15.4698 23.8002C15.7042 23.5658 15.8359 23.2479 15.8359 22.9163V19.583ZM9.58594 25.833C9.91746 25.833 10.2354 25.9647 10.4698 26.1991C10.7042 26.4335 10.8359 26.7515 10.8359 27.083V31.2497C10.8359 31.5812 10.7042 31.8991 10.4698 32.1336C10.2354 32.368 9.91746 32.4997 9.58594 32.4997C9.25442 32.4997 8.93647 32.368 8.70205 32.1336C8.46763 31.8991 8.33594 31.5812 8.33594 31.2497V27.083C8.33594 26.7515 8.46763 26.4335 8.70205 26.1991C8.93647 25.9647 9.25442 25.833 9.58594 25.833ZM31.6693 27.083C31.6693 26.7515 31.5376 26.4335 31.3032 26.1991C31.0687 25.9647 30.7508 25.833 30.4193 25.833C30.0877 25.833 29.7698 25.9647 29.5354 26.1991C29.301 26.4335 29.1693 26.7515 29.1693 27.083V31.2497C29.1693 31.5812 29.301 31.8991 29.5354 32.1336C29.7698 32.368 30.0877 32.4997 30.4193 32.4997C30.7508 32.4997 31.0687 32.368 31.3032 32.1336C31.5376 31.8991 31.6693 31.5812 31.6693 31.2497V27.083ZM19.5859 3.33301H25.8359C26.057 3.33301 26.2689 3.42081 26.4252 3.57709C26.5815 3.73337 26.6693 3.94533 26.6693 4.16634V7.49967C26.6693 7.72069 26.5815 7.93265 26.4252 8.08893C26.2689 8.24521 26.057 8.33301 25.8359 8.33301H20.8359V10.0297C23.7783 10.2404 26.5316 11.5579 28.5417 13.717C30.5517 15.8761 31.6692 18.7164 31.6693 21.6663H32.9193C33.9138 21.6663 34.8677 22.0614 35.5709 22.7647C36.2742 23.468 36.6693 24.4218 36.6693 25.4163V35.4163C36.6693 35.7479 36.5376 36.0658 36.3032 36.3002C36.0687 36.5346 35.7508 36.6663 35.4193 36.6663H4.58594C4.25442 36.6663 3.93647 36.5346 3.70205 36.3002C3.46763 36.0658 3.33594 35.7479 3.33594 35.4163V25.4163C3.33594 24.4218 3.73103 23.468 4.43429 22.7647C5.13755 22.0614 6.09138 21.6663 7.08594 21.6663H8.33594C8.33591 18.8606 9.34674 16.1487 11.1833 14.0276C13.0198 11.9064 15.5591 10.5179 18.3359 10.1163V4.58301C18.3359 4.25149 18.4676 3.93354 18.7021 3.69912C18.9365 3.4647 19.2544 3.33301 19.5859 3.33301ZM20.0026 12.4997C17.5715 12.4997 15.2399 13.4654 13.5208 15.1845C11.8017 16.9036 10.8359 19.2352 10.8359 21.6663V22.9163C10.8359 23.2479 10.7042 23.5658 10.4698 23.8002C10.2354 24.0346 9.91746 24.1663 9.58594 24.1663H7.08594C6.75442 24.1663 6.43647 24.298 6.20205 24.5325C5.96763 24.7669 5.83594 25.0848 5.83594 25.4163V34.1663H15.8359V29.583C15.8359 29.2515 15.9676 28.9335 16.2021 28.6991C16.4365 28.4647 16.7544 28.333 17.0859 28.333H22.9193C23.2508 28.333 23.5687 28.4647 23.8032 28.6991C24.0376 28.9335 24.1693 29.2515 24.1693 29.583V34.1663H34.1693V25.4163C34.1693 25.0848 34.0376 24.7669 33.8032 24.5325C33.5687 24.298 33.2508 24.1663 32.9193 24.1663H30.4193C30.0877 24.1663 29.7698 24.0346 29.5354 23.8002C29.301 23.5658 29.1693 23.2479 29.1693 22.9163V21.6663C29.1693 19.2352 28.2035 16.9036 26.4844 15.1845C24.7653 13.4654 22.4338 12.4997 20.0026 12.4997ZM21.6693 30.833H18.3359V34.1663H21.6693V30.833Z" fill="#9BD5E8"/>
</svg>
