<svg width="40" height="40" viewBox="0 0 40 40" fill="none" xmlns="http://www.w3.org/2000/svg">
<path d="M18.3359 36.6663C17.8637 36.6663 17.4682 36.5063 17.1493 36.1863C16.8293 35.8675 16.6693 35.4719 16.6693 34.9997V26.2913C16.6693 26.2358 16.697 26.0969 16.7526 25.8747L19.0026 19.4163C19.1415 19.1108 19.3426 18.8541 19.6059 18.6463C19.8704 18.4375 20.197 18.333 20.5859 18.333H32.7526C33.1415 18.333 33.4682 18.4375 33.7326 18.6463C33.9959 18.8541 34.197 19.1108 34.3359 19.4163L36.5859 25.8747L36.6693 26.2913V34.9997C36.6693 35.4719 36.5093 35.8675 36.1893 36.1863C35.8704 36.5063 35.4748 36.6663 35.0026 36.6663C34.5304 36.6663 34.1348 36.5063 33.8159 36.1863C33.4959 35.8675 33.3359 35.4719 33.3359 34.9997V34.1663H20.0026V34.9997C20.0026 35.4719 19.8432 35.8675 19.5243 36.1863C19.2043 36.5063 18.8082 36.6663 18.3359 36.6663ZM20.0026 24.1663H33.3359L32.1693 20.833H21.1693L20.0026 24.1663ZM21.6693 30.833C22.1415 30.833 22.5376 30.673 22.8576 30.353C23.1765 30.0341 23.3359 29.6386 23.3359 29.1663C23.3359 28.6941 23.1765 28.2986 22.8576 27.9797C22.5376 27.6597 22.1415 27.4997 21.6693 27.4997C21.197 27.4997 20.8015 27.6597 20.4826 27.9797C20.1626 28.2986 20.0026 28.6941 20.0026 29.1663C20.0026 29.6386 20.1626 30.0341 20.4826 30.353C20.8015 30.673 21.197 30.833 21.6693 30.833ZM31.6693 30.833C32.1415 30.833 32.537 30.673 32.8559 30.353C33.1759 30.0341 33.3359 29.6386 33.3359 29.1663C33.3359 28.6941 33.1759 28.2986 32.8559 27.9797C32.537 27.6597 32.1415 27.4997 31.6693 27.4997C31.197 27.4997 30.8015 27.6597 30.4826 27.9797C30.1626 28.2986 30.0026 28.6941 30.0026 29.1663C30.0026 29.6386 30.1626 30.0341 30.4826 30.353C30.8015 30.673 31.197 30.833 31.6693 30.833ZM10.0026 23.333V19.9997H13.3359V23.333H10.0026ZM18.3359 13.333V9.99967H21.6693V13.333H18.3359ZM10.0026 29.9997V26.6663H13.3359V29.9997H10.0026ZM10.0026 36.6663V33.333H13.3359V36.6663H10.0026ZM3.33594 36.6663V16.6663C3.33594 15.7497 3.6626 14.9647 4.31594 14.3113C4.96816 13.6591 5.7526 13.333 6.66927 13.333H11.6693V6.66634C11.6693 5.74967 11.9959 4.96467 12.6493 4.31134C13.3015 3.65912 14.0859 3.33301 15.0026 3.33301H25.0026C25.9193 3.33301 26.7043 3.65912 27.3576 4.31134C28.0098 4.96467 28.3359 5.74967 28.3359 6.66634V14.9997H25.0026V6.66634H15.0026V16.6663H6.66927V36.6663H3.33594ZM19.1693 31.6663H34.1693V26.6663H19.1693V31.6663Z" fill="#6AAD8E"/>
</svg>
