<svg width="40" height="40" viewBox="0 0 40 40" fill="none" xmlns="http://www.w3.org/2000/svg">
<path d="M3.75 16.2504H7.5V26.2504H5C4.66848 26.2504 4.35054 26.3821 4.11612 26.6165C3.8817 26.851 3.75 27.1689 3.75 27.5004C3.75 27.8319 3.8817 28.1499 4.11612 28.3843C4.35054 28.6187 4.66848 28.7504 5 28.7504H35C35.3315 28.7504 35.6495 28.6187 35.8839 28.3843C36.1183 28.1499 36.25 27.8319 36.25 27.5004C36.25 27.1689 36.1183 26.851 35.8839 26.6165C35.6495 26.3821 35.3315 26.2504 35 26.2504H32.5V16.2504H36.25C36.5216 16.2499 36.7857 16.161 37.0023 15.997C37.2189 15.8331 37.3761 15.603 37.4503 15.3417C37.5245 15.0804 37.5115 14.802 37.4133 14.5487C37.3151 14.2954 37.1371 14.081 36.9062 13.9379L20.6562 3.93792C20.4596 3.8145 20.2322 3.74902 20 3.74902C19.7678 3.74902 19.5404 3.8145 19.3438 3.93792L3.09375 13.9379C2.86286 14.081 2.68486 14.2954 2.5867 14.5487C2.48854 14.802 2.47555 15.0804 2.54971 15.3417C2.62387 15.603 2.78113 15.8331 2.9977 15.997C3.21427 16.161 3.47836 16.2499 3.75 16.2504ZM10 16.2504H15V26.2504H10V16.2504ZM22.5 16.2504V26.2504H17.5V16.2504H22.5ZM30 26.2504H25V16.2504H30V26.2504ZM20 6.46917L31.8281 13.7504H8.17188L20 6.46917ZM38.75 32.5004C38.75 32.8319 38.6183 33.1499 38.3839 33.3843C38.1495 33.6187 37.8315 33.7504 37.5 33.7504H2.5C2.16848 33.7504 1.85054 33.6187 1.61612 33.3843C1.3817 33.1499 1.25 32.8319 1.25 32.5004C1.25 32.1689 1.3817 31.851 1.61612 31.6165C1.85054 31.3821 2.16848 31.2504 2.5 31.2504H37.5C37.8315 31.2504 38.1495 31.3821 38.3839 31.6165C38.6183 31.851 38.75 32.1689 38.75 32.5004Z" fill="#FFC15D"/>
</svg>
