<svg width="50" height="50" viewBox="0 0 50 50" fill="none" xmlns="http://www.w3.org/2000/svg">
<path d="M34.9246 7.55528C35.0096 7.36585 35.0235 7.14686 34.9625 6.94611C34.9018 6.74573 34.7716 6.58003 34.6006 6.48586C28.5501 3.17138 21.4494 3.17138 15.3989 6.48586C15.0999 6.6512 14.9427 7.02203 15.0192 7.38227C15.0957 7.74252 15.386 7.99692 15.7199 7.99692C15.831 7.99765 15.9404 7.97064 16.0403 7.91735C21.6867 4.82442 28.3127 4.82442 33.9592 7.91735C34.1306 8.01115 34.3287 8.02575 34.5096 7.95786C34.6909 7.88998 34.8402 7.74507 34.9246 7.55528Z" fill="#A0A3BD"/>
<path d="M42.8802 15.0781C42.7139 15.1615 42.5873 15.308 42.5283 15.4858C42.469 15.6633 42.4825 15.8572 42.5652 16.025C43.9129 18.7545 44.6099 21.764 44.5999 24.8132C44.5999 35.7344 35.8249 44.5876 25 44.5876C14.1754 44.5876 5.40038 35.7344 5.40038 24.8132C5.39109 21.7637 6.08867 18.7542 7.43738 16.025C7.55081 15.7987 7.53543 15.5285 7.397 15.317C7.25825 15.1053 7.01825 14.985 6.76735 15.0015C6.51645 15.0177 6.29375 15.1686 6.18352 15.3966C4.73837 18.321 3.99048 21.5458 4.00009 24.8132C4.00009 36.5145 13.4022 46 25 46C36.5981 46 45.9999 36.5145 45.9999 24.8132C46.0105 21.5458 45.2635 18.321 43.8187 15.3966C43.7364 15.2288 43.5909 15.1007 43.415 15.0409C43.2387 14.9811 43.0465 14.9947 42.8802 15.0781Z" fill="#A0A3BD"/>
<path d="M40.3058 17.403C40.1955 17.1732 39.9718 17.0205 39.7195 17.0018C39.4672 16.9835 39.2241 17.1022 39.082 17.3135C38.94 17.5247 38.9202 17.7961 39.0308 18.0259C39.5525 19.1102 39.9481 20.2523 40.2094 21.4288L38.8281 21.6743C38.4663 21.7384 38.2127 22.0706 38.2448 22.4401C38.2766 22.8093 38.5833 23.0924 38.9507 23.0921C38.9922 23.0921 39.0337 23.0885 39.0746 23.0816L40.451 22.8364C40.6281 24.1786 40.6281 25.5385 40.451 26.8807L39.0752 26.6358C38.69 26.5672 38.3223 26.8265 38.2542 27.2152C38.1865 27.6037 38.4436 27.9742 38.8288 28.0428L40.2059 28.2881C39.9128 29.6087 39.4507 30.8852 38.8311 32.0859L37.6268 31.3829C37.4076 31.2534 37.1362 31.2521 36.9157 31.3799C36.6952 31.5074 36.5597 31.7445 36.5603 32.0009C36.5607 32.2572 36.6975 32.4933 36.9183 32.6201L38.1226 33.3222C37.3982 34.461 36.5325 35.5014 35.5458 36.418L34.6512 35.3429C34.4903 35.1405 34.2338 35.0417 33.9803 35.0849C33.7267 35.128 33.5163 35.3062 33.4304 35.5508C33.3444 35.7951 33.3966 36.0671 33.5665 36.2617L34.4605 37.3328C33.395 38.1571 32.2284 38.8389 30.9897 39.3617L30.5115 38.0358C30.4284 37.7913 30.2209 37.6111 29.969 37.5643C29.7167 37.5179 29.4593 37.6124 29.2958 37.8115C29.1324 38.0107 29.0883 38.2834 29.1807 38.5243L29.6593 39.8574C28.3779 40.2622 27.0498 40.4976 25.7083 40.5571V39.143C25.7083 38.7486 25.3912 38.4289 24.9999 38.4289C24.6088 38.4289 24.2917 38.7486 24.2917 39.143V40.5539C22.9503 40.495 21.6221 40.2609 20.3407 39.8574L20.8203 38.5296C20.9124 38.2883 20.8683 38.0156 20.7048 37.8164C20.5414 37.6173 20.284 37.5231 20.032 37.5696C19.7798 37.616 19.5722 37.7962 19.4892 38.0407L19.011 39.3666C17.7723 38.8438 16.6057 38.162 15.5402 37.3381L16.4341 36.2666C16.604 36.072 16.6563 35.8 16.5703 35.5557C16.4844 35.3115 16.274 35.1333 16.0204 35.0901C15.7672 35.047 15.5104 35.1457 15.3495 35.3481L14.4549 36.4229C13.4686 35.5064 12.6025 34.4659 11.8781 33.3274L13.0824 32.625C13.3032 32.4985 13.44 32.2621 13.4407 32.0058C13.441 31.7494 13.3055 31.5124 13.085 31.3848C12.8645 31.257 12.5931 31.2583 12.3739 31.3881L11.1696 32.0908C10.5497 30.8882 10.0873 29.609 9.7948 28.2858L11.1719 28.0409C11.4212 27.9964 11.6281 27.8211 11.7144 27.5815C11.8009 27.3415 11.7539 27.0733 11.5911 26.8778C11.4284 26.6823 11.1748 26.5894 10.9255 26.6336L9.54967 26.8788C9.37328 25.5366 9.37328 24.1767 9.54967 22.8344L10.9268 23.0793C10.9676 23.0865 11.0091 23.0901 11.0506 23.0901C11.4183 23.0901 11.7247 22.807 11.7568 22.4378C11.7886 22.0687 11.5354 21.7361 11.1732 21.6724L9.78994 21.4288C10.05 20.253 10.4452 19.1118 10.9679 18.0286C11.0785 17.799 11.0594 17.5273 10.9177 17.3157C10.7757 17.1042 10.5325 16.9848 10.2799 17.0032C10.0273 17.0211 9.80356 17.1738 9.69299 17.4037C8.57141 19.7252 7.9923 22.275 8.00008 24.8571C8.00137 25.8501 8.08795 26.8409 8.25915 27.8185V27.8345C8.25915 27.8401 8.26434 27.845 8.26564 27.8515C8.60805 29.8 9.2854 31.6729 10.2666 33.3866C10.2731 33.4 10.2731 33.415 10.2809 33.4288C10.2928 33.4464 10.3058 33.4634 10.3198 33.4794C11.3 35.1696 12.5584 36.6795 14.0405 37.9443C14.0548 37.9587 14.0613 37.9767 14.0762 37.9894C14.0908 38.0022 14.1086 38.0058 14.1235 38.0172C20.4211 43.3276 29.586 43.3276 35.8836 38.0172C35.8985 38.0058 35.9161 38.0015 35.931 37.9894C35.9459 37.9773 35.9524 37.9587 35.9663 37.9443C37.4488 36.6795 38.7069 35.1696 39.6874 33.4794C39.7001 33.4631 39.712 33.4464 39.7227 33.4288C39.7305 33.415 39.7305 33.4 39.737 33.3866C40.7172 31.6729 41.3936 29.7997 41.735 27.8515C41.735 27.845 41.7402 27.8407 41.7415 27.8345C41.7428 27.828 41.7415 27.8237 41.7415 27.8185C41.9124 26.8409 41.999 25.8501 42 24.8571C42.0058 22.2747 41.4264 19.7249 40.3058 17.403Z" fill="#A0A3BD"/>
<path d="M6.81605 7.16901C5.07817 8.88778 6.39936 12.6845 8.13789 14.3998C8.95866 15.2227 10.0659 15.7053 11.2338 15.7494H11.387C11.7207 15.7459 12.0523 15.7037 12.3759 15.6238L21.3107 24.4624C21.2832 24.6206 21.267 24.7808 21.2619 24.9412C21.267 25.1019 21.2832 25.2621 21.3107 25.4203L20.2966 26.4235C19.4687 27.2416 19.4687 28.5682 20.2966 29.3864C21.1241 30.2045 22.466 30.2045 23.2936 29.3864L24.3077 28.3838C24.468 28.411 24.63 28.427 24.7926 28.4321C24.9555 28.427 25.1175 28.411 25.2778 28.3838L26.2954 29.3899C27.1295 30.1959 28.4626 30.193 29.2924 29.3829C30.1061 28.5599 30.1045 27.2448 29.2889 26.4235L28.2748 25.4203C28.3023 25.2621 28.3184 25.1019 28.3236 24.9412C28.3184 24.7808 28.3023 24.6206 28.2748 24.4624L37.3693 15.4707C38.1742 15.8581 39.1395 15.696 39.7701 15.068L44.7636 10.1313C44.9589 9.95905 45.042 9.69411 44.9796 9.44291C44.9169 9.19171 44.7187 8.99548 44.4646 8.93284C44.2109 8.8702 43.9426 8.95138 43.768 9.14409L38.7751 14.0802C38.4997 14.3509 38.0549 14.3509 37.7795 14.0802L37.2794 13.5858L42.7717 8.15623C42.955 7.98078 43.0287 7.72127 42.964 7.4771C42.8994 7.23325 42.7067 7.04246 42.4597 6.97854C42.2127 6.91462 41.9503 6.98749 41.7731 7.16901L36.2808 12.5986L35.781 12.1041C35.5072 11.8319 35.5072 11.3921 35.781 11.1198L40.7736 6.18307C41.0412 5.90918 41.0377 5.4739 40.7652 5.20448C40.4926 4.93507 40.0524 4.93155 39.7753 5.19586L34.7825 10.1326C34.1466 10.7558 33.9821 11.7101 34.3729 12.5065L25.2778 21.4985C25.1175 21.4717 24.9555 21.4557 24.7926 21.4506C24.63 21.4557 24.468 21.4717 24.3077 21.4985L15.3771 12.6698C15.468 12.2994 15.5077 11.9185 15.4951 11.5375C15.4502 10.3822 14.9617 9.28759 14.1293 8.47582C12.3908 6.75706 8.55038 5.44929 6.81605 7.16901ZM11.2826 14.3544C10.4722 14.3215 9.70509 13.9846 9.13646 13.4126C7.76581 12.0568 6.85064 9.10989 7.81462 8.15623C8.16278 7.8686 8.61083 7.72702 9.06308 7.76186C10.5779 7.84527 12.0161 8.44674 13.1314 9.46304C13.71 10.0252 14.0504 10.7836 14.0841 11.5848C14.1241 12.3307 13.8419 13.0584 13.3076 13.5867C12.7735 14.115 12.0371 14.394 11.2826 14.3544ZM22.295 28.3992C22.1625 28.5305 21.9824 28.6043 21.7949 28.6043C21.6074 28.6043 21.4274 28.5305 21.2948 28.3992C21.1623 28.2685 21.0876 28.0904 21.0876 27.9051C21.0876 27.7194 21.1623 27.5417 21.2948 27.4107L21.8492 26.8626C22.1124 27.2547 22.4524 27.5906 22.8494 27.8504L22.295 28.3992ZM28.2871 27.4078C28.4662 27.5839 28.5366 27.8408 28.472 28.0825C28.4073 28.3237 28.2176 28.5126 27.9738 28.5781C27.7301 28.6433 27.4695 28.5753 27.2905 28.3992L26.7361 27.8514C27.133 27.5909 27.4728 27.2547 27.7362 26.8626L28.2871 27.4078ZM35.278 13.5845L36.2782 14.573L27.7333 23.0208C27.4702 22.6283 27.1301 22.2918 26.7335 22.0313L35.278 13.5845ZM26.9113 24.9412C26.9113 26.0981 25.9628 27.0358 24.7926 27.0358C23.6227 27.0358 22.6742 26.0981 22.6742 24.9412C22.6742 23.7846 23.6227 22.8469 24.7926 22.8469C25.9628 22.8469 26.9113 23.7846 26.9113 24.9412ZM22.8494 22.0319C22.4524 22.2921 22.1124 22.6283 21.8492 23.0208L13.7566 15.0191C14.1519 14.7574 14.4923 14.4228 14.7594 14.0332L22.8494 22.0319Z" fill="#A0A3BD"/>
<path d="M29.7263 12.938C29.9077 13.0104 30.1078 13.0005 30.2826 12.91C30.4573 12.8196 30.5922 12.6563 30.6577 12.4558L31.1494 10.9638C31.4201 11.0892 31.6891 11.2227 31.9544 11.3658C32.3159 11.5596 32.7514 11.393 32.9268 10.9936C33.1023 10.5942 32.9514 10.1135 32.5902 9.91931C32.0629 9.6376 31.5263 9.39082 30.983 9.17053C30.978 9.17053 30.9743 9.16354 30.969 9.16097C30.964 9.15876 30.9603 9.16097 30.956 9.16097C27.1073 7.61301 22.8881 7.61301 19.0394 9.16097H19.0307L19.0221 9.16759C18.4734 9.38788 17.9355 9.63907 17.4098 9.91931C17.0483 10.1135 16.8978 10.5945 17.0732 10.9939C17.249 11.3933 17.6845 11.5596 18.046 11.3658C18.3116 11.2227 18.58 11.0888 18.8503 10.9638L19.342 12.4566C19.4272 12.7317 19.6403 12.9343 19.8993 12.9869C20.1579 13.0391 20.4223 12.9328 20.59 12.7089C20.7582 12.4849 20.8034 12.1782 20.7086 11.9071L20.2175 10.4169C21.5322 9.9594 22.8951 9.69497 24.272 9.62951V11.2139C24.272 11.6574 24.5975 12.0171 24.999 12.0171C25.4008 12.0171 25.7264 11.6574 25.7264 11.2139V9.62951C27.1037 9.69534 28.4669 9.96087 29.7815 10.4191L29.2898 11.9079C29.2239 12.1083 29.2329 12.3297 29.3148 12.5228C29.3967 12.7162 29.5445 12.8655 29.7263 12.938Z" fill="#A0A3BD"/>
</svg>
