<svg width="50" height="50" viewBox="0 0 50 50" fill="none" xmlns="http://www.w3.org/2000/svg">
<path d="M35.2186 20.7903L37.6864 20.633C37.6905 20.6327 37.695 20.6324 37.6995 20.6321C39.4581 20.4829 41.0366 19.5564 42.0306 18.0895L43.9814 15.2112C45.6794 12.7054 46.3373 9.67885 45.8333 6.68936C45.7342 6.10223 45.4356 5.56117 44.9927 5.16642C44.5496 4.77134 43.9798 4.53804 43.3883 4.50968C40.3755 4.36467 37.4675 5.38458 35.1975 7.38026L32.5897 9.67305C31.2609 10.8412 30.5354 12.5282 30.5988 14.3021C30.5992 14.3063 30.5992 14.3108 30.5995 14.3154L30.7402 16.7976C30.795 17.7653 30.4422 18.7202 29.774 19.4156L9.40104 40.4629C8.85565 41.0348 8.57398 41.8195 8.60827 42.6725C8.64608 43.6115 9.07451 44.5338 9.75448 45.14C10.3688 45.6875 11.2131 45.9994 12.0572 45.9994C12.1475 45.9994 12.2379 45.9958 12.3279 45.9884C13.1742 45.9204 13.9154 45.5453 14.4172 44.9286L32.7487 22.0702C33.3566 21.3181 34.257 20.8515 35.2186 20.7903ZM31.7701 21.2736L13.4402 44.13C13.1601 44.4742 12.7295 44.6862 12.2276 44.7265C11.6307 44.7745 11.0186 44.5747 10.5899 44.1926C10.1611 43.81 9.89067 43.2229 9.86664 42.6213C9.84613 42.1157 10.0035 41.6603 10.3066 41.3426L30.678 20.2969C31.5913 19.3466 32.0719 18.045 31.9976 16.7258L31.8569 14.2499C31.8092 12.8614 32.3779 11.5411 33.4184 10.6263L36.0262 8.33347C38.0501 6.55434 40.6437 5.64592 43.3284 5.77418C43.6341 5.789 43.9282 5.90952 44.1573 6.11383C44.3865 6.31781 44.5406 6.59752 44.5919 6.90076C45.0411 9.56607 44.4547 12.2639 42.9409 14.4977L40.9901 17.3764C40.2118 18.5249 38.9765 19.2509 37.5998 19.3698L35.1389 19.5264C33.8276 19.6102 32.6003 20.2463 31.7701 21.2736Z" fill="#A0A3BD"/>
<path d="M11.597 20.6712C12.639 21.6367 13.9929 22.1871 15.4093 22.2213C15.4137 22.2216 15.4182 22.2216 15.4224 22.2216L17.8949 22.2293C18.8588 22.2322 19.7852 22.6437 20.4354 23.3562L21.5245 24.5585C21.6489 24.6958 21.819 24.7654 21.9901 24.7654C22.1414 24.7654 22.2933 24.7109 22.4138 24.6004C22.6711 24.3648 22.6897 23.9643 22.4554 23.7058L21.3646 22.5019C20.4764 21.5281 19.2132 20.9674 17.8991 20.9629L15.4333 20.9551C14.3377 20.9271 13.2902 20.5053 12.4785 19.7664L5.31312 11.2004C5.24006 11.1127 5.24551 10.9858 5.32594 10.9049C5.38105 10.8491 5.44578 10.8411 5.47943 10.8411C5.51307 10.8411 5.5778 10.8491 5.63324 10.9049L12.1555 17.4642C12.8002 18.1126 13.8493 18.1126 14.4941 17.4639L15.2606 16.6934V16.6931L16.6215 15.3245C16.6215 15.3245 16.6218 15.3245 16.6218 15.3242L16.6221 15.3239L17.3883 14.5534C18.033 13.905 18.033 12.85 17.3883 12.2016L10.866 5.64258C10.7814 5.5575 10.7814 5.41861 10.866 5.33354C10.9465 5.25266 11.0727 5.24718 11.1599 5.32065L19.6778 12.5268C20.4129 13.3427 20.8324 14.3964 20.8603 15.4979L20.8676 17.9779C20.8721 19.2991 21.43 20.5694 22.3997 21.4646L23.5667 22.5335C23.824 22.7691 24.222 22.7504 24.4563 22.4919C24.6902 22.2332 24.6716 21.8329 24.4146 21.5974L23.2495 20.5301C22.5391 19.8746 22.1302 18.9427 22.127 17.9737L22.1193 15.4872C22.1193 15.4827 22.1193 15.4782 22.119 15.4737C22.085 14.0494 21.5377 12.6879 20.5776 11.6399C20.5597 11.6203 20.5405 11.6016 20.52 11.5842L11.9703 4.35165C11.3794 3.85152 10.5219 3.8889 9.97585 4.43801C9.40002 5.01709 9.40002 5.95902 9.97585 6.53778L16.4981 13.0971C16.6519 13.2518 16.6519 13.5035 16.4981 13.6582L16.1767 13.9811L8.9075 6.67119C8.66173 6.4237 8.2631 6.4237 8.01732 6.67119C7.77154 6.91835 7.77154 7.31923 8.01732 7.56639L15.2865 14.8766L14.8155 15.35L7.54627 8.0401C7.30049 7.79293 6.90186 7.79293 6.65609 8.0401C6.40999 8.28726 6.40999 8.68814 6.65609 8.9353L13.925 16.2455L13.6039 16.5687C13.4501 16.7234 13.1998 16.7234 13.046 16.5687L6.52342 10.0097C6.24464 9.72932 5.87389 9.57464 5.47943 9.57464C5.08496 9.57464 4.71421 9.72932 4.43543 10.0097C3.8894 10.5588 3.85255 11.4211 4.34955 12.0157L11.5419 20.6132C11.5588 20.6339 11.5774 20.6532 11.597 20.6712Z" fill="#A0A3BD"/>
<path d="M44.8392 40.304L31.1791 27.7921C30.9221 27.5565 30.5241 27.5752 30.2896 27.8337C30.0557 28.0921 30.0742 28.4927 30.3312 28.7282L43.9878 41.2372C44.3127 41.5392 44.497 41.9842 44.5069 42.4901C44.5188 43.0921 44.2839 43.6944 43.8785 44.102C43.4735 44.5094 42.8755 44.7462 42.2757 44.734C41.7726 44.724 41.3301 44.5387 41.033 44.2155L28.8607 30.7764C28.6265 30.5177 28.2282 30.4993 27.9712 30.7346C27.7142 30.9701 27.6956 31.3707 27.9299 31.6291L40.105 45.0714C40.6401 45.6533 41.4022 45.9833 42.251 46.0001C42.2731 46.0004 42.2949 46.0007 42.317 46.0007C43.2293 46.0007 44.1416 45.6285 44.7687 44.9976C45.4115 44.3511 45.7842 43.4047 45.7656 42.4653C45.7489 41.6117 45.4211 40.8454 44.8392 40.304Z" fill="#A0A3BD"/>
</svg>
