<svg width="24" height="24" viewBox="0 0 24 24" fill="none" xmlns="http://www.w3.org/2000/svg">
<path d="M20.2697 3.73456C17.9868 1.45133 15.7509 1.39248 13.4092 3.73456L11.9853 5.15864C11.8676 5.27634 11.8206 5.46464 11.8676 5.62941C12.762 8.74827 15.2567 11.2433 18.3751 12.1378C18.4222 12.1496 18.4692 12.1613 18.5163 12.1613C18.6457 12.1613 18.7634 12.1143 18.8576 12.0201L20.2697 10.596C21.4346 9.44265 21.9995 8.32457 21.9995 7.19472C22.0112 6.02957 21.4464 4.89972 20.2697 3.73456Z" fill="#A0A3BD"/>
<path d="M16.2577 13.2054C15.9165 13.0406 15.587 12.8759 15.2693 12.6876C15.0104 12.5346 14.7633 12.3698 14.5161 12.1933C14.3161 12.0638 14.0807 11.8755 13.8572 11.6872C13.8336 11.6754 13.7513 11.6048 13.6571 11.5106C13.2688 11.1811 12.8334 10.7574 12.4451 10.2866C12.4098 10.2631 12.3509 10.1807 12.2685 10.0748C12.1509 9.93356 11.9508 9.69817 11.7743 9.42748C11.6331 9.25094 11.4684 8.99202 11.3154 8.73309C11.1271 8.41532 10.9624 8.09755 10.7976 7.76801C10.7527 7.67176 10.7104 7.57638 10.6703 7.48211C10.5274 7.1467 10.0919 7.04971 9.83418 7.3075L2.99574 14.1469C2.84276 14.2999 2.70155 14.5942 2.66625 14.7943L2.03081 19.3019C1.91313 20.1022 2.13671 20.8554 2.63095 21.3615C3.05458 21.7734 3.64295 21.997 4.2784 21.997C4.41961 21.997 4.56082 21.9853 4.70203 21.9617L9.22076 21.3262C9.43257 21.2909 9.72676 21.1497 9.86797 20.9967L16.6994 14.1642C16.9589 13.9047 16.8607 13.4602 16.5222 13.3183C16.4358 13.2821 16.3479 13.2445 16.2577 13.2054Z" fill="#A0A3BD"/>
</svg>
