<svg width="40" height="40" viewBox="0 0 40 40" fill="none" xmlns="http://www.w3.org/2000/svg">
<path d="M34.166 16.984H29.3493C25.3993 16.984 22.1827 13.7673 22.1827 9.81732V5.00065C22.1827 4.08398 21.4327 3.33398 20.516 3.33398H13.4493C8.31602 3.33398 4.16602 6.66732 4.16602 12.6173V27.384C4.16602 33.334 8.31602 36.6673 13.4493 36.6673H26.5493C31.6827 36.6673 35.8327 33.334 35.8327 27.384V18.6507C35.8327 17.734 35.0827 16.984 34.166 16.984ZM19.216 22.5507C18.966 22.8007 18.6493 22.9173 18.3327 22.9173C18.016 22.9173 17.6993 22.8007 17.4493 22.5507L16.2493 21.3507V28.334C16.2493 29.0173 15.6827 29.584 14.9993 29.584C14.316 29.584 13.7493 29.0173 13.7493 28.334V21.3507L12.5493 22.5507C12.066 23.034 11.266 23.034 10.7827 22.5507C10.2993 22.0673 10.2993 21.2673 10.7827 20.784L14.116 17.4507C14.2327 17.3507 14.3493 17.2673 14.4827 17.2007C14.516 17.184 14.566 17.1673 14.5993 17.1507C14.6993 17.1173 14.7993 17.1007 14.916 17.084C14.966 17.084 14.9993 17.084 15.0493 17.084C15.1827 17.084 15.316 17.1173 15.4493 17.1673C15.466 17.1673 15.466 17.1673 15.4827 17.1673C15.616 17.2173 15.7493 17.3173 15.8493 17.4173C15.866 17.434 15.8827 17.434 15.8827 17.4507L19.216 20.784C19.6993 21.2673 19.6993 22.0673 19.216 22.5507Z" fill="#A0A3BD"/>
<path d="M29.0501 14.6841C30.6335 14.7008 32.8335 14.7008 34.7168 14.7008C35.6668 14.7008 36.1668 13.5841 35.5001 12.9175C33.1001 10.5008 28.8001 6.1508 26.3335 3.68414C25.6501 3.0008 24.4668 3.46747 24.4668 4.41747V10.2341C24.4668 12.6675 26.5335 14.6841 29.0501 14.6841Z" fill="#A0A3BD"/>
</svg>
