<svg width="8" height="12" viewBox="0 0 8 12" fill="none" xmlns="http://www.w3.org/2000/svg">
<path d="M7.33415 6.00005C7.33478 6.10972 7.31376 6.21844 7.27229 6.31997C7.23082 6.4215 7.16972 6.51385 7.09248 6.59172L2.09247 11.5917C1.93555 11.7486 1.72273 11.8368 1.50081 11.8368C1.27889 11.8368 1.06606 11.7486 0.909139 11.5917C0.752219 11.4348 0.664062 11.222 0.664062 11C0.664062 10.7781 0.752219 10.5653 0.909139 10.4084L5.32581 6.00005L0.917472 1.59172C0.78095 1.4323 0.709611 1.22724 0.717712 1.01751C0.725813 0.80778 0.812757 0.608831 0.96117 0.460419C1.10958 0.312007 1.30853 0.225064 1.51826 0.216963C1.72799 0.208862 1.93306 0.280199 2.09247 0.416721L7.09248 5.41672C7.24644 5.57194 7.33323 5.78144 7.33415 6.00005Z" fill="#A0A3BD"/>
</svg>
