<svg width="24" height="24" viewBox="0 0 24 24" fill="none" xmlns="http://www.w3.org/2000/svg">
<mask id="path-1-inside-1_43465_66647" fill="white">
<path d="M15.9694 11.9662C15.9702 12.0979 15.945 12.2283 15.8952 12.3502C15.8454 12.472 15.7721 12.5828 15.6794 12.6762L9.67943 18.6762C9.49112 18.8645 9.23573 18.9703 8.96943 18.9703C8.70312 18.9703 8.44773 18.8645 8.25942 18.6762C8.07112 18.4879 7.96533 18.2325 7.96533 17.9662C7.96533 17.6999 8.07112 17.4445 8.25942 17.2562L13.5594 11.9662L8.26942 6.67625C8.1056 6.48495 8.01999 6.23888 8.02971 5.9872C8.03943 5.73552 8.14377 5.49678 8.32186 5.31869C8.49996 5.14059 8.73869 5.03626 8.99037 5.02654C9.24205 5.01682 9.48812 5.10243 9.67943 5.26625L15.6794 11.2662C15.8642 11.4525 15.9683 11.7039 15.9694 11.9662Z"/>
</mask>
<path d="M15.9694 11.9662C15.9702 12.0979 15.945 12.2283 15.8952 12.3502C15.8454 12.472 15.7721 12.5828 15.6794 12.6762L9.67943 18.6762C9.49112 18.8645 9.23573 18.9703 8.96943 18.9703C8.70312 18.9703 8.44773 18.8645 8.25942 18.6762C8.07112 18.4879 7.96533 18.2325 7.96533 17.9662C7.96533 17.6999 8.07112 17.4445 8.25942 17.2562L13.5594 11.9662L8.26942 6.67625C8.1056 6.48495 8.01999 6.23888 8.02971 5.9872C8.03943 5.73552 8.14377 5.49678 8.32186 5.31869C8.49996 5.14059 8.73869 5.03626 8.99037 5.02654C9.24205 5.01682 9.48812 5.10243 9.67943 5.26625L15.6794 11.2662C15.8642 11.4525 15.9683 11.7039 15.9694 11.9662Z" fill="#A0A3BD"/>
<path d="M15.9694 11.9662L-5.36371 12.0561L-5.36364 12.0728L-5.36354 12.0896L15.9694 11.9662ZM15.6794 12.6762L30.7644 27.7612L30.7951 27.7305L30.8257 27.6996L15.6794 12.6762ZM8.96943 18.9703L8.96943 40.3037L8.96943 18.9703ZM8.25942 17.2562L-6.81125 2.15705L-6.81838 2.16416L-6.82551 2.17128L8.25942 17.2562ZM13.5594 11.9662L28.6301 27.0654L43.7436 11.9805L28.6444 -3.11871L13.5594 11.9662ZM8.26942 6.67625L-7.93416 20.5527L-7.39817 21.1785L-6.8155 21.7612L8.26942 6.67625ZM9.67943 5.26625L24.7644 -9.81871L24.1817 -10.4014L23.5558 -10.9374L9.67943 5.26625ZM15.6794 11.2662L30.8259 -3.75693L30.7952 -3.78788L30.7644 -3.81871L15.6794 11.2662ZM-5.36354 12.0896C-5.37901 9.41358 -4.8661 6.76083 -3.85422 4.28347L35.6446 20.4168C36.756 17.6958 37.3194 14.7821 37.3024 11.8429L-5.36354 12.0896ZM-3.85422 4.28347C-2.84236 1.80616 -1.35142 -0.447107 0.533142 -2.3471L30.8257 27.6996C32.8957 25.6127 34.5332 23.1378 35.6446 20.4168L-3.85422 4.28347ZM0.594507 -2.40871L-5.4055 3.59128L24.7644 33.7612L30.7644 27.7612L0.594507 -2.40871ZM-5.4055 3.59128C-1.59303 -0.221181 3.57779 -2.363 8.96942 -2.363L8.96943 40.3037C14.8937 40.3037 20.5753 37.9503 24.7644 33.7612L-5.4055 3.59128ZM8.96942 -2.363C14.3611 -2.363 19.5319 -0.221182 23.3444 3.59128L-6.8255 33.7612C-2.63642 37.9503 3.04518 40.3037 8.96943 40.3037L8.96942 -2.363ZM23.3444 3.59128C27.1568 7.40375 29.2987 12.5746 29.2987 17.9662L-13.368 17.9662C-13.368 23.8905 -11.0146 29.5721 -6.8255 33.7612L23.3444 3.59128ZM29.2987 17.9662C29.2987 23.3579 27.1568 28.5287 23.3444 32.3412L-6.82551 2.17128C-11.0146 6.36036 -13.368 12.042 -13.368 17.9662L29.2987 17.9662ZM23.3301 32.3554L28.6301 27.0654L-1.51124 -3.13295L-6.81125 2.15705L23.3301 32.3554ZM28.6444 -3.11871L23.3544 -8.40871L-6.8155 21.7612L-1.5255 27.0512L28.6444 -3.11871ZM24.473 -7.20017C27.8041 -3.31041 29.5448 1.69313 29.3472 6.8106L-13.2877 5.1638C-13.5048 10.7846 -11.5929 16.2803 -7.93416 20.5527L24.473 -7.20017ZM29.3472 6.8106C29.1495 11.928 27.028 16.7824 23.4068 20.4037L-6.76307 -9.76627C-10.7405 -5.78884 -13.0706 -0.456996 -13.2877 5.1638L29.3472 6.8106ZM23.4068 20.4037C19.7855 24.0249 14.9311 26.1463 9.81377 26.344L8.16697 -16.2909C2.54629 -16.0738 -2.78557 -13.7438 -6.76307 -9.76627L23.4068 20.4037ZM9.81377 26.344C4.69646 26.5416 -0.307095 24.8011 -4.19696 21.4699L23.5558 -10.9374C19.2833 -14.5962 13.7876 -16.508 8.16697 -16.2909L9.81377 26.344ZM-5.4055 20.3512L0.594508 26.3512L30.7644 -3.81871L24.7644 -9.81871L-5.4055 20.3512ZM0.532976 26.2894C-3.22351 22.5021 -5.34125 17.3903 -5.36371 12.0561L37.3026 11.8764C37.2779 6.01751 34.9519 0.402905 30.8259 -3.75693L0.532976 26.2894Z" fill="#A0A3BD" mask="url(#path-1-inside-1_43465_66647)"/>
</svg>
