<svg width="8" height="12" viewBox="0 0 8 12" fill="none" xmlns="http://www.w3.org/2000/svg">
<path d="M0.66585 5.99995C0.665216 5.89028 0.686237 5.78156 0.727707 5.68003C0.769178 5.5785 0.830282 5.48615 0.907516 5.40828L5.90753 0.408284C6.06445 0.251365 6.27727 0.163208 6.49919 0.163208C6.72111 0.163208 6.93394 0.251365 7.09086 0.408284C7.24778 0.565204 7.33594 0.778033 7.33594 0.999951C7.33594 1.22187 7.24778 1.4347 7.09086 1.59162L2.67419 5.99995L7.08253 10.4083C7.21905 10.5677 7.29039 10.7728 7.28229 10.9825C7.27419 11.1922 7.18724 11.3912 7.03883 11.5396C6.89042 11.688 6.69147 11.7749 6.48174 11.783C6.27201 11.7911 6.06694 11.7198 5.90753 11.5833L0.907516 6.58328C0.753563 6.42806 0.66677 6.21856 0.66585 5.99995Z" fill="#A0A3BD"/>
</svg>
