<svg width="24" height="24" viewBox="0 0 24 24" fill="none" xmlns="http://www.w3.org/2000/svg">
<path d="M7 2H3C2.44727 2 2 2.44727 2 3V7C2 7.55273 2.44727 8 3 8H7C7.55273 8 8 7.55273 8 7V3C8 2.44727 7.55273 2 7 2Z" fill="#A0A3BD"/>
<path d="M21 2L10 2C9.44727 2 9 2.44727 9 3V7C9 7.55273 9.44727 8 10 8H21C21.5527 8 22 7.55273 22 7V3C22 2.44727 21.5527 2 21 2Z" fill="#A0A3BD"/>
<path d="M21 9L10 9C9.44727 9 9 9.44727 9 10V14C9 14.5527 9.44727 15 10 15H21C21.5527 15 22 14.5527 22 14V10C22 9.44727 21.5527 9 21 9Z" fill="#A0A3BD"/>
<path d="M21 16L10 16C9.44727 16 9 16.4473 9 17V21C9 21.5527 9.44727 22 10 22H21C21.5527 22 22 21.5527 22 21V17C22 16.4473 21.5527 16 21 16Z" fill="#A0A3BD"/>
<path d="M7 16H3C2.44727 16 2 16.4473 2 17V21C2 21.5527 2.44727 22 3 22H7C7.55273 22 8 21.5527 8 21V17C8 16.4473 7.55273 16 7 16Z" fill="#A0A3BD"/>
<path d="M7 9H3C2.44727 9 2 9.44727 2 10V14C2 14.5527 2.44727 15 3 15H7C7.55273 15 8 14.5527 8 14V10C8 9.44727 7.55273 9 7 9Z" fill="#A0A3BD"/>
</svg>
