<svg width="48" height="48" viewBox="0 0 48 48" fill="none" xmlns="http://www.w3.org/2000/svg">
<rect width="48" height="48" rx="8" fill="#A0A3BD"/>
<path d="M22.0265 6.81105C23.291 5.72965 25.3619 5.72965 26.6447 6.81105L29.5403 9.30373C30.0901 9.78028 31.1164 10.1652 31.8494 10.1652H34.965C36.9076 10.1652 38.5019 11.7598 38.5019 13.7027V16.8185C38.5019 17.5333 38.8868 18.5781 39.3633 19.1279L41.8557 22.0239C42.937 23.2886 42.937 25.3598 41.8557 26.6428L39.3633 29.5386C38.8868 30.0885 38.5019 31.1149 38.5019 31.8481V34.964C38.5019 36.9068 36.9076 38.5014 34.965 38.5014H31.8494C31.1347 38.5014 30.0901 38.8864 29.5403 39.3629L26.6447 41.8556C25.3802 42.937 23.3093 42.937 22.0265 41.8556L19.1309 39.3629C18.5811 38.8864 17.5548 38.5014 16.8218 38.5014H13.6513C11.7087 38.5014 10.1143 36.9068 10.1143 34.964V31.8297C10.1143 31.1149 9.72944 30.0885 9.27128 29.5386L6.7972 26.6244C5.73427 25.3597 5.73427 23.3069 6.7972 22.0422L9.27128 19.1279C9.72944 18.5781 10.1143 17.5516 10.1143 16.8368V13.7027C10.1143 11.7598 11.7087 10.1652 13.6513 10.1652H16.8218C17.5365 10.1652 18.5811 9.78028 19.1309 9.30373L22.0265 6.81105Z" fill="white"/>
<path d="M32.3704 22.6671C32.0377 22.1798 31.4775 21.9091 30.8121 21.9091H27.398C27.1704 21.9091 26.9603 21.8188 26.8202 21.6383C26.6801 21.4578 26.6101 21.2232 26.6451 20.9705L27.0653 18.1547C27.2404 17.3244 26.6977 16.3678 25.8923 16.097C25.1394 15.8082 24.2464 16.2053 23.8963 16.7468L20.4996 21.9451V21.2954C20.4996 20.0319 19.9744 19.5084 18.6788 19.5084H17.8208C16.5252 19.5084 16 20.0319 16 21.2954V29.9232C16 31.1867 16.5252 31.7101 17.8208 31.7101H18.6788C19.9044 31.7101 20.4296 31.2227 20.4822 30.0675L23.0559 32.1071C23.4061 32.4681 24.194 32.6667 24.7542 32.6667H27.9932C29.1138 32.6667 30.2344 31.8003 30.4795 30.7353L32.528 24.3096C32.7556 23.732 32.703 23.1364 32.3704 22.6671Z" fill="#A0A3BD"/>
</svg>
