<?xml version="1.0" standalone="no"?>
<!DOCTYPE svg PUBLIC "-//W3C//DTD SVG 20010904//EN"
 "http://www.w3.org/TR/2001/REC-SVG-20010904/DTD/svg10.dtd">
<svg version="1.0" xmlns="http://www.w3.org/2000/svg"
 width="88.000000pt" height="79.000000pt" viewBox="0 0 88.000000 79.000000"
 preserveAspectRatio="xMidYMid meet">

<g transform="translate(0.000000,79.000000) scale(0.100000,-0.100000)"
fill="#000000" stroke="none">
<path d="M276 734 c-3 -9 -12 -67 -18 -129 l-12 -114 -24 47 c-49 98 -112 131
-148 77 -13 -20 -14 -30 -4 -60 13 -40 77 -93 123 -102 19 -4 32 -15 39 -32 5
-14 16 -111 23 -216 7 -104 13 -191 14 -192 1 -2 6 -3 13 -3 8 0 9 45 4 172
-4 94 -10 191 -13 215 l-6 43 37 0 c25 0 36 4 36 15 0 10 -10 15 -31 15 l-32
0 7 93 c3 50 9 113 12 140 6 46 -7 66 -20 31z m-98 -178 c41 -62 42 -79 2 -65
-32 12 -90 71 -90 93 0 45 49 30 88 -28z"/>
<path d="M745 708 c-2 -7 -15 -59 -29 -116 -13 -56 -36 -126 -49 -155 l-24
-52 -7 48 c-9 59 -27 60 -46 5 -27 -78 -74 -55 -52 26 6 22 8 45 5 50 -11 16
-33 -26 -39 -76 -5 -33 -13 -53 -28 -63 -44 -32 -82 -9 -48 28 54 60 58 157 5
157 -21 0 -48 -51 -53 -104 -4 -43 -8 -51 -27 -54 -29 -4 -30 -32 -2 -32 12 0
32 -11 45 -25 29 -31 42 -31 86 -2 27 19 39 22 56 14 18 -8 27 -6 45 11 30 28
37 28 37 -4 0 -46 33 -23 67 46 32 64 35 64 48 5 4 -16 14 -38 22 -47 20 -22
53 -24 53 -3 0 8 -7 15 -16 15 -8 0 -22 17 -31 38 -15 37 -14 140 3 260 5 29
3 42 -5 42 -6 0 -13 -6 -16 -12z m-295 -198 c0 -22 -29 -80 -40 -80 -6 0 -9 8
-6 18 3 9 8 29 12 45 6 25 34 39 34 17z"/>
</g>
</svg>
