<svg width="32" height="32" viewBox="0 0 32 32" fill="none" xmlns="http://www.w3.org/2000/svg">
<g clip-path="url(#clip0_1341_85394)">
<path d="M27.3158 27.3136C33.5641 21.0653 33.5641 10.9347 27.3158 4.6864C21.0675 -1.56193 10.9369 -1.56193 4.6886 4.6864C-1.55973 10.9347 -1.55973 21.0653 4.6886 27.3136C10.9369 33.5619 21.0675 33.5619 27.3158 27.3136Z" fill="#4A9D77"/>
<path d="M12.3604 23.4905C12.5175 23.6476 12.7309 23.736 12.9532 23.736C13.1756 23.736 13.389 23.6476 13.5461 23.4905L24.9727 12.0639C25.1298 11.9068 25.2182 11.6934 25.2182 11.471C25.2182 11.2487 25.1298 11.0353 24.9727 10.8782L22.602 8.50749C22.2743 8.17979 21.7439 8.17979 21.4171 8.50749L12.9541 16.9705L10.5835 14.5998C10.4263 14.4426 10.2129 14.3542 9.99058 14.3542C9.76825 14.3542 9.55484 14.4426 9.39769 14.5998L7.02702 16.9705C6.69933 17.2982 6.69933 17.8285 7.02702 18.1554L12.3604 23.4905Z" fill="white"/>
</g>
<defs>
<clipPath id="clip0_1341_85394">
<rect width="32" height="32" fill="white"/>
</clipPath>
</defs>
</svg>
