<svg width="24" height="24" viewBox="0 0 24 24" fill="none" xmlns="http://www.w3.org/2000/svg">
<path d="M11.3216 3H5.09156C3.10156 3 2.10156 4.01 2.10156 6.02V22H7.50156V18.25C7.50156 17.84 7.84156 17.5 8.25156 17.5C8.66156 17.5 9.00156 17.83 9.00156 18.25V22H14.3016V6.02C14.3016 4.01 13.3116 3 11.3216 3ZM10.7516 12.75H5.80156C5.39156 12.75 5.05156 12.41 5.05156 12C5.05156 11.59 5.39156 11.25 5.80156 11.25H10.7516C11.1616 11.25 11.5016 11.59 11.5016 12C11.5016 12.41 11.1616 12.75 10.7516 12.75ZM10.7516 9H5.80156C5.39156 9 5.05156 8.66 5.05156 8.25C5.05156 7.84 5.39156 7.5 5.80156 7.5H10.7516C11.1616 7.5 11.5016 7.84 11.5016 8.25C11.5016 8.66 11.1616 9 10.7516 9Z" fill="#A0A3BD"/>
<path d="M23 21.2511H20.73V18.2511C21.68 17.9411 22.37 17.0511 22.37 16.0011V14.0011C22.37 12.6911 21.3 11.6211 19.99 11.6211C18.68 11.6211 17.61 12.6911 17.61 14.0011V16.0011C17.61 17.0411 18.29 17.9211 19.22 18.2411V21.2511H1C0.59 21.2511 0.25 21.5911 0.25 22.0011C0.25 22.4111 0.59 22.7511 1 22.7511H19.93C19.95 22.7511 19.96 22.7611 19.98 22.7611C20 22.7611 20.01 22.7511 20.03 22.7511H23C23.41 22.7511 23.75 22.4111 23.75 22.0011C23.75 21.5911 23.41 21.2511 23 21.2511Z" fill="#A0A3BD"/>
</svg>
