<svg width="24" height="24" viewBox="0 0 24 24" fill="none" xmlns="http://www.w3.org/2000/svg">
<path d="M21.3583 7.01223L19.8847 6.04338C19.7882 5.9799 19.6747 5.94642 19.5564 5.94642H6.37905V4.80923C6.37905 4.68561 6.33298 4.56508 6.24941 4.46972L5.13015 3.19447C5.02167 3.07098 4.86109 3 4.68951 3C4.51808 3 4.3575 3.07098 4.24915 3.1946L3.12937 4.47013C3.04594 4.56535 3 4.68576 3 4.80924V21.0662C3 21.3603 3.2558 21.5998 3.57014 21.5998H5.80903C6.12349 21.5998 6.37917 21.3602 6.37917 21.066V8.9515H9.83825V10.2003H8.31576C8.04737 10.2003 7.82921 10.4186 7.82921 10.6868V18.4254C7.82921 18.6938 8.04752 18.912 8.31576 18.912H18.9714C19.2398 18.912 19.458 18.6937 19.458 18.4254L19.4581 10.5366C19.4581 10.379 19.3781 10.2913 19.3306 10.2528C19.2022 10.1496 19.059 10.1808 18.9979 10.1942C18.9889 10.1963 18.9792 10.199 18.9715 10.1999L16.8845 10.1998V8.95105H19.5566C19.6748 8.95105 19.7882 8.91743 19.8848 8.85409L21.3584 7.8851C21.5099 7.78546 21.6002 7.6222 21.6002 7.44837C21.6002 7.27453 21.5099 7.11114 21.3585 7.01164L21.3583 7.01223ZM10.7379 8.95177H15.9843V10.2005H10.7379V8.95177ZM16.4273 17.4875C16.4273 17.6531 16.2928 17.7875 16.1273 17.7875H10.8387C10.6732 17.7875 10.5387 17.6531 10.5387 17.4875V14.4979C10.5387 14.3965 10.5899 14.3019 10.6747 14.2466L13.3298 12.5125C13.4294 12.4476 13.5576 12.4473 13.6574 12.5122L16.2908 14.2237C16.376 14.279 16.4273 14.3737 16.4273 14.4752V17.4875ZM17.1553 13.9592C17.0664 14.0989 16.8808 14.14 16.7411 14.0505L13.4971 11.98L10.2243 14.061C10.1743 14.0927 10.1187 14.108 10.0636 14.108C9.96431 14.108 9.86721 14.059 9.81016 13.969C9.72123 13.829 9.76248 13.6438 9.9023 13.5549L13.3364 11.3713C13.4349 11.3087 13.5606 11.3087 13.6587 11.3715L17.0638 13.5449C17.2035 13.634 17.2445 13.8195 17.1553 13.9592Z" fill="#A0A3BD"/>
</svg>
