<svg width="24" height="24" viewBox="0 0 24 24" fill="none" xmlns="http://www.w3.org/2000/svg">
<path d="M20.5862 2.61378C20.1905 2.21789 19.6628 2 19.1 2H6.8C5.81 2 5 2.81 5 3.8V7.448C5.19795 7.41197 5.39603 7.40006 5.6 7.40006C7.91603 7.40006 9.8 9.28402 9.8 11.6001C9.8 13.9161 7.91603 15.8001 5.6 15.8001C5.39603 15.8001 5.19793 15.788 5 15.7521V17H2.6C2.26866 17 2 17.2684 2 17.6V19.1C2 20.2236 2.98088 21.2 4.1 21.2H16.1062C17.2401 21.194 18.2001 20.1861 18.2001 19.004V6.20001H20.6001C20.9315 6.20001 21.2001 5.93135 21.2001 5.60001V4.10001C21.2001 3.53779 20.9822 3.00982 20.5864 2.61379L20.5862 2.61378ZM14.5999 10.4001H11.3239C10.9926 10.4001 10.7239 10.1314 10.7239 9.80007C10.7239 9.46873 10.9926 9.20007 11.3239 9.20007H14.5999C14.9313 9.20007 15.1999 9.46873 15.1999 9.80007C15.1999 10.1314 14.9313 10.4001 14.5999 10.4001ZM15.1999 12.2001C15.1999 12.5317 14.9313 12.8001 14.5999 12.8001H11.5999C11.2686 12.8001 10.9999 12.5317 10.9999 12.2001C10.9999 11.8687 11.2686 11.6001 11.5999 11.6001H14.5999C14.9313 11.6001 15.1999 11.8687 15.1999 12.2001ZM14.5999 14.0001C14.9313 14.0001 15.1999 14.2685 15.1999 14.6001C15.1999 14.9317 14.9313 15.2001 14.5999 15.2001H10.7239C10.3926 15.2001 10.1239 14.9317 10.1239 14.6001C10.1239 14.2685 10.3926 14.0001 10.7239 14.0001H14.5999ZM9.61993 8.00007C9.28859 8.00007 9.01993 7.73141 9.01993 7.40007C9.01993 7.06873 9.28859 6.80007 9.61993 6.80007H14.5999C14.9313 6.80007 15.1999 7.06873 15.1999 7.40007C15.1999 7.73141 14.9313 8.00007 14.5999 8.00007H9.61993ZM4.09993 20.0001C3.60827 20.0001 3.19993 19.5912 3.19993 19.1001V18.2001H13.9999V19.1001C13.9999 19.4038 14.0727 19.7251 14.2027 20.0001H4.10007H4.09993ZM19.9999 5.00007H18.1999V4.10007C18.1999 3.60371 18.6036 3.20007 19.0999 3.20007C19.591 3.20007 19.9999 3.60923 19.9999 4.10007V5.00007Z" fill="#A0A3BD"/>
<path d="M5.60156 14.6016C7.25571 14.6016 8.60156 13.2557 8.60156 11.6016C8.60156 9.94741 7.25571 8.60156 5.60156 8.60156C3.94741 8.60156 2.60156 9.94741 2.60156 11.6016C2.60156 13.2557 3.94741 14.6016 5.60156 14.6016ZM3.97741 11.1774C4.21179 10.943 4.59147 10.943 4.82585 11.1774L5.07804 11.4296L6.46873 10.5024C6.74382 10.3181 7.11708 10.3929 7.30085 10.6688C7.4846 10.9444 7.41013 11.3171 7.13451 11.5009C7.13451 11.5009 5.33921 12.6976 5.33451 12.7009C5.10803 12.8518 4.7763 12.8246 4.57741 12.6259L3.97741 12.0259C3.7429 11.7915 3.74291 11.4117 3.97741 11.1774Z" fill="#A0A3BD"/>
</svg>
