<svg width="24" height="24" viewBox="0 0 24 24" fill="none" xmlns="http://www.w3.org/2000/svg">
<path d="M8.88849 6.04452C6.06057 8.97041 6.67767 13.826 9.91701 15.977C10.0237 16.0479 10.1657 16.0338 10.2574 15.9443C10.9394 15.2779 11.5163 14.6325 12.0215 13.8116C12.0988 13.686 12.0507 13.5231 11.921 13.4528C11.4269 13.1851 10.9353 12.6832 10.6585 12.153L10.6582 12.1532C10.3266 11.493 10.2137 10.7529 10.3893 9.98861C10.3894 9.98866 10.3896 9.98871 10.3898 9.98871C10.5918 9.01018 11.6423 8.09993 12.4447 7.2581C12.443 7.25753 12.4413 7.25692 12.4396 7.25636L15.4458 4.18815C16.6438 2.96543 18.6144 2.95534 19.8248 4.16578C21.0475 5.36373 21.0677 7.34424 19.8697 8.56692L18.0489 10.4394C17.9646 10.526 17.9373 10.6525 17.9767 10.7668C18.3959 11.9825 18.4991 13.6968 18.2181 14.992C18.2102 15.0282 18.255 15.052 18.2809 15.0255L22.1563 11.0701C24.632 8.54333 24.611 4.42943 22.1096 1.92809C19.5569 -0.624601 15.4013 -0.603357 12.8748 1.97522L8.90401 6.02792C8.89876 6.03345 8.89379 6.03908 8.88849 6.04452Z" fill="#A0A3BD"/>
<path d="M16.134 16.5336C16.1339 16.5338 16.1338 16.5339 16.1338 16.5341C16.1363 16.533 16.1386 16.5321 16.1411 16.531C16.932 15.0847 17.0877 13.4261 16.717 11.8092L16.7153 11.8109L16.7135 11.8101C16.3615 10.37 15.3958 8.93992 14.0842 8.05945C13.9714 7.98371 13.7912 7.99248 13.6855 8.07793C13.0211 8.61512 12.3708 9.30397 11.9417 10.183C11.8743 10.3211 11.9248 10.4868 12.0576 10.5639C12.5556 10.853 13.0053 11.2763 13.3064 11.8383L13.3069 11.838C13.5416 12.2349 13.7728 12.9882 13.623 13.7975C13.6229 13.7975 13.6228 13.7975 13.6227 13.7975C13.483 14.8705 12.3994 15.8548 11.538 16.7417L11.5384 16.7421C10.8827 17.4126 9.21589 19.1118 8.54846 19.7937C7.3505 21.0164 5.36999 21.0366 4.14732 19.8386C2.92465 18.6407 2.90444 16.6602 4.10239 15.4375L5.92866 13.5594C6.01144 13.4743 6.03957 13.3506 6.00276 13.2377C5.59725 11.9935 5.48615 10.3179 5.74211 9.02415C5.74924 8.98808 5.70488 8.96506 5.67913 8.99132L1.86203 12.8872C-0.639023 15.4399 -0.617826 19.596 1.90921 22.123C4.46176 24.624 8.59644 24.5817 11.0974 22.0292C11.9662 21.0573 15.6855 17.6138 16.134 16.5336Z" fill="#A0A3BD"/>
</svg>
