<svg width="60" height="60" viewBox="0 0 60 60" fill="none" xmlns="http://www.w3.org/2000/svg">
<path d="M30 2.5C24.561 2.5 19.2442 4.11285 14.7218 7.13459C10.1995 10.1563 6.67474 14.4512 4.59333 19.4762C2.51192 24.5012 1.96732 30.0305 3.02842 35.365C4.08951 40.6995 6.70863 45.5995 10.5546 49.4454C14.4005 53.2914 19.3006 55.9105 24.635 56.9716C29.9695 58.0327 35.4988 57.4881 40.5238 55.4067C45.5488 53.3253 49.8437 49.8005 52.8654 45.2782C55.8872 40.7558 57.5 35.439 57.5 30C57.4914 22.7092 54.5913 15.7195 49.436 10.5641C44.2806 5.40868 37.2908 2.5086 30 2.5ZM42.5 32.5H32.5V42.5C32.5 43.163 32.2366 43.7989 31.7678 44.2678C31.2989 44.7366 30.6631 45 30 45C29.337 45 28.7011 44.7366 28.2322 44.2678C27.7634 43.7989 27.5 43.163 27.5 42.5V32.5H17.5C16.837 32.5 16.2011 32.2366 15.7322 31.7678C15.2634 31.2989 15 30.663 15 30C15 29.337 15.2634 28.7011 15.7322 28.2322C16.2011 27.7634 16.837 27.5 17.5 27.5H27.5V17.5C27.5 16.837 27.7634 16.2011 28.2322 15.7322C28.7011 15.2634 29.337 15 30 15C30.6631 15 31.2989 15.2634 31.7678 15.7322C32.2366 16.2011 32.5 16.837 32.5 17.5V27.5H42.5C43.1631 27.5 43.7989 27.7634 44.2678 28.2322C44.7366 28.7011 45 29.337 45 30C45 30.663 44.7366 31.2989 44.2678 31.7678C43.7989 32.2366 43.1631 32.5 42.5 32.5Z" fill="#D9DBE9"/>
</svg>
