<svg width="24" height="24" viewBox="0 0 24 24" fill="none" xmlns="http://www.w3.org/2000/svg">
<path d="M8.875 6.56397H15.2803V6.33203H8.875V6.56397Z" fill="#A0A3BD"/>
<path d="M15.7287 6.56426C15.8746 6.56426 15.9944 6.44447 15.9944 6.29851V4.26593C15.9944 4.11997 15.8746 4.00018 15.7287 4.00018L8.422 4C8.27604 4 8.15625 4.11979 8.15625 4.26575V6.29833C8.15625 6.44429 8.27604 6.56407 8.422 6.56407H8.67484V6.32959C8.67484 6.22016 8.76336 6.13146 8.87297 6.13146H15.2783C15.3877 6.13146 15.4764 6.21998 15.4764 6.32959V6.56407L15.7287 6.56426ZM8.77379 4.97723H8.60693C8.55221 4.97723 8.50786 4.93288 8.50786 4.87817C8.50786 4.82346 8.55221 4.7791 8.60693 4.7791H8.77379C8.8285 4.7791 8.87285 4.82346 8.87285 4.87817C8.87285 4.93306 8.8285 4.97723 8.77379 4.97723ZM8.77379 4.55516H8.60693C8.55221 4.55516 8.50786 4.51081 8.50786 4.4561C8.50786 4.40138 8.55221 4.35703 8.60693 4.35703H8.77379C8.8285 4.35703 8.87285 4.40138 8.87285 4.4561C8.87285 4.51081 8.8285 4.55516 8.77379 4.55516ZM12.8729 5.91808H11.2781C11.2234 5.91808 11.179 5.87373 11.179 5.81901C11.179 5.7643 11.2234 5.71995 11.2781 5.71995H12.8729C12.9276 5.71995 12.972 5.7643 12.972 5.81901C12.972 5.87373 12.9276 5.91808 12.8729 5.91808Z" fill="#A0A3BD"/>
<path d="M10.8121 13.4102H8.27906C7.88044 13.4102 7.54942 13.7099 7.5 14.0955H11.5886C11.5417 13.7097 11.2107 13.4102 10.812 13.4102H10.8121Z" fill="#A0A3BD"/>
<path d="M15.8668 13.4102H13.3338C12.9351 13.4102 12.6041 13.7099 12.5547 14.0955H16.6433C16.5964 13.7097 16.2654 13.4102 15.8667 13.4102H15.8668Z" fill="#A0A3BD"/>
<path d="M5.67188 10.8066V14.5251C6.01069 14.2566 6.43805 14.0952 6.90194 14.0952H7.30583C7.35528 13.6 7.7748 13.2118 8.28304 13.2118H10.816C11.3243 13.2118 11.7438 13.6 11.7932 14.0952H12.3562C12.4056 13.6 12.8252 13.2118 13.3334 13.2118H15.8664C16.3746 13.2118 16.7942 13.6 16.8436 14.0952H17.2475C17.7114 14.0952 18.1387 14.2568 18.4776 14.5251L18.4774 10.8066C18.4774 10.4314 18.1438 10.1291 17.7321 10.1291L6.41471 10.1289C6.00554 10.1289 5.67199 10.4312 5.67199 10.8065L5.67188 10.8066Z" fill="#A0A3BD"/>
<path d="M5.11719 16.074V16.1756H19.0325V16.074C19.0325 15.089 18.2326 14.2891 17.2476 14.2891H6.90226C5.91724 14.2916 5.11728 15.0918 5.11728 16.074H5.11719Z" fill="#A0A3BD"/>
<path d="M5.82831 19.1645C5.82831 19.1827 5.84394 19.1983 5.86211 19.1983H6.54485C6.56303 19.1983 6.57866 19.1827 6.57866 19.1645V18.6719H5.82812L5.82831 19.1645Z" fill="#A0A3BD"/>
<path d="M17.5705 19.1645C17.5705 19.1827 17.5861 19.1983 17.6043 19.1983H18.287C18.3052 19.1983 18.3208 19.1827 18.3208 19.1645V18.6719H17.5703L17.5705 19.1645Z" fill="#A0A3BD"/>
<path d="M19.2573 16.375H4.88822C4.72935 16.375 4.60156 16.5026 4.60156 16.6617V18.1834C4.60156 18.3423 4.72917 18.4701 4.88822 18.4701H19.2517C19.4106 18.4701 19.5383 18.3425 19.5383 18.1834V16.6617C19.5436 16.5053 19.416 16.375 19.257 16.375H19.2573Z" fill="#A0A3BD"/>
<path d="M4.60397 12.6055H1V13.9162H4.60397V12.6055ZM3.25668 13.3586H2.34454C2.28982 13.3586 2.24547 13.3142 2.24547 13.2595C2.24565 13.2048 2.29255 13.1632 2.34726 13.1632H3.25941C3.31412 13.1632 3.35848 13.2075 3.35848 13.2622C3.35829 13.3168 3.3114 13.3586 3.25668 13.3586Z" fill="#A0A3BD"/>
<path d="M4.60702 15.6758H4.20312V16.0041C4.20312 16.0457 4.23693 16.0797 4.27874 16.0797H4.53159C4.57321 16.0797 4.6072 16.0459 4.6072 16.0041L4.60702 15.6758Z" fill="#A0A3BD"/>
<path d="M4.60396 11.0469C4.60396 11.0443 4.60142 11.0391 4.59615 11.0391H1.00782C1.00527 11.0391 1 11.0416 1 11.0469V12.4045H4.60397L4.60396 11.0469ZM3.25668 11.9172H2.34453C2.28982 11.9172 2.24547 11.8728 2.24547 11.8181C2.24547 11.7634 2.28982 11.7191 2.34453 11.7191H3.25668C3.31139 11.7191 3.35575 11.7634 3.35575 11.8181C3.35575 11.873 3.31139 11.9172 3.25668 11.9172Z" fill="#A0A3BD"/>
<path d="M4.60397 14.1133H1V15.4788H4.60145L4.60127 14.1133H4.60397ZM3.25668 14.7987H2.34454C2.28982 14.7987 2.24547 14.7544 2.24547 14.6997C2.24547 14.6449 2.28982 14.6006 2.34454 14.6006H3.25668C3.3114 14.6006 3.35575 14.6449 3.35575 14.6997C3.35575 14.7544 3.3114 14.7987 3.25668 14.7987Z" fill="#A0A3BD"/>
<path d="M1 16.0041C1 16.0457 1.03381 16.0797 1.07562 16.0797H1.32846C1.37009 16.0797 1.40408 16.0459 1.40408 16.0041V15.6758H1V16.0041Z" fill="#A0A3BD"/>
<path d="M3.99932 8.63116C4.00204 8.63116 4.00204 8.63116 3.99932 8.63116H4.0124H4.01495C4.01749 8.63116 4.02277 8.63116 4.02531 8.62862H4.02786C4.0304 8.62862 4.03313 8.62607 4.03567 8.62607H4.03822C4.04076 8.62607 4.04076 8.62353 4.04349 8.62353C4.04349 8.62353 4.04603 8.62353 4.04603 8.62098C4.04858 8.62098 4.04858 8.61844 4.0513 8.61844C4.05385 8.61844 4.05385 8.61589 4.05657 8.61589L4.05912 8.61335C4.06166 8.61335 4.06166 8.6108 4.06439 8.6108C4.06439 8.6108 4.06694 8.6108 4.06694 8.60826C4.06948 8.60572 4.06948 8.60572 4.07221 8.60299L4.07475 8.60044C4.0773 8.5979 4.0773 8.5979 4.08002 8.59517L4.08257 8.59263L4.08511 8.59008C4.08511 8.58754 4.08766 8.58754 4.08766 8.58481C4.08766 8.58481 4.08766 8.58227 4.0902 8.58227C4.0902 8.57972 4.09275 8.577 4.09275 8.577V8.57445C4.09275 8.57191 4.09529 8.57191 4.09529 8.56918V8.56663C4.09529 8.56409 4.09529 8.56409 4.09784 8.56136V8.55609V8.55355V8.54828V8.54573V8.53791V8.53537V8.5301V8.52483V8.51956C4.09784 8.51701 4.09784 8.51429 4.09529 8.51429V8.51174V8.5092L3.49855 6.42445C3.48546 6.38283 3.44638 6.35156 3.40475 6.35156H2.20871C2.16435 6.35156 2.12527 6.38028 2.11491 6.42445L1.51817 8.5092V8.51174V8.51429C1.51817 8.51683 1.51817 8.51956 1.51562 8.51956V8.52483V8.5301V8.53537V8.53791V8.54573V8.54828V8.55355V8.55882V8.56409C1.51562 8.56663 1.51563 8.56663 1.51817 8.56936V8.57191C1.51817 8.57445 1.52071 8.57718 1.52071 8.57718V8.57972C1.52071 8.58227 1.52326 8.58499 1.52326 8.58499C1.52326 8.58499 1.52326 8.58754 1.5258 8.58754C1.5258 8.59008 1.52835 8.59008 1.52835 8.59281L1.53344 8.5979C1.53598 8.60044 1.53598 8.60044 1.53871 8.60317L1.54125 8.60572C1.5438 8.60826 1.5438 8.60826 1.54653 8.61099C1.54653 8.61099 1.54907 8.61099 1.54907 8.61353C1.55162 8.61608 1.55162 8.61608 1.55434 8.61608L1.55689 8.61862C1.55943 8.61862 1.55943 8.62117 1.56216 8.62117C1.5647 8.62117 1.5647 8.62371 1.56743 8.62371C1.56743 8.62371 1.56997 8.62371 1.56997 8.62626C1.57252 8.62626 1.57252 8.6288 1.57525 8.6288H1.57779C1.58034 8.6288 1.58306 8.63134 1.58561 8.63134H1.58815C1.5907 8.63134 1.59342 8.63134 1.59342 8.63389H1.59869H1.60124H1.60905H1.6116H1.61414H2.70861V10.6014H2.3776C2.32289 10.6014 2.27854 10.6457 2.27854 10.7004C2.27854 10.7551 2.32289 10.7995 2.3776 10.7995H3.23754C3.29226 10.7995 3.33661 10.7551 3.33661 10.7004C3.33661 10.6457 3.29225 10.6014 3.23754 10.6014H2.90654V8.63389H3.4017V9.2619C3.32099 9.29844 3.26355 9.38169 3.26355 9.47567C3.26355 9.606 3.37043 9.71288 3.50076 9.71288C3.63109 9.71288 3.73798 9.606 3.73798 9.47567C3.73798 9.38188 3.68072 9.29844 3.59983 9.2619V8.63389L3.99936 8.63371L3.99932 8.63116Z" fill="#A0A3BD"/>
<path d="M19.5469 13.9162H23.1508V12.6055H19.5469V13.9162ZM20.8942 13.1631H21.8063C21.861 13.1631 21.9054 13.2075 21.9054 13.2622C21.9054 13.3169 21.861 13.3613 21.8063 13.3613H20.8942C20.8394 13.3613 20.7951 13.3169 20.7951 13.2622C20.7951 13.2073 20.8394 13.1631 20.8942 13.1631Z" fill="#A0A3BD"/>
<path d="M19.5469 16.0041C19.5469 16.0457 19.5807 16.0797 19.6225 16.0797H19.8753C19.917 16.0797 19.951 16.0459 19.951 16.0041V15.6758H19.5471L19.5469 16.0041Z" fill="#A0A3BD"/>
<path d="M19.5547 11.043C19.5521 11.043 19.5469 11.0455 19.5469 11.0508V12.4084H23.1508V11.0508C23.1508 11.0482 23.1483 11.043 23.143 11.043H19.5547ZM21.8036 11.9211H20.8914C20.8367 11.9211 20.7923 11.8767 20.7923 11.822C20.7923 11.7673 20.8367 11.723 20.8914 11.723H21.8036C21.8583 11.723 21.9026 11.7673 21.9026 11.822C21.9026 11.8769 21.8583 11.9211 21.8036 11.9211Z" fill="#A0A3BD"/>
<path d="M19.5469 15.4788H23.1483V14.1133H19.5469V15.4788ZM20.8942 14.6006H21.8063C21.861 14.6006 21.9054 14.645 21.9054 14.6997C21.9054 14.7544 21.861 14.7988 21.8063 14.7988H20.8942C20.8394 14.7988 20.7951 14.7544 20.7951 14.6997C20.7951 14.645 20.8394 14.6006 20.8942 14.6006Z" fill="#A0A3BD"/>
<path d="M22.7422 16.0041C22.7422 16.0457 22.776 16.0797 22.8178 16.0797H23.0706C23.1123 16.0797 23.1463 16.0459 23.1463 16.0041V15.6758H22.7424L22.7422 16.0041Z" fill="#A0A3BD"/>
<path d="M22.5462 8.63389H22.5487H22.5513H22.5591H22.5616H22.5669C22.5695 8.63389 22.5722 8.63389 22.5722 8.63134H22.5747C22.5773 8.63134 22.58 8.6288 22.5825 8.6288H22.5851C22.5876 8.6288 22.5876 8.62626 22.5904 8.62626C22.5904 8.62626 22.5929 8.62626 22.5929 8.62371C22.5955 8.62371 22.5955 8.62117 22.5982 8.62117C22.6007 8.62117 22.6007 8.61862 22.6034 8.61862L22.606 8.61608C22.6085 8.61608 22.6085 8.61353 22.6113 8.61353C22.6113 8.61353 22.6138 8.61353 22.6138 8.61099L22.632 8.59281C22.632 8.59026 22.6345 8.59026 22.6345 8.58754C22.6345 8.58754 22.6345 8.58499 22.6371 8.58499C22.6371 8.58245 22.6396 8.57972 22.6396 8.57972V8.57718C22.6396 8.57463 22.6422 8.57463 22.6422 8.57191V8.56936C22.6422 8.56682 22.6422 8.56682 22.6447 8.56409V8.55882V8.55355V8.54828V8.54573V8.53792V8.53537V8.5301V8.52483V8.51956C22.6447 8.51701 22.6447 8.51429 22.6422 8.51429V8.51174V8.5092L22.0454 6.42445C22.0323 6.38283 21.9933 6.35156 21.9516 6.35156H20.7556C20.7112 6.35156 20.6721 6.38028 20.6618 6.42445L20.065 8.5092V8.51174V8.51429C20.065 8.51683 20.065 8.51956 20.0625 8.51956V8.52483V8.5301V8.53537V8.53792V8.54573V8.54828V8.55355V8.55609V8.56136C20.0625 8.56391 20.0625 8.56391 20.065 8.56663V8.56918C20.065 8.57172 20.0676 8.57445 20.0676 8.57445V8.577C20.0676 8.57954 20.0701 8.58227 20.0701 8.58227C20.0701 8.58227 20.0701 8.58481 20.0727 8.58481C20.0727 8.58736 20.0752 8.58736 20.0752 8.59008L20.0803 8.59517C20.0829 8.59772 20.0829 8.59772 20.0856 8.60044L20.0881 8.60299C20.0907 8.60553 20.0907 8.60553 20.0934 8.60826C20.0934 8.60826 20.0959 8.60826 20.0959 8.6108C20.0985 8.61335 20.0985 8.61335 20.1012 8.61335L20.1038 8.61589C20.1063 8.61589 20.1063 8.61844 20.109 8.61844C20.1116 8.61844 20.1116 8.62098 20.1143 8.62098C20.1143 8.62098 20.1168 8.62098 20.1168 8.62353C20.1194 8.62353 20.1194 8.62607 20.1221 8.62607H20.1247C20.1272 8.62607 20.1299 8.62862 20.1325 8.62862H20.135C20.1376 8.62862 20.1428 8.63116 20.1454 8.63116H20.1479H20.1583H20.5622V9.25918C20.4815 9.29571 20.424 9.37896 20.424 9.47294C20.424 9.60327 20.5309 9.71016 20.6613 9.71016C20.7916 9.71016 20.8985 9.60327 20.8985 9.47294C20.8985 9.37915 20.8412 9.29572 20.7603 9.25918V8.63116H21.2555V10.5986H20.9245C20.8698 10.5986 20.8254 10.643 20.8254 10.6977C20.8254 10.7524 20.8698 10.7968 20.9245 10.7968H21.7844C21.8391 10.7968 21.8835 10.7524 21.8835 10.6977C21.8835 10.643 21.8391 10.5986 21.7844 10.5986H21.4534V8.63116H22.5462L22.5462 8.63389Z" fill="#A0A3BD"/>
</svg>
