<svg width="24" height="24" viewBox="0 0 24 24" fill="none" xmlns="http://www.w3.org/2000/svg">
<path d="M3.73575 18.0977H14.8812C15.2888 18.0977 15.617 18.4258 15.617 18.8334V19.4648C15.617 19.8724 15.2888 20.2005 14.8812 20.2005H3.73575C3.32817 20.2005 3 19.8724 3 19.4648V18.8334C3 18.4258 3.32816 18.0977 3.73575 18.0977Z" fill="#A0A3BD"/>
<path d="M5.00133 17.0469H13.6176C14.129 17.0469 14.5408 17.4586 14.5408 17.9701V18.2263C14.5408 18.7378 14.1291 19.1497 13.6176 19.1497H5.00133C4.4899 19.1497 4.07812 18.7379 4.07812 18.2263V17.9701C4.07812 17.4587 4.48989 17.0469 5.00133 17.0469Z" fill="#A0A3BD"/>
<path d="M12.1774 3.51326C11.9507 3.95628 12.1084 4.50122 12.5447 4.75275L16.7763 7.19598C17.2261 7.45572 17.7989 7.30037 18.0586 6.85054C18.3182 6.40074 18.1652 5.82957 17.7154 5.56967L13.4837 3.12644C13.0339 2.86671 12.4626 3.01979 12.2029 3.46961C12.1966 3.48445 12.1824 3.49911 12.1739 3.51605L12.1774 3.51326Z" fill="#A0A3BD"/>
<path d="M7.32947 11.9112C7.10273 12.3542 7.26192 12.8969 7.69638 13.1489L11.9281 15.5922C12.3779 15.8519 12.9492 15.6988 13.2089 15.249C13.4685 14.7994 13.3156 14.2278 12.8658 13.9681L8.63408 11.5249C8.18427 11.2651 7.61292 11.4182 7.35321 11.8681C7.34693 11.8829 7.33279 11.8976 7.32458 11.9141L7.32947 11.9112Z" fill="#A0A3BD"/>
<path d="M9.23607 7.35574C8.8627 8.00248 9.08421 8.82965 9.7311 9.20305L9.13798 10.2305C8.97582 10.5124 9.07218 10.8721 9.35321 11.0353L13.0153 13.1497C13.2974 13.3131 13.6587 13.2171 13.8223 12.9352L14.4154 11.9077L19.7366 14.9801C20.3833 15.3534 21.2105 15.1317 21.5839 14.485C21.9573 13.8381 21.7356 13.0111 21.0889 12.6377L15.7677 9.56541L16.3596 8.54028C16.524 8.2575 16.4268 7.8948 16.1432 7.73174L12.481 5.61739C12.1981 5.45506 11.8371 5.55333 11.6749 5.83558L11.083 6.86072C10.4361 6.48735 9.60913 6.70903 9.23574 7.35574H9.23607Z" fill="#A0A3BD"/>
</svg>
