<svg width="24" height="24" viewBox="0 0 24 24" fill="none" xmlns="http://www.w3.org/2000/svg">
<path d="M9.14844 7.48828C8.58844 7.48828 8.14844 7.93828 8.14844 8.48828C8.14844 9.03828 8.59844 9.48828 9.14844 9.48828C9.69844 9.48828 10.1484 9.03828 10.1484 8.48828C10.1484 7.93828 9.69844 7.48828 9.14844 7.48828Z" fill="#A0A3BD"/>
<path d="M21.46 5.04C20.62 3.09 18.77 2 16.19 2H7.81C4.6 2 2 4.6 2 7.81V16.19C2 18.77 3.09 20.62 5.04 21.46C5.23 21.54 5.45 21.49 5.59 21.35L21.35 5.59C21.5 5.44 21.55 5.22 21.46 5.04ZM10.53 12.24C10.14 12.62 9.63 12.8 9.12 12.8C8.61 12.8 8.1 12.61 7.71 12.24C6.69 11.28 5.57 9.75 6 7.93C6.38 6.28 7.84 5.54 9.12 5.54C10.4 5.54 11.86 6.28 12.24 7.94C12.66 9.75 11.54 11.28 10.53 12.24Z" fill="#A0A3BD"/>
<path d="M19.4689 20.5295C19.6889 20.7495 19.6589 21.1095 19.3889 21.2595C18.5089 21.7495 17.4389 21.9995 16.1889 21.9995H7.80892C7.51892 21.9995 7.39892 21.6595 7.59892 21.4595L13.6389 15.4195C13.8389 15.2195 14.1489 15.2195 14.3489 15.4195L19.4689 20.5295Z" fill="#A0A3BD"/>
<path d="M21.9978 7.80892V16.1889C21.9978 17.4389 21.7478 18.5189 21.2578 19.3889C21.1078 19.6589 20.7478 19.6789 20.5278 19.4689L15.4078 14.3489C15.2078 14.1489 15.2078 13.8389 15.4078 13.6389L21.4478 7.59892C21.6578 7.39892 21.9978 7.51892 21.9978 7.80892Z" fill="#A0A3BD"/>
</svg>
