<svg width="18" height="20" viewBox="0 0 18 20" fill="none" xmlns="http://www.w3.org/2000/svg">
<g opacity="0.35">
<path fill-rule="evenodd" clip-rule="evenodd" d="M8.40293 15.5611C7.33032 16.39 5.76998 16.319 4.7812 15.3584C3.7114 14.3192 3.7114 12.6309 4.7812 11.5917L12.5183 4.0755C12.8068 3.79518 13.2716 3.79518 13.5601 4.0755C13.853 4.36002 13.853 4.82461 13.5601 5.10913L5.82308 12.6253C5.33904 13.0955 5.33904 13.8546 5.82308 14.3248C6.31144 14.7992 7.10632 14.7992 7.59468 14.3248L15.3317 6.80865C16.5927 5.58369 16.5927 3.60094 15.3317 2.37599C14.0664 1.14683 12.0119 1.14683 10.7467 2.37599L3.00961 9.89215C0.971733 11.8718 0.971733 15.0783 3.00961 17.058C5.0518 19.0419 8.36595 19.0419 10.4081 17.058L16.7385 10.9084C17.027 10.6281 17.4918 10.6281 17.7803 10.9084C18.0732 11.1929 18.0732 11.6575 17.7803 11.942L11.45 18.0916C8.83071 20.6361 4.58705 20.6361 1.96773 18.0916C-0.576037 15.6205 -0.655509 11.6532 1.74113 9.08948L9.70478 1.34235C11.5472 -0.44745 14.5312 -0.44745 16.3736 1.34235C18.2203 3.13635 18.2203 6.04829 16.3736 7.84228L8.41544 15.5732L8.76956 15.2381L8.57882 15.4129C8.52185 15.4652 8.46316 15.5145 8.40293 15.5611Z" fill="#6E7191"/>
</g>
</svg>
