<svg width="20" height="20" viewBox="0 0 20 20" fill="none" xmlns="http://www.w3.org/2000/svg">
<g opacity="0.35">
<path fill-rule="evenodd" clip-rule="evenodd" d="M10 20C15.5228 20 20 15.5228 20 10C20 4.47715 15.5228 0 10 0C4.47715 0 0 4.47715 0 10C0 15.5228 4.47715 20 10 20ZM9.16797 5.83333V9.16797H5.83333C5.3731 9.16797 5 9.54107 5 10.0013C5 10.4615 5.3731 10.8346 5.83333 10.8346H9.16797V14.1667C9.16797 14.6269 9.54107 15 10.0013 15C10.4615 15 10.8346 14.6269 10.8346 14.1667V10.8346H14.1667C14.6269 10.8346 15 10.4615 15 10.0013C15 9.54107 14.6269 9.16797 14.1667 9.16797H10.8346V5.83333C10.8346 5.3731 10.4615 5 10.0013 5C9.54107 5 9.16797 5.3731 9.16797 5.83333Z" fill="#6E7191"/>
</g>
</svg>
