<svg width="36" height="36" viewBox="0 0 36 36" fill="none" xmlns="http://www.w3.org/2000/svg">
<circle cx="18" cy="18" r="18" fill="#4A9D77"/>
<path d="M22.1372 8.96004L13.1072 11.96C7.03719 13.99 7.03719 17.3 13.1072 19.32L15.7872 20.21L16.6772 22.89C18.6972 28.96 22.0172 28.96 24.0372 22.89L27.0472 13.87C28.3872 9.82004 26.1872 7.61004 22.1372 8.96004ZM22.4572 14.34L18.6572 18.16C18.5072 18.31 18.3172 18.38 18.1272 18.38C17.9372 18.38 17.7472 18.31 17.5972 18.16C17.3072 17.87 17.3072 17.39 17.5972 17.1L21.3972 13.28C21.6872 12.99 22.1672 12.99 22.4572 13.28C22.7472 13.57 22.7472 14.05 22.4572 14.34Z" fill="white"/>
</svg>
