<svg width="70" height="70" viewBox="0 0 70 70" fill="none" xmlns="http://www.w3.org/2000/svg">
<g clip-path="url(#clip0_32436_650075)">
<path d="M66.4989 45.9535V40.3811C66.4989 39.415 65.7155 38.6315 64.7488 38.6315H55.9993V31.6316H64.7488C65.7155 31.6316 66.4989 30.8481 66.4989 29.8815V24.3097C69.2322 23.343 70.6646 20.3437 69.6985 17.6099C68.7318 14.8766 65.7326 13.4442 62.9987 14.4103C60.2654 15.377 58.833 18.3763 59.7992 21.1101C60.3279 22.6049 61.5039 23.7809 62.9987 24.3097V28.1319H55.9993V22.8821C55.9993 21.9155 55.2159 21.132 54.2492 21.132H48.9994V14.1321C48.9994 6.40053 42.7317 0.132812 35.0001 0.132812C27.268 0.132812 21.0003 6.40053 21.0003 14.1321V21.132H15.751C14.7844 21.132 14.0009 21.9155 14.0009 22.8816V28.1314H7.00102V24.3097C9.73487 23.343 11.1672 20.3432 10.2006 17.6099C9.23446 14.8766 6.23465 13.4437 3.50133 14.4103C0.768017 15.3765 -0.664863 18.3763 0.301784 21.1096C0.830502 22.6049 2.0065 23.7809 3.50133 24.3097V29.8815C3.50133 30.8481 4.2848 31.6316 5.25144 31.6316H14.0009V38.631H5.25144C4.2848 38.631 3.50133 39.4145 3.50133 40.3811V45.9529C0.767483 46.9196 -0.664863 49.9189 0.301784 52.6527C1.2679 55.386 4.26771 56.8184 7.00102 55.8523C9.73487 54.8856 11.1672 51.8863 10.2011 49.1525C9.67238 47.6577 8.49639 46.4817 7.00102 45.9529V42.1307H14.0009V50.8807C14.0009 51.8468 14.7844 52.6303 15.751 52.6303H28.0002V63.1299H24.178C23.2118 60.3966 20.212 58.9637 17.4787 59.9303C14.7449 60.897 13.3125 63.8963 14.2792 66.6301C15.2453 69.3634 18.2451 70.7958 20.9784 69.8297C22.4738 69.3009 23.6492 68.1249 24.178 66.6301H29.7503C30.7164 66.6301 31.4999 65.8466 31.4999 64.88V52.6308H38.4998V64.88C38.4998 65.8466 39.2833 66.6301 40.2494 66.6301H45.8218C46.7879 69.3634 49.7877 70.7958 52.521 69.8297C55.2549 68.863 56.6872 65.8637 55.7206 63.1299C54.7544 60.3966 51.7546 58.9637 49.0213 59.9303C47.526 60.459 46.3505 61.635 45.8218 63.1299H41.9995V52.6303H54.2487C55.2153 52.6303 55.9988 51.8468 55.9988 50.8807V42.1307H62.9987V45.9529C60.2649 46.9196 58.8325 49.9189 59.7986 52.6527C60.7653 55.386 63.7651 56.8184 66.4984 55.8523C69.2322 54.8856 70.6646 51.8863 69.6979 49.1525C69.1698 47.6577 67.9938 46.4817 66.4989 45.9535ZM64.7488 17.6318C65.7155 17.6318 66.4989 18.4153 66.4989 19.3819C66.4989 20.3485 65.7155 21.132 64.7488 21.132C63.7827 21.132 62.9992 20.3485 62.9992 19.3819C63.0003 18.4158 63.7832 17.6334 64.7488 17.6318ZM5.25144 17.6318C6.21756 17.6318 7.00102 18.4153 7.00102 19.3819C7.00102 20.3485 6.21756 21.132 5.25144 21.132C4.2848 21.132 3.50133 20.3485 3.50133 19.3819C3.50187 18.4158 4.2848 17.6323 5.25144 17.6318ZM5.25144 52.6308C4.2848 52.6308 3.50133 51.8473 3.50133 50.8807C3.50133 49.9146 4.2848 49.1311 5.25144 49.1311C6.21756 49.1311 7.00102 49.9146 7.00102 50.8807C7.00049 51.8468 6.21756 52.6303 5.25144 52.6308ZM19.2507 66.6301C18.2841 66.6301 17.5006 65.8466 17.5006 64.88C17.5006 63.9139 18.2841 63.1304 19.2507 63.1304C20.2174 63.1304 21.0008 63.9139 21.0008 64.88C21.0003 65.8466 20.2168 66.6296 19.2507 66.6301ZM50.7495 63.1304C51.7156 63.1304 52.4991 63.9139 52.4991 64.88C52.4991 65.8466 51.7156 66.6301 50.7495 66.6301C49.7829 66.6301 48.9994 65.8466 48.9994 64.88C49.0005 63.9144 49.7834 63.1315 50.7495 63.1304ZM24.5005 14.1321C24.5005 8.33329 29.2013 3.6325 35.0001 3.6325C40.7989 3.6325 45.4997 8.33329 45.4997 14.1321V21.132H24.5005V14.1321ZM52.4996 49.1306H17.5006V24.6317H52.4991V49.1306H52.4996ZM64.7488 52.6308C63.7827 52.6308 62.9992 51.8473 62.9992 50.8807C62.9992 49.9146 63.7827 49.1311 64.7488 49.1311C65.7155 49.1311 66.4989 49.9146 66.4989 50.8807C66.4973 51.8468 65.7149 52.6297 64.7488 52.6308Z" fill="#363565"/>
<path d="M35.0001 31.6328C34.0335 31.6328 33.25 32.4163 33.25 33.3824V40.3823C33.25 41.3489 34.0335 42.1324 35.0001 42.1324C35.9662 42.1324 36.7497 41.3489 36.7497 40.3823V33.3824C36.7502 32.4163 35.9668 31.6328 35.0001 31.6328Z" fill="#363565"/>
</g>
<defs>
<clipPath id="clip0_32436_650075">
<rect width="70" height="70" fill="white"/>
</clipPath>
</defs>
</svg>
