<svg width="24" height="24" viewBox="0 0 24 24" fill="none" xmlns="http://www.w3.org/2000/svg">
<path d="M14.4311 18.8191C14.2411 18.8191 14.0511 18.7491 13.9011 18.5991C13.6111 18.3091 13.6111 17.8291 13.9011 17.5391L19.4411 11.9991L13.9011 6.45914C13.6111 6.16914 13.6111 5.68914 13.9011 5.39914C14.1911 5.10914 14.6711 5.10914 14.9611 5.39914L21.0311 11.4691C21.3211 11.7591 21.3211 12.2391 21.0311 12.5291L14.9611 18.5991C14.8111 18.7491 14.6211 18.8191 14.4311 18.8191Z" fill="#3DC575"/>
<path d="M20.33 12.75H3.5C3.09 12.75 2.75 12.41 2.75 12C2.75 11.59 3.09 11.25 3.5 11.25H20.33C20.74 11.25 21.08 11.59 21.08 12C21.08 12.41 20.74 12.75 20.33 12.75Z" fill="#3DC575"/>
</svg>
