<svg width="40" height="40" viewBox="0 0 40 40" fill="none" xmlns="http://www.w3.org/2000/svg">
<g clip-path="url(#clip0_4069_206246)">
<path d="M35.9026 40H18.5526C17.9026 40 17.3859 39.4667 17.3859 38.8333C17.3859 38.2 17.9193 37.6667 18.5526 37.6667H35.8859C36.5359 37.6667 37.0693 37.1333 37.0693 36.5V9.46667L29.9193 2.35H12.3526C11.7026 2.35 11.1693 2.86667 11.1693 3.51667V16.85C11.1693 17.5 10.6359 18.0167 10.0026 18.0167C9.36927 18.0167 8.83594 17.4833 8.83594 16.85V3.51667C8.83594 1.58333 10.4193 0 12.3526 0H30.4026C30.7193 0 31.0193 0.116667 31.2359 0.35L39.0859 8.16667C39.3026 8.38333 39.4359 8.68333 39.4359 9V36.4833C39.4359 38.4167 37.8526 40 35.9026 40Z" fill="#4783FF"/>
<path d="M39.0677 8.1466L31.2344 0.3466C30.901 0.0132668 30.3844 -0.0867332 29.951 0.0966001C29.5177 0.279933 29.2344 0.713267 29.2344 1.17993V8.97993C29.2344 9.62993 29.7677 10.1466 30.401 10.1466H38.251C38.7344 10.1466 39.151 9.86327 39.3344 9.41327C39.5177 8.97993 39.4177 8.46327 39.0844 8.12993L39.0677 8.1466Z" fill="#4783FF"/>
<path d="M33.0336 23.6029H20.3336C19.8336 23.6029 19.4336 23.0695 19.4336 22.4362C19.4336 21.8029 19.8336 21.2695 20.3336 21.2695H33.0336C33.5336 21.2695 33.9336 21.8029 33.9336 22.4362C33.9336 23.0695 33.5336 23.6029 33.0336 23.6029Z" fill="#4783FF"/>
<path d="M32.7526 16.5658H15.5026C14.8526 16.5658 14.3359 16.0324 14.3359 15.3991C14.3359 14.7658 14.8693 14.2324 15.5026 14.2324H32.7693C33.4193 14.2324 33.9359 14.7658 33.9359 15.3991C33.9359 16.0324 33.4026 16.5658 32.7693 16.5658H32.7526Z" fill="#4783FF"/>
<path d="M33.0367 30.6341H22.7867C22.2867 30.6341 21.8867 30.1008 21.8867 29.4674C21.8867 28.8341 22.2867 28.3008 22.7867 28.3008H33.0367C33.5367 28.3008 33.9367 28.8341 33.9367 29.4674C33.9367 30.1008 33.5367 30.6341 33.0367 30.6341Z" fill="#4783FF"/>
<path d="M10 19.4336C4.5 19.4336 0 23.9336 0 29.4336C0 34.9336 4.5 39.4336 10 39.4336C15.5 39.4336 20 34.9503 20 29.4336C20 23.9169 15.5167 19.4336 10 19.4336ZM10.75 33.6836C10.75 34.1003 10.4167 34.4336 10 34.4336C9.58333 34.4336 9.25 34.1003 9.25 33.6836V28.6836C9.25 28.2836 9.6 27.9336 10 27.9336C10.4 27.9336 10.75 28.2836 10.75 28.6836V33.6836ZM10.9333 26.0669C10.8833 26.1836 10.8 26.3003 10.7167 26.4003C10.6167 26.4836 10.5 26.5669 10.3833 26.6169C10.15 26.7169 9.86667 26.7169 9.63333 26.6169C9.5 26.5669 9.4 26.4836 9.3 26.4003C9.2 26.3003 9.13333 26.1836 9.08333 26.0669C9.03333 25.9503 9 25.8169 9 25.6836C9 25.5669 9.03333 25.4336 9.08333 25.3169C9.13333 25.1836 9.2 25.0836 9.3 24.9836C9.4 24.8836 9.5 24.8169 9.63333 24.7669C9.75 24.7169 9.88333 24.6836 10 24.6836C10.1333 24.6836 10.2667 24.7169 10.3833 24.7669C10.5 24.8169 10.6167 24.8836 10.7167 24.9836C10.8 25.0836 10.8833 25.1836 10.9333 25.3169C10.9833 25.4336 11 25.5669 11 25.6836C11 25.8169 10.9833 25.9503 10.9333 26.0669Z" fill="#4783FF"/>
</g>
<defs>
<clipPath id="clip0_4069_206246">
<rect width="40" height="40" fill="white"/>
</clipPath>
</defs>
</svg>
