<svg width="60" height="60" viewBox="0 0 60 60" fill="none" xmlns="http://www.w3.org/2000/svg">
<rect opacity="0.1" width="60" height="60" rx="8" fill="#4783FF"/>
<g clip-path="url(#clip0_1_124)">
<path d="M45.9013 50H28.5513C27.9013 50 27.3846 49.4667 27.3846 48.8333C27.3846 48.2 27.918 47.6667 28.5513 47.6667H45.8846C46.5346 47.6667 47.068 47.1333 47.068 46.5V19.4667L39.918 12.35H22.3513C21.7013 12.35 21.168 12.8667 21.168 13.5167V26.85C21.168 27.5 20.6346 28.0167 20.0013 28.0167C19.368 28.0167 18.8346 27.4833 18.8346 26.85V13.5167C18.8346 11.5833 20.418 10 22.3513 10H40.4013C40.718 10 41.018 10.1167 41.2346 10.35L49.0846 18.1667C49.3013 18.3833 49.4346 18.6833 49.4346 19V46.4833C49.4346 48.4167 47.8513 50 45.9013 50Z" fill="#4783FF"/>
<path d="M49.0684 18.1472L41.235 10.3473C40.9017 10.0139 40.385 9.91392 39.9517 10.0973C39.5184 10.2806 39.235 10.7139 39.235 11.1806V18.9806C39.235 19.6306 39.7684 20.1473 40.4017 20.1473H48.2517C48.735 20.1473 49.1517 19.8639 49.335 19.4139C49.5184 18.9806 49.4184 18.4639 49.085 18.1306L49.0684 18.1472Z" fill="#4783FF"/>
<path d="M43.0336 33.6029H30.3336C29.8336 33.6029 29.4336 33.0695 29.4336 32.4362C29.4336 31.8029 29.8336 31.2695 30.3336 31.2695H43.0336C43.5336 31.2695 43.9336 31.8029 43.9336 32.4362C43.9336 33.0695 43.5336 33.6029 43.0336 33.6029Z" fill="#4783FF"/>
<path d="M42.7526 26.5651H25.5026C24.8526 26.5651 24.3359 26.0318 24.3359 25.3984C24.3359 24.7651 24.8693 24.2318 25.5026 24.2318H42.7693C43.4193 24.2318 43.9359 24.7651 43.9359 25.3984C43.9359 26.0318 43.4026 26.5651 42.7693 26.5651H42.7526Z" fill="#4783FF"/>
<path d="M43.0348 40.6341H32.7848C32.2848 40.6341 31.8848 40.1008 31.8848 39.4674C31.8848 38.8341 32.2848 38.3008 32.7848 38.3008H43.0348C43.5348 38.3008 43.9348 38.8341 43.9348 39.4674C43.9348 40.1008 43.5348 40.6341 43.0348 40.6341Z" fill="#4783FF"/>
<path d="M20 29.4336C14.5 29.4336 10 33.9336 10 39.4336C10 44.9336 14.5 49.4336 20 49.4336C25.5 49.4336 30 44.9503 30 39.4336C30 33.9169 25.5167 29.4336 20 29.4336ZM20.75 43.6836C20.75 44.1003 20.4167 44.4336 20 44.4336C19.5833 44.4336 19.25 44.1003 19.25 43.6836V38.6836C19.25 38.2836 19.6 37.9336 20 37.9336C20.4 37.9336 20.75 38.2836 20.75 38.6836V43.6836ZM20.9333 36.0669C20.8833 36.1836 20.8 36.3003 20.7167 36.4003C20.6167 36.4836 20.5 36.5669 20.3833 36.6169C20.15 36.7169 19.8667 36.7169 19.6333 36.6169C19.5 36.5669 19.4 36.4836 19.3 36.4003C19.2 36.3003 19.1333 36.1836 19.0833 36.0669C19.0333 35.9503 19 35.8169 19 35.6836C19 35.5669 19.0333 35.4336 19.0833 35.3169C19.1333 35.1836 19.2 35.0836 19.3 34.9836C19.4 34.8836 19.5 34.8169 19.6333 34.7669C19.75 34.7169 19.8833 34.6836 20 34.6836C20.1333 34.6836 20.2667 34.7169 20.3833 34.7669C20.5 34.8169 20.6167 34.8836 20.7167 34.9836C20.8 35.0836 20.8833 35.1836 20.9333 35.3169C20.9833 35.4336 21 35.5669 21 35.6836C21 35.8169 20.9833 35.9503 20.9333 36.0669Z" fill="#4783FF"/>
</g>
<defs>
<clipPath id="clip0_1_124">
<rect width="40" height="40" fill="white" transform="translate(10 10)"/>
</clipPath>
</defs>
</svg>
