<svg width="40" height="40" viewBox="0 0 40 40" fill="none" xmlns="http://www.w3.org/2000/svg">
<g clip-path="url(#clip0_4069_206257)">
<path d="M35.8861 40H18.5527C17.9027 40 17.3861 39.4667 17.3861 38.8333C17.3861 38.2 17.9194 37.6667 18.5527 37.6667H35.8861C36.5361 37.6667 37.0694 37.1333 37.0694 36.5V9.46667L29.9027 2.35H12.3527C11.7027 2.35 11.1694 2.86667 11.1694 3.51667V16.85C11.1694 17.5 10.6361 18.0167 10.0027 18.0167C9.3694 18.0167 8.83607 17.4833 8.83607 16.85V3.51667C8.8194 1.58333 10.4027 0 12.3527 0H30.4027C30.7194 0 31.0194 0.116667 31.2361 0.35L39.0861 8.16667C39.3027 8.38333 39.4361 8.68333 39.4361 9V36.4833C39.4361 38.4167 37.8527 40 35.9027 40H35.8861Z" fill="#FFC15D"/>
<path d="M39.0687 8.1466L31.2187 0.3466C30.8854 0.0132668 30.3687 -0.0867332 29.9354 0.0966001C29.5021 0.279933 29.2188 0.713267 29.2188 1.17993V8.97993C29.2188 9.62993 29.7521 10.1466 30.3854 10.1466H38.2354C38.7187 10.1466 39.1354 9.86327 39.3187 9.41327C39.5021 8.97993 39.4021 8.46327 39.0687 8.12993V8.1466Z" fill="#FFC15D"/>
<path d="M33.018 23.6029H20.318C19.818 23.6029 19.418 23.0695 19.418 22.4362C19.418 21.8029 19.818 21.2695 20.318 21.2695H33.018C33.518 21.2695 33.918 21.8029 33.918 22.4362C33.918 23.0695 33.518 23.6029 33.018 23.6029Z" fill="#FFC15D"/>
<path d="M32.7536 16.5658H15.487C14.837 16.5658 14.3203 16.0324 14.3203 15.3991C14.3203 14.7658 14.8536 14.2324 15.487 14.2324H32.7536C33.4036 14.2324 33.9203 14.7658 33.9203 15.3991C33.9203 16.0324 33.387 16.5658 32.7536 16.5658Z" fill="#FFC15D"/>
<path d="M33.0211 30.6341H22.7711C22.2711 30.6341 21.8711 30.1008 21.8711 29.4674C21.8711 28.8341 22.2711 28.3008 22.7711 28.3008H33.0211C33.5211 28.3008 33.9211 28.8341 33.9211 29.4674C33.9211 30.1008 33.5211 30.6341 33.0211 30.6341Z" fill="#FFC15D"/>
<path d="M17.0661 22.3645C13.1661 18.4645 6.83281 18.4645 2.93281 22.3645C-0.967188 26.2645 -0.967188 32.5978 2.93281 36.4978C6.83281 40.4145 13.1661 40.4145 17.0661 36.4978C20.9828 32.5978 20.9828 26.2645 17.0661 22.3645ZM13.2328 31.2145C13.2328 31.4311 13.1495 31.6145 13.0161 31.7478C12.8828 31.8811 12.6995 31.9645 12.4828 31.9645C12.0828 31.9645 11.7328 31.6311 11.7328 31.2145V28.7811L8.06615 32.4478C7.78281 32.7478 7.29948 32.7478 6.99948 32.4478C6.71615 32.1645 6.71615 31.6811 6.99948 31.3978L10.6828 27.7145H8.24948C7.83281 27.7145 7.49948 27.3811 7.49948 26.9645C7.49948 26.5478 7.83281 26.2145 8.24948 26.2145H12.4828C12.8995 26.2145 13.2328 26.5645 13.2328 26.9645V31.2145Z" fill="#FFC15D"/>
</g>
<defs>
<clipPath id="clip0_4069_206257">
<rect width="40" height="40" fill="white"/>
</clipPath>
</defs>
</svg>
