<svg width="60" height="60" viewBox="0 0 60 60" fill="none" xmlns="http://www.w3.org/2000/svg">
<rect opacity="0.1" width="60" height="60" rx="8" fill="#FFC15D"/>
<g clip-path="url(#clip0_1_106)">
<path d="M45.8848 50H28.5514C27.9014 50 27.3848 49.4667 27.3848 48.8333C27.3848 48.2 27.9181 47.6667 28.5514 47.6667H45.8848C46.5348 47.6667 47.0681 47.1333 47.0681 46.5V19.4667L39.9014 12.35H22.3514C21.7014 12.35 21.1681 12.8667 21.1681 13.5167V26.85C21.1681 27.5 20.6348 28.0167 20.0014 28.0167C19.3681 28.0167 18.8348 27.4833 18.8348 26.85V13.5167C18.8181 11.5833 20.4014 10 22.3514 10H40.4014C40.7181 10 41.0181 10.1167 41.2348 10.35L49.0848 18.1667C49.3014 18.3833 49.4348 18.6833 49.4348 19V46.4833C49.4348 48.4167 47.8514 50 45.9014 50H45.8848Z" fill="#FFC15D"/>
<path d="M49.0687 18.1473L41.2187 10.3473C40.8854 10.0139 40.3687 9.91392 39.9354 10.0973C39.5021 10.2806 39.2188 10.7139 39.2188 11.1806V18.9806C39.2188 19.6306 39.7521 20.1473 40.3854 20.1473H48.2354C48.7187 20.1473 49.1354 19.8639 49.3187 19.4139C49.5021 18.9806 49.4021 18.4639 49.0687 18.1306V18.1473Z" fill="#FFC15D"/>
<path d="M43.0173 33.6029H30.3173C29.8173 33.6029 29.4173 33.0695 29.4173 32.4362C29.4173 31.8029 29.8173 31.2695 30.3173 31.2695H43.0173C43.5173 31.2695 43.9173 31.8029 43.9173 32.4362C43.9173 33.0695 43.5173 33.6029 43.0173 33.6029Z" fill="#FFC15D"/>
<path d="M42.753 26.5651H25.4863C24.8363 26.5651 24.3197 26.0318 24.3197 25.3984C24.3197 24.7651 24.853 24.2318 25.4863 24.2318H42.753C43.403 24.2318 43.9197 24.7651 43.9197 25.3984C43.9197 26.0318 43.3863 26.5651 42.753 26.5651Z" fill="#FFC15D"/>
<path d="M43.0185 40.6341H32.7685C32.2685 40.6341 31.8685 40.1008 31.8685 39.4674C31.8685 38.8341 32.2685 38.3008 32.7685 38.3008H43.0185C43.5185 38.3008 43.9185 38.8341 43.9185 39.4674C43.9185 40.1008 43.5185 40.6341 43.0185 40.6341Z" fill="#FFC15D"/>
<path d="M27.0681 32.3651C23.1681 28.4651 16.8348 28.4651 12.9348 32.3651C9.03477 36.2651 9.03477 42.5984 12.9348 46.4984C16.8348 50.4151 23.1681 50.4151 27.0681 46.4984C30.9848 42.5984 30.9848 36.2651 27.0681 32.3651ZM23.2348 41.2151C23.2348 41.4318 23.1514 41.6151 23.0181 41.7484C22.8848 41.8818 22.7014 41.9651 22.4848 41.9651C22.0848 41.9651 21.7348 41.6318 21.7348 41.2151V38.7818L18.0681 42.4484C17.7848 42.7484 17.3014 42.7484 17.0014 42.4484C16.7181 42.1651 16.7181 41.6818 17.0014 41.3984L20.6848 37.7151H18.2514C17.8348 37.7151 17.5014 37.3818 17.5014 36.9651C17.5014 36.5484 17.8348 36.2151 18.2514 36.2151H22.4848C22.9014 36.2151 23.2348 36.5651 23.2348 36.9651V41.2151Z" fill="#FFC15D"/>
</g>
<defs>
<clipPath id="clip0_1_106">
<rect width="40" height="40" fill="white" transform="translate(10 10)"/>
</clipPath>
</defs>
</svg>
