<svg width="50" height="50" viewBox="0 0 50 50" fill="none" xmlns="http://www.w3.org/2000/svg">
<g clip-path="url(#clip0_43685_99578)">
<path d="M44.8556 50H23.189C22.3765 50 21.7306 49.3333 21.7306 48.5417C21.7306 47.75 22.3973 47.0833 23.189 47.0833H44.8556C45.6681 47.0833 46.3348 46.4167 46.3348 45.625V11.8333L37.3765 2.9375H15.439C14.6265 2.9375 13.9598 3.58333 13.9598 4.39583V21.0625C13.9598 21.875 13.2931 22.5208 12.5015 22.5208C11.7098 22.5208 11.0431 21.8542 11.0431 21.0625V4.39583C11.0223 1.97917 13.0015 0 15.439 0H38.0015C38.3973 0 38.7723 0.145833 39.0431 0.4375L48.8556 10.2083C49.1265 10.4792 49.2931 10.8542 49.2931 11.25V45.6042C49.2931 48.0208 47.314 50 44.8765 50H44.8556Z" fill="#A0A3BD"/>
<path d="M48.8359 10.1925L39.0234 0.442527C38.6068 0.0258608 37.9609 -0.0991392 37.4193 0.130027C36.8776 0.359194 36.5234 0.900861 36.5234 1.48419V11.2342C36.5234 12.0467 37.1901 12.6925 37.9818 12.6925H47.7943C48.3984 12.6925 48.9193 12.3384 49.1484 11.7759C49.3776 11.2342 49.2526 10.5884 48.8359 10.1717V10.1925Z" fill="#A0A3BD"/>
<path d="M41.2754 29.4958H25.4004C24.7754 29.4958 24.2754 28.8291 24.2754 28.0374C24.2754 27.2458 24.7754 26.5791 25.4004 26.5791H41.2754C41.9004 26.5791 42.4004 27.2458 42.4004 28.0374C42.4004 28.8291 41.9004 29.4958 41.2754 29.4958Z" fill="#A0A3BD"/>
<path d="M40.9362 20.7067H19.3529C18.5404 20.7067 17.8945 20.04 17.8945 19.2484C17.8945 18.4567 18.5612 17.79 19.3529 17.79H40.9362C41.7487 17.79 42.3945 18.4567 42.3945 19.2484C42.3945 20.04 41.7279 20.7067 40.9362 20.7067Z" fill="#A0A3BD"/>
<path d="M41.2734 38.2848H28.4609C27.8359 38.2848 27.3359 37.6182 27.3359 36.8265C27.3359 36.0348 27.8359 35.3682 28.4609 35.3682H41.2734C41.8984 35.3682 42.3984 36.0348 42.3984 36.8265C42.3984 37.6182 41.8984 38.2848 41.2734 38.2848Z" fill="#A0A3BD"/>
<path d="M21.3307 27.9727C16.4557 23.0977 8.53906 23.0977 3.66406 27.9727C-1.21094 32.8477 -1.21094 40.7643 3.66406 45.6393C8.53906 50.5352 16.4557 50.5352 21.3307 45.6393C26.2266 40.7643 26.2266 32.8477 21.3307 27.9727ZM16.2682 34.3685L11.6641 38.9727H14.7057C15.2266 38.9727 15.6432 39.3893 15.6432 39.9102C15.6432 40.431 15.2266 40.8477 14.7057 40.8477H9.41406C8.89323 40.8477 8.47656 40.4102 8.47656 39.9102V34.5977C8.47656 34.3268 8.58073 34.0977 8.74739 33.931C8.91406 33.7643 9.14323 33.6602 9.41406 33.6602C9.91406 33.6602 10.3516 34.0768 10.3516 34.5977V37.6393L14.9349 33.056C15.2891 32.681 15.8932 32.681 16.2682 33.056C16.6224 33.4102 16.6224 34.0143 16.2682 34.3685Z" fill="#FFC15E"/>
</g>
<defs>
<clipPath id="clip0_43685_99578">
<rect width="50" height="50" fill="white"/>
</clipPath>
</defs>
</svg>
