<svg width="40" height="40" viewBox="0 0 40 40" fill="none" xmlns="http://www.w3.org/2000/svg">
<g clip-path="url(#clip0_4069_206251)">
<path d="M35.8861 40H18.5527C17.9027 40 17.3861 39.4667 17.3861 38.8333C17.3861 38.2 17.9194 37.6667 18.5527 37.6667H35.8861C36.5361 37.6667 37.0694 37.1333 37.0694 36.5V9.46667L29.9194 2.35H12.3527C11.7027 2.35 11.1694 2.86667 11.1694 3.51667V16.85C11.1694 17.5 10.6361 18.0167 10.0027 18.0167C9.3694 18.0167 8.83607 17.4833 8.83607 16.85V3.51667C8.8194 1.58333 10.4027 0 12.3527 0H30.4027C30.7194 0 31.0194 0.116667 31.2361 0.35L39.0861 8.16667C39.3027 8.38333 39.4361 8.68333 39.4361 9V36.4833C39.4361 38.4167 37.8527 40 35.9027 40H35.8861Z" fill="#D83A52"/>
<path d="M39.0707 8.15441L31.2207 0.354413C30.8874 0.0210793 30.3707 -0.0789207 29.9374 0.104413C29.504 0.287746 29.2207 0.721079 29.2207 1.18775V8.98775C29.2207 9.63775 29.754 10.1544 30.3874 10.1544H38.2374C38.7207 10.1544 39.1374 9.87108 39.3207 9.42108C39.504 8.98775 39.404 8.47108 39.0707 8.13775V8.15441Z" fill="#D83A52"/>
<path d="M33.0219 23.597H20.3219C19.8219 23.597 19.4219 23.0637 19.4219 22.4303C19.4219 21.797 19.8219 21.2637 20.3219 21.2637H33.0219C33.5219 21.2637 33.9219 21.797 33.9219 22.4303C33.9219 23.0637 33.5219 23.597 33.0219 23.597Z" fill="#D83A52"/>
<path d="M32.7497 16.5658H15.4831C14.8331 16.5658 14.3164 16.0324 14.3164 15.3991C14.3164 14.7658 14.8497 14.2324 15.4831 14.2324H32.7497C33.3997 14.2324 33.9164 14.7658 33.9164 15.3991C33.9164 16.0324 33.3831 16.5658 32.7497 16.5658Z" fill="#D83A52"/>
<path d="M33.0191 30.6283H22.7691C22.2691 30.6283 21.8691 30.0949 21.8691 29.4616C21.8691 28.8283 22.2691 28.2949 22.7691 28.2949H33.0191C33.5191 28.2949 33.9191 28.8283 33.9191 29.4616C33.9191 30.0949 33.5191 30.6283 33.0191 30.6283Z" fill="#D83A52"/>
<path d="M10 19.4531C4.48333 19.4531 0 23.9365 0 29.4531C0 34.9698 4.48333 39.4531 10 39.4531C15.5167 39.4531 20 34.9698 20 29.4531C20 23.9365 15.5167 19.4531 10 19.4531ZM9.25 25.4531C9.25 25.0365 9.58333 24.7031 10 24.7031C10.4167 24.7031 10.75 25.0365 10.75 25.4531V30.4531C10.75 30.8698 10.4167 31.2031 10 31.2031C9.58333 31.2031 9.25 30.8698 9.25 30.4531V25.4531ZM10.9167 33.8365C10.8667 33.9698 10.8 34.0698 10.7 34.1698C10.6 34.2531 10.4833 34.3365 10.3667 34.3865C10.25 34.4365 10.1167 34.4698 9.98333 34.4698C9.85 34.4698 9.71667 34.4365 9.6 34.3865C9.48333 34.3365 9.36667 34.2698 9.26667 34.1698C9.18333 34.0698 9.1 33.9698 9.05 33.8365C9 33.7198 8.96667 33.5865 8.96667 33.4531C8.96667 33.3198 9 33.1865 9.05 33.0698C9.1 32.9531 9.16667 32.8365 9.26667 32.7365C9.36667 32.6531 9.48333 32.5698 9.6 32.5198C9.83333 32.4198 10.1167 32.4198 10.3667 32.5198C10.4833 32.5698 10.6 32.6365 10.7 32.7365C10.7833 32.8365 10.8667 32.9531 10.9167 33.0698C10.9667 33.1865 11 33.3198 11 33.4531C11 33.5865 10.9667 33.7198 10.9167 33.8365Z" fill="#D83A52"/>
</g>
<defs>
<clipPath id="clip0_4069_206251">
<rect width="40" height="40" fill="white"/>
</clipPath>
</defs>
</svg>
