<svg width="60" height="60" viewBox="0 0 60 60" fill="none" xmlns="http://www.w3.org/2000/svg">
<rect opacity="0.1" width="60" height="60" rx="8" fill="#E96F7C"/>
<g clip-path="url(#clip0_1_161)">
<path d="M45.8848 50H28.5514C27.9014 50 27.3848 49.4667 27.3848 48.8333C27.3848 48.2 27.9181 47.6667 28.5514 47.6667H45.8848C46.5348 47.6667 47.0681 47.1333 47.0681 46.5V19.4667L39.9181 12.35H22.3514C21.7014 12.35 21.1681 12.8667 21.1681 13.5167V26.85C21.1681 27.5 20.6348 28.0167 20.0014 28.0167C19.3681 28.0167 18.8348 27.4833 18.8348 26.85V13.5167C18.8181 11.5833 20.4014 10 22.3514 10H40.4014C40.7181 10 41.0181 10.1167 41.2348 10.35L49.0848 18.1667C49.3014 18.3833 49.4348 18.6833 49.4348 19V46.4833C49.4348 48.4167 47.8514 50 45.9014 50H45.8848Z" fill="#D83A52"/>
<path d="M49.0688 18.1538L41.2187 10.3538C40.8854 10.0204 40.3687 9.92043 39.9354 10.1038C39.5021 10.2871 39.2188 10.7204 39.2188 11.1871V18.9871C39.2188 19.6371 39.7521 20.1538 40.3854 20.1538H48.2354C48.7188 20.1538 49.1354 19.8704 49.3188 19.4204C49.5021 18.9871 49.4021 18.4704 49.0688 18.1371V18.1538Z" fill="#D83A52"/>
<path d="M43.0206 33.5964H30.3206C29.8206 33.5964 29.4206 33.063 29.4206 32.4297C29.4206 31.7964 29.8206 31.263 30.3206 31.263H43.0206C43.5206 31.263 43.9206 31.7964 43.9206 32.4297C43.9206 33.063 43.5206 33.5964 43.0206 33.5964Z" fill="#D83A52"/>
<path d="M42.7497 26.5651H25.4831C24.8331 26.5651 24.3164 26.0318 24.3164 25.3984C24.3164 24.7651 24.8497 24.2318 25.4831 24.2318H42.7497C43.3997 24.2318 43.9164 24.7651 43.9164 25.3984C43.9164 26.0318 43.3831 26.5651 42.7497 26.5651Z" fill="#D83A52"/>
<path d="M43.0185 40.6276H32.7685C32.2685 40.6276 31.8685 40.0943 31.8685 39.4609C31.8685 38.8276 32.2685 38.2943 32.7685 38.2943H43.0185C43.5185 38.2943 43.9185 38.8276 43.9185 39.4609C43.9185 40.0943 43.5185 40.6276 43.0185 40.6276Z" fill="#D83A52"/>
<path d="M20 29.4531C14.4833 29.4531 10 33.9365 10 39.4531C10 44.9698 14.4833 49.4531 20 49.4531C25.5167 49.4531 30 44.9698 30 39.4531C30 33.9365 25.5167 29.4531 20 29.4531ZM19.25 35.4531C19.25 35.0365 19.5833 34.7031 20 34.7031C20.4167 34.7031 20.75 35.0365 20.75 35.4531V40.4531C20.75 40.8698 20.4167 41.2031 20 41.2031C19.5833 41.2031 19.25 40.8698 19.25 40.4531V35.4531ZM20.9167 43.8365C20.8667 43.9698 20.8 44.0698 20.7 44.1698C20.6 44.2531 20.4833 44.3365 20.3667 44.3865C20.25 44.4365 20.1167 44.4698 19.9833 44.4698C19.85 44.4698 19.7167 44.4365 19.6 44.3865C19.4833 44.3365 19.3667 44.2698 19.2667 44.1698C19.1833 44.0698 19.1 43.9698 19.05 43.8365C19 43.7198 18.9667 43.5865 18.9667 43.4531C18.9667 43.3198 19 43.1865 19.05 43.0698C19.1 42.9531 19.1667 42.8365 19.2667 42.7365C19.3667 42.6531 19.4833 42.5698 19.6 42.5198C19.8333 42.4198 20.1167 42.4198 20.3667 42.5198C20.4833 42.5698 20.6 42.6365 20.7 42.7365C20.7833 42.8365 20.8667 42.9531 20.9167 43.0698C20.9667 43.1865 21 43.3198 21 43.4531C21 43.5865 20.9667 43.7198 20.9167 43.8365Z" fill="#D83A52"/>
</g>
<defs>
<clipPath id="clip0_1_161">
<rect width="40" height="40" fill="white" transform="translate(10 10)"/>
</clipPath>
</defs>
</svg>
