<svg width="60" height="60" viewBox="0 0 60 60" fill="none" xmlns="http://www.w3.org/2000/svg">
<rect opacity="0.1" width="60" height="60" rx="8" fill="#3DC575"/>
<g clip-path="url(#clip0_1_142)">
<path d="M45.8848 50H28.5514C27.9014 50 27.3848 49.4667 27.3848 48.8333C27.3848 48.2 27.9181 47.6667 28.5514 47.6667H45.8848C46.5348 47.6667 47.0681 47.1333 47.0681 46.5V19.4667L39.9181 12.35H22.3514C21.7014 12.35 21.1681 12.8667 21.1681 13.5167V26.85C21.1681 27.5 20.6348 28.0167 20.0014 28.0167C19.3681 28.0167 18.8348 27.4833 18.8348 26.85V13.5167C18.8181 11.5833 20.4014 10 22.3514 10H40.4014C40.7181 10 41.0181 10.1167 41.2348 10.35L49.0848 18.1667C49.3014 18.3833 49.4348 18.6833 49.4348 19V46.4833C49.4348 48.4167 47.8514 50 45.9014 50H45.8848Z" fill="#3DC575"/>
<path d="M49.0687 18.1538L41.2187 10.3538C40.8854 10.0204 40.3687 9.92043 39.9354 10.1038C39.5021 10.2871 39.2188 10.7204 39.2188 11.1871V18.9871C39.2188 19.6371 39.7521 20.1538 40.3854 20.1538H48.2354C48.7187 20.1538 49.1354 19.8704 49.3187 19.4204C49.5021 18.9871 49.4021 18.4704 49.0687 18.1371V18.1538Z" fill="#3DC575"/>
<path d="M43.0206 33.5964H30.3206C29.8206 33.5964 29.4206 33.063 29.4206 32.4297C29.4206 31.7964 29.8206 31.263 30.3206 31.263H43.0206C43.5206 31.263 43.9206 31.7964 43.9206 32.4297C43.9206 33.063 43.5206 33.5964 43.0206 33.5964Z" fill="#3DC575"/>
<path d="M42.7497 26.5651H25.4831C24.8331 26.5651 24.3164 26.0318 24.3164 25.3984C24.3164 24.7651 24.8497 24.2318 25.4831 24.2318H42.7497C43.3997 24.2318 43.9164 24.7651 43.9164 25.3984C43.9164 26.0318 43.3831 26.5651 42.7497 26.5651Z" fill="#3DC575"/>
<path d="M43.0185 40.6276H32.7685C32.2685 40.6276 31.8685 40.0943 31.8685 39.4609C31.8685 38.8276 32.2685 38.2943 32.7685 38.2943H43.0185C43.5185 38.2943 43.9185 38.8276 43.9185 39.4609C43.9185 40.0943 43.5185 40.6276 43.0185 40.6276Z" fill="#3DC575"/>
<path d="M20 29.4531C14.4833 29.4531 10 33.9365 10 39.4531C10 44.9698 14.4833 49.4531 20 49.4531C25.5167 49.4531 30 44.9698 30 39.4531C30 33.9365 25.5167 29.4531 20 29.4531ZM24.7833 37.1531L19.1167 42.8198C18.9833 42.9531 18.7833 43.0365 18.5833 43.0365C18.3833 43.0365 18.2 42.9531 18.05 42.8198L15.2167 39.9865C14.9333 39.7031 14.9333 39.2198 15.2167 38.9198C15.5 38.6365 15.9833 38.6365 16.2833 38.9198L18.5833 41.2198L23.7167 36.0865C24 35.8031 24.4833 35.8031 24.7833 36.0865C25.0667 36.3698 25.0667 36.8531 24.7833 37.1531Z" fill="#3DC575"/>
</g>
<defs>
<clipPath id="clip0_1_142">
<rect width="40" height="40" fill="white" transform="translate(10 10)"/>
</clipPath>
</defs>
</svg>
