<svg width="40" height="40" viewBox="0 0 40 40" fill="none" xmlns="http://www.w3.org/2000/svg">
<g clip-path="url(#clip0_4069_206263)">
<path d="M35.8861 40H18.5527C17.9027 40 17.3861 39.4667 17.3861 38.8333C17.3861 38.2 17.9194 37.6667 18.5527 37.6667H35.8861C36.5361 37.6667 37.0694 37.1333 37.0694 36.5V9.46667L29.9194 2.35H12.3527C11.7027 2.35 11.1694 2.86667 11.1694 3.51667V16.85C11.1694 17.5 10.6361 18.0167 10.0027 18.0167C9.3694 18.0167 8.83607 17.4833 8.83607 16.85V3.51667C8.8194 1.58333 10.4027 0 12.3527 0H30.4027C30.7194 0 31.0194 0.116667 31.2361 0.35L39.0861 8.16667C39.3027 8.38333 39.4361 8.68333 39.4361 9V36.4833C39.4361 38.4167 37.8527 40 35.9027 40H35.8861Z" fill="#3DC575"/>
<path d="M39.0687 8.15441L31.2187 0.354413C30.8854 0.0210793 30.3687 -0.0789207 29.9354 0.104413C29.5021 0.287746 29.2188 0.721079 29.2188 1.18775V8.98775C29.2188 9.63775 29.7521 10.1544 30.3854 10.1544H38.2354C38.7187 10.1544 39.1354 9.87108 39.3187 9.42108C39.5021 8.98775 39.4021 8.47108 39.0687 8.13775V8.15441Z" fill="#3DC575"/>
<path d="M33.0219 23.597H20.3219C19.8219 23.597 19.4219 23.0637 19.4219 22.4303C19.4219 21.797 19.8219 21.2637 20.3219 21.2637H33.0219C33.5219 21.2637 33.9219 21.797 33.9219 22.4303C33.9219 23.0637 33.5219 23.597 33.0219 23.597Z" fill="#3DC575"/>
<path d="M32.7497 16.5658H15.4831C14.8331 16.5658 14.3164 16.0324 14.3164 15.3991C14.3164 14.7658 14.8497 14.2324 15.4831 14.2324H32.7497C33.3997 14.2324 33.9164 14.7658 33.9164 15.3991C33.9164 16.0324 33.3831 16.5658 32.7497 16.5658Z" fill="#3DC575"/>
<path d="M33.0172 30.6283H22.7672C22.2672 30.6283 21.8672 30.0949 21.8672 29.4616C21.8672 28.8283 22.2672 28.2949 22.7672 28.2949H33.0172C33.5172 28.2949 33.9172 28.8283 33.9172 29.4616C33.9172 30.0949 33.5172 30.6283 33.0172 30.6283Z" fill="#3DC575"/>
<path d="M10 19.4531C4.48333 19.4531 0 23.9365 0 29.4531C0 34.9698 4.48333 39.4531 10 39.4531C15.5167 39.4531 20 34.9698 20 29.4531C20 23.9365 15.5167 19.4531 10 19.4531ZM14.7833 27.1531L9.11667 32.8198C8.98333 32.9531 8.78333 33.0365 8.58333 33.0365C8.38333 33.0365 8.2 32.9531 8.05 32.8198L5.21667 29.9865C4.93333 29.7031 4.93333 29.2198 5.21667 28.9198C5.5 28.6365 5.98333 28.6365 6.28333 28.9198L8.58333 31.2198L13.7167 26.0865C14 25.8031 14.4833 25.8031 14.7833 26.0865C15.0667 26.3698 15.0667 26.8531 14.7833 27.1531Z" fill="#3DC575"/>
</g>
<defs>
<clipPath id="clip0_4069_206263">
<rect width="40" height="40" fill="white"/>
</clipPath>
</defs>
</svg>
