<svg width="24" height="24" viewBox="0 0 24 24" fill="none" xmlns="http://www.w3.org/2000/svg">
<path d="M12 0C5.37284 0 0 5.37284 0 12C0 18.6272 5.37284 24 12 24C18.6272 24 24 18.6272 24 12C24 5.37284 18.6272 0 12 0Z" fill="#FFC15D"/>
<path d="M12.0015 18.8565C12.9483 18.8565 13.7159 18.0889 13.7159 17.1421C13.7159 16.1953 12.9483 15.4277 12.0015 15.4277C11.0547 15.4277 10.2871 16.1953 10.2871 17.1421C10.2871 18.0889 11.0547 18.8565 12.0015 18.8565Z" fill="white"/>
<path d="M13.3722 12.943C13.328 13.3837 12.955 13.7185 12.5117 13.7145H11.4831C11.0424 13.7152 10.6734 13.3817 10.6292 12.943L9.94347 6.08549C9.89793 5.61269 10.2448 5.19213 10.7176 5.1466C10.7464 5.14392 10.7752 5.14258 10.804 5.14258H13.2041C13.6796 5.14392 14.0633 5.53099 14.062 6.0058C14.062 6.03258 14.0607 6.0587 14.058 6.08482L13.3722 12.943Z" fill="white"/>
</svg>
