<svg width="42" height="42" viewBox="0 0 42 42" fill="none" xmlns="http://www.w3.org/2000/svg">
<path d="M28.0038 39.8125H14.0038C5.91882 39.8125 4.41382 36.05 4.02882 32.3925L2.71632 18.375C2.52382 16.5375 2.47132 13.825 4.29132 11.795C5.86632 10.045 8.47382 9.20496 12.2538 9.20496H29.7538C33.5513 9.20496 36.1588 10.0625 37.7163 11.795C39.5363 13.825 39.4838 16.5375 39.2913 18.3925L37.9788 32.375C37.5938 36.05 36.0888 39.8125 28.0038 39.8125ZM12.2538 11.8125C9.29632 11.8125 7.26632 12.39 6.23382 13.545C5.37632 14.49 5.09632 15.9425 5.32382 18.1125L6.63632 32.13C6.93382 34.895 7.68632 37.1875 14.0038 37.1875H28.0038C34.3038 37.1875 35.0738 34.895 35.3713 32.1125L36.6838 18.13C36.9113 15.9425 36.6313 14.49 35.7738 13.545C34.7413 12.39 32.7113 11.8125 29.7538 11.8125H12.2538Z" fill="#4783FF"/>
<path d="M27.9961 11.8125C27.2786 11.8125 26.6836 11.2175 26.6836 10.5V9.1C26.6836 5.985 26.6836 4.8125 22.3961 4.8125H19.5961C15.3086 4.8125 15.3086 5.985 15.3086 9.1V10.5C15.3086 11.2175 14.7136 11.8125 13.9961 11.8125C13.2786 11.8125 12.6836 11.2175 12.6836 10.5V9.1C12.6836 6.02 12.6836 2.1875 19.5961 2.1875H22.3961C29.3086 2.1875 29.3086 6.02 29.3086 9.1V10.5C29.3086 11.2175 28.7136 11.8125 27.9961 11.8125Z" fill="#4783FF"/>
<path d="M21.0039 29.3125C16.1914 29.3125 16.1914 26.3375 16.1914 24.5525V22.75C16.1914 20.2825 16.7864 19.6875 19.2539 19.6875H22.7539C25.2214 19.6875 25.8164 20.2825 25.8164 22.75V24.5C25.8164 26.32 25.8164 29.3125 21.0039 29.3125ZM18.8164 22.3125C18.8164 22.4525 18.8164 22.61 18.8164 22.75V24.5525C18.8164 26.355 18.8164 26.6875 21.0039 26.6875C23.1914 26.6875 23.1914 26.4075 23.1914 24.535V22.75C23.1914 22.61 23.1914 22.4525 23.1914 22.3125C23.0514 22.3125 22.8939 22.3125 22.7539 22.3125H19.2539C19.1139 22.3125 18.9564 22.3125 18.8164 22.3125Z" fill="#4783FF"/>
<path d="M24.5001 25.8474C23.8526 25.8474 23.2751 25.3574 23.2051 24.6924C23.1176 23.9749 23.6251 23.3099 24.3426 23.2224C28.9626 22.6449 33.3901 20.8949 37.1176 18.1824C37.6951 17.7449 38.5176 17.8849 38.9551 18.4799C39.3751 19.0574 39.2526 19.8799 38.6576 20.3174C34.5626 23.2924 29.7326 25.1999 24.6576 25.8474C24.6051 25.8474 24.5526 25.8474 24.5001 25.8474Z" fill="#4783FF"/>
<path d="M17.5022 25.8651C17.4497 25.8651 17.3972 25.8651 17.3447 25.8651C12.5497 25.3226 7.87724 23.5726 3.83474 20.8076C3.23974 20.4051 3.08224 19.5826 3.48474 18.9876C3.88724 18.3926 4.70974 18.2351 5.30474 18.6376C8.99724 21.1576 13.2497 22.7501 17.6247 23.2576C18.3422 23.3451 18.8672 23.9926 18.7797 24.7101C18.7272 25.3751 18.1672 25.8651 17.5022 25.8651Z" fill="#4783FF"/>
</svg>
