<svg width="24" height="24" viewBox="0 0 24 24" fill="none" xmlns="http://www.w3.org/2000/svg">
<g id="vuesax/bold/info-circle">
<g id="info-circle">
<path id="Vector" d="M12.3398 2C6.82984 2 2.33984 6.49 2.33984 12C2.33984 17.51 6.82984 22 12.3398 22C17.8498 22 22.3398 17.51 22.3398 12C22.3398 6.49 17.8498 2 12.3398 2ZM11.5898 8C11.5898 7.59 11.9298 7.25 12.3398 7.25C12.7498 7.25 13.0898 7.59 13.0898 8V13C13.0898 13.41 12.7498 13.75 12.3398 13.75C11.9298 13.75 11.5898 13.41 11.5898 13V8ZM13.2598 16.38C13.2098 16.51 13.1398 16.61 13.0498 16.71C12.9498 16.8 12.8398 16.87 12.7198 16.92C12.5998 16.97 12.4698 17 12.3398 17C12.2098 17 12.0798 16.97 11.9598 16.92C11.8398 16.87 11.7298 16.8 11.6298 16.71C11.5398 16.61 11.4698 16.51 11.4198 16.38C11.3698 16.26 11.3398 16.13 11.3398 16C11.3398 15.87 11.3698 15.74 11.4198 15.62C11.4698 15.5 11.5398 15.39 11.6298 15.29C11.7298 15.2 11.8398 15.13 11.9598 15.08C12.1998 14.98 12.4798 14.98 12.7198 15.08C12.8398 15.13 12.9498 15.2 13.0498 15.29C13.1398 15.39 13.2098 15.5 13.2598 15.62C13.3098 15.74 13.3398 15.87 13.3398 16C13.3398 16.13 13.3098 16.26 13.2598 16.38Z" fill="#A0A3BD"/>
</g>
</g>
</svg>
