<svg width="42" height="42" viewBox="0 0 42 42" fill="none" xmlns="http://www.w3.org/2000/svg">
<path d="M13.9961 10.0625C13.2786 10.0625 12.6836 9.4675 12.6836 8.75V3.5C12.6836 2.7825 13.2786 2.1875 13.9961 2.1875C14.7136 2.1875 15.3086 2.7825 15.3086 3.5V8.75C15.3086 9.4675 14.7136 10.0625 13.9961 10.0625Z" fill="#FFC15D"/>
<path d="M28.0039 10.0625C27.2864 10.0625 26.6914 9.4675 26.6914 8.75V3.5C26.6914 2.7825 27.2864 2.1875 28.0039 2.1875C28.7214 2.1875 29.3164 2.7825 29.3164 3.5V8.75C29.3164 9.4675 28.7214 10.0625 28.0039 10.0625Z" fill="#FFC15D"/>
<path d="M14.875 25.3751C14.6475 25.3751 14.42 25.3226 14.21 25.2351C13.9825 25.1476 13.8075 25.025 13.6325 24.8675C13.3175 24.535 13.125 24.0976 13.125 23.6251C13.125 23.3976 13.1775 23.17 13.265 22.96C13.3525 22.75 13.475 22.5576 13.6325 22.3826C13.8075 22.2251 13.9825 22.1025 14.21 22.015C14.84 21.7525 15.6275 21.8926 16.1175 22.3826C16.4325 22.7151 16.625 23.1701 16.625 23.6251C16.625 23.7301 16.6075 23.8526 16.59 23.9751C16.5725 24.0801 16.5375 24.1851 16.485 24.2901C16.45 24.3951 16.3975 24.5001 16.3275 24.6051C16.275 24.6926 16.1875 24.78 16.1175 24.8675C15.785 25.1825 15.33 25.3751 14.875 25.3751Z" fill="#FFC15D"/>
<path d="M20.9961 25.375C20.7686 25.375 20.5411 25.3225 20.3311 25.235C20.1036 25.1475 19.9286 25.025 19.7536 24.8675C19.4386 24.535 19.2461 24.0975 19.2461 23.625C19.2461 23.3975 19.2986 23.17 19.3861 22.96C19.4736 22.75 19.5961 22.5575 19.7536 22.3825C19.9286 22.225 20.1036 22.1025 20.3311 22.015C20.9611 21.735 21.7486 21.8925 22.2386 22.3825C22.5536 22.715 22.7461 23.17 22.7461 23.625C22.7461 23.73 22.7286 23.8525 22.7111 23.975C22.6936 24.08 22.6586 24.185 22.6061 24.29C22.5711 24.395 22.5186 24.5 22.4486 24.605C22.3961 24.6925 22.3086 24.78 22.2386 24.8675C21.9061 25.1825 21.4511 25.375 20.9961 25.375Z" fill="#FFC15D"/>
<path d="M27.1289 25.375C26.9014 25.375 26.6739 25.3225 26.4639 25.235C26.2364 25.1475 26.0614 25.025 25.8864 24.8675C25.8164 24.78 25.7464 24.6925 25.6764 24.605C25.6064 24.5 25.5539 24.395 25.5189 24.29C25.4664 24.185 25.4314 24.08 25.4139 23.975C25.3964 23.8525 25.3789 23.73 25.3789 23.625C25.3789 23.17 25.5714 22.715 25.8864 22.3825C26.0614 22.225 26.2364 22.1025 26.4639 22.015C27.1114 21.735 27.8814 21.8925 28.3714 22.3825C28.6864 22.715 28.8789 23.17 28.8789 23.625C28.8789 23.73 28.8614 23.8525 28.8439 23.975C28.8264 24.08 28.7914 24.185 28.7389 24.29C28.7039 24.395 28.6514 24.5 28.5814 24.605C28.5289 24.6925 28.4414 24.78 28.3714 24.8675C28.0389 25.1825 27.5839 25.375 27.1289 25.375Z" fill="#FFC15D"/>
<path d="M14.875 31.5C14.6475 31.5 14.42 31.4475 14.21 31.36C14 31.2725 13.8075 31.1499 13.6325 30.9924C13.3175 30.6599 13.125 30.205 13.125 29.75C13.125 29.5225 13.1775 29.295 13.265 29.085C13.3525 28.8575 13.475 28.665 13.6325 28.5075C14.28 27.86 15.47 27.86 16.1175 28.5075C16.4325 28.84 16.625 29.295 16.625 29.75C16.625 30.205 16.4325 30.6599 16.1175 30.9924C15.785 31.3074 15.33 31.5 14.875 31.5Z" fill="#FFC15D"/>
<path d="M20.9961 31.5001C20.5411 31.5001 20.0861 31.3076 19.7536 30.9926C19.4386 30.6601 19.2461 30.2051 19.2461 29.7501C19.2461 29.5226 19.2986 29.2951 19.3861 29.0851C19.4736 28.8576 19.5961 28.6651 19.7536 28.5076C20.4011 27.8601 21.5911 27.8601 22.2386 28.5076C22.3961 28.6651 22.5186 28.8576 22.6061 29.0851C22.6936 29.2951 22.7461 29.5226 22.7461 29.7501C22.7461 30.2051 22.5536 30.6601 22.2386 30.9926C21.9061 31.3076 21.4511 31.5001 20.9961 31.5001Z" fill="#FFC15D"/>
<path d="M27.1289 31.5001C26.6739 31.5001 26.2189 31.3076 25.8864 30.9926C25.7289 30.8351 25.6064 30.6426 25.5189 30.4151C25.4314 30.2051 25.3789 29.9776 25.3789 29.7501C25.3789 29.5226 25.4314 29.2951 25.5189 29.0851C25.6064 28.8576 25.7289 28.6651 25.8864 28.5076C26.2889 28.1051 26.9014 27.9126 27.4614 28.0351C27.5839 28.0526 27.6889 28.0876 27.7939 28.1401C27.8989 28.1751 28.0039 28.2276 28.1089 28.2976C28.1964 28.3501 28.2839 28.4376 28.3714 28.5076C28.6864 28.8401 28.8789 29.2951 28.8789 29.7501C28.8789 30.2051 28.6864 30.6601 28.3714 30.9926C28.0389 31.3076 27.5839 31.5001 27.1289 31.5001Z" fill="#FFC15D"/>
<path d="M35.8711 17.22H6.12109C5.40359 17.22 4.80859 16.625 4.80859 15.9075C4.80859 15.19 5.40359 14.595 6.12109 14.595H35.8711C36.5886 14.595 37.1836 15.19 37.1836 15.9075C37.1836 16.625 36.5886 17.22 35.8711 17.22Z" fill="#FFC15D"/>
<path d="M28 39.8125H14C7.6125 39.8125 3.9375 36.1375 3.9375 29.75V14.875C3.9375 8.4875 7.6125 4.8125 14 4.8125H28C34.3875 4.8125 38.0625 8.4875 38.0625 14.875V29.75C38.0625 36.1375 34.3875 39.8125 28 39.8125ZM14 7.4375C8.995 7.4375 6.5625 9.87 6.5625 14.875V29.75C6.5625 34.755 8.995 37.1875 14 37.1875H28C33.005 37.1875 35.4375 34.755 35.4375 29.75V14.875C35.4375 9.87 33.005 7.4375 28 7.4375H14Z" fill="#FFC15D"/>
</svg>
