<svg width="60" height="60" viewBox="0 0 60 60" fill="none" xmlns="http://www.w3.org/2000/svg">
<path d="M30 46.25C38.9746 46.25 46.25 38.9746 46.25 30C46.25 21.0254 38.9746 13.75 30 13.75C21.0254 13.75 13.75 21.0254 13.75 30C13.75 38.9746 21.0254 46.25 30 46.25Z" fill="#F5C12E"/>
<path d="M30 2.5C29.6685 2.5 29.3505 2.6317 29.1161 2.86612C28.8817 3.10054 28.75 3.41848 28.75 3.75V10C28.75 10.3315 28.8817 10.6495 29.1161 10.8839C29.3505 11.1183 29.6685 11.25 30 11.25C30.3315 11.25 30.6495 11.1183 30.8839 10.8839C31.1183 10.6495 31.25 10.3315 31.25 10V3.75C31.25 3.41848 31.1183 3.10054 30.8839 2.86612C30.6495 2.6317 30.3315 2.5 30 2.5Z" fill="#F9D67A"/>
<path d="M30 48.75C29.6685 48.75 29.3505 48.8817 29.1161 49.1161C28.8817 49.3505 28.75 49.6685 28.75 50V56.25C28.75 56.5815 28.8817 56.8995 29.1161 57.1339C29.3505 57.3683 29.6685 57.5 30 57.5C30.3315 57.5 30.6495 57.3683 30.8839 57.1339C31.1183 56.8995 31.25 56.5815 31.25 56.25V50C31.25 49.6685 31.1183 49.3505 30.8839 49.1161C30.6495 48.8817 30.3315 48.75 30 48.75Z" fill="#F9D67A"/>
<path d="M11.25 30C11.25 29.6685 11.1183 29.3505 10.8839 29.1161C10.6495 28.8817 10.3315 28.75 10 28.75H3.75C3.41848 28.75 3.10054 28.8817 2.86612 29.1161C2.6317 29.3505 2.5 29.6685 2.5 30C2.5 30.3315 2.6317 30.6495 2.86612 30.8839C3.10054 31.1183 3.41848 31.25 3.75 31.25H10C10.3315 31.25 10.6495 31.1183 10.8839 30.8839C11.1183 30.6495 11.25 30.3315 11.25 30Z" fill="#F9D67A"/>
<path d="M56.25 28.75H50C49.6685 28.75 49.3505 28.8817 49.1161 29.1161C48.8817 29.3505 48.75 29.6685 48.75 30C48.75 30.3315 48.8817 30.6495 49.1161 30.8839C49.3505 31.1183 49.6685 31.25 50 31.25H56.25C56.5815 31.25 56.8995 31.1183 57.1339 30.8839C57.3683 30.6495 57.5 30.3315 57.5 30C57.5 29.6685 57.3683 29.3505 57.1339 29.1161C56.8995 28.8817 56.5815 28.75 56.25 28.75Z" fill="#F9D67A"/>
<path d="M44.1369 17.1125C44.3023 17.1118 44.4659 17.0783 44.6183 17.0139C44.7706 16.9496 44.9087 16.8556 45.0244 16.7375L49.4494 12.325C49.566 12.2084 49.6584 12.0701 49.7215 11.9178C49.7846 11.7655 49.817 11.6023 49.817 11.4375C49.817 11.2727 49.7846 11.1095 49.7215 10.9572C49.6584 10.8049 49.566 10.6665 49.4494 10.55C49.3329 10.4334 49.1945 10.341 49.0422 10.2779C48.89 10.2148 48.7268 10.1824 48.5619 10.1824C48.3971 10.1824 48.2339 10.2148 48.0816 10.2779C47.9293 10.341 47.791 10.4334 47.6744 10.55L43.2619 15C43.0291 15.2342 42.8984 15.551 42.8984 15.8812C42.8984 16.2115 43.0291 16.5283 43.2619 16.7625C43.4968 16.9888 43.8108 17.1144 44.1369 17.1125Z" fill="#F9D67A"/>
<path d="M14.9994 43.2625L10.5494 47.675C10.4323 47.7912 10.3393 47.9295 10.2758 48.0818C10.2124 48.2341 10.1797 48.3975 10.1797 48.5625C10.1797 48.7275 10.2124 48.8909 10.2758 49.0432C10.3393 49.1955 10.4323 49.3338 10.5494 49.45C10.6662 49.5658 10.8048 49.6575 10.9571 49.7197C11.1093 49.7819 11.2724 49.8134 11.4369 49.8125C11.6014 49.8134 11.7645 49.7819 11.9168 49.7197C12.0691 49.6575 12.2076 49.5658 12.3244 49.45L16.7369 45C16.8885 44.8963 17.0154 44.7604 17.1085 44.6021C17.2016 44.4438 17.2587 44.2669 17.2757 44.084C17.2927 43.9012 17.2692 43.7168 17.2068 43.544C17.1445 43.3713 17.0448 43.2144 16.9149 43.0845C16.7851 42.9546 16.6282 42.855 16.4554 42.7926C16.2826 42.7303 16.0983 42.7068 15.9154 42.7237C15.7325 42.7407 15.5556 42.7978 15.3973 42.8909C15.239 42.9841 15.1032 43.1109 14.9994 43.2625Z" fill="#F9D67A"/>
<path d="M14.9993 16.7375C15.2335 16.9703 15.5503 17.101 15.8805 17.101C16.2107 17.101 16.5276 16.9703 16.7618 16.7375C16.9946 16.5033 17.1252 16.1865 17.1252 15.8562C17.1252 15.526 16.9946 15.2092 16.7618 14.975L12.3243 10.55C12.2077 10.4334 12.0693 10.341 11.9171 10.2779C11.7648 10.2148 11.6016 10.1824 11.4368 10.1824C11.2719 10.1824 11.1087 10.2148 10.9564 10.2779C10.8042 10.341 10.6658 10.4334 10.5493 10.55C10.4327 10.6665 10.3403 10.8049 10.2772 10.9572C10.2141 11.1095 10.1816 11.2727 10.1816 11.4375C10.1816 11.6023 10.2141 11.7655 10.2772 11.9178C10.3403 12.0701 10.4327 12.2084 10.5493 12.325L14.9993 16.7375Z" fill="#F9D67A"/>
<path d="M45.0004 43.2625C44.8966 43.1109 44.7608 42.9841 44.6025 42.8909C44.4442 42.7978 44.2673 42.7407 44.0844 42.7237C43.9015 42.7068 43.7171 42.7303 43.5444 42.7926C43.3716 42.855 43.2147 42.9546 43.0849 43.0845C42.955 43.2144 42.8553 43.3713 42.793 43.544C42.7306 43.7168 42.7071 43.9012 42.7241 44.084C42.7411 44.2669 42.7982 44.4438 42.8913 44.6021C42.9844 44.7604 43.1113 44.8963 43.2629 45L47.6754 49.425C47.7922 49.5408 47.9307 49.6325 48.083 49.6947C48.2353 49.7569 48.3984 49.7884 48.5629 49.7875C48.7274 49.7884 48.8904 49.7569 49.0427 49.6947C49.195 49.6325 49.3336 49.5408 49.4504 49.425C49.5675 49.3088 49.6605 49.1705 49.724 49.0182C49.7874 48.8659 49.8201 48.7025 49.8201 48.5375C49.8201 48.3725 49.7874 48.2091 49.724 48.0568C49.6605 47.9044 49.5675 47.7662 49.4504 47.65L45.0004 43.2625Z" fill="#F9D67A"/>
</svg>
