<svg width="24" height="24" viewBox="0 0 24 24" fill="none" xmlns="http://www.w3.org/2000/svg">
<path d="M10.7528 2.45007C11.4428 1.86007 12.5728 1.86007 13.2728 2.45007L14.8528 3.81007C15.1528 4.07007 15.7128 4.28007 16.1128 4.28007H17.8128C18.8728 4.28007 19.7428 5.15007 19.7428 6.21007V7.91007C19.7428 8.30007 19.9528 8.87007 20.2128 9.17007L21.5728 10.7501C22.1628 11.4401 22.1628 12.5701 21.5728 13.2701L20.2128 14.8501C19.9528 15.1501 19.7428 15.7101 19.7428 16.1101V17.8101C19.7428 18.8701 18.8728 19.7401 17.8128 19.7401H16.1128C15.7228 19.7401 15.1528 19.9501 14.8528 20.2101L13.2728 21.5701C12.5828 22.1601 11.4528 22.1601 10.7528 21.5701L9.17281 20.2101C8.87281 19.9501 8.31281 19.7401 7.91281 19.7401H6.18281C5.12281 19.7401 4.25281 18.8701 4.25281 17.8101V16.1001C4.25281 15.7101 4.04281 15.1501 3.79281 14.8501L2.44281 13.2601C1.86281 12.5701 1.86281 11.4501 2.44281 10.7601L3.79281 9.17007C4.04281 8.87007 4.25281 8.31007 4.25281 7.92007V6.20007C4.25281 5.14007 5.12281 4.27007 6.18281 4.27007H7.91281C8.30281 4.27007 8.87281 4.06007 9.17281 3.80007L10.7528 2.45007Z" fill="#3DC575"/>
<path d="M10.7925 15.17C10.5925 15.17 10.4025 15.09 10.2625 14.95L7.8425 12.53C7.5525 12.24 7.5525 11.76 7.8425 11.47C8.1325 11.18 8.6125 11.18 8.9025 11.47L10.7925 13.36L15.0925 9.06003C15.3825 8.77003 15.8625 8.77003 16.1525 9.06003C16.4425 9.35003 16.4425 9.83003 16.1525 10.12L11.3225 14.95C11.1825 15.09 10.9925 15.17 10.7925 15.17Z" fill="white"/>
</svg>
