<svg width="28" height="28" viewBox="0 0 28 28" fill="none" xmlns="http://www.w3.org/2000/svg">
<path d="M23.4254 4.57242C18.2211 -0.631887 9.77355 -0.631887 4.56924 4.57242C-0.635061 9.77672 -0.635061 18.2243 4.56924 23.4286C9.77355 28.6329 18.2211 28.6329 23.4254 23.4286C28.6297 18.2243 28.6297 9.77672 23.4254 4.57242ZM17.2972 17.3569C17.0143 17.3569 16.7692 17.2438 16.5901 17.0646C16.4109 16.8855 16.2978 16.6404 16.2978 16.3575V13.1143L11.4046 18.0074C11.0181 18.394 10.3769 18.394 9.9904 18.0074C9.60384 17.6209 9.60384 16.9798 9.9904 16.5932L14.8836 11.7001L11.6403 11.7001C11.0935 11.7001 10.6409 11.2475 10.6409 10.7007C10.6409 10.1538 11.0935 9.7013 11.6403 9.7013L17.2972 9.7013C17.844 9.7013 18.2965 10.1538 18.2965 10.7007V16.3575C18.2965 16.9044 17.844 17.3569 17.2972 17.3569Z" fill="white"/>
</svg>
