<svg width="24" height="24" viewBox="0 0 24 24" fill="none" xmlns="http://www.w3.org/2000/svg">
<path d="M23 12C23 9.82441 22.3549 7.69767 21.1462 5.88873C19.9375 4.07979 18.2195 2.66989 16.2095 1.83733C14.1995 1.00477 11.9878 0.786929 9.85401 1.21137C7.72022 1.6358 5.7602 2.68345 4.22182 4.22183C2.68345 5.76021 1.6358 7.72022 1.21136 9.85401C0.786926 11.9878 1.00476 14.1995 1.83733 16.2095C2.66989 18.2195 4.07979 19.9375 5.88873 21.1462C7.69767 22.3549 9.8244 23 12 23C14.9163 22.9966 17.7122 21.8365 19.7744 19.7744C21.8365 17.7122 22.9966 14.9163 23 12ZM11 17L11 13L7 13C6.73478 13 6.48043 12.8946 6.29289 12.7071C6.10536 12.5196 6 12.2652 6 12C6 11.7348 6.10536 11.4804 6.29289 11.2929C6.48043 11.1054 6.73478 11 7 11L11 11L11 7C11 6.73479 11.1054 6.48043 11.2929 6.2929C11.4804 6.10536 11.7348 6 12 6C12.2652 6 12.5196 6.10536 12.7071 6.2929C12.8946 6.48043 13 6.73479 13 7L13 11L17 11C17.2652 11 17.5196 11.1054 17.7071 11.2929C17.8946 11.4804 18 11.7348 18 12C18 12.2652 17.8946 12.5196 17.7071 12.7071C17.5196 12.8946 17.2652 13 17 13L13 13L13 17C13 17.2652 12.8946 17.5196 12.7071 17.7071C12.5196 17.8946 12.2652 18 12 18C11.7348 18 11.4804 17.8946 11.2929 17.7071C11.1054 17.5196 11 17.2652 11 17Z" fill="#A0A3BD"/>
</svg>
