<svg width="10" height="6" viewBox="0 0 10 6" fill="none" xmlns="http://www.w3.org/2000/svg">
<path d="M5.00142 5.66712C4.91369 5.66763 4.82671 5.65082 4.74549 5.61764C4.66426 5.58446 4.59038 5.53558 4.52809 5.47379L0.528092 1.47378C0.402557 1.34825 0.332031 1.17799 0.332031 1.00045C0.332031 0.822916 0.402557 0.652652 0.528092 0.527116C0.653628 0.40158 0.823891 0.331055 1.00143 0.331055C1.17896 0.331055 1.34922 0.40158 1.47476 0.527116L5.00142 4.06046L8.52809 0.533783C8.65562 0.424565 8.81967 0.367494 8.98746 0.373975C9.15524 0.380456 9.3144 0.450011 9.43313 0.568741C9.55186 0.687471 9.62141 0.84663 9.62789 1.01441C9.63437 1.1822 9.5773 1.34625 9.46809 1.47378L5.46809 5.47379C5.34392 5.59695 5.17632 5.66639 5.00142 5.66712Z" fill="#A0A3BD"/>
</svg>
