<svg width="16" height="16" viewBox="0 0 16 16" fill="none" xmlns="http://www.w3.org/2000/svg">
<path d="M5.9987 1.33301C4.25203 1.33301 2.83203 2.75301 2.83203 4.49967C2.83203 6.21301 4.17203 7.59967 5.9187 7.65967C5.97203 7.65301 6.02537 7.65301 6.06537 7.65967C6.0787 7.65967 6.08536 7.65967 6.0987 7.65967C6.10536 7.65967 6.10537 7.65967 6.11203 7.65967C7.8187 7.59967 9.1587 6.21301 9.16537 4.49967C9.16537 2.75301 7.74537 1.33301 5.9987 1.33301Z" fill="#A0A3BD"/>
<path d="M9.38859 9.43293C7.52859 8.19293 4.49526 8.19293 2.62193 9.43293C1.77526 9.9996 1.30859 10.7663 1.30859 11.5863C1.30859 12.4063 1.77526 13.1663 2.61526 13.7263C3.54859 14.3529 4.77526 14.6663 6.00193 14.6663C7.22859 14.6663 8.45526 14.3529 9.38859 13.7263C10.2286 13.1596 10.6953 12.3996 10.6953 11.5729C10.6886 10.7529 10.2286 9.99293 9.38859 9.43293Z" fill="#A0A3BD"/>
<path d="M13.3263 4.89307C13.4329 6.18641 12.5129 7.31974 11.2396 7.47307C11.2329 7.47307 11.2329 7.47307 11.2263 7.47307H11.2062C11.1662 7.47307 11.1262 7.47307 11.0929 7.48641C10.4462 7.51974 9.85292 7.31307 9.40625 6.93307C10.0929 6.31974 10.4863 5.39974 10.4062 4.39974C10.3596 3.85974 10.1729 3.36641 9.89292 2.94641C10.1463 2.81974 10.4396 2.73974 10.7396 2.71307C12.0463 2.59974 13.2129 3.57307 13.3263 4.89307Z" fill="#A0A3BD"/>
<path d="M14.6615 11.0599C14.6081 11.7066 14.1948 12.2666 13.5015 12.6466C12.8348 13.0133 11.9948 13.1866 11.1615 13.1666C11.6415 12.7333 11.9215 12.1933 11.9748 11.6199C12.0415 10.7933 11.6481 9.99994 10.8615 9.36661C10.4148 9.01327 9.89479 8.73327 9.32812 8.52661C10.8015 8.09994 12.6548 8.38661 13.7948 9.30661C14.4081 9.79994 14.7215 10.4199 14.6615 11.0599Z" fill="#A0A3BD"/>
</svg>
