<svg width="32" height="32" viewBox="0 0 32 32" fill="none" xmlns="http://www.w3.org/2000/svg">
<g clip-path="url(#clip0_43059_14934)">
<path d="M16 0C7.16379 0 0 7.16379 0 16C0 24.8362 7.16379 32 16 32C24.8362 32 32 24.8362 32 16C32 7.16379 24.8362 0 16 0Z" fill="#D83A52" fill-opacity="0.25"/>
<path d="M16 25.1425C17.2624 25.1425 18.2858 24.1191 18.2858 22.8566C18.2858 21.5942 17.2624 20.5708 16 20.5708C14.7375 20.5708 13.7141 21.5942 13.7141 22.8566C13.7141 24.1191 14.7375 25.1425 16 25.1425Z" fill="#D83A52"/>
<path d="M17.8286 17.2573C17.7697 17.8448 17.2723 18.2913 16.6812 18.2859H15.3097C14.7222 18.2868 14.2302 17.8421 14.1713 17.2573L13.2569 8.1139C13.1962 7.48351 13.6588 6.92276 14.2891 6.86205C14.3275 6.85848 14.3659 6.85669 14.4043 6.85669H17.6045C18.2385 6.85848 18.7501 7.37458 18.7483 8.00765C18.7483 8.04336 18.7465 8.07819 18.743 8.11301L17.8286 17.2573Z" fill="#D83A52"/>
</g>
<defs>
<clipPath id="clip0_43059_14934">
<rect width="32" height="32" fill="white"/>
</clipPath>
</defs>
</svg>
