<svg width="32" height="32" viewBox="0 0 32 32" fill="none" xmlns="http://www.w3.org/2000/svg">
<g clip-path="url(#clip0_4030_209982)">
<path d="M27.3138 27.3136C33.5622 21.0653 33.5622 10.9347 27.3138 4.6864C21.0655 -1.56193 10.935 -1.56193 4.68665 4.6864C-1.56168 10.9347 -1.56168 21.0653 4.68665 27.3136C10.935 33.5619 21.0655 33.5619 27.3138 27.3136Z" fill="#258750" fill-opacity="0.25"/>
<path d="M12.3613 23.4914C12.5185 23.6486 12.7319 23.737 12.9542 23.737C13.1766 23.737 13.39 23.6486 13.5471 23.4914L24.9736 12.0649C25.1308 11.9078 25.2192 11.6944 25.2192 11.472C25.2192 11.2497 25.1308 11.0363 24.9736 10.8791L22.603 8.50847C22.2753 8.18077 21.7449 8.18077 21.4181 8.50847L12.9551 16.9714L10.5844 14.6008C10.4273 14.4436 10.2139 14.3552 9.99156 14.3552C9.76922 14.3552 9.55582 14.4436 9.39867 14.6008L7.028 16.9714C6.7003 17.2991 6.7003 17.8295 7.028 18.1563L12.3613 23.4914Z" fill="#3DC575"/>
</g>
<defs>
<clipPath id="clip0_4030_209982">
<rect width="32" height="32" fill="white"/>
</clipPath>
</defs>
</svg>
