<svg width="32" height="32" viewBox="0 0 32 32" fill="none" xmlns="http://www.w3.org/2000/svg">
<g clip-path="url(#clip0_5043_245117)">
<path d="M30.9613 22.33L21.1513 4.68C19.8313 2.3 18.0113 1 16.0013 1C13.9913 1 12.1713 2.3 10.8513 4.68L1.04131 22.33C-0.198691 24.58 -0.338691 26.74 0.661309 28.44C1.66131 30.14 3.62131 31.08 6.19131 31.08H25.8113C28.3813 31.08 30.3513 30.15 31.3413 28.44C32.3413 26.75 32.2013 24.57 30.9613 22.33Z" fill="#FFC15D" fill-opacity="0.25"/>
<path d="M16.0009 25.1904C17.2609 25.1904 18.2909 24.1704 18.2909 22.9004C18.2909 21.6404 17.2709 20.6104 16.0009 20.6104C14.7309 20.6104 13.7109 21.6304 13.7109 22.9004C13.7109 24.1704 14.7409 25.1904 16.0009 25.1904Z" fill="#FFC15D"/>
<path d="M17.8311 17.3102C17.7711 17.9002 17.2711 18.3402 16.6811 18.3402H15.3111C14.7211 18.3402 14.2311 17.9002 14.1711 17.3102L13.2611 8.17016C13.2011 7.54016 13.6611 6.98016 14.2911 6.92016C14.3311 6.92016 14.3711 6.91016 14.4111 6.91016H17.6111C18.2411 6.91016 18.7611 7.43016 18.7511 8.06016C18.7511 8.10016 18.7511 8.13016 18.7411 8.17016L17.8311 17.3102Z" fill="#FFC15D"/>
</g>
<defs>
<clipPath id="clip0_5043_245117">
<rect width="32" height="32" fill="white"/>
</clipPath>
</defs>
</svg>
