<svg width="70" height="70" viewBox="0 0 70 70" fill="none" xmlns="http://www.w3.org/2000/svg">
<path d="M35 59C48.2548 59 59 48.2548 59 35C59 21.7452 48.2548 11 35 11C21.7452 11 11 21.7452 11 35C11 48.2548 21.7452 59 35 59Z" fill="#F4BC1E"/>
<path d="M35 59C48.2548 59 59 48.2548 59 35C59 21.7452 48.2548 11 35 11C21.7452 11 11 21.7452 11 35C11 48.2548 21.7452 59 35 59Z" fill="url(#paint0_linear_43105_12831)"/>
<path d="M35 59C48.2548 59 59 48.2548 59 35C59 21.7452 48.2548 11 35 11C21.7452 11 11 21.7452 11 35C11 48.2548 21.7452 59 35 59Z" fill="url(#paint1_linear_43105_12831)"/>
<path d="M34.9971 42.6995C30.7425 42.6995 27.2953 39.2523 27.2734 34.9759C27.2734 34.4959 27.6662 34.125 28.1243 34.125C28.5825 34.125 28.9753 34.5177 28.9753 34.9759C28.9753 38.2923 31.6589 40.9759 34.9753 40.9759C38.2916 40.9759 40.9753 38.2923 40.9753 34.9759C40.9753 34.4959 41.368 34.125 41.8262 34.125C42.3062 34.125 42.6771 34.5177 42.6771 34.9759C42.6989 39.2523 39.2516 42.6995 34.9971 42.6995Z" fill="#1E1E1E"/>
<path d="M30.3515 27.2572C30.3515 27.9336 30.0679 28.5881 29.5661 29.0681L27.7333 30.8136C26.6424 31.8391 24.9406 31.8391 23.8497 30.8136L22.1915 29.2427C21.1006 28.3045 20.9915 26.6463 21.9515 25.5773C22.0388 25.4682 22.1261 25.3809 22.2352 25.2936C23.3043 24.4645 24.8315 24.5518 25.8133 25.4682C26.8824 24.4863 28.5406 24.4863 29.5879 25.4682C30.0679 25.9263 30.3515 26.5809 30.3515 27.2572Z" fill="#DC2F02"/>
<path d="M30.3515 27.2572C30.3515 27.9336 30.0679 28.5881 29.5661 29.0681L27.7333 30.8136C26.6424 31.8391 24.9406 31.8391 23.8497 30.8136L22.1915 29.2427C21.1006 28.3045 20.9915 26.6463 21.9515 25.5773C22.0388 25.4682 22.1261 25.3809 22.2352 25.2936C23.3043 24.4645 24.8315 24.5518 25.8133 25.4682C26.8824 24.4863 28.5406 24.4863 29.5879 25.4682C30.0679 25.9263 30.3515 26.5809 30.3515 27.2572Z" fill="#DC2F02"/>
<path d="M48.7187 27.2572C48.7187 27.9336 48.4351 28.5881 47.9333 29.0681L46.1005 30.8136C45.0096 31.8391 43.3078 31.8391 42.2169 30.8136L40.5587 29.2427C39.4678 28.3045 39.3587 26.6463 40.3187 25.5773C40.406 25.4682 40.4933 25.3809 40.6024 25.2936C41.6714 24.4645 43.1987 24.5518 44.1805 25.4682C45.2496 24.4863 46.9078 24.4863 47.9551 25.4682C48.4133 25.9263 48.6969 26.5809 48.7187 27.2572Z" fill="#DC2F02"/>
<path d="M48.7187 27.2572C48.7187 27.9336 48.4351 28.5881 47.9333 29.0681L46.1005 30.8136C45.0096 31.8391 43.3078 31.8391 42.2169 30.8136L40.5587 29.2427C39.4678 28.3045 39.3587 26.6463 40.3187 25.5773C40.406 25.4682 40.4933 25.3809 40.6024 25.2936C41.6714 24.4645 43.1987 24.5518 44.1805 25.4682C45.2496 24.4863 46.9078 24.4863 47.9551 25.4682C48.4133 25.9263 48.6969 26.5809 48.7187 27.2572Z" fill="#DC2F02"/>
<defs>
<linearGradient id="paint0_linear_43105_12831" x1="18.0633" y1="18.0616" x2="52.0042" y2="52.0025" gradientUnits="userSpaceOnUse">
<stop offset="0.0219" stop-color="#F4BC1E" stop-opacity="0"/>
<stop offset="0.0823" stop-color="#F4B71C" stop-opacity="0.082"/>
<stop offset="0.2379" stop-color="#F3AA19" stop-opacity="0.269"/>
<stop offset="0.3945" stop-color="#F2A016" stop-opacity="0.424"/>
<stop offset="0.5497" stop-color="#F29713" stop-opacity="0.545"/>
<stop offset="0.7033" stop-color="#F19211" stop-opacity="0.631"/>
<stop offset="0.8543" stop-color="#F18E10" stop-opacity="0.683"/>
<stop offset="1" stop-color="#F18D10" stop-opacity="0.7"/>
</linearGradient>
<linearGradient id="paint1_linear_43105_12831" x1="23.0297" y1="14.2449" x2="47.0378" y2="55.8192" gradientUnits="userSpaceOnUse">
<stop stop-color="#FFFFC5" stop-opacity="0.6"/>
<stop offset="0.0135" stop-color="#FFFDC1" stop-opacity="0.584"/>
<stop offset="0.1808" stop-color="#FBE98F" stop-opacity="0.407"/>
<stop offset="0.3491" stop-color="#F9D966" stop-opacity="0.26"/>
<stop offset="0.516" stop-color="#F7CC47" stop-opacity="0.147"/>
<stop offset="0.681" stop-color="#F5C330" stop-opacity="0.065"/>
<stop offset="0.8433" stop-color="#F4BE23" stop-opacity="0.016"/>
<stop offset="1" stop-color="#F4BC1E" stop-opacity="0"/>
</linearGradient>
</defs>
</svg>
