<svg width="27" height="27" viewBox="0 0 27 27" fill="none" xmlns="http://www.w3.org/2000/svg">
<path d="M13.4982 0.8125C6.49801 0.8125 0.8125 6.48647 0.8125 13.4982C0.8125 20.4984 6.49801 26.1839 13.4982 26.1839C20.51 26.1839 26.1839 20.4984 26.1839 13.4982C26.1839 6.48647 20.51 0.8125 13.4982 0.8125ZM9.87702 14.1786C8.87369 14.1786 8.06642 12.9562 8.06642 11.457C8.06642 9.95775 8.87369 8.7353 9.87702 8.7353C10.8803 8.7353 11.6876 9.95775 11.6876 11.457C11.6876 12.9562 10.8803 14.1786 9.87702 14.1786ZM15.4818 18.2496C15.2281 18.2496 15.032 18.0535 15.032 17.7998C15.032 17.0041 14.3862 16.3583 13.5905 16.3583C12.7947 16.3583 12.1489 17.0041 12.1489 17.7998C12.1489 18.0535 11.9413 18.2496 11.6876 18.2496C11.4454 18.2496 11.2378 18.0535 11.2378 17.7998C11.2378 16.4967 12.2873 15.4472 13.5905 15.4472C14.8821 15.4472 15.9316 16.4967 15.9316 17.7998C15.9316 18.0535 15.7355 18.2496 15.4818 18.2496ZM17.1309 14.1786C16.1276 14.1786 15.3203 12.9562 15.3203 11.457C15.3203 9.95775 16.1276 8.7353 17.1309 8.7353C18.1343 8.7353 18.9415 9.95775 18.9415 11.457C18.9415 12.9562 18.1343 14.1786 17.1309 14.1786Z" fill="#C3CCD7"/>
</svg>
