<svg width="27" height="27" viewBox="0 0 27 27" fill="none" xmlns="http://www.w3.org/2000/svg">
<path d="M13.4982 0.8125C6.49801 0.8125 0.8125 6.49801 0.8125 13.4982C0.8125 20.51 6.49801 26.1839 13.4982 26.1839C20.51 26.1839 26.1839 20.51 26.1839 13.4982C26.1839 6.49801 20.51 0.8125 13.4982 0.8125ZM8.06642 10.7881C8.06642 9.27733 8.87369 8.06642 9.87702 8.06642C10.8803 8.06642 11.6876 9.27733 11.6876 10.7881C11.6876 12.2873 10.8803 13.4982 9.87702 13.4982C8.87369 13.4982 8.06642 12.2873 8.06642 10.7881ZM13.4982 21.2019C11.2494 21.2019 9.42725 19.3798 9.42725 17.1309C9.42725 16.8772 9.63484 16.6696 9.87702 16.6696C10.1307 16.6696 10.3268 16.8772 10.3268 17.1309C10.3268 18.8839 11.7568 20.3024 13.5097 20.3024C15.2511 20.3024 16.6812 18.8839 16.6812 17.1309C16.6812 16.8772 16.8772 16.6696 17.1309 16.6696C17.3847 16.6696 17.5807 16.8772 17.5807 17.1309C17.5807 19.3798 15.7586 21.2019 13.4982 21.2019ZM17.1309 13.4982C16.1276 13.4982 15.3203 12.2873 15.3203 10.7881C15.3203 9.27733 16.1276 8.06642 17.1309 8.06642C18.1343 8.06642 18.9415 9.27733 18.9415 10.7881C18.9415 12.2873 18.1343 13.4982 17.1309 13.4982Z" fill="#C3CCD7"/>
</svg>
