<svg width="27" height="27" viewBox="0 0 27 27" fill="none" xmlns="http://www.w3.org/2000/svg">
<path d="M13.4982 0.8125C6.48648 0.8125 0.8125 6.48647 0.8125 13.4982C0.8125 20.4984 6.48648 26.1839 13.4982 26.1839C20.4984 26.1839 26.1839 20.4984 26.1839 13.4982C26.1839 6.48647 20.4984 0.8125 13.4982 0.8125ZM7.59359 11.284L6.71712 10.4421C6.1405 9.94622 6.08284 9.08128 6.59027 8.50465C6.6364 8.45852 6.68252 8.40087 6.72865 8.35474C7.30528 7.92804 8.10102 7.96264 8.61998 8.45853C9.18507 7.92804 10.0615 7.92804 10.6266 8.45853C10.8919 8.70071 11.0418 9.04668 11.0418 9.40419C11.0418 9.76169 10.8919 10.1077 10.6266 10.3499L9.64637 11.284C9.06975 11.8145 8.17021 11.8145 7.59359 11.284ZM13.4982 17.5692C11.2494 17.5692 9.41572 15.747 9.41572 13.4982C9.41572 13.2445 9.6233 13.0484 9.86549 13.0484C10.1192 13.0484 10.3268 13.2445 10.3268 13.4982C10.3268 15.2511 11.7453 16.6696 13.4982 16.6696C15.2512 16.6696 16.6696 15.2511 16.6696 13.4982C16.6696 13.2445 16.8657 13.0484 17.1194 13.0484C17.3731 13.0484 17.5692 13.2445 17.5692 13.4982C17.5692 15.747 15.747 17.5692 13.4982 17.5692ZM20.3254 10.3499L19.3567 11.284C18.7801 11.8145 17.8806 11.8145 17.3039 11.284L16.4159 10.4421C15.8508 9.94622 15.7932 9.08128 16.2891 8.50465C16.3352 8.45852 16.3813 8.40087 16.439 8.35474C17.0041 7.92804 17.7998 7.96264 18.3303 8.45853C18.8954 7.92804 19.7603 7.92804 20.3254 8.45853C20.5907 8.70071 20.7406 9.04668 20.7406 9.40419C20.7406 9.76169 20.5907 10.1077 20.3254 10.3499Z" fill="#C3CCD7"/>
</svg>
