<svg width="27" height="27" viewBox="0 0 27 27" fill="none" xmlns="http://www.w3.org/2000/svg">
<path d="M13.4982 0.8125C6.48648 0.8125 0.8125 6.48647 0.8125 13.4982C0.8125 20.51 6.48648 26.1839 13.4982 26.1839C20.4984 26.1839 26.1839 20.51 26.1839 13.4982C26.1839 6.48647 20.4984 0.8125 13.4982 0.8125ZM8.05489 10.7766C8.05489 9.27733 8.87369 8.06642 9.86549 8.06642C10.8688 8.06642 11.6876 9.27733 11.6876 10.7766C11.6876 12.2758 10.8688 13.4982 9.86549 13.4982C8.87369 13.4982 8.05489 12.2758 8.05489 10.7766ZM17.1194 17.5807H9.86549C9.6233 17.5807 9.41572 17.3731 9.41572 17.1194C9.41572 16.8772 9.6233 16.6696 9.86549 16.6696H17.1194C17.3731 16.6696 17.5692 16.8772 17.5692 17.1194C17.5692 17.3731 17.3731 17.5807 17.1194 17.5807ZM17.1194 13.4982C16.1161 13.4982 15.3088 12.2758 15.3088 10.7766C15.3088 9.27733 16.1161 8.06642 17.1194 8.06642C18.1227 8.06642 18.93 9.27733 18.93 10.7766C18.93 12.2758 18.1227 13.4982 17.1194 13.4982Z" fill="#C3CCD7"/>
</svg>
