<svg width="27" height="27" viewBox="0 0 27 27" fill="none" xmlns="http://www.w3.org/2000/svg">
<path d="M13.4982 26.1839C20.5043 26.1839 26.1839 20.5043 26.1839 13.4982C26.1839 6.49209 20.5043 0.8125 13.4982 0.8125C6.49209 0.8125 0.8125 6.49209 0.8125 13.4982C0.8125 20.5043 6.49209 26.1839 13.4982 26.1839Z" fill="#F4BC1E"/>
<path d="M13.4982 26.1839C20.5043 26.1839 26.1839 20.5043 26.1839 13.4982C26.1839 6.49209 20.5043 0.8125 13.4982 0.8125C6.49209 0.8125 0.8125 6.49209 0.8125 13.4982C0.8125 20.5043 6.49209 26.1839 13.4982 26.1839Z" fill="url(#paint0_linear_42012_65173)"/>
<path d="M13.4982 26.1839C20.5043 26.1839 26.1839 20.5043 26.1839 13.4982C26.1839 6.49209 20.5043 0.8125 13.4982 0.8125C6.49209 0.8125 0.8125 6.49209 0.8125 13.4982C0.8125 20.5043 6.49209 26.1839 13.4982 26.1839Z" fill="url(#paint1_linear_42012_65173)"/>
<path d="M13.4966 17.5674C11.2477 17.5674 9.42559 15.7453 9.41406 13.4849C9.41406 13.2312 9.62165 13.0352 9.86383 13.0352C10.106 13.0352 10.3136 13.2427 10.3136 13.4849C10.3136 15.2379 11.7321 16.6564 13.485 16.6564C15.238 16.6564 16.6565 15.2379 16.6565 13.4849C16.6565 13.2312 16.864 13.0352 17.1062 13.0352C17.3599 13.0352 17.556 13.2427 17.556 13.4849C17.5675 15.7453 15.7454 17.5674 13.4966 17.5674Z" fill="#1E1E1E"/>
<path d="M11.0438 9.40611C11.0438 9.76361 10.8939 10.1096 10.6287 10.3633L9.65995 11.2859C9.08332 11.8279 8.18379 11.8279 7.60717 11.2859L6.7307 10.4556C6.15408 9.95967 6.09642 9.08321 6.60384 8.51812C6.64997 8.46046 6.6961 8.41432 6.75377 8.36819C7.31886 7.92996 8.12613 7.97609 8.64509 8.46045C9.21018 7.94149 10.0866 7.94149 10.6402 8.46045C10.8939 8.70264 11.0438 9.0486 11.0438 9.40611Z" fill="#DC2F02"/>
<path d="M11.0438 9.40611C11.0438 9.76361 10.8939 10.1096 10.6287 10.3633L9.65995 11.2859C9.08332 11.8279 8.18379 11.8279 7.60717 11.2859L6.7307 10.4556C6.15408 9.95967 6.09642 9.08321 6.60384 8.51812C6.64997 8.46046 6.6961 8.41432 6.75377 8.36819C7.31886 7.92996 8.12613 7.97609 8.64509 8.46045C9.21018 7.94149 10.0866 7.94149 10.6402 8.46045C10.8939 8.70264 11.0438 9.0486 11.0438 9.40611Z" fill="#DC2F02"/>
<path d="M20.7548 9.40611C20.7548 9.76361 20.6049 10.1096 20.3396 10.3633L19.3709 11.2859C18.7943 11.8279 17.8947 11.8279 17.3181 11.2859L16.4416 10.4556C15.865 9.95967 15.8074 9.08321 16.3148 8.51812C16.3609 8.46046 16.407 8.41432 16.4647 8.36819C17.0298 7.92996 17.8371 7.97609 18.356 8.46045C18.9211 7.94149 19.7976 7.94149 20.3511 8.46045C20.5933 8.70264 20.7433 9.0486 20.7548 9.40611Z" fill="#DC2F02"/>
<path d="M20.7548 9.40611C20.7548 9.76361 20.6049 10.1096 20.3396 10.3633L19.3709 11.2859C18.7943 11.8279 17.8947 11.8279 17.3181 11.2859L16.4416 10.4556C15.865 9.95967 15.8074 9.08321 16.3148 8.51812C16.3609 8.46046 16.407 8.41432 16.4647 8.36819C17.0298 7.92996 17.8371 7.97609 18.356 8.46045C18.9211 7.94149 19.7976 7.94149 20.3511 8.46045C20.5933 8.70264 20.7433 9.0486 20.7548 9.40611Z" fill="#DC2F02"/>
<defs>
<linearGradient id="paint0_linear_42012_65173" x1="4.54598" y1="4.54507" x2="22.4862" y2="22.4853" gradientUnits="userSpaceOnUse">
<stop offset="0.0219" stop-color="#F4BC1E" stop-opacity="0"/>
<stop offset="0.0823" stop-color="#F4B71C" stop-opacity="0.082"/>
<stop offset="0.2379" stop-color="#F3AA19" stop-opacity="0.269"/>
<stop offset="0.3945" stop-color="#F2A016" stop-opacity="0.424"/>
<stop offset="0.5497" stop-color="#F29713" stop-opacity="0.545"/>
<stop offset="0.7033" stop-color="#F19211" stop-opacity="0.631"/>
<stop offset="0.8543" stop-color="#F18E10" stop-opacity="0.683"/>
<stop offset="1" stop-color="#F18D10" stop-opacity="0.7"/>
</linearGradient>
<linearGradient id="paint1_linear_42012_65173" x1="7.17107" y1="2.52766" x2="19.8611" y2="24.5027" gradientUnits="userSpaceOnUse">
<stop stop-color="#FFFFC5" stop-opacity="0.6"/>
<stop offset="0.0135" stop-color="#FFFDC1" stop-opacity="0.584"/>
<stop offset="0.1808" stop-color="#FBE98F" stop-opacity="0.407"/>
<stop offset="0.3491" stop-color="#F9D966" stop-opacity="0.26"/>
<stop offset="0.516" stop-color="#F7CC47" stop-opacity="0.147"/>
<stop offset="0.681" stop-color="#F5C330" stop-opacity="0.065"/>
<stop offset="0.8433" stop-color="#F4BE23" stop-opacity="0.016"/>
<stop offset="1" stop-color="#F4BC1E" stop-opacity="0"/>
</linearGradient>
</defs>
</svg>
