<svg width="48" height="48" viewBox="0 0 48 48" fill="none" xmlns="http://www.w3.org/2000/svg">
<path d="M24 48C37.2548 48 48 37.2548 48 24C48 10.7452 37.2548 0 24 0C10.7452 0 0 10.7452 0 24C0 37.2548 10.7452 48 24 48Z" fill="#F4BC1E"/>
<path d="M24 48C37.2548 48 48 37.2548 48 24C48 10.7452 37.2548 0 24 0C10.7452 0 0 10.7452 0 24C0 37.2548 10.7452 48 24 48Z" fill="url(#paint0_linear_56940_1398)"/>
<path d="M24 48C37.2548 48 48 37.2548 48 24C48 10.7452 37.2548 0 24 0C10.7452 0 0 10.7452 0 24C0 37.2548 10.7452 48 24 48Z" fill="url(#paint1_linear_56940_1398)"/>
<path d="M34.6678 16.1672L33.8387 16.5817C34.1224 16.9963 34.2751 17.4763 34.2751 17.9781C34.2751 19.3963 33.1187 20.5308 31.7006 20.5526C30.6096 20.5526 29.6497 19.8545 29.3006 18.829L27.7951 19.5926C27.686 19.6581 27.5551 19.7017 27.4242 19.7017C27.0969 19.7017 26.8133 19.5272 26.6606 19.2217C26.4424 18.8508 26.5733 18.349 26.9442 18.1308C26.966 18.109 27.0097 18.109 27.0315 18.0872L33.8824 14.6617C34.2751 14.4435 34.7769 14.5963 34.9951 15.0108C34.9951 15.0326 35.0169 15.0326 35.0169 15.0545C35.2351 15.4254 35.1042 15.9272 34.7333 16.1454C34.7115 16.1454 34.6897 16.1672 34.6678 16.1672Z" fill="#1E1E1E"/>
<path d="M21.3165 19.221C21.1856 19.5264 20.8802 19.701 20.5529 19.701C20.422 19.701 20.2911 19.6574 20.182 19.5919L18.6765 18.8283C18.3274 19.8537 17.3674 20.5301 16.2765 20.5519C14.8583 20.5519 13.7238 19.3955 13.702 17.9774C13.702 17.4755 13.8547 16.9955 14.1383 16.581L13.3092 16.1664C12.8947 15.9701 12.7202 15.4683 12.9165 15.0319C13.1129 14.6174 13.6147 14.4428 14.0511 14.6392C14.0511 14.6392 14.0729 14.6392 14.0729 14.661L20.9238 18.0865C21.3383 18.261 21.5129 18.7192 21.3383 19.1337C21.3602 19.1774 21.3383 19.1992 21.3165 19.221Z" fill="#1E1E1E"/>
<path d="M30.8496 33.4261C30.3696 33.4261 29.9987 33.0334 29.9987 32.5752C29.9987 29.2588 27.3151 26.5752 23.9987 26.5752C20.6823 26.5752 17.9987 29.2588 17.9987 32.5752C17.9987 33.0552 17.606 33.4261 17.1478 33.4261C16.6896 33.4261 16.2969 33.0334 16.2969 32.5752C16.2969 28.3207 19.7441 24.8516 24.0205 24.8516C28.2969 24.8516 31.7441 28.2988 31.7441 32.5752C31.7223 33.0334 31.3296 33.4261 30.8496 33.4261Z" fill="#1E1E1E"/>
<defs>
<linearGradient id="paint0_linear_56940_1398" x1="7.068" y1="7.05891" x2="41.0089" y2="40.9998" gradientUnits="userSpaceOnUse">
<stop offset="0.0219" stop-color="#F4BC1E" stop-opacity="0"/>
<stop offset="0.0823" stop-color="#F4B71C" stop-opacity="0.082"/>
<stop offset="0.2379" stop-color="#F3AA19" stop-opacity="0.269"/>
<stop offset="0.3945" stop-color="#F2A016" stop-opacity="0.424"/>
<stop offset="0.5497" stop-color="#F29713" stop-opacity="0.545"/>
<stop offset="0.7033" stop-color="#F19211" stop-opacity="0.631"/>
<stop offset="0.8543" stop-color="#F18E10" stop-opacity="0.683"/>
<stop offset="1" stop-color="#F18D10" stop-opacity="0.7"/>
</linearGradient>
<linearGradient id="paint1_linear_56940_1398" x1="12.0344" y1="3.24219" x2="36.0378" y2="44.8165" gradientUnits="userSpaceOnUse">
<stop stop-color="#FFFFC5" stop-opacity="0.6"/>
<stop offset="0.0135" stop-color="#FFFDC1" stop-opacity="0.584"/>
<stop offset="0.1808" stop-color="#FBE98F" stop-opacity="0.407"/>
<stop offset="0.3491" stop-color="#F9D966" stop-opacity="0.26"/>
<stop offset="0.516" stop-color="#F7CC47" stop-opacity="0.147"/>
<stop offset="0.681" stop-color="#F5C330" stop-opacity="0.065"/>
<stop offset="0.8433" stop-color="#F4BE23" stop-opacity="0.016"/>
<stop offset="1" stop-color="#F4BC1E" stop-opacity="0"/>
</linearGradient>
</defs>
</svg>
