<svg width="27" height="27" viewBox="0 0 27 27" fill="none" xmlns="http://www.w3.org/2000/svg">
<path d="M13.4982 26.1839C20.5043 26.1839 26.1839 20.5043 26.1839 13.4982C26.1839 6.49209 20.5043 0.8125 13.4982 0.8125C6.49209 0.8125 0.8125 6.49209 0.8125 13.4982C0.8125 20.5043 6.49209 26.1839 13.4982 26.1839Z" fill="#F4BC1E"/>
<path d="M13.4982 26.1839C20.5043 26.1839 26.1839 20.5043 26.1839 13.4982C26.1839 6.49209 20.5043 0.8125 13.4982 0.8125C6.49209 0.8125 0.8125 6.49209 0.8125 13.4982C0.8125 20.5043 6.49209 26.1839 13.4982 26.1839Z" fill="url(#paint0_linear_42012_65165)"/>
<path d="M13.4982 26.1839C20.5043 26.1839 26.1839 20.5043 26.1839 13.4982C26.1839 6.49209 20.5043 0.8125 13.4982 0.8125C6.49209 0.8125 0.8125 6.49209 0.8125 13.4982C0.8125 20.5043 6.49209 26.1839 13.4982 26.1839Z" fill="url(#paint1_linear_42012_65165)"/>
<path d="M17.114 17.5792H9.87164C9.61793 17.5792 9.42188 17.3716 9.42188 17.1295C9.42188 16.8757 9.62946 16.6797 9.87164 16.6797H17.1256C17.3793 16.6797 17.5753 16.8873 17.5753 17.1295C17.5753 17.3716 17.3677 17.5792 17.114 17.5792Z" fill="#1E1E1E"/>
<path d="M17.1153 13.498C18.1153 13.498 18.9259 12.2795 18.9259 10.7764C18.9259 9.27322 18.1153 8.05469 17.1153 8.05469C16.1153 8.05469 15.3047 9.27322 15.3047 10.7764C15.3047 12.2795 16.1153 13.498 17.1153 13.498Z" fill="#1E1E1E"/>
<path d="M9.8731 13.498C10.8731 13.498 11.6837 12.2795 11.6837 10.7764C11.6837 9.27322 10.8731 8.05469 9.8731 8.05469C8.87313 8.05469 8.0625 9.27322 8.0625 10.7764C8.0625 12.2795 8.87313 13.498 9.8731 13.498Z" fill="#1E1E1E"/>
<defs>
<linearGradient id="paint0_linear_42012_65165" x1="4.54844" y1="4.54667" x2="22.4886" y2="22.4869" gradientUnits="userSpaceOnUse">
<stop offset="0.0219" stop-color="#F4BC1E" stop-opacity="0"/>
<stop offset="0.0823" stop-color="#F4B71C" stop-opacity="0.082"/>
<stop offset="0.2379" stop-color="#F3AA19" stop-opacity="0.269"/>
<stop offset="0.3945" stop-color="#F2A016" stop-opacity="0.424"/>
<stop offset="0.5497" stop-color="#F29713" stop-opacity="0.545"/>
<stop offset="0.7033" stop-color="#F19211" stop-opacity="0.631"/>
<stop offset="0.8543" stop-color="#F18E10" stop-opacity="0.683"/>
<stop offset="1" stop-color="#F18D10" stop-opacity="0.7"/>
</linearGradient>
<linearGradient id="paint1_linear_42012_65165" x1="7.17354" y1="2.52926" x2="19.8611" y2="24.5043" gradientUnits="userSpaceOnUse">
<stop stop-color="#FFFFC5" stop-opacity="0.6"/>
<stop offset="0.0135" stop-color="#FFFDC1" stop-opacity="0.584"/>
<stop offset="0.1808" stop-color="#FBE98F" stop-opacity="0.407"/>
<stop offset="0.3491" stop-color="#F9D966" stop-opacity="0.26"/>
<stop offset="0.516" stop-color="#F7CC47" stop-opacity="0.147"/>
<stop offset="0.681" stop-color="#F5C330" stop-opacity="0.065"/>
<stop offset="0.8433" stop-color="#F4BE23" stop-opacity="0.016"/>
<stop offset="1" stop-color="#F4BC1E" stop-opacity="0"/>
</linearGradient>
</defs>
</svg>
