<svg width="27" height="27" viewBox="0 0 27 27" fill="none" xmlns="http://www.w3.org/2000/svg">
<path d="M13.4982 26.1839C20.5043 26.1839 26.1839 20.5043 26.1839 13.4982C26.1839 6.49209 20.5043 0.8125 13.4982 0.8125C6.49209 0.8125 0.8125 6.49209 0.8125 13.4982C0.8125 20.5043 6.49209 26.1839 13.4982 26.1839Z" fill="#F4BC1E"/>
<path d="M13.4982 26.1839C20.5043 26.1839 26.1839 20.5043 26.1839 13.4982C26.1839 6.49209 20.5043 0.8125 13.4982 0.8125C6.49209 0.8125 0.8125 6.49209 0.8125 13.4982C0.8125 20.5043 6.49209 26.1839 13.4982 26.1839Z" fill="url(#paint0_linear_42012_14194)"/>
<path d="M13.4982 26.1839C20.5043 26.1839 26.1839 20.5043 26.1839 13.4982C26.1839 6.49209 20.5043 0.8125 13.4982 0.8125C6.49209 0.8125 0.8125 6.49209 0.8125 13.4982C0.8125 20.5043 6.49209 26.1839 13.4982 26.1839Z" fill="url(#paint1_linear_42012_14194)"/>
<path d="M15.4746 18.2516C15.2209 18.2516 15.0248 18.044 15.0248 17.8018C15.0248 17.0061 14.379 16.3603 13.5833 16.3603C12.7875 16.3603 12.1417 17.0061 12.1417 17.8018C12.1417 18.0556 11.9341 18.2516 11.692 18.2516C11.4498 18.2516 11.2422 18.044 11.2422 17.8018C11.2422 16.5102 12.2916 15.4492 13.5948 15.4492C14.8864 15.4492 15.9474 16.4987 15.9474 17.8018C15.9244 18.0556 15.7168 18.2516 15.4746 18.2516Z" fill="#1E1E1E"/>
<path d="M17.1153 14.1816C18.1153 14.1816 18.9259 12.9631 18.9259 11.4599C18.9259 9.95681 18.1153 8.73828 17.1153 8.73828C16.1153 8.73828 15.3047 9.95681 15.3047 11.4599C15.3047 12.9631 16.1153 14.1816 17.1153 14.1816Z" fill="#1E1E1E"/>
<path d="M9.8731 14.1816C10.8731 14.1816 11.6837 12.9631 11.6837 11.4599C11.6837 9.95681 10.8731 8.73828 9.8731 8.73828C8.87313 8.73828 8.0625 9.95681 8.0625 11.4599C8.0625 12.9631 8.87313 14.1816 9.8731 14.1816Z" fill="#1E1E1E"/>
<defs>
<linearGradient id="paint0_linear_42012_14194" x1="4.54844" y1="4.54447" x2="22.4886" y2="22.4822" gradientUnits="userSpaceOnUse">
<stop offset="0.0219" stop-color="#F4BC1E" stop-opacity="0"/>
<stop offset="0.0823" stop-color="#F4B71C" stop-opacity="0.082"/>
<stop offset="0.2379" stop-color="#F3AA19" stop-opacity="0.269"/>
<stop offset="0.3945" stop-color="#F2A016" stop-opacity="0.424"/>
<stop offset="0.5497" stop-color="#F29713" stop-opacity="0.545"/>
<stop offset="0.7033" stop-color="#F19211" stop-opacity="0.631"/>
<stop offset="0.8543" stop-color="#F18E10" stop-opacity="0.683"/>
<stop offset="1" stop-color="#F18D10" stop-opacity="0.7"/>
</linearGradient>
<linearGradient id="paint1_linear_42012_14194" x1="7.17354" y1="2.52706" x2="19.8611" y2="24.4996" gradientUnits="userSpaceOnUse">
<stop stop-color="#FFFFC5" stop-opacity="0.6"/>
<stop offset="0.0135" stop-color="#FFFDC1" stop-opacity="0.584"/>
<stop offset="0.1808" stop-color="#FBE98F" stop-opacity="0.407"/>
<stop offset="0.3491" stop-color="#F9D966" stop-opacity="0.26"/>
<stop offset="0.516" stop-color="#F7CC47" stop-opacity="0.147"/>
<stop offset="0.681" stop-color="#F5C330" stop-opacity="0.065"/>
<stop offset="0.8433" stop-color="#F4BE23" stop-opacity="0.016"/>
<stop offset="1" stop-color="#F4BC1E" stop-opacity="0"/>
</linearGradient>
</defs>
</svg>
