<svg width="70" height="70" viewBox="0 0 70 70" fill="none" xmlns="http://www.w3.org/2000/svg">
<path d="M35 11C21.7564 11 11 21.7564 11 35C11 48.2655 21.7564 59 35 59C48.2655 59 59 48.2655 59 35C59 21.7564 48.2655 11 35 11ZM24.7236 29.8727C24.7236 27.0145 26.2509 24.7236 28.1491 24.7236C30.0473 24.7236 31.5745 27.0145 31.5745 29.8727C31.5745 32.7091 30.0473 35 28.1491 35C26.2509 35 24.7236 32.7091 24.7236 29.8727ZM35 49.5745C30.7455 49.5745 27.2982 46.1273 27.2982 41.8727C27.2982 41.3927 27.6909 41 28.1491 41C28.6291 41 29 41.3927 29 41.8727C29 45.1891 31.7055 47.8727 35.0218 47.8727C38.3164 47.8727 41.0218 45.1891 41.0218 41.8727C41.0218 41.3927 41.3927 41 41.8727 41C42.3527 41 42.7236 41.3927 42.7236 41.8727C42.7236 46.1273 39.2764 49.5745 35 49.5745ZM41.8727 35C39.9745 35 38.4473 32.7091 38.4473 29.8727C38.4473 27.0145 39.9745 24.7236 41.8727 24.7236C43.7709 24.7236 45.2982 27.0145 45.2982 29.8727C45.2982 32.7091 43.7709 35 41.8727 35Z" fill="#C3CCD7"/>
</svg>
