<svg width="70" height="70" viewBox="0 0 70 70" fill="none" xmlns="http://www.w3.org/2000/svg">
<path d="M35 11C21.7345 11 11 21.7345 11 35C11 48.2655 21.7345 59 35 59C48.2436 59 59 48.2655 59 35C59 21.7345 48.2436 11 35 11ZM24.7018 29.8509C24.7018 27.0145 26.2509 24.7236 28.1273 24.7236C30.0255 24.7236 31.5745 27.0145 31.5745 29.8509C31.5745 32.6873 30.0255 35 28.1273 35C26.2509 35 24.7018 32.6873 24.7018 29.8509ZM41.8509 42.7236H28.1273C27.6691 42.7236 27.2764 42.3309 27.2764 41.8509C27.2764 41.3927 27.6691 41 28.1273 41H41.8509C42.3309 41 42.7018 41.3927 42.7018 41.8509C42.7018 42.3309 42.3309 42.7236 41.8509 42.7236ZM41.8509 35C39.9527 35 38.4255 32.6873 38.4255 29.8509C38.4255 27.0145 39.9527 24.7236 41.8509 24.7236C43.7491 24.7236 45.2764 27.0145 45.2764 29.8509C45.2764 32.6873 43.7491 35 41.8509 35Z" fill="#C3CCD7"/>
</svg>
