<svg width="70" height="70" viewBox="0 0 70 70" fill="none" xmlns="http://www.w3.org/2000/svg">
<path d="M35 11C21.7564 11 11 21.7345 11 35C11 48.2436 21.7564 59 35 59C48.2655 59 59 48.2436 59 35C59 21.7345 48.2655 11 35 11ZM28.1491 36.2873C26.2509 36.2873 24.7236 33.9745 24.7236 31.1382C24.7236 28.3018 26.2509 25.9891 28.1491 25.9891C30.0473 25.9891 31.5745 28.3018 31.5745 31.1382C31.5745 33.9745 30.0473 36.2873 28.1491 36.2873ZM38.7527 43.9891C38.2727 43.9891 37.9018 43.6182 37.9018 43.1382C37.9018 41.6327 36.68 40.4109 35.1745 40.4109C33.6691 40.4109 32.4473 41.6327 32.4473 43.1382C32.4473 43.6182 32.0545 43.9891 31.5745 43.9891C31.1164 43.9891 30.7236 43.6182 30.7236 43.1382C30.7236 40.6727 32.7091 38.6873 35.1745 38.6873C37.6182 38.6873 39.6036 40.6727 39.6036 43.1382C39.6036 43.6182 39.2327 43.9891 38.7527 43.9891ZM41.8727 36.2873C39.9745 36.2873 38.4473 33.9745 38.4473 31.1382C38.4473 28.3018 39.9745 25.9891 41.8727 25.9891C43.7709 25.9891 45.2982 28.3018 45.2982 31.1382C45.2982 33.9745 43.7709 36.2873 41.8727 36.2873Z" fill="#C3CCD7"/>
</svg>
