<svg width="70" height="70" viewBox="0 0 70 70" fill="none" xmlns="http://www.w3.org/2000/svg">
<path d="M35 11C21.7345 11 11 21.7345 11 35C11 48.2436 21.7345 59 35 59C48.2436 59 59 48.2436 59 35C59 21.7345 48.2436 11 35 11ZM23.8291 30.8109L22.1709 29.2182C21.08 28.28 20.9709 26.6436 21.9309 25.5527C22.0182 25.4654 22.1055 25.3564 22.1927 25.2691C23.2836 24.4618 24.7891 24.5273 25.7709 25.4655C26.84 24.4618 28.4982 24.4618 29.5673 25.4655C30.0691 25.9236 30.3527 26.5782 30.3527 27.2545C30.3527 27.9309 30.0691 28.5855 29.5673 29.0436L27.7127 30.8109C26.6218 31.8145 24.92 31.8145 23.8291 30.8109ZM35 42.7018C30.7455 42.7018 27.2764 39.2545 27.2764 35C27.2764 34.52 27.6691 34.1491 28.1273 34.1491C28.6073 34.1491 29 34.52 29 35C29 38.3164 31.6836 41 35 41C38.3164 41 41 38.3164 41 35C41 34.52 41.3709 34.1491 41.8509 34.1491C42.3309 34.1491 42.7018 34.52 42.7018 35C42.7018 39.2545 39.2545 42.7018 35 42.7018ZM47.9164 29.0436L46.0836 30.8109C44.9927 31.8145 43.2909 31.8145 42.2 30.8109L40.52 29.2182C39.4509 28.28 39.3418 26.6436 40.28 25.5527C40.3673 25.4654 40.4545 25.3564 40.5636 25.2691C41.6327 24.4618 43.1382 24.5273 44.1418 25.4655C45.2109 24.4618 46.8473 24.4618 47.9164 25.4655C48.4182 25.9236 48.7018 26.5782 48.7018 27.2545C48.7018 27.9309 48.4182 28.5855 47.9164 29.0436Z" fill="#C3CCD7"/>
</svg>
