<svg width="100" height="100" viewBox="0 0 70 70" fill="none" xmlns="http://www.w3.org/2000/svg">
<path d="M35 59C48.2548 59 59 48.2548 59 35C59 21.7452 48.2548 11 35 11C21.7452 11 11 21.7452 11 35C11 48.2548 21.7452 59 35 59Z" fill="#F4BC1E"/>
<path d="M35 59C48.2548 59 59 48.2548 59 35C59 21.7452 48.2548 11 35 11C21.7452 11 11 21.7452 11 35C11 48.2548 21.7452 59 35 59Z" fill="url(#paint0_linear_43105_12860)"/>
<path d="M35 59C48.2548 59 59 48.2548 59 35C59 21.7452 48.2548 11 35 11C21.7452 11 11 21.7452 11 35C11 48.2548 21.7452 59 35 59Z" fill="url(#paint1_linear_43105_12860)"/>
<path d="M45.6678 27.1672L44.8387 27.5817C45.1224 27.9963 45.2751 28.4763 45.2751 28.9781C45.2751 30.3963 44.1187 31.5308 42.7006 31.5526C41.6096 31.5526 40.6497 30.8545 40.3006 29.829L38.7951 30.5926C38.686 30.6581 38.5551 30.7017 38.4242 30.7017C38.0969 30.7017 37.8133 30.5272 37.6606 30.2217C37.4424 29.8508 37.5733 29.349 37.9442 29.1308C37.966 29.109 38.0097 29.109 38.0315 29.0872L44.8824 25.6617C45.2751 25.4435 45.7769 25.5963 45.9951 26.0108C45.9951 26.0326 46.0169 26.0326 46.0169 26.0545C46.2351 26.4254 46.1042 26.9272 45.7333 27.1454C45.7115 27.1454 45.6897 27.1672 45.6678 27.1672Z" fill="#1E1E1E"/>
<path d="M32.3165 30.221C32.1856 30.5264 31.8802 30.701 31.5529 30.701C31.422 30.701 31.2911 30.6574 31.182 30.5919L29.6765 29.8283C29.3274 30.8537 28.3674 31.5301 27.2765 31.5519C25.8583 31.5519 24.7238 30.3955 24.702 28.9774C24.702 28.4755 24.8547 27.9955 25.1383 27.581L24.3092 27.1664C23.8947 26.9701 23.7202 26.4683 23.9165 26.0319C24.1129 25.6174 24.6147 25.4428 25.0511 25.6392C25.0511 25.6392 25.0729 25.6392 25.0729 25.661L31.9238 29.0865C32.3383 29.261 32.5129 29.7192 32.3383 30.1337C32.3602 30.1774 32.3383 30.1992 32.3165 30.221Z" fill="#1E1E1E"/>
<path d="M41.8496 44.4261C41.3696 44.4261 40.9987 44.0334 40.9987 43.5752C40.9987 40.2588 38.3151 37.5752 34.9987 37.5752C31.6823 37.5752 28.9987 40.2588 28.9987 43.5752C28.9987 44.0552 28.606 44.4261 28.1478 44.4261C27.6896 44.4261 27.2969 44.0334 27.2969 43.5752C27.2969 39.3207 30.7441 35.8516 35.0205 35.8516C39.2969 35.8516 42.7441 39.2988 42.7441 43.5752C42.7223 44.0334 42.3296 44.4261 41.8496 44.4261Z" fill="#1E1E1E"/>
<defs>
<linearGradient id="paint0_linear_43105_12860" x1="18.068" y1="18.0589" x2="52.0089" y2="51.9998" gradientUnits="userSpaceOnUse">
<stop offset="0.0219" stop-color="#F4BC1E" stop-opacity="0"/>
<stop offset="0.0823" stop-color="#F4B71C" stop-opacity="0.082"/>
<stop offset="0.2379" stop-color="#F3AA19" stop-opacity="0.269"/>
<stop offset="0.3945" stop-color="#F2A016" stop-opacity="0.424"/>
<stop offset="0.5497" stop-color="#F29713" stop-opacity="0.545"/>
<stop offset="0.7033" stop-color="#F19211" stop-opacity="0.631"/>
<stop offset="0.8543" stop-color="#F18E10" stop-opacity="0.683"/>
<stop offset="1" stop-color="#F18D10" stop-opacity="0.7"/>
</linearGradient>
<linearGradient id="paint1_linear_43105_12860" x1="23.0344" y1="14.2422" x2="47.0378" y2="55.8165" gradientUnits="userSpaceOnUse">
<stop stop-color="#FFFFC5" stop-opacity="0.6"/>
<stop offset="0.0135" stop-color="#FFFDC1" stop-opacity="0.584"/>
<stop offset="0.1808" stop-color="#FBE98F" stop-opacity="0.407"/>
<stop offset="0.3491" stop-color="#F9D966" stop-opacity="0.26"/>
<stop offset="0.516" stop-color="#F7CC47" stop-opacity="0.147"/>
<stop offset="0.681" stop-color="#F5C330" stop-opacity="0.065"/>
<stop offset="0.8433" stop-color="#F4BE23" stop-opacity="0.016"/>
<stop offset="1" stop-color="#F4BC1E" stop-opacity="0"/>
</linearGradient>
</defs>
</svg>
