<svg width="40" height="40" viewBox="0 0 40 40" fill="none" xmlns="http://www.w3.org/2000/svg">
<path d="M34.167 16.9833H29.3503C25.4003 16.9833 22.1837 13.7667 22.1837 9.81668V5.00001C22.1837 4.08334 21.4337 3.33334 20.517 3.33334H13.4503C8.31699 3.33334 4.16699 6.66668 4.16699 12.6167V27.3833C4.16699 33.3333 8.31699 36.6667 13.4503 36.6667H26.5503C31.6837 36.6667 35.8337 33.3333 35.8337 27.3833V18.65C35.8337 17.7333 35.0837 16.9833 34.167 16.9833ZM19.217 22.55C18.967 22.8 18.6503 22.9167 18.3337 22.9167C18.017 22.9167 17.7003 22.8 17.4503 22.55L16.2503 21.35V28.3333C16.2503 29.0167 15.6837 29.5833 15.0003 29.5833C14.317 29.5833 13.7503 29.0167 13.7503 28.3333V21.35L12.5503 22.55C12.067 23.0333 11.267 23.0333 10.7837 22.55C10.3003 22.0667 10.3003 21.2667 10.7837 20.7833L14.117 17.45C14.2337 17.35 14.3503 17.2667 14.4837 17.2C14.517 17.1833 14.567 17.1667 14.6003 17.15C14.7003 17.1167 14.8003 17.1 14.917 17.0833C14.967 17.0833 15.0003 17.0833 15.0503 17.0833C15.1837 17.0833 15.317 17.1167 15.4503 17.1667C15.467 17.1667 15.467 17.1667 15.4837 17.1667C15.617 17.2167 15.7503 17.3167 15.8503 17.4167C15.867 17.4333 15.8837 17.4333 15.8837 17.45L19.217 20.7833C19.7003 21.2667 19.7003 22.0667 19.217 22.55Z" fill="#A0A3BD"/>
<path d="M29.0501 14.6833C30.6335 14.7 32.8335 14.7 34.7168 14.7C35.6668 14.7 36.1668 13.5833 35.5001 12.9167C33.1001 10.5 28.8001 6.15001 26.3335 3.68334C25.6501 3.00001 24.4668 3.46668 24.4668 4.41668V10.2333C24.4668 12.6667 26.5335 14.6833 29.0501 14.6833Z" fill="#A0A3BD"/>
</svg>
