<svg width="150" height="51" viewBox="0 0 150 51" fill="none" xmlns="http://www.w3.org/2000/svg">
<g clip-path="url(#clip0_40854_11128)">
<path d="M0 42.098L2.86898 39.9018C3.26459 40.5404 3.83465 41.0357 4.57604 41.3877C5.31743 41.7397 6.04012 41.9204 6.74724 41.9297C7.45436 41.9391 8.07738 41.7802 8.6194 41.45C9.16142 41.1229 9.45113 40.6494 9.48539 40.0295C9.51966 39.3224 9.23618 38.8209 8.63186 38.5187C8.02754 38.2166 7.14286 37.9892 5.97159 37.8334C2.07464 37.2322 0.146408 35.2946 0.180674 32.0207C0.283471 30.3666 0.981247 29.0738 2.274 28.1456C3.56676 27.2141 5.09003 26.75 6.84693 26.75C9.53523 26.75 11.5943 27.8278 13.0241 29.9803L9.89658 32.0737C9.13962 30.918 8.12099 30.3417 6.84693 30.3417C6.07127 30.3417 5.42022 30.4912 4.89689 30.7934C4.37044 31.0955 4.09009 31.5472 4.05582 32.1515V32.1765C4.05582 32.6063 4.21781 32.9646 4.548 33.248C4.87509 33.5315 5.1679 33.7122 5.42645 33.7901C5.685 33.8679 6.17719 33.9832 6.89988 34.1389C7.03694 34.1732 7.13974 34.1981 7.21139 34.2168C8.1241 34.3882 8.9091 34.5906 9.56327 34.8243C10.2174 35.0579 10.8591 35.3943 11.4884 35.8335C12.1176 36.2728 12.5911 36.8677 12.9089 37.6154C13.2266 38.3661 13.3605 39.257 13.3107 40.2912C13.1549 41.9266 12.4011 43.2194 11.0492 44.1664C9.69722 45.1133 8.13345 45.5868 6.35786 45.5868C5.13364 45.5868 3.95925 45.2909 2.8316 44.6959C1.70394 44.1009 0.760077 43.235 0.00311507 42.098H0Z" fill="#292561"/>
<path d="M21.6506 42.2024V45.1492C19.8251 45.7535 18.3081 45.657 17.1026 44.8657C15.897 44.0745 15.302 42.6603 15.3207 40.6261V28.9727H18.6289L18.8875 31.9444H21.2643V35.2277H18.8875V40.6043C18.8875 41.3613 19.1087 41.8659 19.5479 42.1151C19.9871 42.3643 20.688 42.3955 21.6537 42.2055L21.6506 42.2024Z" fill="#292561"/>
<path d="M34.2362 31.9414V44.6042C32.4108 45.2583 30.7224 45.5854 29.1711 45.5854C27.517 45.5854 26.1651 45.1991 25.1153 44.4235C24.0655 43.6478 23.5391 42.3831 23.5391 40.6231V31.9414H27.1307V40.4175C27.1307 41.1589 27.3426 41.7103 27.7631 42.0716C28.1836 42.433 28.7225 42.6136 29.3767 42.6136C29.8253 42.6136 30.2552 42.5358 30.6695 42.38V31.9414H34.2362Z" fill="#292561"/>
<path d="M47.3922 27.0578V44.577C45.6353 45.2498 43.894 45.5831 42.1714 45.5831C40.6201 45.5831 39.3366 45.2187 38.3211 44.4835C37.3056 43.7515 36.7356 42.5771 36.6172 40.9572V36.2286C36.6172 34.8673 37.1125 33.7739 38.1031 32.9453C39.0937 32.1198 40.2525 31.6961 41.5795 31.6806C42.3707 31.6806 43.1028 31.8363 43.7756 32.1447V27.0547H47.3922V27.0578ZM43.7756 42.6394V34.886C43.38 34.6617 42.919 34.5464 42.3925 34.5371C41.8661 34.5277 41.3832 34.6586 40.944 34.9234C40.5048 35.1881 40.2587 35.5651 40.2089 36.0479V41.2937C40.2244 41.7921 40.4487 42.1939 40.8817 42.4961C41.3116 42.7983 41.7913 42.9384 42.3147 42.9229C42.8411 42.9073 43.3271 42.8107 43.7756 42.6394Z" fill="#292561"/>
<path d="M57.4957 41.3465L59.8476 43.0536C59.3647 43.9321 58.6919 44.5738 57.8321 44.9787C56.9692 45.3837 56.0846 45.5862 55.1719 45.5862C53.7078 45.5862 52.4399 45.1687 51.3746 44.3339C50.3061 43.4991 49.7734 42.3309 49.7734 40.8326V36.4123C49.7734 34.8952 50.3123 33.7302 51.387 32.9109C52.4649 32.0948 53.742 31.6836 55.2248 31.6836C56.7076 31.6836 57.8944 32.0667 58.8944 32.8331C59.8943 33.5994 60.3927 34.7395 60.3927 36.2565V40.1846H53.39V40.7796C53.39 41.2811 53.5863 41.6674 53.985 41.9415C54.3806 42.2188 54.8541 42.3558 55.4055 42.3558C56.3867 42.3558 57.0845 42.0194 57.4988 41.3465H57.4957ZM57.0035 37.5212V36.3064C57.0035 35.8578 56.8322 35.5151 56.4864 35.2722C56.1406 35.0323 55.7295 34.9108 55.2466 34.9108C54.7638 34.9108 54.3121 35.0354 53.9414 35.2846C53.5707 35.5338 53.3869 35.8827 53.3869 36.3313V37.5212H57.0035Z" fill="#292561"/>
<path d="M62.6125 45.3276V32.8455C64.1981 32.0699 65.8086 31.6836 67.444 31.6836C68.5124 31.6836 69.4688 31.8393 70.3129 32.1477C71.1571 32.4592 71.8643 32.9919 72.4312 33.7489C72.9981 34.5058 73.2847 35.4466 73.2847 36.5649V45.3245H69.718V36.6926C69.718 36.107 69.5186 35.6647 69.123 35.3625C68.7274 35.0603 68.2445 34.9108 67.6745 34.9108C67.1044 34.9108 66.6309 35.0323 66.2011 35.2722V45.3245H62.6094L62.6125 45.3276Z" fill="#292561"/>
<path d="M82.1974 42.2024V45.1492C80.372 45.7535 78.855 45.657 77.6494 44.8657C76.4439 44.0745 75.8489 42.6603 75.8676 40.6261V28.9727H79.1758L79.4344 31.9444H81.8112V35.2277H79.4344V40.6043C79.4344 41.3613 79.6555 41.8659 80.0948 42.1151C80.534 42.3643 81.2349 42.3955 82.2006 42.2055L82.1974 42.2024Z" fill="#292561"/>
<path d="M93.1566 37.8312V45.3261H89.3594V27.0312H93.1566V34.2925H99.9008V27.0312H103.698V45.3261H99.9008V37.8312H93.1566Z" fill="#292561"/>
<path d="M114.058 41.3465L116.41 43.0536C115.927 43.9321 115.254 44.5738 114.395 44.9787C113.532 45.3837 112.647 45.5862 111.734 45.5862C110.27 45.5862 109.002 45.1687 107.937 44.3339C106.869 43.4991 106.336 42.3309 106.336 40.8326V36.4123C106.336 34.8952 106.875 33.7302 107.95 32.9109C109.027 32.0948 110.305 31.6836 111.787 31.6836C113.27 31.6836 114.457 32.0667 115.457 32.8331C116.457 33.5994 116.955 34.7395 116.955 36.2565V40.1846H109.953V40.7796C109.953 41.2811 110.149 41.6674 110.548 41.9415C110.943 42.2188 111.417 42.3558 111.968 42.3558C112.949 42.3558 113.647 42.0194 114.061 41.3465H114.058ZM113.566 37.5212V36.3064C113.566 35.8578 113.395 35.5151 113.049 35.2722C112.703 35.0323 112.292 34.9108 111.809 34.9108C111.326 34.9108 110.875 35.0354 110.504 35.2846C110.133 35.5338 109.949 35.8827 109.949 36.3313V37.5212H113.566Z" fill="#292561"/>
<path d="M124.808 42.4571V45.5317C124.463 45.5659 124.213 45.5846 124.058 45.5846C122.403 45.5846 121.157 45.1236 120.323 44.2015C119.488 43.2795 119.07 42.0864 119.07 40.6223V27.0312H122.662V40.6223C122.662 41.155 122.843 41.5942 123.204 41.94C123.565 42.2858 124.098 42.4571 124.805 42.4571H124.808Z" fill="#292561"/>
<path d="M126.336 50.237V32.6898C128.093 32.0169 129.834 31.6836 131.557 31.6836C135.261 31.6836 137.111 33.1726 137.111 36.1537V41.0382C137.111 42.5209 136.625 43.6455 135.65 44.4087C134.678 45.175 133.501 45.5675 132.124 45.5862C131.348 45.5862 130.625 45.4304 129.953 45.122V50.2401H126.336V50.237ZM129.953 34.7332V42.5116C130.314 42.7172 130.781 42.82 131.348 42.82C131.968 42.82 132.485 42.6704 132.899 42.3683C133.314 42.0661 133.519 41.6238 133.519 41.0382V35.973C133.519 35.4559 133.32 35.0697 132.924 34.8111C132.529 34.5526 132.021 34.4249 131.401 34.4249C130.85 34.4249 130.367 34.5277 129.953 34.7364V34.7332Z" fill="#292561"/>
<path d="M113.496 9.38571C113.082 9.38571 112.714 9.51343 112.394 9.77198C112.073 10.0274 111.911 10.3545 111.911 10.7408V14.13C111.911 14.5816 112.076 14.9212 112.409 15.1486C112.739 15.376 113.126 15.4881 113.568 15.4881C113.932 15.4881 114.247 15.4134 114.512 15.2638V9.65049C114.222 9.47293 113.883 9.38571 113.493 9.38571H113.496ZM132.296 13.1518C131.816 13.1518 131.458 13.2577 131.212 13.4727C130.966 13.6876 130.844 13.9742 130.844 14.3387C130.844 15.105 131.352 15.4881 132.371 15.4881C132.772 15.4881 133.143 15.4445 133.479 15.3573V13.3792C133.078 13.2297 132.682 13.1549 132.293 13.1549L132.296 13.1518ZM132.296 13.1518C131.816 13.1518 131.458 13.2577 131.212 13.4727C130.966 13.6876 130.844 13.9742 130.844 14.3387C130.844 15.105 131.352 15.4881 132.371 15.4881C132.772 15.4881 133.143 15.4445 133.479 15.3573V13.3792C133.078 13.2297 132.682 13.1549 132.293 13.1549L132.296 13.1518ZM147.725 0H96.9615C95.7061 0 94.6875 1.01863 94.6875 2.274V19.0393C94.6875 20.2947 95.7061 21.3133 96.9615 21.3133H107.475L113.898 27.7366C114.119 27.9578 114.484 27.8176 114.515 27.5216V17.1672C114.026 17.3914 113.509 17.5067 112.97 17.5067C111.876 17.5067 110.992 17.2108 110.313 16.622C109.634 16.0302 109.294 15.2233 109.294 14.1923V10.9713C109.294 9.79067 109.687 8.89664 110.472 8.28609C111.257 7.67865 112.213 7.37337 113.344 7.37337C114.599 7.37337 115.867 7.61946 117.147 8.10853V21.3164H147.722C148.98 21.3164 149.996 20.2978 149.996 19.0424V2.274C149.996 1.01551 148.977 0 147.722 0H147.725ZM108.014 13.644C107.902 14.8371 107.35 15.7778 106.366 16.4694C105.382 17.1609 104.241 17.5036 102.949 17.5036C102.058 17.5036 101.198 17.2886 100.376 16.8556C99.5532 16.4227 98.8648 15.7903 98.3134 14.9617L100.404 13.3605C100.693 13.8247 101.105 14.186 101.647 14.4446C102.189 14.7 102.715 14.834 103.229 14.8402C103.743 14.8464 104.198 14.7312 104.593 14.4913C104.992 14.2514 105.201 13.9088 105.226 13.4571C105.251 12.9431 105.045 12.5724 104.606 12.3544C104.167 12.1363 103.519 11.9681 102.665 11.856C99.8274 11.4167 98.4225 10.0056 98.4474 7.61946C98.5222 6.41393 99.0299 5.47006 99.9738 4.79409C100.918 4.11501 102.027 3.77547 103.307 3.77547C105.266 3.77547 106.768 4.55735 107.811 6.13046L105.531 7.65684C104.98 6.81577 104.235 6.39524 103.307 6.39524C102.74 6.39524 102.266 6.50427 101.886 6.72544C101.503 6.94661 101.298 7.27369 101.273 7.71291V7.73472C101.273 8.04934 101.394 8.30789 101.631 8.5166C101.871 8.7222 102.083 8.85615 102.273 8.91222C102.463 8.96829 102.818 9.05239 103.347 9.16765C103.447 9.19257 103.522 9.21438 103.572 9.22372C104.238 9.34833 104.808 9.49473 105.285 9.66606C105.762 9.83739 106.229 10.0804 106.69 10.4012C107.148 10.7221 107.494 11.152 107.724 11.7002C107.958 12.2453 108.054 12.8964 108.017 13.6502L108.014 13.644ZM126.869 16.7902C125.536 17.2668 124.309 17.5067 123.178 17.5067C121.972 17.5067 120.988 17.2263 120.219 16.6594C119.452 16.0956 119.069 15.1704 119.069 13.8901V7.56028H121.686V13.7375C121.686 14.2764 121.842 14.6813 122.15 14.943C122.455 15.2078 122.851 15.3386 123.327 15.3386C123.655 15.3386 123.969 15.2825 124.271 15.1673V7.56028H126.872V16.7902H126.869ZM136.081 16.7902C134.813 17.2668 133.589 17.5067 132.408 17.5067C131.065 17.5067 130.056 17.2357 129.377 16.6874C128.698 16.1423 128.358 15.3853 128.358 14.4197C128.358 13.3637 128.695 12.5693 129.368 12.0366C130.04 11.504 130.857 11.2361 131.825 11.2361C132.405 11.2361 132.981 11.3357 133.557 11.5351V10.8373C133.557 9.93396 133.056 9.48228 132.053 9.48228C131.701 9.48228 131.33 9.5695 130.941 9.74706C130.551 9.92461 130.24 10.1364 130 10.3888L128.72 9.01501C129.648 7.94655 130.822 7.40141 132.243 7.37649C133.311 7.37649 134.215 7.67553 134.965 8.27051C135.71 8.86861 136.084 9.72525 136.084 10.8404V16.7933L136.081 16.7902ZM145.575 16.7715C144.295 17.2606 143.024 17.5036 141.769 17.5036C140.638 17.5036 139.703 17.2388 138.962 16.703C138.221 16.1703 137.806 15.3137 137.719 14.1331V10.6847C137.719 9.69098 138.08 8.89664 138.803 8.29232C139.526 7.68799 140.37 7.38272 141.336 7.36714C141.915 7.36714 142.448 7.47928 142.94 7.70668V3.99975H145.575V16.7715ZM140.875 9.7346C140.554 9.93084 140.376 10.2019 140.339 10.5539V14.3792C140.351 14.7436 140.513 15.0364 140.828 15.2545C141.143 15.4757 141.488 15.5785 141.871 15.566C142.255 15.5535 142.61 15.485 142.937 15.3573V9.70656C142.647 9.54146 142.311 9.46047 141.928 9.45112C141.544 9.44489 141.192 9.53835 140.872 9.73148L140.875 9.7346ZM131.212 13.4758C130.966 13.6907 130.844 13.9773 130.844 14.3418C130.844 15.1081 131.352 15.4912 132.371 15.4912C132.772 15.4912 133.143 15.4476 133.479 15.3604V13.3823C133.078 13.2328 132.682 13.1581 132.293 13.1581C131.813 13.1581 131.455 13.264 131.209 13.4789L131.212 13.4758ZM113.496 9.38882C113.082 9.38882 112.714 9.51654 112.394 9.77509C112.073 10.0305 111.911 10.3576 111.911 10.7439V14.1331C111.911 14.5848 112.076 14.9243 112.409 15.1517C112.739 15.3791 113.126 15.4912 113.568 15.4912C113.932 15.4912 114.247 15.4165 114.512 15.267V9.65049C114.222 9.47293 113.883 9.38571 113.493 9.38571L113.496 9.38882Z" fill="#EB4E5D"/>
</g>
<defs>
<clipPath id="clip0_40854_11128">
<rect width="150" height="50.2367" fill="white"/>
</clipPath>
</defs>
</svg>
