<svg width="100" height="100" viewBox="0 0 100 100" fill="none" xmlns="http://www.w3.org/2000/svg">
<path d="M87.8753 29.0833C84.3337 25.1667 78.417 23.2083 69.8337 23.2083H68.8337V23.0417C68.8337 16.0417 68.8337 7.375 53.167 7.375H46.8337C31.167 7.375 31.167 16.0833 31.167 23.0417V23.25H30.167C21.542 23.25 15.667 25.2083 12.1253 29.125C8.00032 33.7083 8.12532 39.875 8.54199 44.0833L8.58365 44.375L9.00032 48.75C9.04199 48.7917 9.12532 48.875 9.20865 48.9167C10.5837 49.8333 12.0003 50.75 13.5003 51.5833C14.0837 51.9583 14.7087 52.2917 15.3337 52.625C22.4587 56.5417 30.292 59.1667 38.2503 60.4583C38.6253 64.375 40.3337 68.9583 49.4587 68.9583C58.5837 68.9583 60.3753 64.4167 60.667 60.375C69.167 59 77.3753 56.0417 84.792 51.7083C85.042 51.5833 85.2087 51.4583 85.417 51.3333C87.3337 50.25 89.1253 49.0833 90.8753 47.7917C90.9587 47.75 91.042 47.6667 91.0837 47.5833L91.2503 46.0833L91.4587 44.125C91.5003 43.875 91.5003 43.6667 91.542 43.375C91.8753 39.1667 91.792 33.4167 87.8753 29.0833ZM54.542 57.625C54.542 62.0417 54.542 62.7083 49.417 62.7083C44.292 62.7083 44.292 61.9167 44.292 57.6667V52.4167H54.542V57.625ZM37.1253 23.2083V23.0417C37.1253 15.9583 37.1253 13.3333 46.8337 13.3333H53.167C62.8753 13.3333 62.8753 16 62.8753 23.0417V23.25H37.1253V23.2083Z" fill="#8686A3"/>
<path opacity="0.4" d="M85.4167 51.25C85.2083 51.375 85 51.5 84.7917 51.625C77.375 55.9583 69.1667 58.875 60.6667 60.2917C60.3333 64.2917 58.5833 68.875 49.4583 68.875C40.3333 68.875 38.5833 64.3333 38.25 60.375C30.2917 59.125 22.4583 56.5 15.3333 52.5417C14.7083 52.2083 14.0833 51.875 13.5 51.5C12 50.6667 10.5833 49.75 9.20833 48.8333C9.125 48.7917 9.04167 48.7083 9 48.6667L11.5417 75.7917C12.4167 84.0833 15.8333 92.625 34.1667 92.625H65.9167C84.25 92.625 87.6667 84.0833 88.5417 75.75L91.1667 47.5C91.125 47.5833 91.0417 47.6667 90.9583 47.7083C89.1667 49 87.3333 50.2083 85.4167 51.25Z" fill="#8686A3"/>
</svg>
