<svg width="100" height="100" viewBox="0 0 100 100" fill="none" xmlns="http://www.w3.org/2000/svg">
<path opacity="0.4" d="M76.5827 53.5V74.0417C76.5827 79.3333 72.4577 85 67.4994 86.6667L54.2077 91.0833C51.8743 91.875 48.0827 91.875 45.791 91.0833L32.4993 86.6667C27.4994 85 23.416 79.3333 23.416 74.0417L23.4577 53.5L41.8743 65.5C46.3743 68.4583 53.791 68.4583 58.291 65.5L76.5827 53.5Z" fill="#8686A3"/>
<path d="M83.2494 26.918L58.291 10.543C53.791 7.58464 46.3744 7.58464 41.8743 10.543L16.791 26.918C8.74935 32.1263 8.74935 43.918 16.791 49.168L23.4577 53.5013L41.8743 65.5013C46.3744 68.4596 53.791 68.4596 58.291 65.5013L76.5827 53.5013L82.291 49.7513V62.5013C82.291 64.2096 83.7077 65.6263 85.416 65.6263C87.1244 65.6263 88.541 64.2096 88.541 62.5013V42.0013C90.2077 36.6263 88.4994 30.3763 83.2494 26.918Z" fill="#8686A3"/>
</svg>
