<svg width="156" height="156" viewBox="0 0 156 156" fill="none" xmlns="http://www.w3.org/2000/svg">
<g clip-path="url(#clip0_29697_533010)">
<rect width="150" height="150" fill="#8686A3"/>
<path d="M62.5 65C62.5 58.0964 68.0964 52.5 75 52.5C81.9036 52.5 87.5 58.0964 87.5 65C87.5 71.9036 81.9036 77.5 75 77.5C68.0964 77.5 62.5 71.9036 62.5 65Z" fill="white"/>
<path fill-rule="evenodd" clip-rule="evenodd" d="M75 37.5C54.2893 37.5 37.5 54.2893 37.5 75C37.5 95.7107 54.2893 112.5 75 112.5C95.7107 112.5 112.5 95.7107 112.5 75C112.5 54.2893 95.7107 37.5 75 37.5ZM42.5 75C42.5 57.0507 57.0507 42.5 75 42.5C92.9493 42.5 107.5 57.0507 107.5 75C107.5 84.2478 103.637 92.5935 97.4377 98.5118C96.6827 89.543 89.1638 82.5 80 82.5H70C60.8362 82.5 53.3173 89.543 52.5623 98.5118C46.3625 92.5935 42.5 84.2478 42.5 75Z" fill="white"/>
</g>
<rect x="107.812" y="107.812" width="44.5312" height="44.5312" rx="22.2656" fill="#A0A3BD" stroke="white" stroke-width="7.03125"/>
<path d="M130.078 121.875V138.281M121.875 130.078H138.281" stroke="white" stroke-width="2.34375"/>
<defs>
<clipPath id="clip0_29697_533010">
<rect width="150" height="150" rx="75" fill="white"/>
</clipPath>
</defs>
</svg>
