<svg width="100" height="100" viewBox="0 0 100 100" fill="none" xmlns="http://www.w3.org/2000/svg">
<path opacity="0.4" d="M72.5833 5.74969C71.7083 5.16636 70.625 5.04129 69.6667 5.41629C63.7083 7.79129 57.125 7.79129 51.1667 5.41629C50.2083 5.04129 49.125 5.16636 48.25 5.74969C47.375 6.33303 46.875 7.29134 46.875 8.33301V20.833V33.333C46.875 35.0413 48.2917 36.458 50 36.458C51.7083 36.458 53.125 35.0413 53.125 33.333V25.0831C55.5417 25.6664 57.9583 25.9996 60.4167 25.9996C64.3333 25.9996 68.25 25.2497 72 23.7497C73.1667 23.2914 73.9583 22.1247 73.9583 20.833V8.33301C73.9583 7.29134 73.4583 6.33303 72.5833 5.74969Z" fill="#8686A3"/>
<path d="M91.6673 88.5404H86.459V45.832C86.459 35.7487 80.9173 30.207 70.834 30.207H29.1673C19.084 30.207 13.5423 35.7487 13.5423 45.832V88.5404H8.33398C6.62565 88.5404 5.20898 89.957 5.20898 91.6654C5.20898 93.3737 6.62565 94.7904 8.33398 94.7904H16.6673H83.334H91.6673C93.3756 94.7904 94.7923 93.3737 94.7923 91.6654C94.7923 89.957 93.3756 88.5404 91.6673 88.5404ZM80.209 53.1237V88.5404H69.7506V53.1237H80.209ZM46.834 88.5404H36.4173V53.1237H46.834V88.5404ZM53.084 53.1237H63.5006V88.5404H53.084V53.1237ZM19.7923 53.1237H30.1673V88.5404H19.7923V53.1237Z" fill="#8686A3"/>
</svg>
