<svg width="48" height="48" viewBox="0 0 48 48" fill="none" xmlns="http://www.w3.org/2000/svg">
<rect width="48" height="48" rx="8" fill="#4783FF"/>
<path d="M21.6905 6.47902C22.9551 5.39762 25.0259 5.39762 26.3088 6.47902L29.2044 8.9717C29.7542 9.44825 30.7804 9.83321 31.5135 9.83321H34.629C36.5716 9.83321 38.166 11.4278 38.166 13.3706V16.4864C38.166 17.2013 38.5509 18.246 39.0274 18.7959L41.5198 21.6919C42.601 22.9565 42.601 25.0277 41.5198 26.3107L39.0274 29.2066C38.5509 29.7565 38.166 30.7829 38.166 31.516V34.632C38.166 36.5748 36.5716 38.1694 34.629 38.1694H31.5135C30.7988 38.1694 29.7542 38.5544 29.2044 39.0309L26.3088 41.5236C25.0443 42.605 22.9734 42.605 21.6905 41.5236L18.795 39.0309C18.2452 38.5544 17.2189 38.1694 16.4858 38.1694H13.3153C11.3727 38.1694 9.77835 36.5748 9.77835 34.632V31.4977C9.77835 30.7829 9.39351 29.7565 8.93535 29.2066L6.46126 26.2924C5.39833 25.0277 5.39833 22.9749 6.46126 21.7102L8.93535 18.7959C9.39351 18.246 9.77835 17.2196 9.77835 16.5048V13.3706C9.77835 11.4278 11.3727 9.83321 13.3153 9.83321H16.4858C17.2006 9.83321 18.2452 9.44825 18.795 8.9717L21.6905 6.47902Z" fill="white"/>
<path d="M32.0344 22.3351C31.7018 21.8478 31.1415 21.5771 30.4762 21.5771H27.062C26.8344 21.5771 26.6243 21.4868 26.4843 21.3063C26.3442 21.1258 26.2742 20.8911 26.3092 20.6384L26.7294 17.8227C26.9044 16.9924 26.3617 16.0357 25.5563 15.765C24.8035 15.4762 23.9105 15.8733 23.5603 16.4147L20.1637 21.6131V20.9633C20.1637 19.6998 19.6385 19.1764 18.3429 19.1764H17.4849C16.1893 19.1764 15.6641 19.6998 15.6641 20.9633V29.5912C15.6641 30.8546 16.1893 31.3781 17.4849 31.3781H18.3429C19.5684 31.3781 20.0937 30.8907 20.1462 29.7355L22.72 31.7751C23.0701 32.1361 23.858 32.3346 24.4183 32.3346H27.6573C28.7779 32.3346 29.8984 31.4682 30.1435 30.4033L32.192 23.9776C32.4197 23.4 32.3671 22.8044 32.0344 22.3351Z" fill="#4783FF"/>
</svg>
