<svg width="24" height="24" viewBox="0 0 24 24" fill="none" xmlns="http://www.w3.org/2000/svg">
<g clip-path="url(#clip0_36106_437804)">
<path d="M1.96453 16.2051C1.39734 16.2051 0.9375 16.6649 0.9375 17.2321V18.1391C0.9375 20.3741 2.58 22.2327 4.72172 22.5712V23.6746C4.72172 23.8551 4.86797 24.0009 5.04797 24.0009H5.80172C5.98219 24.0009 6.12797 23.8546 6.12797 23.6746V22.6265H17.8702V23.6746C17.8702 23.8551 18.0164 24.0009 18.1964 24.0009H18.9502C19.1306 24.0009 19.2764 23.8546 19.2764 23.6746V22.5712C21.4177 22.2327 23.0606 20.3741 23.0606 18.1391V17.2321C23.0606 16.6649 22.6008 16.2051 22.0336 16.2051H1.96453Z" fill="#6E7191"/>
<path d="M2.34469 11.4945V3.91105C2.34469 2.54745 3.46031 1.39761 4.82438 1.40652C6.075 1.41449 7.10719 2.35949 7.25344 3.57355C5.78906 3.90355 4.69172 5.21371 4.69172 6.77605V7.05496C4.69172 7.4187 4.98656 7.71402 5.35078 7.71402H10.5998C10.9636 7.71402 11.2589 7.41917 11.2589 7.05496V6.77605C11.2589 5.20246 10.1456 3.88433 8.66578 3.56605C8.50781 1.55886 6.81375 -0.0236389 4.76156 0.000267315C2.63438 0.0255798 0.937969 1.79089 0.937969 3.91761V11.5142C0.937969 11.7734 0.727969 11.9834 0.46875 11.9834C0.21 11.9834 0 12.1934 0 12.4526V14.329C0 14.5882 0.21 14.7982 0.469219 14.7982H23.5303C23.7895 14.7982 23.9995 14.5882 23.9995 14.329V12.4526C23.9995 12.1934 23.7895 11.9834 23.5303 11.9834H2.83312C2.56312 11.9834 2.34422 11.7645 2.34422 11.4945H2.34469Z" fill="#6E7191"/>
</g>
<defs>
<clipPath id="clip0_36106_437804">
<rect width="24" height="24" fill="white"/>
</clipPath>
</defs>
</svg>
