<svg width="24" height="24" viewBox="0 0 24 24" fill="none" xmlns="http://www.w3.org/2000/svg">
<path d="M2.8125 13.3558V4.48797C2.8125 4.21844 2.59406 4 2.32453 4H0.487969C0.218437 4 0 4.21844 0 4.48797V20.387C0 20.6566 0.218437 20.875 0.487969 20.875H2.32453C2.59406 20.875 2.8125 20.6566 2.8125 20.387V18.5505C2.8125 18.2809 3.03094 18.0625 3.30047 18.0625H20.6995C20.9691 18.0625 21.1875 18.2809 21.1875 18.5505V20.387C21.1875 20.6566 21.4059 20.875 21.6755 20.875H23.512C23.7816 20.875 24 20.6566 24 20.387V14.3317C24 14.0622 23.7816 13.8438 23.512 13.8438H3.30047C3.03094 13.8438 2.8125 13.6253 2.8125 13.3558Z" fill="#6E7191"/>
<path d="M6.21609 8.22211C5.09016 8.28024 4.21875 9.23462 4.21875 10.362V11.7898C4.21875 12.1474 4.50891 12.4376 4.86656 12.4376H7.78922C8.14688 12.4376 8.43703 12.1474 8.43703 11.7898V10.3282C8.43703 9.12587 7.43156 8.15883 6.21563 8.22165L6.21609 8.22211Z" fill="#6E7191"/>
<path d="M21.8906 8.21875H11.9531C10.7883 8.21875 9.84375 9.16328 9.84375 10.3281V11.7897C9.84375 12.1473 10.1339 12.4375 10.4916 12.4375H23.3522C23.7098 12.4375 24 12.1473 24 11.7897V10.3281C24 9.16328 23.0555 8.21875 21.8906 8.21875Z" fill="#6E7191"/>
</svg>
