<svg width="24" height="24" viewBox="0 0 24 24" fill="none" xmlns="http://www.w3.org/2000/svg">
<path d="M15.5 12.9V17.1C15.5 18.8007 15.1568 19.8611 14.5089 20.5089C13.8611 21.1568 12.8007 21.5 11.1 21.5H6.9C5.19931 21.5 4.13891 21.1568 3.49105 20.5089C2.8432 19.8611 2.5 18.8007 2.5 17.1V12.9C2.5 11.1993 2.8432 10.1389 3.49105 9.49105C4.13891 8.8432 5.19931 8.5 6.9 8.5H11.1C12.8007 8.5 13.8611 8.8432 14.5089 9.49105C15.1568 10.1389 15.5 11.1993 15.5 12.9Z" fill="#A0A3BD" stroke="#A0A3BD"/>
<path opacity="0.4" d="M17.0998 2H12.8998C9.44976 2 8.04977 3.37 8.00977 6.75H11.0998C15.2998 6.75 17.2498 8.7 17.2498 12.9V15.99C20.6298 15.95 21.9998 14.55 21.9998 11.1V6.9C21.9998 3.4 20.5998 2 17.0998 2Z" fill="#A0A3BD"/>
</svg>
