<svg width="15" height="9" viewBox="0 0 15 9" fill="none" xmlns="http://www.w3.org/2000/svg">
<path d="M7.99628 9.0002C7.86467 9.00096 7.73421 8.97573 7.61237 8.92597C7.49053 8.8762 7.37972 8.80288 7.28628 8.7102L1.28628 2.71019C1.09798 2.52188 0.992188 2.26649 0.992188 2.00019C0.992188 1.73389 1.09798 1.47849 1.28628 1.29019C1.47458 1.10188 1.72998 0.996094 1.99628 0.996094C2.26258 0.996094 2.51797 1.10188 2.70628 1.29019L7.99628 6.59019L13.2863 1.30019C13.4776 1.13636 13.7236 1.05075 13.9753 1.06047C14.227 1.0702 14.4657 1.17453 14.6438 1.35262C14.8219 1.53072 14.9263 1.76946 14.936 2.02113C14.9457 2.27281 14.8601 2.51889 14.6963 2.71019L8.69627 8.7102C8.51001 8.89494 8.25862 8.99909 7.99628 9.0002Z" fill="#A0A3BD"/>
</svg>
