<svg width="24" height="24" viewBox="0 0 24 24" fill="none" xmlns="http://www.w3.org/2000/svg">
<path d="M21 22H3C2.59 22 2.25 21.66 2.25 21.25C2.25 20.84 2.59 20.5 3 20.5H21C21.41 20.5 21.75 20.84 21.75 21.25C21.75 21.66 21.41 22 21 22Z" fill="#A0A3BD"/>
<path d="M19.0225 3.47967C17.0825 1.53967 15.1825 1.48967 13.1925 3.47967L11.9825 4.68967C11.8825 4.78967 11.8425 4.94967 11.8825 5.08967C12.6425 7.73967 14.7625 9.85967 17.4125 10.6197C17.4525 10.6297 17.4925 10.6397 17.5325 10.6397C17.6425 10.6397 17.7425 10.5997 17.8225 10.5197L19.0225 9.30967C20.0125 8.32967 20.4925 7.37967 20.4925 6.41967C20.5025 5.42967 20.0225 4.46967 19.0225 3.47967Z" fill="#A0A3BD"/>
<path d="M15.6084 11.5308C15.3184 11.3908 15.0384 11.2508 14.7684 11.0908C14.5484 10.9608 14.3384 10.8208 14.1284 10.6708C13.9584 10.5608 13.7584 10.4008 13.5684 10.2408C13.5484 10.2308 13.4784 10.1708 13.3984 10.0908C13.0684 9.81078 12.6984 9.45078 12.3684 9.05078C12.3384 9.03078 12.2884 8.96078 12.2184 8.87078C12.1184 8.75078 11.9484 8.55078 11.7984 8.32078C11.6784 8.17078 11.5384 7.95078 11.4084 7.73078C11.2484 7.46078 11.1084 7.19078 10.9684 6.91078C10.8284 6.61078 10.7184 6.32078 10.6184 6.05078L4.33837 12.3308C4.20837 12.4608 4.08837 12.7108 4.05837 12.8808L3.51837 16.7108C3.41837 17.3908 3.60837 18.0308 4.02837 18.4608C4.38837 18.8108 4.88837 19.0008 5.42837 19.0008C5.54837 19.0008 5.66837 18.9908 5.78837 18.9708L9.62837 18.4308C9.80837 18.4008 10.0584 18.2808 10.1784 18.1508L16.4584 11.8708C16.1784 11.7708 15.9084 11.6608 15.6084 11.5308Z" fill="#A0A3BD"/>
</svg>
