<svg width="41" height="40" viewBox="0 0 41 40" fill="none" xmlns="http://www.w3.org/2000/svg">
<path d="M22.3001 27.9402C22.0944 27.9402 21.8888 27.8928 21.699 27.7662L16.7954 24.8402C15.5774 24.1126 14.6758 22.5152 14.6758 21.1075V14.6228C14.6758 13.9743 15.2136 13.4365 15.8621 13.4365C16.5107 13.4365 17.0485 13.9743 17.0485 14.6228V21.1075C17.0485 21.6769 17.523 22.5152 18.0134 22.7999L22.917 25.7259C23.4864 26.0581 23.6604 26.7856 23.3283 27.355C23.091 27.7346 22.6955 27.9402 22.3001 27.9402Z" fill="#363565"/>
<path d="M0.616203 19.2256C0.616203 9.84644 8.2405 2.2229 17.6206 2.2229C27.0007 2.2229 34.625 9.84644 34.625 19.2256C34.625 19.8741 34.0872 20.4118 33.4386 20.4118C32.7901 20.4118 32.2523 19.8741 32.2523 19.2256C32.2523 11.1592 25.6878 4.59537 17.6206 4.59537C9.5534 4.59537 2.98891 11.1592 2.98891 19.2256C2.98891 27.292 9.5534 33.8558 17.6206 33.8558C18.2691 33.8558 18.807 34.3936 18.807 35.0421C18.807 35.6905 18.2691 36.2283 17.6206 36.2283C8.2405 36.2283 0.616202 28.6048 0.616203 19.2256Z" fill="#363565"/>
<path d="M28.9453 37.379L31.717 34.4819C31.9122 34.2727 32.0691 34.0879 32.1876 33.9275C32.3131 33.7602 32.4038 33.6033 32.4596 33.4569C32.5154 33.3035 32.5432 33.1501 32.5432 32.9967C32.5432 32.6899 32.4421 32.4493 32.2399 32.275C32.0447 32.1007 31.7902 32.0135 31.4764 32.0135C31.1557 32.0135 30.8698 32.0972 30.6188 32.2645C30.3747 32.4319 30.1446 32.6969 29.9285 33.0594L28.9558 32.2332C29.2486 31.7381 29.6112 31.3651 30.0435 31.114C30.4828 30.856 30.9848 30.7271 31.5496 30.7271C32.0308 30.7271 32.4491 30.8212 32.8047 31.0094C33.1673 31.1977 33.4462 31.4592 33.6415 31.7939C33.8367 32.1286 33.9343 32.519 33.9343 32.9653C33.9343 33.2651 33.896 33.5371 33.8193 33.7811C33.7495 34.0252 33.6275 34.2692 33.4532 34.5132C33.2858 34.7503 33.0523 35.0188 32.7524 35.3186L30.7338 37.379H28.9453ZM28.9453 38.1949V37.379L30.1586 36.9607H34.0912V38.1949H28.9453Z" fill="#363565"/>
<path d="M34.716 35.601L37.2262 30.8421H38.795L36.2221 35.601H34.716ZM34.716 36.4377V35.601L35.2389 35.1931H40.5103V36.4377H34.716ZM38.1884 38.1949V33.5092H39.5899V38.1949H38.1884Z" fill="#363565"/>
<path d="M39.3202 16.1853L34.7349 20.7702C34.2649 21.2402 33.4854 21.2402 33.0154 20.7702L28.4301 16.1853C27.9601 15.7154 27.9601 14.936 28.4301 14.466C28.9001 13.9961 29.6796 13.9961 30.1496 14.466L33.8752 18.1912L37.6007 14.466C38.0707 13.9961 38.8502 13.9961 39.3202 14.466C39.7902 14.936 39.7902 15.7154 39.3202 16.1853Z" fill="#363565"/>
</svg>
