<svg width="16" height="12" viewBox="0 0 16 12" fill="none" xmlns="http://www.w3.org/2000/svg">
<path fill-rule="evenodd" clip-rule="evenodd" d="M1.25 0.75C0.83579 0.75 0.5 1.08579 0.5 1.5V10.5C0.5 10.9142 0.83579 11.25 1.25 11.25H12.7554C13.0554 11.25 13.3267 11.0712 13.4448 10.7954L15.5 6L13.4448 1.20456C13.3267 0.9288 13.0554 0.75 12.7554 0.75H1.25ZM12.125 7.125C12.7463 7.125 13.25 6.6213 13.25 6C13.25 5.3787 12.7463 4.875 12.125 4.875C11.5037 4.875 11 5.3787 11 6C11 6.6213 11.5037 7.125 12.125 7.125Z" fill="#E76864"/>
<path fill-rule="evenodd" clip-rule="evenodd" d="M1.25 1.5V10.5H12.7554L14.684 6L12.7554 1.5H1.25ZM14 6C14 7.03553 13.1605 7.875 12.125 7.875C11.0895 7.875 10.25 7.03553 10.25 6C10.25 4.96448 11.0895 4.125 12.125 4.125C13.1605 4.125 14 4.96448 14 6ZM0.5 1.5C0.5 1.08579 0.83579 0.75 1.25 0.75H12.7554C13.0554 0.75 13.3267 0.9288 13.4448 1.20456L15.5 6L13.4448 10.7954C13.3267 11.0712 13.0554 11.25 12.7554 11.25H1.25C0.83579 11.25 0.5 10.9142 0.5 10.5V1.5ZM13.25 6C13.25 6.6213 12.7463 7.125 12.125 7.125C11.5037 7.125 11 6.6213 11 6C11 5.3787 11.5037 4.875 12.125 4.875C12.7463 4.875 13.25 5.3787 13.25 6Z" fill="#E76864"/>
</svg>
