<svg width="24" height="20" viewBox="0 0 24 20" fill="none" xmlns="http://www.w3.org/2000/svg">
<path d="M23.0122 5.16548C22.9077 5.16548 22.8005 5.18038 22.6934 5.20997L21.4823 5.54363L20.2245 2.47988C19.8683 1.61185 18.815 0.905762 17.8768 0.905762H6.10627C5.16794 0.905762 4.11472 1.61185 3.75851 2.47988L2.50244 5.53944L1.30648 5.20997C1.19954 5.18048 1.0922 5.16548 0.987815 5.16548C0.415492 5.16548 0 5.60271 0 6.20523V6.91938C0 7.62272 0.572119 8.19484 1.27546 8.19484H1.41239L1.20944 8.68931C0.878432 9.4958 0.609158 10.861 0.609158 11.7326V17.8192C0.609158 18.5226 1.18138 19.0947 1.88461 19.0947H3.55046C4.2538 19.0947 4.82592 18.5226 4.82592 17.8192V16.2992H19.1573V17.8192C19.1573 18.5226 19.7295 19.0947 20.4328 19.0947H22.0985C22.8019 19.0947 23.374 18.5226 23.374 17.8192V11.7326C23.374 10.8611 23.1047 9.4958 22.7736 8.68931L22.5707 8.19484H22.7245C23.4278 8.19484 24 7.62272 24 6.91938V6.20523C24 5.60271 23.5846 5.16548 23.0122 5.16548ZM3.4171 7.50201L5.31957 2.86782C5.53272 2.34866 6.16627 1.92388 6.72747 1.92388H17.2558C17.817 1.92388 18.4505 2.34866 18.6636 2.86782L20.5661 7.50201C20.7792 8.02117 20.4944 8.44595 19.9332 8.44595H4.05003C3.48883 8.44595 3.20405 8.02117 3.4171 7.50201ZM7.66416 13.3636C7.66416 13.6442 7.43458 13.8738 7.15398 13.8738H3.53985C3.25925 13.8738 3.02967 13.6442 3.02967 13.3636V11.6291C3.02967 11.3485 3.25925 11.1189 3.53985 11.1189H7.15398C7.43458 11.1189 7.66416 11.3485 7.66416 11.6291V13.3636ZM20.9193 13.3636C20.9193 13.6442 20.6897 13.8738 20.4091 13.8738H16.7951C16.5145 13.8738 16.2849 13.6442 16.2849 13.3636V11.6291C16.2849 11.3485 16.5145 11.1189 16.7951 11.1189H20.4091C20.6897 11.1189 20.9193 11.3485 20.9193 11.6291V13.3636Z" fill="#A0A3BD"/>
</svg>
