<svg width="24" height="22" viewBox="0 0 24 22" fill="none" xmlns="http://www.w3.org/2000/svg">
<path d="M6.85605 19.1612C6.28812 19.598 5.58614 19.8683 4.81587 19.8683C2.95962 19.8683 1.44915 18.3578 1.44915 16.5016C1.44915 14.6449 2.95962 13.1344 4.81587 13.1344C6.21684 13.1344 7.41837 13.9958 7.92497 15.2157L8.97924 14.1222C8.149 12.6731 6.60557 11.6853 4.81587 11.6853C2.15572 11.6853 0 13.8415 0 16.5016C0 19.1612 2.15572 21.3174 4.81587 21.3174C6.06741 21.3174 7.19665 20.8283 8.05327 20.0452C7.72451 19.9349 7.41266 19.7598 7.14619 19.5032C7.03625 19.397 6.94139 19.281 6.85605 19.1612Z" fill="#A0A3BD"/>
<path d="M14.1679 11.7223L11.6178 10.2411C12.755 9.5293 12.3333 9.79292 13.4706 9.08108L13.4348 9.44338C13.3735 10.06 13.8279 10.6242 14.3999 10.7402C14.4136 10.743 18.8766 11.5015 19.0394 11.5015C19.6191 11.5015 20.131 11.0826 20.229 10.4916C20.3385 9.83351 19.8937 9.2117 19.2356 9.10282L15.95 8.55698L16.1062 6.98905C16.2637 5.98711 16.3321 5.67294 15.958 5.0752L15.4877 4.32329C14.8801 3.35291 13.5989 3.05619 12.6262 3.66519L7.4788 6.888C6.21455 7.67958 5.59801 9.34861 6.63015 10.5764C7.03338 11.0562 10.9539 13.4654 10.9539 13.4654L7.77871 16.7589C7.22301 17.3349 7.23954 18.2524 7.81597 18.8076C8.09713 19.0788 8.45943 19.2137 8.82168 19.2137C9.20148 19.2137 9.58074 19.0656 9.8647 18.7703L14.4829 13.9809C15.1344 13.3068 14.9816 12.1949 14.1679 11.7223Z" fill="#A0A3BD"/>
<path d="M19.5775 5.14332C20.7064 4.43622 21.0484 2.94836 20.3417 1.82C19.6351 0.690671 18.1472 0.348668 17.0185 1.05534C15.89 1.76201 15.548 3.24933 16.2543 4.3777C16.9608 5.50707 18.4487 5.84956 19.5775 5.14332Z" fill="#A0A3BD"/>
<path d="M19.185 11.6855C16.4972 11.6855 14.3691 13.9031 14.3691 16.5018C14.3691 19.1615 16.525 21.3177 19.185 21.3177C21.8446 21.3177 24.0009 19.1615 24.0009 16.5018C24.0009 13.8418 21.8446 11.6855 19.185 11.6855ZM19.185 19.8685C17.3288 19.8685 15.8183 18.3581 15.8183 16.5018C15.8183 14.6452 17.3288 13.1346 19.185 13.1346C21.0413 13.1346 22.5518 14.6452 22.5518 16.5018C22.5518 18.3581 21.0413 19.8685 19.185 19.8685Z" fill="#A0A3BD"/>
</svg>
