<svg width="12" height="24" viewBox="0 0 12 24" fill="none" xmlns="http://www.w3.org/2000/svg">
<path d="M11.42 12.7572L9.0166 10.1059C8.86693 9.94089 8.7293 9.6008 8.72238 9.37783L8.63397 6.62688V6.54717C8.63397 6.12328 8.28901 5.77832 7.86511 5.77832H5.51242H4.5775C4.19871 5.77832 3.7761 6.04665 3.61489 6.3893L0.447733 13.1168C0.360083 13.3033 0.35137 13.5117 0.423129 13.7042C0.494889 13.8964 0.638408 14.0481 0.826777 14.1311L1.29347 14.3369C1.39291 14.3808 1.49901 14.4031 1.60896 14.4031C1.9106 14.4031 2.19149 14.2316 2.32502 13.9663L3.80864 11.0147V13.9815C3.80249 13.9986 3.79352 14.0143 3.78789 14.0317L1.28066 21.8837C1.17635 22.2108 1.20813 22.5549 1.37036 22.8527C1.53258 23.1506 1.80425 23.3638 2.13588 23.4532L2.30349 23.4986C2.41318 23.5283 2.52697 23.5434 2.64127 23.5434C3.21817 23.5434 3.74227 23.1639 3.91603 22.62L6.25872 15.2831L7.0896 17.3183C7.29232 17.8147 7.51118 18.684 7.56757 19.2171L7.96506 22.9642C8.02888 23.5642 8.50326 23.9996 9.09323 23.9996C9.18985 23.9996 9.288 23.9878 9.38462 23.9645L9.55351 23.9235C10.226 23.7608 10.7012 23.0698 10.6127 22.3837L10.0241 17.8147C9.94922 17.2342 9.69883 16.3252 9.46587 15.7883L8.67087 13.9574C8.66062 13.9335 8.64601 13.912 8.63422 13.8889V12.6483L10.0669 14.144C10.2093 14.2929 10.4 14.3749 10.6035 14.3749C10.8093 14.3749 11.0015 14.2913 11.1445 14.1396L11.4095 13.8582C11.693 13.5571 11.6978 13.0635 11.42 12.7572Z" fill="#A0A3BD"/>
<path d="M6.43419 5.12697C7.84786 5.12697 8.9978 3.97702 8.9978 2.56336C8.9978 1.14995 7.84786 0 6.43419 0C5.02078 0 3.87109 1.14995 3.87109 2.56336C3.87084 3.97702 5.02078 5.12697 6.43419 5.12697Z" fill="#A0A3BD"/>
</svg>
