<svg width="30" height="30" viewBox="0 0 30 30" fill="none" xmlns="http://www.w3.org/2000/svg">
<path d="M20.0008 28.4375H10.0008C4.22577 28.4375 3.15077 25.75 2.87577 23.1375L1.93827 13.125C1.80077 11.8125 1.76327 9.87495 3.06327 8.42495C4.18827 7.17495 6.05077 6.57495 8.75077 6.57495H21.2508C23.9633 6.57495 25.8258 7.18745 26.9383 8.42495C28.2383 9.87495 28.2008 11.8125 28.0633 13.1375L27.1258 23.125C26.8508 25.75 25.7758 28.4375 20.0008 28.4375ZM8.75077 8.43745C6.63827 8.43745 5.18827 8.84995 4.45077 9.67495C3.83827 10.35 3.63827 11.3875 3.80077 12.9375L4.73827 22.95C4.95077 24.925 5.48827 26.5625 10.0008 26.5625H20.0008C24.5008 26.5625 25.0508 24.925 25.2633 22.9375L26.2008 12.95C26.3633 11.3875 26.1633 10.35 25.5508 9.67495C24.8133 8.84995 23.3633 8.43745 21.2508 8.43745H8.75077Z" fill="#363565"/>
<path d="M20 8.4375C19.4875 8.4375 19.0625 8.0125 19.0625 7.5V6.5C19.0625 4.275 19.0625 3.4375 16 3.4375H14C10.9375 3.4375 10.9375 4.275 10.9375 6.5V7.5C10.9375 8.0125 10.5125 8.4375 10 8.4375C9.4875 8.4375 9.0625 8.0125 9.0625 7.5V6.5C9.0625 4.3 9.0625 1.5625 14 1.5625H16C20.9375 1.5625 20.9375 4.3 20.9375 6.5V7.5C20.9375 8.0125 20.5125 8.4375 20 8.4375Z" fill="#363565"/>
<path d="M15 20.9375C11.5625 20.9375 11.5625 18.8125 11.5625 17.5375V16.25C11.5625 14.4875 11.9875 14.0625 13.75 14.0625H16.25C18.0125 14.0625 18.4375 14.4875 18.4375 16.25V17.5C18.4375 18.8 18.4375 20.9375 15 20.9375ZM13.4375 15.9375C13.4375 16.0375 13.4375 16.15 13.4375 16.25V17.5375C13.4375 18.825 13.4375 19.0625 15 19.0625C16.5625 19.0625 16.5625 18.8625 16.5625 17.525V16.25C16.5625 16.15 16.5625 16.0375 16.5625 15.9375C16.4625 15.9375 16.35 15.9375 16.25 15.9375H13.75C13.65 15.9375 13.5375 15.9375 13.4375 15.9375Z" fill="#363565"/>
<path d="M17.5004 18.4626C17.0379 18.4626 16.6254 18.1126 16.5754 17.6376C16.5129 17.1251 16.8754 16.6501 17.3879 16.5876C20.6879 16.1751 23.8504 14.9251 26.5129 12.9876C26.9254 12.6751 27.5129 12.7751 27.8254 13.2001C28.1254 13.6126 28.0379 14.2001 27.6129 14.5126C24.6879 16.6376 21.2379 18.0001 17.6129 18.4626C17.5754 18.4626 17.5379 18.4626 17.5004 18.4626Z" fill="#363565"/>
<path d="M12.4999 18.4751C12.4624 18.4751 12.4249 18.4751 12.3874 18.4751C8.96243 18.0876 5.62493 16.8376 2.73743 14.8626C2.31243 14.5751 2.19993 13.9876 2.48743 13.5626C2.77493 13.1376 3.36243 13.0251 3.78743 13.3126C6.42493 15.1126 9.46243 16.2501 12.5874 16.6126C13.0999 16.6751 13.4749 17.1376 13.4124 17.6501C13.3749 18.1251 12.9749 18.4751 12.4999 18.4751Z" fill="#363565"/>
</svg>
