<svg width="30" height="30" viewBox="0 0 30 30" fill="none" xmlns="http://www.w3.org/2000/svg">
<g clip-path="url(#clip0_32402_532670)">
<path d="M29.1211 0H25.6055C25.1203 0 24.7266 0.39375 24.7266 0.878906V1.75781H17.4855C17.1229 0.734766 16.1455 0 15 0C13.8545 0 12.8771 0.734766 12.5145 1.75781H5.27344V0.878906C5.27344 0.39375 4.87969 0 4.39453 0H0.878906C0.39375 0 0 0.39375 0 0.878906V4.39453C0 4.87969 0.39375 5.27344 0.878906 5.27344H4.39453C4.87969 5.27344 5.27344 4.87969 5.27344 4.39453V3.50391H8.92852C5.75742 5.51191 3.83027 8.90508 3.59824 12.5063C2.56289 12.8625 1.81641 13.8451 1.81641 15C1.81641 16.4537 2.99941 17.6367 4.45312 17.6367C5.90684 17.6367 7.08984 16.4537 7.08984 15C7.08984 13.8645 6.36797 12.8941 5.35957 12.5238C5.67188 8.38418 8.65254 4.81934 12.6387 3.80742C13.0705 4.6752 13.9664 5.27344 15 5.27344C16.0336 5.27344 16.9295 4.6752 17.3613 3.80742C21.3475 4.81875 24.3281 8.38418 24.6404 12.5238C23.6314 12.8941 22.9102 13.8645 22.9102 15C22.9102 16.4537 24.0932 17.6367 25.5469 17.6367C27.0006 17.6367 28.1836 16.4537 28.1836 15C28.1836 13.8451 27.4371 12.8625 26.4018 12.5063C26.1697 8.89746 24.2361 5.51953 21.0715 3.51562H24.7266V4.39453C24.7266 4.87969 25.1203 5.27344 25.6055 5.27344H29.1211C29.6063 5.27344 30 4.87969 30 4.39453V0.878906C30 0.39375 29.6063 0 29.1211 0ZM3.51562 3.51562H1.75781V1.75781H3.51562V3.51562ZM4.45312 15.8789C3.96855 15.8789 3.57422 15.4846 3.57422 15C3.57422 14.5154 3.96855 14.1211 4.45312 14.1211C4.9377 14.1211 5.33203 14.5154 5.33203 15C5.33203 15.4846 4.9377 15.8789 4.45312 15.8789ZM15 3.51562C14.5154 3.51562 14.1211 3.12129 14.1211 2.63672C14.1211 2.15215 14.5154 1.75781 15 1.75781C15.4846 1.75781 15.8789 2.15215 15.8789 2.63672C15.8789 3.12129 15.4846 3.51562 15 3.51562ZM25.5469 14.1211C26.0314 14.1211 26.4258 14.5154 26.4258 15C26.4258 15.4846 26.0314 15.8789 25.5469 15.8789C25.0623 15.8789 24.668 15.4846 24.668 15C24.668 14.5154 25.0623 14.1211 25.5469 14.1211ZM28.2422 3.51562H26.4844V1.75781H28.2422V3.51562Z" fill="#A0A3BD"/>
<path d="M22.762 18.0281L15.7307 7.48124C15.7307 7.48124 15.7307 7.48065 15.7301 7.48007C15.7278 7.47655 15.7249 7.47303 15.7225 7.46893C15.7102 7.45135 15.6979 7.43436 15.6844 7.41796C15.3141 6.95799 14.6086 6.98905 14.277 7.46893C14.2747 7.47245 14.2717 7.47596 14.2694 7.48007C14.2694 7.48007 14.2694 7.48065 14.2688 7.48124L7.23755 18.0281C7.00493 18.3767 7.05122 18.8408 7.34712 19.1373C9.10083 20.891 10.2165 23.1832 10.5206 25.6353C10.384 25.7455 10.2522 25.8639 10.1274 25.9916C9.30181 26.8359 8.84712 27.9474 8.84712 29.1211C8.84712 29.6062 9.24087 30 9.72603 30H20.2729C20.7581 30 21.1518 29.6062 21.1518 29.1211C21.1518 27.9474 20.6971 26.8359 19.8715 25.9916C19.7467 25.8639 19.6149 25.7455 19.4784 25.6353C19.7825 23.1826 20.8987 20.8904 22.6518 19.1373C22.9483 18.8408 22.994 18.3767 22.762 18.0281ZM14.9995 17.6367C15.484 17.6367 15.8784 18.031 15.8784 18.5156C15.8784 19.0002 15.484 19.3945 14.9995 19.3945C14.5149 19.3945 14.1206 19.0002 14.1206 18.5156C14.1206 18.031 14.5149 17.6367 14.9995 17.6367ZM10.7549 28.2422C11.1206 27.1974 12.112 26.4258 13.2417 26.4258H16.7573C17.887 26.4258 18.8784 27.1974 19.244 28.2422H10.7549ZM17.8266 24.8015C17.4809 24.7131 17.1223 24.668 16.7579 24.668H13.2422C12.8772 24.668 12.5186 24.7137 12.1735 24.8015C11.7622 22.4326 10.694 20.2183 9.08853 18.4207L14.1211 10.8715V16.0301C13.0981 16.3928 12.3633 17.3695 12.3633 18.5156C12.3633 19.9693 13.5463 21.1523 15.0001 21.1523C16.4538 21.1523 17.6368 19.9693 17.6368 18.5156C17.6368 17.3701 16.902 16.3928 15.879 16.0301V10.8715L20.9122 18.4207C19.3067 20.2178 18.2385 22.4326 17.8272 24.8015H17.8266Z" fill="#A0A3BD"/>
</g>
<defs>
<clipPath id="clip0_32402_532670">
<rect width="30" height="30" fill="white"/>
</clipPath>
</defs>
</svg>
