<svg width="30" height="30" viewBox="0 0 30 30" fill="none" xmlns="http://www.w3.org/2000/svg">
<path d="M26.1987 11.8305L16.2577 1.88945C15.23 0.861719 13.5577 0.861719 12.53 1.88945C11.606 2.81348 11.5263 4.22207 12.2089 5.22871L12.1948 5.29785C11.4782 8.88203 9.7333 12.1422 7.14873 14.7268L2.58896 19.2859C1.55889 20.316 1.55889 21.9836 2.58896 23.0137L5.07393 25.4986C6.104 26.5287 7.77158 26.5287 8.80166 25.4986L9.42275 24.8775L13.7722 29.227C14.8022 30.257 16.4698 30.257 17.4999 29.227C18.5276 28.1992 18.5276 26.527 17.4999 25.4992L15.636 23.6354L16.2571 23.0143C17.2872 21.9842 17.2872 20.3166 16.2571 19.2865L15.8347 18.8641C17.9118 17.4098 20.2708 16.3973 22.7897 15.8934L22.8601 15.8793C23.8884 16.5736 25.294 16.4623 26.1981 15.5582C27.2259 14.5305 27.2259 12.8582 26.1981 11.8305H26.1987ZM7.55947 24.2564C7.21611 24.5998 6.66006 24.5998 6.3167 24.2564L3.83174 21.7715C3.48838 21.4281 3.48838 20.8721 3.83174 20.5287L8.18057 16.1793L11.9083 19.907C11.4829 20.3324 7.99541 23.8199 7.55889 24.2564H7.55947ZM16.2577 26.7414C16.6005 27.0842 16.6005 27.6414 16.2577 27.9842C15.9149 28.327 15.3577 28.327 15.0149 27.9842L10.6655 23.6348L11.9083 22.392L16.2577 26.7414ZM13.1511 21.1498C13.4153 20.8855 13.8108 20.4813 14.4349 19.948L15.0149 20.5287C15.3583 20.8721 15.3583 21.4281 15.0149 21.7715L14.3938 22.3926L13.1511 21.1498ZM13.1886 18.7018L9.38584 14.899C11.4237 12.5459 12.8827 9.76855 13.6638 6.75098L21.3366 14.4238C18.319 15.2043 15.5417 16.6639 13.1886 18.7018ZM24.956 14.3154C24.6126 14.6588 24.0565 14.6588 23.7132 14.3154L13.7722 4.375C13.4288 4.03164 13.4288 3.47559 13.7722 3.13223C14.1155 2.78887 14.6716 2.78887 15.0149 3.13223L24.956 13.0732C25.2987 13.416 25.2987 13.9732 24.956 14.316V14.3154Z" fill="#A0A3BD"/>
<path d="M8.80166 19.2863C8.45889 18.943 7.90225 18.943 7.55889 19.2863L6.31611 20.5291C5.97275 20.8725 5.97275 21.4285 6.31611 21.7719C6.65947 22.1152 7.21553 22.1152 7.55889 21.7719L8.80166 20.5291C9.14502 20.1857 9.14502 19.6297 8.80166 19.2863Z" fill="#A0A3BD"/>
<path d="M20.293 0C19.8078 0 19.4141 0.393164 19.4141 0.878906V2.63613C19.4141 3.12129 19.8072 3.51504 20.293 3.51504C20.7787 3.51504 21.1719 3.12187 21.1719 2.63613V0.878906C21.1719 0.39375 20.7787 0 20.293 0Z" fill="#A0A3BD"/>
<path d="M27.3217 7.0293H25.5645C25.0793 7.0293 24.6855 7.42246 24.6855 7.9082C24.6855 8.39395 25.0787 8.78711 25.5645 8.78711H27.3217C27.8068 8.78711 28.2006 8.39395 28.2006 7.9082C28.2006 7.42246 27.8068 7.0293 27.3217 7.0293Z" fill="#A0A3BD"/>
<path d="M26.1872 2.01436C25.8438 1.671 25.2878 1.671 24.9444 2.01436L23.1872 3.77158C22.8438 4.11494 22.8438 4.671 23.1872 5.01436C23.5306 5.35771 24.0866 5.35771 24.43 5.01436L26.1872 3.25713C26.5306 2.91377 26.5306 2.35771 26.1872 2.01436Z" fill="#A0A3BD"/>
</svg>
