<svg width="30" height="30" viewBox="0 0 30 30" fill="none" xmlns="http://www.w3.org/2000/svg">
<g clip-path="url(#clip0_32402_532679)">
<path d="M29.9836 0.844803C29.9588 0.397568 29.6016 0.0402832 29.1543 0.0157928C29.1427 0.0151062 28.8616 0 28.3766 0C27.0383 0 24.3391 0.112152 21.2989 0.8638C17.4564 1.81366 14.3464 3.45703 12.055 5.74837C11.0578 6.7456 10.1846 7.89528 9.43822 9.19052L8.43732 8.18985C8.17457 7.92709 7.77517 7.85797 7.43963 8.01704L0.502677 11.3026C0.185904 11.4528 -0.0113919 11.7769 0.000509929 12.1273L0.365805 22.7151C0.377707 23.0649 0.596289 23.3741 0.921759 23.5025C1.02636 23.5439 1.13553 23.5638 1.2438 23.5638C1.47268 23.5638 1.69767 23.4743 1.86544 23.3063L7.81568 17.3561L9.60805 19.1483L3.65758 25.0985C3.31449 25.4418 3.31449 25.9982 3.65758 26.3416C3.82924 26.5132 4.05424 26.599 4.279 26.599C4.50399 26.599 4.72898 26.5132 4.90064 26.3416L10.8509 20.3911L12.643 22.1832L6.69301 28.1337C6.44536 28.3811 6.36846 28.7519 6.49663 29.0774C6.62504 29.4031 6.93426 29.6214 7.28399 29.6336L17.8718 29.9986C17.8821 29.9991 17.8922 29.9991 17.9023 29.9991C18.241 29.9991 18.5507 29.8041 18.6965 29.4965L21.9825 22.5597C22.1416 22.224 22.0723 21.8246 21.8097 21.5618L20.8086 20.5611C22.1041 19.8145 23.2538 18.9413 24.2508 17.9443C25.7085 16.4866 26.917 14.6736 27.8424 12.5555C28.5746 10.8801 29.1326 9.01016 29.5006 6.99783C30.1252 3.58337 29.9895 0.955124 29.9836 0.844803ZM1.77732 12.6439L7.63234 9.87053L8.59456 10.833C7.92852 12.2951 7.40026 13.9112 7.01208 15.6738L2.05266 20.6332L1.77732 12.6439ZM20.1288 22.367L17.3552 28.222L9.3659 27.9465L14.3251 22.9871C16.0879 22.5989 17.7041 22.0706 19.1662 21.4046L20.1288 22.367ZM27.7636 6.72409C27.2249 9.64508 25.9621 13.7471 23.0079 16.7013C21.8976 17.8116 20.5671 18.7534 19.0281 19.5222C18.9794 19.541 18.9325 19.5648 18.8869 19.5927C17.4823 20.2792 15.9064 20.8234 14.1674 21.2217L12.0939 19.1483L15.1234 16.1188C15.4667 15.7755 15.4667 15.219 15.1234 14.8757C14.7803 14.5324 14.2237 14.5326 13.8806 14.8757L10.8509 17.9052L8.77744 15.8318C9.17547 14.0929 9.71998 12.5173 10.4064 11.1127C10.4343 11.0671 10.4581 11.0197 10.4771 10.9708C11.2459 9.43199 12.1876 8.1015 13.2979 6.9912C18.0627 2.22633 25.7705 1.77338 28.2404 1.75804C28.2338 2.76123 28.1569 4.59434 27.7636 6.72409Z" fill="#A0A3BD"/>
<path d="M20.7087 12.7512C21.633 12.7512 22.502 12.3912 23.1559 11.7375C24.505 10.3883 24.505 8.19283 23.1557 6.8438C22.502 6.19011 21.6332 5.83008 20.7087 5.83008C19.7843 5.83008 18.9155 6.19011 18.2618 6.8438C17.6081 7.49725 17.248 8.36632 17.248 9.29077C17.248 10.2152 17.6081 11.0841 18.2618 11.7377C18.9155 12.3912 19.7843 12.7512 20.7087 12.7512ZM19.5048 8.08662C19.8264 7.76504 20.254 7.58789 20.7087 7.58789C21.1635 7.58789 21.5911 7.76504 21.9129 8.08662C22.5766 8.75038 22.5766 9.8307 21.9129 10.4947C21.5913 10.8163 21.1635 10.9934 20.7087 10.9934C20.254 10.9934 19.8264 10.8163 19.5046 10.4947C19.183 10.1731 19.0059 9.74556 19.0059 9.29077C19.0059 8.83575 19.183 8.4082 19.5048 8.08662Z" fill="#A0A3BD"/>
</g>
<defs>
<clipPath id="clip0_32402_532679">
<rect width="30" height="30" fill="white"/>
</clipPath>
</defs>
</svg>
