<svg width="30" height="30" viewBox="0 0 30 30" fill="none" xmlns="http://www.w3.org/2000/svg">
<g clip-path="url(#clip0_32402_532682)">
<path d="M28.8279 13.7109H23.5545C22.9072 13.7109 22.3825 14.2356 22.3825 14.883C22.3825 15.5303 22.9072 16.055 23.5545 16.055H26.0695L22.6123 19.5121H16.6991C16.3884 19.5121 16.09 19.6356 15.8703 19.8553L7.72591 27.9997C7.26845 28.4572 7.26845 29.1994 7.72591 29.6569C7.95487 29.8858 8.25457 30.0001 8.55472 30.0001C8.85486 30.0001 9.15457 29.8858 9.38352 29.6569L17.1847 21.8557H23.0979C23.4086 21.8557 23.707 21.7322 23.9267 21.5125L27.6563 17.7829V20.0979C27.6563 20.7452 28.181 21.2699 28.8284 21.2699C29.4757 21.2699 30.0004 20.7452 30.0004 20.0979V14.883C30.0004 14.2356 29.4757 13.7109 28.8284 13.7109H28.8279Z" fill="#A0A3BD"/>
<path d="M28.8283 23.613C28.181 23.613 27.6562 24.1377 27.6562 24.7851V28.828C27.6562 29.4753 28.181 30 28.8283 30C29.4756 30 30.0003 29.4753 30.0003 28.828V24.7851C30.0003 24.1377 29.4756 23.613 28.8283 23.613Z" fill="#A0A3BD"/>
<path d="M24.1408 23.613C23.4935 23.613 22.9688 24.1377 22.9688 24.7851V28.828C22.9688 29.4753 23.4935 30 24.1408 30C24.7881 30 25.3128 29.4753 25.3128 28.828V24.7851C25.3128 24.1377 24.7881 23.613 24.1408 23.613Z" fill="#A0A3BD"/>
<path d="M19.4533 23.613C18.806 23.613 18.2812 24.1377 18.2812 24.7851V28.828C18.2812 29.4753 18.806 30 19.4533 30C20.1006 30 20.6253 29.4753 20.6253 28.828V24.7851C20.6253 24.1377 20.1006 23.613 19.4533 23.613Z" fill="#A0A3BD"/>
<path d="M14.7658 27.1875C14.1185 27.1875 13.5938 27.7122 13.5938 28.3595V28.8284C13.5938 29.4757 14.1185 30.0004 14.7658 30.0004C15.4131 30.0004 15.9378 29.4757 15.9378 28.8284V28.3595C15.9378 27.7122 15.4131 27.1875 14.7658 27.1875Z" fill="#A0A3BD"/>
<path d="M8.32013 23.8754C8.18082 23.8754 8.03888 23.8503 7.90089 23.7976C5.60124 22.916 3.63646 21.3793 2.21835 19.3543C0.767281 17.281 0 14.8433 0 12.3046C0 9.01797 1.27968 5.92819 3.60394 3.60394C5.92819 1.27968 9.01797 0 12.3046 0C15.2173 0 18.0425 1.03623 20.2604 2.91795C22.4524 4.77727 23.9312 7.35245 24.4242 10.1689C24.5359 10.8065 24.1096 11.4139 23.472 11.5255C22.8343 11.6371 22.227 11.2108 22.1154 10.5732C21.2804 5.80471 17.154 2.34359 12.3042 2.34359C6.81193 2.34359 2.34315 6.81193 2.34315 12.3046C2.34315 16.4029 4.9135 20.1422 8.73936 21.6091C9.34361 21.8407 9.64595 22.5183 9.41392 23.123C9.23506 23.5893 8.79078 23.8758 8.31969 23.8758L8.32013 23.8754Z" fill="#A0A3BD"/>
<path d="M16.786 14.1041L16.7852 14.1032C16.5887 13.9072 16.3369 13.8035 16.0579 13.8035C15.7788 13.8035 15.5349 13.9072 15.3473 14.0953C15.1684 14.2742 15.0651 14.515 15.0405 14.8116V14.8165C15.0278 14.9773 14.9913 15.0683 14.961 15.0999C14.932 15.1298 14.9184 15.1342 14.8823 15.1342H11.5882C11.6757 14.9377 11.7521 14.7343 11.8172 14.5242C12.0048 13.9169 12.0997 13.2986 12.0997 12.686C12.0997 12.5612 12.0962 12.4346 12.0887 12.3068H12.951C13.2876 12.3068 13.5587 12.218 13.7569 12.0426C13.9722 11.8524 14.0909 11.5839 14.0909 11.2872C14.0909 10.9906 13.9722 10.7225 13.7565 10.5314C13.5583 10.3565 13.2871 10.2677 12.9514 10.2677H11.6919C11.5258 9.67356 11.4375 9.35804 11.412 9.26839C11.3729 9.07635 11.3531 8.90409 11.3531 8.75511C11.3531 8.4308 11.463 8.16932 11.6985 7.93202C11.9323 7.69603 12.1916 7.58617 12.5137 7.58617C12.7681 7.58617 13.1566 7.65121 13.5873 8.21239L13.5956 8.22294C13.8408 8.52967 14.1238 8.68524 14.4367 8.68524C14.7004 8.68524 14.9447 8.5846 15.1429 8.39344C15.4022 8.14384 15.4567 7.87401 15.4567 7.6912C15.4567 7.23769 15.1649 6.79692 14.5106 6.26211C13.9226 5.78179 13.2423 5.53833 12.4886 5.53833C11.6225 5.53833 10.8671 5.85825 10.2431 6.4893C9.62123 7.11816 9.30614 7.8806 9.30614 8.75511C9.30614 9.11766 9.39272 9.61644 9.56938 10.2673H8.78056C8.44394 10.2673 8.1728 10.356 7.97461 10.5314C7.75928 10.7221 7.64062 10.9902 7.64062 11.2868C7.64062 11.5834 7.75928 11.8524 7.97417 12.0418C8.17236 12.2171 8.4435 12.3063 8.78056 12.3063H10.0673C10.0747 12.4122 10.0783 12.5243 10.0783 12.6429C10.0783 13.045 10.004 13.495 9.85766 13.9802C9.72362 14.424 9.54081 14.7659 9.31449 14.9966L9.30614 15.005C9.19233 15.125 9.11762 15.1399 9.0851 15.1425C8.70893 15.1482 8.47251 15.306 8.34023 15.4383C8.14951 15.629 8.04404 15.883 8.04404 16.1533C8.04404 16.4389 8.15918 16.7026 8.36748 16.8951C8.56699 17.0796 8.84164 17.1732 9.18398 17.1732H14.9258C15.4976 17.1732 16.0245 16.9381 16.4499 16.493C16.8726 16.05 17.0871 15.4967 17.0871 14.849C17.0871 14.5585 16.9834 14.301 16.7869 14.1045L16.786 14.1041Z" fill="#A0A3BD"/>
</g>
<defs>
<clipPath id="clip0_32402_532682">
<rect width="30" height="30" fill="white"/>
</clipPath>
</defs>
</svg>
