<svg width="30" height="30" viewBox="0 0 30 30" fill="none" xmlns="http://www.w3.org/2000/svg">
<g clip-path="url(#clip0_32402_532685)">
<path d="M13.712 27.6052H3.51794C3.13936 27.6052 2.79424 27.43 2.57061 27.1241C2.34757 26.8183 2.28594 26.4362 2.40216 26.0765C3.5602 22.4817 7.09245 19.9716 10.9915 19.9716C12.8058 19.9716 14.5478 20.5171 16.0299 21.5489C16.5605 21.9187 17.2906 21.7886 17.6616 21.2589C18.032 20.7292 17.9016 19.9997 17.371 19.6306C16.6374 19.1196 15.8538 18.703 15.0338 18.3849C16.1244 17.3946 16.8481 16.0089 16.9737 14.4562C18.6277 12.8478 20.7953 11.9665 23.119 11.9665C24.9333 11.9665 26.6753 12.512 28.1574 13.5438C28.688 13.9136 29.4187 13.7835 29.7891 13.2538C30.1594 12.7241 30.0291 11.9946 29.4985 11.6255C28.7649 11.1146 27.9813 10.6979 27.1613 10.3798C28.3646 9.2876 29.1211 7.71318 29.1211 5.96592C29.1211 2.67646 26.4405 0.000488281 23.1454 0.000488281C19.8503 0.000488281 17.1697 2.67646 17.1697 5.96592C17.1697 7.70615 17.9198 9.27471 19.1149 10.3663C18.9511 10.429 18.7891 10.4958 18.6277 10.5667C17.8946 10.889 17.2049 11.2839 16.564 11.7491C15.6795 9.55654 13.5266 8.00557 11.0179 8.00557C7.72283 8.00557 5.04224 10.6815 5.04224 13.971C5.04224 15.706 5.78825 17.271 6.97682 18.362C3.7985 19.5509 1.22181 22.1044 0.172349 25.3604C-0.17571 26.4403 0.00859063 27.5858 0.678296 28.5022C1.34742 29.4187 2.38279 29.9448 3.51912 29.9448H13.712C14.3594 29.9448 14.8836 29.421 14.8836 28.7753C14.8836 28.1296 14.3588 27.6052 13.712 27.6052ZM23.1448 2.33955C25.1475 2.33955 26.7775 3.96611 26.7775 5.96592C26.7775 7.96572 25.1481 9.59229 23.1448 9.59229C21.1416 9.59229 19.5122 7.96572 19.5122 5.96592C19.5122 3.96611 21.1416 2.33955 23.1448 2.33955ZM11.0174 10.3446C13.02 10.3446 14.65 11.9712 14.65 13.971C14.65 15.9708 13.0206 17.5974 11.0174 17.5974C9.01411 17.5974 7.38475 15.9708 7.38475 13.971C7.38475 11.9712 9.01411 10.3446 11.0174 10.3446Z" fill="#A0A3BD"/>
<path d="M29.5099 19.1062C28.984 18.73 28.2515 18.8513 27.8752 19.3763L22.0997 27.43C21.9418 27.6128 21.7446 27.6521 21.6384 27.6591C21.5292 27.6667 21.3179 27.6526 21.1365 27.4798L17.3977 23.8956C16.931 23.4479 16.1891 23.4632 15.7407 23.929C15.2923 24.3948 15.3076 25.1354 15.7742 25.5831L19.5171 29.1708C20.0777 29.7034 20.826 29.9999 21.5955 29.9999C21.6618 29.9999 21.7282 29.9976 21.7945 29.9935C22.6332 29.9378 23.4162 29.5306 23.9427 28.8767C23.9562 28.8597 23.9691 28.8427 23.982 28.8245L29.7811 20.738C30.1579 20.213 30.0364 19.4823 29.5105 19.1062H29.5099Z" fill="#A0A3BD"/>
</g>
<defs>
<clipPath id="clip0_32402_532685">
<rect width="30" height="30" fill="white"/>
</clipPath>
</defs>
</svg>
