<svg width="30" height="30" viewBox="0 0 30 30" fill="none" xmlns="http://www.w3.org/2000/svg">
<g clip-path="url(#clip0_32402_532688)">
<path d="M22.0903 2.19315C21.9255 2.02698 21.7007 1.93359 21.4666 1.93359C21.2324 1.93359 21.0079 2.02721 20.8429 2.19338L18.2464 4.80996C18.0745 4.98299 17.8463 5.07844 17.6042 5.07844C17.4197 5.07844 13.0066 5.07844 12.2332 5.07844C11.9909 5.07844 11.7629 4.98299 11.5894 4.80858L9.0385 2.2506C8.87371 2.08511 8.64963 1.99219 8.41617 1.99219C8.41594 1.99219 8.41549 1.99219 8.41526 1.99219C8.18134 1.99242 7.95726 2.08603 7.79247 2.25197L0.196553 9.90396C-0.144252 10.2473 -0.143566 10.8014 0.198156 11.144L2.37666 13.3267C2.78933 13.7425 3.01661 14.2958 3.01661 14.8847C3.01661 15.6466 3.23039 16.3754 3.62773 17.0032C2.76301 18.0547 2.81886 19.6207 3.79618 20.6051C4.26928 21.0819 4.88887 21.3575 5.55331 21.39C5.58375 22.0327 5.84193 22.6662 6.32808 23.1558C6.80118 23.6325 7.42076 23.9081 8.08544 23.9406C8.11565 24.5833 8.37406 25.2169 8.85997 25.7064C9.62513 26.4773 10.7231 26.6716 11.6503 26.3386C11.778 26.7076 11.9876 27.0536 12.2797 27.3478C13.3232 28.3992 15.0153 28.3995 16.059 27.3478L16.43 26.9742C16.6619 26.7405 16.8416 26.4739 16.9697 26.1894C18.0077 27.1065 19.6076 27.0861 20.619 26.0672C21.1052 25.5776 21.3634 24.944 21.3936 24.3013C22.058 24.2691 22.6778 23.9933 23.1509 23.5165C23.6371 23.0269 23.8952 22.3934 23.9257 21.7507C24.5899 21.7184 25.2097 21.4426 25.6828 20.9661C26.6546 19.9871 26.7158 18.4328 25.8661 17.3813C26.4853 16.509 26.8206 15.4679 26.8206 14.3745C26.8206 14.1184 26.9234 13.868 27.1026 13.6874L29.6862 11.0836C30.0263 10.741 30.0263 10.188 29.6862 9.84537L22.0903 2.19315ZM5.04382 18.0545L6.30977 16.7791C6.66522 16.4209 7.23834 16.4207 7.59403 16.7791C7.95337 17.141 7.95337 17.7297 7.59403 18.0913L6.32808 19.3669C5.9724 19.7251 5.3995 19.7251 5.04382 19.3669C4.6847 19.005 4.6847 18.4163 5.04382 18.0545ZM7.57572 20.6051L10.1076 18.0545C10.4633 17.6963 11.0364 17.696 11.3921 18.0545C11.7512 18.4163 11.7512 19.005 11.3921 19.3669C10.4896 20.276 10.4416 20.3243 8.85997 21.9175C8.50429 22.2755 7.9314 22.2757 7.57572 21.9173C7.2166 21.5557 7.2166 20.967 7.57572 20.6051ZM10.1076 24.468C9.7485 24.1063 9.7485 23.5176 10.1076 23.1558L11.3736 21.8804C11.7292 21.5222 12.3024 21.5222 12.658 21.8804C12.9897 22.2146 13.0144 22.7417 12.7333 23.1057C12.656 23.1771 12.7711 23.0622 11.3921 24.468C11.0364 24.8264 10.4635 24.8266 10.1076 24.468ZM15.1826 25.7357L14.8116 26.1093C14.4559 26.4677 13.883 26.4677 13.5273 26.1093C13.2 25.7797 13.1719 25.2622 13.4411 24.8992C13.9235 24.4114 13.9 24.4403 13.984 24.3483C14.3428 24.066 14.8553 24.094 15.1826 24.4236C15.5417 24.7854 15.5415 25.3741 15.1826 25.7357ZM24.4354 19.7276C24.0797 20.0858 23.5066 20.0858 23.1509 19.7276L21.5142 18.0787C21.1722 17.7342 20.6156 17.7322 20.2711 18.0741C19.9267 18.4161 19.9246 18.9725 20.2665 19.317L21.9035 20.9658C22.2626 21.3277 22.2626 21.9164 21.9035 22.278C21.5478 22.6364 20.9747 22.6364 20.619 22.278L18.9823 20.6292C18.6401 20.2847 18.0837 20.2826 17.7392 20.6246C17.3948 20.9665 17.3927 21.5232 17.7347 21.8676L19.3714 23.5165C19.7307 23.8784 19.7307 24.467 19.3714 24.8287C19.0159 25.1871 18.4428 25.1871 18.0869 24.8287C16.3639 23.107 16.4465 23.1448 16.273 23.04C15.8253 22.6545 15.2707 22.4311 14.6798 22.4009C14.6479 21.7607 14.3898 21.1299 13.9057 20.642C13.6573 20.392 13.3685 20.1975 13.0542 20.0643C13.6503 19.0382 13.5122 17.6951 12.6395 16.8162C11.745 15.9151 10.407 15.8059 9.40929 16.3903C9.27997 16.0815 9.09115 15.792 8.84166 15.5409C7.79796 14.4894 6.10606 14.4894 5.06213 15.5409L4.92206 15.6821C4.82547 15.4312 4.77443 15.1618 4.77443 14.8847C4.77443 13.8286 4.36587 12.8357 3.62246 12.0866L2.06034 10.5215L8.41755 4.11713L10.3434 6.04821C10.7737 6.48171 11.3255 6.74836 11.9217 6.81748L7.99411 11.5304C7.68352 11.9035 7.73387 12.4576 8.10672 12.7682C9.00829 13.5196 10.1486 13.8751 11.3175 13.7689C12.4862 13.6627 13.5438 13.1076 14.2962 12.2047C14.6109 11.827 15.1403 11.7133 15.5841 11.9275C16.4898 12.3651 17.4852 12.5249 18.4643 12.3999L24.4354 18.4152C24.7945 18.777 24.7945 19.3657 24.4354 19.7276ZM25.8552 12.4489C25.3441 12.9637 25.0628 13.6476 25.0628 14.3745C25.0628 14.9879 24.9037 15.5761 24.6066 16.0925L20.3318 11.7863C21.2057 11.3001 21.9223 10.5693 22.3977 9.6634C22.6231 9.23356 22.4574 8.70233 22.0276 8.47688C21.5977 8.2512 21.0665 8.41691 20.841 8.84675C20.3641 9.75587 19.5453 10.3626 18.6282 10.5874C18.5879 10.5936 18.5479 10.6023 18.5087 10.6142C17.804 10.76 17.0485 10.6828 16.3488 10.3448C15.1771 9.77876 13.778 10.0809 12.9448 11.0806C12.4939 11.6215 11.8595 11.9545 11.1584 12.0184C10.7599 12.0545 10.3672 12.0012 10.0028 11.8659L14.0716 6.98274C14.3905 6.88546 14.721 6.8287 15.0542 6.8287H17.6042C18.3183 6.8287 18.9894 6.55633 19.4941 6.04821L21.4668 4.06014L27.8242 10.4645L25.8552 12.4489Z" fill="#A0A3BD"/>
</g>
<defs>
<clipPath id="clip0_32402_532688">
<rect width="30" height="30" fill="white"/>
</clipPath>
</defs>
</svg>
