<svg width="30" height="30" viewBox="0 0 30 30" fill="none" xmlns="http://www.w3.org/2000/svg">
<g clip-path="url(#clip0_32402_532691)">
<path d="M28.3655 16.0504V10.6823L25.1205 9.90974C24.9741 9.48143 24.8 9.06172 24.5997 8.65444L26.3484 5.81281L22.5526 2.01701L19.711 3.76574C19.3038 3.56549 18.8841 3.39137 18.4557 3.24499L17.6832 0H12.3152L11.5426 3.24499C11.1142 3.39137 10.6945 3.56549 10.2873 3.76574L7.44568 2.01701L3.64982 5.81281L5.3985 8.65444C5.19824 9.06172 5.02412 9.48143 4.87774 9.90974L1.63281 10.6823V16.0503L4.8778 16.8229C5.02418 17.2512 5.1983 17.6709 5.39856 18.0782L3.64162 20.9332L6.27355 23.4542C5.99469 24.2899 5.85064 25.1688 5.85064 26.061C5.85064 28.2364 7.6142 30 9.78966 30H20.3274C22.5029 30 24.2665 28.2364 24.2665 26.061C24.2665 25.1992 24.1314 24.3501 23.871 23.5401L26.3355 20.8988L24.5998 18.0783C24.8001 17.671 24.9742 17.2513 25.1206 16.823L28.3655 16.0504ZM22.4843 26.061C22.4843 27.2522 21.5186 28.2178 20.3275 28.2178H9.78966C8.59847 28.2178 7.63281 27.2522 7.63281 26.061C7.63281 24.825 7.98497 23.6214 8.65127 22.5803C9.84402 20.7166 11.8771 19.604 14.0898 19.604H16.0273C18.24 19.604 20.2731 20.7166 21.4658 22.5803C22.1321 23.6213 22.4843 24.825 22.4843 26.061ZM15.0586 17.7475C12.7861 17.7475 10.9373 15.8987 10.9373 13.6262C10.9373 11.3538 12.7861 9.50495 15.0586 9.50495C17.331 9.50495 19.1798 11.3538 19.1798 13.6262C19.1798 15.8987 17.331 17.7475 15.0586 17.7475ZM24.1058 20.6761L23.0696 21.7865C23.0358 21.7307 23.0022 21.6747 22.9669 21.6196C21.9448 20.0226 20.4388 18.8588 18.7049 18.2658C20.0785 17.184 20.962 15.5064 20.962 13.6262C20.962 10.3711 18.3136 7.72277 15.0585 7.72277C11.8033 7.72277 9.15503 10.3711 9.15503 13.6262C9.15503 15.5064 10.0385 17.184 11.4121 18.2658C9.67822 18.8587 8.17216 20.0226 7.15008 21.6196C7.12263 21.6625 7.09679 21.7062 7.07018 21.7495L5.91355 20.6417L7.45448 18.1376L6.28893 15.327L3.41499 14.6427V12.0899L6.28899 11.4056L7.45454 8.59503L5.90535 6.07764L7.7104 4.27259L10.2278 5.82178L13.0385 4.65624L13.7228 1.78218H16.2755L16.9598 4.65618L19.7705 5.82178L22.2878 4.27259L24.0929 6.07764L22.5437 8.59503L23.7093 11.4056L26.5833 12.0899V14.6427L23.7093 15.327L22.5437 18.1376L24.1058 20.6761Z" fill="#A0A3BD"/>
</g>
<defs>
<clipPath id="clip0_32402_532691">
<rect width="30" height="30" fill="white"/>
</clipPath>
</defs>
</svg>
