<svg width="30" height="30" viewBox="0 0 30 30" fill="none" xmlns="http://www.w3.org/2000/svg">
<g clip-path="url(#clip0_32402_532694)">
<path d="M2.88838 15.504C3.36298 15.5567 3.75556 15.1759 3.80244 14.7716C4.00752 12.8731 4.69892 11.0567 5.80048 9.50985C6.06416 9.14071 5.98213 8.61922 5.60713 8.35555C5.23798 8.09188 4.7165 8.17391 4.45283 8.54891C3.1872 10.3243 2.39619 12.4102 2.15595 14.5899C2.10322 15.0411 2.43134 15.4513 2.88838 15.504Z" fill="#A0A3BD"/>
<path d="M22.002 7.11914C22.002 3.25781 18.8613 0.117188 15 0.117188C11.1387 0.117188 7.99805 3.25781 7.99805 7.11914C7.99805 10.9805 11.1387 14.1211 15 14.1211C18.8613 14.127 22.002 10.9863 22.002 7.11914ZM15 12.4746C13.6406 12.4746 12.4043 11.9648 11.4609 11.127C12.4336 10.2656 13.6816 9.7793 15 9.7793C16.3125 9.7793 17.5664 10.2656 18.5391 11.127C17.5957 11.959 16.3594 12.4746 15 12.4746ZM15 8.12695C13.2949 8.12695 11.6777 8.75391 10.4063 9.85547C9.92578 9.05273 9.64453 8.12109 9.64453 7.125C9.64453 4.17188 12.0469 1.77539 14.9941 1.77539C17.9473 1.77539 20.3438 4.17773 20.3438 7.125C20.3438 8.12695 20.0625 9.05859 19.582 9.86133C18.3223 8.75391 16.7051 8.12695 15 8.12695Z" fill="#A0A3BD"/>
<path d="M15 2.29688C13.5352 2.29688 12.3457 3.48633 12.3457 4.95117C12.3457 6.41602 13.5352 7.60547 15 7.60547C16.4648 7.60547 17.6543 6.41602 17.6543 4.95117C17.6543 3.48633 16.4648 2.29688 15 2.29688ZM15 5.94727C14.4492 5.94727 14.0039 5.50195 14.0039 4.95117C14.0039 4.40039 14.4492 3.95508 15 3.95508C15.5508 3.95508 15.9961 4.40039 15.9961 4.95117C15.9961 5.50195 15.5508 5.94727 15 5.94727Z" fill="#A0A3BD"/>
<path d="M22.8809 15.873C19.0195 15.873 15.8789 19.0137 15.8789 22.875C15.8789 26.7363 19.0137 29.8828 22.8809 29.8828C26.7422 29.8828 29.8828 26.7422 29.8828 22.8809C29.8828 19.0195 26.7422 15.873 22.8809 15.873ZM22.8809 28.2305C21.5273 28.2305 20.291 27.7207 19.3477 26.8887C20.3203 26.0273 21.5684 25.541 22.8809 25.541C24.1934 25.541 25.4414 26.0332 26.4141 26.8887C25.4707 27.7207 24.2344 28.2305 22.8809 28.2305ZM27.4687 25.6113C26.2031 24.5098 24.5801 23.8828 22.8809 23.8828C21.1758 23.8828 19.5586 24.5098 18.293 25.6172C17.8125 24.8145 17.5313 23.8828 17.5313 22.8809C17.5313 19.9277 19.9336 17.5313 22.8809 17.5313C25.8281 17.5313 28.2305 19.9336 28.2305 22.8809C28.2305 23.877 27.9492 24.8145 27.4687 25.6113Z" fill="#A0A3BD"/>
<path d="M22.8809 18.0527C21.416 18.0527 20.2266 19.2422 20.2266 20.707C20.2266 22.1719 21.416 23.3613 22.8809 23.3613C24.3457 23.3613 25.5352 22.1719 25.5352 20.707C25.5293 19.248 24.3398 18.0527 22.8809 18.0527ZM22.8809 21.709C22.3301 21.709 21.8789 21.2578 21.8789 20.707C21.8789 20.1562 22.3301 19.7109 22.8809 19.7109C23.4316 19.7109 23.877 20.1562 23.877 20.707C23.877 21.2578 23.4316 21.709 22.8809 21.709Z" fill="#A0A3BD"/>
<path d="M7.11914 15.873C3.25781 15.873 0.117188 19.0137 0.117188 22.8809C0.117188 26.748 3.25781 29.8828 7.11914 29.8828C10.9805 29.8828 14.1211 26.7422 14.1211 22.8809C14.1211 19.0195 10.9863 15.873 7.11914 15.873ZM7.11914 28.2305C5.75977 28.2305 4.52344 27.7207 3.58008 26.8828C4.55273 26.0215 5.80078 25.5352 7.11914 25.5352C8.43164 25.5352 9.68555 26.0215 10.6582 26.8828C9.71484 27.7207 8.47852 28.2305 7.11914 28.2305ZM11.7129 25.6113C10.4473 24.5039 8.82422 23.8828 7.11914 23.8828C5.41406 23.8828 3.79688 24.5098 2.52539 25.6113C2.04492 24.8086 1.76367 23.877 1.76367 22.8809C1.76367 19.9277 4.16602 17.5313 7.11328 17.5313C10.0605 17.5313 12.4629 19.9336 12.4629 22.8809C12.4746 23.877 12.1934 24.8086 11.7129 25.6113Z" fill="#A0A3BD"/>
<path d="M7.11914 18.0527C5.6543 18.0527 4.46484 19.2422 4.46484 20.707C4.46484 22.1719 5.6543 23.3613 7.11914 23.3613C8.58398 23.3613 9.77344 22.1719 9.77344 20.707C9.77344 19.248 8.58398 18.0527 7.11914 18.0527ZM7.11914 21.709C6.56836 21.709 6.12305 21.2578 6.12305 20.707C6.12305 20.1562 6.56836 19.7109 7.11914 19.7109C7.66992 19.7109 8.11523 20.1562 8.11523 20.707C8.11523 21.2578 7.66992 21.709 7.11914 21.709Z" fill="#A0A3BD"/>
<path d="M25.9745 14.7714C26.0214 15.1757 26.4081 15.5565 26.8886 15.5038C27.3397 15.4569 27.6679 15.0468 27.621 14.5897C27.3808 12.4101 26.5898 10.3241 25.3241 8.54873C25.0605 8.17959 24.5448 8.0917 24.1698 8.35537C23.8007 8.61905 23.7128 9.13467 23.9765 9.50967C25.0722 11.0507 25.7694 12.873 25.9745 14.7714Z" fill="#A0A3BD"/>
</g>
<defs>
<clipPath id="clip0_32402_532694">
<rect width="30" height="30" fill="white"/>
</clipPath>
</defs>
</svg>
