<svg width="9" height="14" viewBox="0 0 9 14" fill="none" xmlns="http://www.w3.org/2000/svg">
<mask id="path-1-inside-1_46849_104791" fill="white">
<path d="M8.96895 6.96613C8.96971 7.09773 8.94448 7.2282 8.89472 7.35003C8.84495 7.47187 8.77163 7.58269 8.67895 7.67613L2.67894 13.6761C2.49063 13.8644 2.23524 13.9702 1.96894 13.9702C1.70264 13.9702 1.44724 13.8644 1.25894 13.6761C1.07063 13.4878 0.964844 13.2324 0.964844 12.9661C0.964844 12.6998 1.07063 12.4444 1.25894 12.2561L6.55894 6.96613L1.26894 1.67613C1.10511 1.48483 1.0195 1.23875 1.02922 0.987077C1.03894 0.735401 1.14328 0.496661 1.32137 0.318567C1.49947 0.140472 1.73821 0.0361414 1.98988 0.0264205C2.24156 0.0166988 2.48764 0.102303 2.67894 0.26613L8.67895 6.26613C8.86369 6.45239 8.96784 6.70379 8.96895 6.96613Z"/>
</mask>
<path d="M8.96895 6.96613C8.96971 7.09773 8.94448 7.2282 8.89472 7.35003C8.84495 7.47187 8.77163 7.58269 8.67895 7.67613L2.67894 13.6761C2.49063 13.8644 2.23524 13.9702 1.96894 13.9702C1.70264 13.9702 1.44724 13.8644 1.25894 13.6761C1.07063 13.4878 0.964844 13.2324 0.964844 12.9661C0.964844 12.6998 1.07063 12.4444 1.25894 12.2561L6.55894 6.96613L1.26894 1.67613C1.10511 1.48483 1.0195 1.23875 1.02922 0.987077C1.03894 0.735401 1.14328 0.496661 1.32137 0.318567C1.49947 0.140472 1.73821 0.0361414 1.98988 0.0264205C2.24156 0.0166988 2.48764 0.102303 2.67894 0.26613L8.67895 6.26613C8.86369 6.45239 8.96784 6.70379 8.96895 6.96613Z" fill="#A0A3BD"/>
<path d="M8.96895 6.96613L-12.3642 7.05595L-12.3641 7.07271L-12.364 7.08947L8.96895 6.96613ZM8.67895 7.67613L23.7639 22.7611L23.7946 22.7303L23.8252 22.6995L8.67895 7.67613ZM1.96894 13.9702L1.96894 35.3035L1.96894 13.9702ZM1.25894 12.2561L-13.8117 -2.84308L-13.8189 -2.83596L-13.826 -2.82884L1.25894 12.2561ZM6.55894 6.96613L21.6296 22.0653L36.7431 6.98038L21.6439 -8.11883L6.55894 6.96613ZM1.26894 1.67613L-14.9346 15.5526L-14.3987 16.1784L-13.816 16.7611L1.26894 1.67613ZM2.67894 0.26613L17.7639 -14.8188L17.1812 -15.4015L16.5553 -15.9375L2.67894 0.26613ZM8.67895 6.26613L23.8254 -8.75705L23.7947 -8.788L23.7639 -8.81884L8.67895 6.26613ZM-12.364 7.08947C-12.3795 4.41345 -11.8666 1.76071 -10.8547 -0.71665L28.6441 15.4167C29.7556 12.6957 30.3189 9.78201 30.3019 6.84279L-12.364 7.08947ZM-10.8547 -0.71665C-9.84284 -3.19396 -8.35191 -5.44723 -6.46735 -7.34722L23.8252 22.6995C25.8952 20.6126 27.5328 18.1377 28.6441 15.4167L-10.8547 -0.71665ZM-6.40598 -7.40883L-12.406 -1.40884L17.7639 28.7611L23.7639 22.7611L-6.40598 -7.40883ZM-12.406 -1.40884C-8.59352 -5.2213 -3.4227 -7.36312 1.96894 -7.36312L1.96894 35.3035C7.89318 35.3035 13.5748 32.9502 17.7639 28.7611L-12.406 -1.40884ZM1.96894 -7.36312C7.36057 -7.36312 12.5314 -5.2213 16.3439 -1.40884L-13.826 28.7611C-9.63691 32.9502 -3.9553 35.3035 1.96894 35.3035L1.96894 -7.36312ZM16.3439 -1.40884C20.1563 2.40363 22.2982 7.57445 22.2982 12.9661L-20.3685 12.9661C-20.3685 18.8904 -18.0151 24.572 -13.826 28.7611L16.3439 -1.40884ZM22.2982 12.9661C22.2982 18.3578 20.1563 23.5286 16.3439 27.3411L-13.826 -2.82884C-18.0151 1.36024 -20.3685 7.04185 -20.3685 12.9661L22.2982 12.9661ZM16.3296 27.3553L21.6296 22.0653L-8.51173 -8.13307L-13.8117 -2.84308L16.3296 27.3553ZM21.6439 -8.11883L16.3539 -13.4088L-13.816 16.7611L-8.52598 22.0511L21.6439 -8.11883ZM17.4725 -12.2003C20.8036 -8.31053 22.5443 -3.30699 22.3467 1.81048L-20.2882 0.163676C-20.5053 5.7845 -18.5934 11.2802 -14.9346 15.5526L17.4725 -12.2003ZM22.3467 1.81048C22.149 6.92792 20.0276 11.7823 16.4063 15.4035L-13.7636 -14.7664C-17.741 -10.789 -20.0711 -5.45712 -20.2882 0.163676L22.3467 1.81048ZM16.4063 15.4035C12.785 19.0248 7.93061 21.1462 2.81328 21.3439L1.16648 -21.291C-4.4542 -21.0739 -9.78606 -18.7439 -13.7636 -14.7664L16.4063 15.4035ZM2.81328 21.3439C-2.30403 21.5415 -7.30758 19.8009 -11.1974 16.4697L16.5553 -15.9375C12.2829 -19.5963 6.78715 -21.5081 1.16648 -21.291L2.81328 21.3439ZM-12.406 15.3511L-6.40598 21.3511L23.7639 -8.81884L17.7639 -14.8188L-12.406 15.3511ZM-6.46751 21.2893C-10.224 17.502 -12.3417 12.3902 -12.3642 7.05595L30.3021 6.8763C30.2774 1.01738 27.9514 -4.59722 23.8254 -8.75705L-6.46751 21.2893Z" fill="#A0A3BD" mask="url(#path-1-inside-1_46849_104791)"/>
</svg>
