<svg width="24" height="24" viewBox="0 0 24 24" fill="none" xmlns="http://www.w3.org/2000/svg">
<path d="M14.8374 11.5733L21.9094 4.5038C22.801 3.61242 22.801 2.13705 21.9094 1.24568C21.0177 0.354305 19.5418 0.354305 18.6501 1.24568L11.5781 8.31518L4.50615 1.24568C3.61446 0.354305 2.13857 0.354305 1.24689 1.24568C0.355204 2.13705 0.355204 3.61242 1.24689 4.5038L8.31886 11.5733L1.24689 18.6428C0.355204 19.5342 0.355204 21.0096 1.24689 21.9009C1.7081 22.362 2.29231 22.5771 2.87652 22.5771C3.46072 22.5771 4.04493 22.362 4.50615 21.9009L11.5781 14.8314L18.6501 21.9009C19.1113 22.362 19.6955 22.5771 20.2797 22.5771C20.8639 22.5771 21.4481 22.362 21.9094 21.9009C22.801 21.0096 22.801 19.5342 21.9094 18.6428L14.8374 11.5733Z" fill="#A0A3BD"/>
</svg>
