<svg width="150" height="51" viewBox="0 0 150 51" fill="none" xmlns="http://www.w3.org/2000/svg">
<g clip-path="url(#clip0_40610_187319)">
<path d="M0.0012207 42.097L2.8702 39.9009C3.26581 40.5394 3.83587 41.0347 4.57726 41.3867C5.31865 41.7387 6.04134 41.9194 6.74846 41.9288C7.45559 41.9381 8.0786 41.7792 8.62062 41.449C9.16264 41.122 9.45235 40.6485 9.48661 40.0286C9.52088 39.3214 9.2374 38.8199 8.63308 38.5178C8.02876 38.2156 7.14408 37.9882 5.97281 37.8324C2.07586 37.2312 0.147629 35.2937 0.181895 32.0197C0.284692 30.3656 0.982468 29.0729 2.27522 28.1446C3.56798 27.2132 5.09125 26.749 6.84815 26.749C9.53645 26.749 11.5955 27.8268 13.0253 29.9794L9.8978 32.0727C9.14084 30.917 8.12221 30.3407 6.84815 30.3407C6.07249 30.3407 5.42144 30.4902 4.89811 30.7924C4.37167 31.0945 4.09131 31.5462 4.05704 32.1506V32.1755C4.05704 32.6054 4.21903 32.9636 4.54922 33.2471C4.87631 33.5305 5.16912 33.7112 5.42767 33.7891C5.68622 33.867 6.17841 33.9822 6.9011 34.138C7.03817 34.1722 7.14096 34.1972 7.21261 34.2158C8.12533 34.3872 8.91032 34.5897 9.56449 34.8233C10.2187 35.0569 10.8604 35.3933 11.4896 35.8326C12.1188 36.2718 12.5923 36.8668 12.9101 37.6144C13.2278 38.3651 13.3618 39.256 13.3119 40.2902C13.1562 41.9256 12.4023 43.2184 11.0504 44.1654C9.69844 45.1124 8.13467 45.5859 6.35908 45.5859C5.13486 45.5859 3.96048 45.2899 2.83282 44.6949C1.70516 44.1 0.761298 43.234 0.00433577 42.097H0.0012207Z" fill="#292561"/>
<path d="M21.6542 42.1999V45.1468C19.8288 45.7511 18.3118 45.6545 17.1062 44.8633C15.9007 44.0721 15.3057 42.6578 15.3244 40.6237V28.9702H18.6326L18.8912 31.942H21.268V35.2253H18.8912V40.6019C18.8912 41.3589 19.1123 41.8635 19.5516 42.1127C19.9908 42.3619 20.6917 42.3931 21.6573 42.203L21.6542 42.1999Z" fill="#292561"/>
<path d="M34.2394 31.9419V44.6047C32.414 45.2588 30.7256 45.5859 29.1743 45.5859C27.5202 45.5859 26.1682 45.1996 25.1185 44.424C24.0687 43.6483 23.5422 42.3836 23.5422 40.6236V31.9419H27.1339V40.418C27.1339 41.1594 27.3457 41.7108 27.7663 42.0721C28.1868 42.4335 28.7257 42.6141 29.3799 42.6141C29.8284 42.6141 30.2583 42.5363 30.6726 42.3805V31.9419H34.2394Z" fill="#292561"/>
<path d="M47.3898 27.0573V44.5765C45.6329 45.2493 43.8915 45.5826 42.1689 45.5826C40.6176 45.5826 39.3342 45.2182 38.3187 44.483C37.3032 43.751 36.7331 42.5766 36.6147 40.9568V36.2281C36.6147 34.8668 37.11 33.7734 38.1006 32.9448C39.0912 32.1193 40.25 31.6957 41.5771 31.6801C42.3683 31.6801 43.1003 31.8358 43.7732 32.1442V27.0542H47.3898V27.0573ZM43.7732 42.6389V34.8855C43.3776 34.6612 42.9165 34.5459 42.3901 34.5366C41.8636 34.5273 41.3808 34.6581 40.9416 34.9229C40.5024 35.1876 40.2563 35.5646 40.2064 36.0474V41.2932C40.222 41.7916 40.4463 42.1934 40.8793 42.4956C41.3092 42.7978 41.7889 42.9379 42.3122 42.9224C42.8387 42.9068 43.3246 42.8102 43.7732 42.6389Z" fill="#292561"/>
<path d="M57.4957 41.3461L59.8476 43.0531C59.3647 43.9316 58.6919 44.5733 57.8321 44.9782C56.9692 45.3832 56.0846 45.5857 55.1719 45.5857C53.7078 45.5857 52.4399 45.1682 51.3746 44.3334C50.3061 43.4986 49.7734 42.3304 49.7734 40.8321V36.4118C49.7734 34.8947 50.3123 33.7297 51.387 32.9104C52.4649 32.0943 53.742 31.6831 55.2248 31.6831C56.7076 31.6831 57.8944 32.0663 58.8944 32.8326C59.8943 33.5989 60.3927 34.739 60.3927 36.256V40.1841H53.39V40.7791C53.39 41.2806 53.5863 41.6669 53.985 41.941C54.3806 42.2183 54.8541 42.3553 55.4055 42.3553C56.3867 42.3553 57.0845 42.0189 57.4988 41.3461H57.4957ZM57.0035 37.5207V36.3059C57.0035 35.8573 56.8322 35.5146 56.4864 35.2717C56.1406 35.0318 55.7295 34.9103 55.2466 34.9103C54.7638 34.9103 54.3121 35.0349 53.9414 35.2841C53.5707 35.5333 53.3869 35.8822 53.3869 36.3308V37.5207H57.0035Z" fill="#292561"/>
<path d="M62.6105 45.3271V32.845C64.1961 32.0694 65.8066 31.6831 67.442 31.6831C68.5105 31.6831 69.4668 31.8389 70.311 32.1473C71.1552 32.4588 71.8623 32.9914 72.4292 33.7484C72.9962 34.5054 73.2828 35.4461 73.2828 36.5644V45.324H69.716V36.6921C69.716 36.1065 69.5166 35.6642 69.121 35.362C68.7254 35.0598 68.2426 34.9103 67.6725 34.9103C67.1025 34.9103 66.629 35.0318 66.1991 35.2717V45.324H62.6074L62.6105 45.3271Z" fill="#292561"/>
<path d="M82.1979 42.1999V45.1468C80.3725 45.7511 78.8555 45.6545 77.6499 44.8633C76.4444 44.0721 75.8494 42.6578 75.8681 40.6237V28.9702H79.1763L79.4349 31.942H81.8117V35.2253H79.4349V40.6019C79.4349 41.3589 79.656 41.8635 80.0953 42.1127C80.5345 42.3619 81.2354 42.3931 82.201 42.203L82.1979 42.1999Z" fill="#292561"/>
<path d="M93.1542 37.8322V45.327H89.3569V27.0322H93.1542V34.2935H99.8983V27.0322H103.696V45.327H99.8983V37.8322H93.1542Z" fill="#292561"/>
<path d="M114.06 41.3461L116.412 43.0531C115.929 43.9316 115.256 44.5733 114.397 44.9782C113.534 45.3832 112.649 45.5857 111.736 45.5857C110.272 45.5857 109.004 45.1682 107.939 44.3334C106.871 43.4986 106.338 42.3304 106.338 40.8321V36.4118C106.338 34.8947 106.877 33.7297 107.952 32.9104C109.029 32.0943 110.306 31.6831 111.789 31.6831C113.272 31.6831 114.459 32.0663 115.459 32.8326C116.459 33.5989 116.957 34.739 116.957 36.256V40.1841H109.954V40.7791C109.954 41.2806 110.151 41.6669 110.549 41.941C110.945 42.2183 111.419 42.3553 111.97 42.3553C112.951 42.3553 113.649 42.0189 114.063 41.3461H114.06ZM113.568 37.5207V36.3059C113.568 35.8573 113.397 35.5146 113.051 35.2717C112.705 35.0318 112.294 34.9103 111.811 34.9103C111.328 34.9103 110.877 35.0349 110.506 35.2841C110.135 35.5333 109.951 35.8822 109.951 36.3308V37.5207H113.568Z" fill="#292561"/>
<path d="M124.809 42.4581V45.5326C124.463 45.5669 124.214 45.5856 124.058 45.5856C122.404 45.5856 121.158 45.1246 120.323 44.2025C119.488 43.2804 119.071 42.0874 119.071 40.6233V27.0322H122.662V40.6233C122.662 41.156 122.843 41.5952 123.204 41.941C123.566 42.2867 124.098 42.4581 124.805 42.4581H124.809Z" fill="#292561"/>
<path d="M126.333 50.2365V32.6893C128.09 32.0164 129.832 31.6831 131.554 31.6831C135.258 31.6831 137.109 33.1721 137.109 36.1532V41.0377C137.109 42.5204 136.623 43.645 135.648 44.4082C134.676 45.1745 133.498 45.567 132.121 45.5857C131.346 45.5857 130.623 45.4299 129.95 45.1215V50.2396H126.333V50.2365ZM129.95 34.7328V42.5111C130.311 42.7167 130.779 42.8195 131.346 42.8195C131.966 42.8195 132.483 42.67 132.897 42.3678C133.311 42.0656 133.517 41.6233 133.517 41.0377V35.9726C133.517 35.4555 133.317 35.0692 132.922 34.8106C132.526 34.5521 132.019 34.4244 131.399 34.4244C130.847 34.4244 130.364 34.5272 129.95 34.7359V34.7328Z" fill="#292561"/>
<path d="M113.494 9.38571C113.08 9.38571 112.712 9.51343 112.391 9.77198C112.071 10.0274 111.909 10.3545 111.909 10.7408V14.13C111.909 14.5816 112.074 14.9212 112.407 15.1486C112.737 15.376 113.123 15.4881 113.566 15.4881C113.93 15.4881 114.245 15.4134 114.51 15.2638V9.65049C114.22 9.47293 113.88 9.38571 113.491 9.38571H113.494ZM132.294 13.1518C131.814 13.1518 131.456 13.2577 131.21 13.4727C130.963 13.6876 130.842 13.9742 130.842 14.3387C130.842 15.105 131.35 15.4881 132.368 15.4881C132.77 15.4881 133.141 15.4445 133.477 15.3573V13.3792C133.075 13.2297 132.68 13.1549 132.29 13.1549L132.294 13.1518ZM132.294 13.1518C131.814 13.1518 131.456 13.2577 131.21 13.4727C130.963 13.6876 130.842 13.9742 130.842 14.3387C130.842 15.105 131.35 15.4881 132.368 15.4881C132.77 15.4881 133.141 15.4445 133.477 15.3573V13.3792C133.075 13.2297 132.68 13.1549 132.29 13.1549L132.294 13.1518ZM147.722 0H96.9593C95.7039 0 94.6853 1.01863 94.6853 2.274V19.0393C94.6853 20.2947 95.7039 21.3133 96.9593 21.3133H107.473L113.896 27.7366C114.117 27.9578 114.482 27.8176 114.513 27.5216V17.1672C114.024 17.3914 113.507 17.5067 112.968 17.5067C111.874 17.5067 110.99 17.2108 110.31 16.622C109.631 16.0302 109.292 15.2233 109.292 14.1923V10.9713C109.292 9.79067 109.684 8.89664 110.469 8.28609C111.254 7.67865 112.211 7.37337 113.341 7.37337C114.597 7.37337 115.865 7.61946 117.145 8.10853V21.3164H147.719C148.978 21.3164 149.993 20.2978 149.993 19.0424V2.274C149.993 1.01551 148.975 0 147.719 0H147.722ZM108.012 13.644C107.899 14.8371 107.348 15.7778 106.364 16.4694C105.379 17.1609 104.239 17.5036 102.946 17.5036C102.056 17.5036 101.196 17.2886 100.373 16.8556C99.551 16.4227 98.8626 15.7903 98.3112 14.9617L100.401 13.3605C100.691 13.8247 101.102 14.186 101.644 14.4446C102.186 14.7 102.713 14.834 103.227 14.8402C103.741 14.8464 104.196 14.7312 104.591 14.4913C104.99 14.2514 105.199 13.9088 105.224 13.4571C105.249 12.9431 105.043 12.5724 104.604 12.3544C104.164 12.1363 103.517 11.9681 102.663 11.856C99.8252 11.4167 98.4203 10.0056 98.4452 7.61946C98.52 6.41393 99.0277 5.47006 99.9716 4.79409C100.915 4.11501 102.024 3.77547 103.305 3.77547C105.264 3.77547 106.766 4.55735 107.809 6.13046L105.529 7.65684C104.977 6.81577 104.233 6.39524 103.305 6.39524C102.738 6.39524 102.264 6.50427 101.884 6.72544C101.501 6.94661 101.295 7.27369 101.271 7.71291V7.73472C101.271 8.04934 101.392 8.30789 101.629 8.5166C101.869 8.7222 102.08 8.85615 102.271 8.91222C102.461 8.96829 102.816 9.05239 103.345 9.16765C103.445 9.19257 103.52 9.21438 103.569 9.22372C104.236 9.34833 104.806 9.49473 105.283 9.66606C105.759 9.83739 106.227 10.0804 106.688 10.4012C107.146 10.7221 107.491 11.152 107.722 11.7002C107.956 12.2453 108.052 12.8964 108.015 13.6502L108.012 13.644ZM126.867 16.7902C125.534 17.2668 124.307 17.5067 123.176 17.5067C121.97 17.5067 120.986 17.2263 120.216 16.6594C119.45 16.0956 119.067 15.1704 119.067 13.8901V7.56028H121.684V13.7375C121.684 14.2764 121.839 14.6813 122.148 14.943C122.453 15.2078 122.849 15.3386 123.325 15.3386C123.652 15.3386 123.967 15.2825 124.269 15.1673V7.56028H126.87V16.7902H126.867ZM136.078 16.7902C134.811 17.2668 133.586 17.5067 132.406 17.5067C131.063 17.5067 130.054 17.2357 129.375 16.6874C128.696 16.1423 128.356 15.3853 128.356 14.4197C128.356 13.3637 128.693 12.5693 129.365 12.0366C130.038 11.504 130.854 11.2361 131.823 11.2361C132.403 11.2361 132.979 11.3357 133.555 11.5351V10.8373C133.555 9.93396 133.054 9.48228 132.051 9.48228C131.699 9.48228 131.328 9.5695 130.938 9.74706C130.549 9.92461 130.238 10.1364 129.998 10.3888L128.717 9.01501C129.646 7.94655 130.82 7.40141 132.241 7.37649C133.309 7.37649 134.212 7.67553 134.963 8.27051C135.708 8.86861 136.081 9.72525 136.081 10.8404V16.7933L136.078 16.7902ZM145.573 16.7715C144.293 17.2606 143.022 17.5036 141.766 17.5036C140.636 17.5036 139.701 17.2388 138.96 16.703C138.218 16.1703 137.804 15.3137 137.717 14.1331V10.6847C137.717 9.69098 138.078 8.89664 138.801 8.29232C139.524 7.68799 140.368 7.38272 141.333 7.36714C141.913 7.36714 142.446 7.47928 142.938 7.70668V3.99975H145.573V16.7715ZM140.872 9.7346C140.552 9.93084 140.374 10.2019 140.337 10.5539V14.3792C140.349 14.7436 140.511 15.0364 140.826 15.2545C141.14 15.4757 141.486 15.5785 141.869 15.566C142.252 15.5535 142.608 15.485 142.935 15.3573V9.70656C142.645 9.54146 142.309 9.46047 141.925 9.45112C141.542 9.44489 141.19 9.53835 140.869 9.73148L140.872 9.7346ZM131.21 13.4758C130.963 13.6907 130.842 13.9773 130.842 14.3418C130.842 15.1081 131.35 15.4912 132.368 15.4912C132.77 15.4912 133.141 15.4476 133.477 15.3604V13.3823C133.075 13.2328 132.68 13.1581 132.29 13.1581C131.811 13.1581 131.452 13.264 131.206 13.4789L131.21 13.4758ZM113.494 9.38882C113.08 9.38882 112.712 9.51654 112.391 9.77509C112.071 10.0305 111.909 10.3576 111.909 10.7439V14.1331C111.909 14.5848 112.074 14.9243 112.407 15.1517C112.737 15.3791 113.123 15.4912 113.566 15.4912C113.93 15.4912 114.245 15.4165 114.51 15.267V9.65049C114.22 9.47293 113.88 9.38571 113.491 9.38571L113.494 9.38882Z" fill="#EB4E5D"/>
</g>
<defs>
<clipPath id="clip0_40610_187319">
<rect width="150" height="50.2367" fill="white"/>
</clipPath>
</defs>
</svg>
