<svg width="24" height="24" viewBox="0 0 24 24" fill="none" xmlns="http://www.w3.org/2000/svg">
<path d="M20.8992 4.23045C21.2192 5.98045 19.8892 7.50045 18.1992 7.50045C18.1492 7.50045 18.0892 7.50045 18.0392 7.49045C17.7792 7.48045 17.5192 7.43045 17.2892 7.34045C16.2192 6.97045 15.4492 5.95045 15.4492 4.75045C15.4492 4.65045 15.4592 4.55045 15.4592 4.45045C15.4992 4.15045 15.5792 3.86045 15.7092 3.60045C16.1892 2.53045 17.3392 1.84045 18.6192 2.03045C19.7492 2.20045 20.6992 3.10045 20.8992 4.23045Z" fill="#E95060"/>
<path d="M19.9598 16.3901C19.6798 17.1301 19.0898 17.7101 18.3198 17.9701C17.2398 18.3301 16.1298 18.6101 15.0098 18.7901C14.8998 18.8101 14.7898 18.8301 14.6798 18.8401C14.4998 18.8701 14.3198 18.8901 14.1398 18.9101C13.9198 18.9401 13.6898 18.9601 13.4598 18.9801C12.8398 19.0401 12.2098 19.0701 11.5798 19.0701C10.9398 19.0701 10.2998 19.0401 9.66977 18.9801C9.39977 18.9601 9.13977 18.9301 8.87977 18.8901C8.72977 18.8701 8.57977 18.8501 8.43977 18.8301C8.32977 18.8101 8.21977 18.8001 8.10977 18.7801C6.99977 18.5901 5.90977 18.3301 4.82977 17.9701C4.02977 17.7101 3.41977 17.1301 3.14977 16.4001C2.87977 15.6801 2.97977 14.8501 3.40977 14.1201L4.53977 12.2401C4.77977 11.8301 4.99977 11.0401 4.99977 10.5601V8.70012C4.99977 5.07012 7.94977 2.13012 11.5798 2.12012C12.5998 2.12012 13.5698 2.36012 14.4298 2.78012C14.1998 3.23012 14.0398 3.74012 13.9698 4.28012L13.9598 4.43012C13.9598 4.43012 13.9498 4.67012 13.9498 4.75012C13.9498 6.56012 15.0998 8.17012 16.7398 8.74012C16.8798 8.79012 17.0198 8.84012 17.1698 8.87012C17.7598 9.02012 18.1498 9.58012 18.1498 10.1901V10.5601C18.1498 11.0601 18.3598 11.8201 18.6198 12.2501L19.7498 14.1301C20.1598 14.8201 20.2398 15.6401 19.9598 16.3901Z" fill="#363565"/>
<path d="M13.2802 20.1905C12.7202 20.2405 12.1502 20.2705 11.5802 20.2705C11.0002 20.2705 10.4202 20.2405 9.85023 20.1905C9.61023 20.1705 9.37023 20.1405 9.14023 20.1105C9.00023 20.0905 8.87023 20.0805 8.74023 20.0605C8.88023 20.4705 9.12023 20.8705 9.44023 21.1705C9.99023 21.7405 10.7702 22.0605 11.5602 22.0605C12.8602 22.0605 13.9702 21.2305 14.3902 20.0705C14.2202 20.0905 14.0602 20.1105 13.9002 20.1305C13.7002 20.1605 13.4902 20.1705 13.2802 20.1905Z" fill="#363565"/>
</svg>
