<svg width="48" height="48" viewBox="0 0 48 48" fill="none" xmlns="http://www.w3.org/2000/svg">
<path d="M30.1118 0C31.1727 0 32.1901 0.421427 32.9403 1.17157L40.6306 8.86193C41.3808 9.61207 41.8022 10.6295 41.8022 11.6904V44C41.8022 46.2091 40.0113 48 37.8022 48H9.55468C7.34554 48 5.55469 46.2091 5.55469 44V4C5.55469 1.79086 7.34555 0 9.55469 0H30.1118Z" fill="#E2E2E2"/>
<path d="M41.8006 10.0335H35.7656C33.5565 10.0335 31.7656 8.24264 31.7656 6.0335V0L41.8006 10.0335Z" fill="#999999"/>
<path d="M38.7951 38.7184C38.4282 39.2965 37.7911 39.6467 37.1064 39.6467H2.06641V29.4697C2.06641 28.3652 2.96184 27.4697 4.06641 27.4697H42.2959C43.8729 27.4697 44.8296 29.2098 43.9845 30.5414L38.7951 38.7184Z" fill="#E94E5D"/>
<path d="M5.55391 43.1325V39.6465H2.06641L5.55391 43.1325Z" fill="#999999"/>
<path d="M13.5898 37.0742V30.0752H16.4098H16.7578C17.7043 30.0752 18.3433 30.2402 18.6718 30.5702C19.0018 30.9002 19.1668 31.5377 19.1668 32.4797C19.1668 33.4157 19.0093 34.0382 18.6958 34.3457C18.3823 34.6532 17.7463 34.8077 16.7893 34.8077L16.4818 34.8122H14.9188V37.0742H13.5898ZM14.9173 33.6962H16.4293C17.0308 33.6962 17.4133 33.6257 17.5753 33.4877C17.7373 33.3482 17.8198 33.0212 17.8198 32.5067C17.8198 31.9142 17.7523 31.5482 17.6173 31.4072C17.4823 31.2647 17.1313 31.1942 16.5643 31.1942H14.9188V33.6962H14.9173Z" fill="white"/>
<path d="M20.0156 37.0742V30.0752H23.4551C24.4331 30.0752 25.1171 30.2897 25.5086 30.7172C25.9001 31.1447 26.0966 31.8932 26.0966 32.9627C26.0966 34.7087 25.9391 35.8307 25.6256 36.3287C25.3106 36.8252 24.6011 37.0742 23.4971 37.0742H20.0156ZM21.3431 35.9567H23.2346C23.8706 35.9567 24.2801 35.8097 24.4676 35.5187C24.6536 35.2262 24.7466 34.5812 24.7466 33.5822C24.7466 32.5502 24.6626 31.8947 24.4961 31.6142C24.3281 31.3337 23.9351 31.1957 23.3171 31.1957H21.3431V35.9567Z" fill="white"/>
<path d="M28.3915 31.1942V33.0812H31.528V34.1972H28.3915V37.0742H27.0625V30.0752H31.6975V31.1942H28.3915Z" fill="white"/>
</svg>
