<svg width="24" height="24" viewBox="0 0 24 24" fill="none" xmlns="http://www.w3.org/2000/svg">
<path d="M16.7502 3.56V2C16.7502 1.59 16.4102 1.25 16.0002 1.25C15.5902 1.25 15.2502 1.59 15.2502 2V3.5H8.75024V2C8.75024 1.59 8.41024 1.25 8.00024 1.25C7.59024 1.25 7.25024 1.59 7.25024 2V3.56C4.55024 3.81 3.24023 5.42 3.04023 7.81C3.02023 8.1 3.26023 8.34 3.54023 8.34H20.4602C20.7502 8.34 20.9902 8.09 20.9602 7.81C20.7602 5.42 19.4502 3.81 16.7502 3.56Z" fill="white"/>
<path d="M19 15C16.79 15 15 16.79 15 19C15 21.21 16.79 23 19 23C21.21 23 23 21.21 23 19C23 16.79 21.21 15 19 15ZM20.6 20.64C20.45 20.79 20.26 20.86 20.07 20.86C19.88 20.86 19.69 20.79 19.54 20.64L19.01 20.11L18.46 20.66C18.31 20.81 18.12 20.88 17.93 20.88C17.74 20.88 17.55 20.81 17.4 20.66C17.11 20.37 17.11 19.89 17.4 19.6L17.95 19.05L17.42 18.52C17.13 18.23 17.13 17.75 17.42 17.46C17.71 17.17 18.19 17.17 18.48 17.46L19.01 17.99L19.51 17.49C19.8 17.2 20.28 17.2 20.57 17.49C20.86 17.78 20.86 18.26 20.57 18.55L20.07 19.05L20.6 19.58C20.89 19.88 20.89 20.35 20.6 20.64Z" fill="white"/>
<path fill-rule="evenodd" clip-rule="evenodd" d="M21 12.5781V10.8381C21 10.2881 20.55 9.83812 20 9.82812H4C3.45 9.82812 3 10.2781 3 10.8281V16.9881C3 19.9881 4.5 21.9881 8 21.9881H12.92C13.61 21.9881 14.09 21.3182 13.87 20.6682C13.68 20.0882 13.5 19.4481 13.5 18.9881C13.5 15.9581 15.97 13.4881 19 13.4881C19.29 13.4881 19.58 13.5181 19.86 13.5581C20.46 13.6581 21 13.1881 21 12.5781ZM7.79 14.708C7.98 14.888 8.24 14.998 8.5 14.998C8.56 14.998 8.63 14.988 8.7 14.978C8.76 14.968 8.82 14.948 8.88 14.918C8.94 14.898 9 14.8679 9.06 14.8279L9.21 14.708C9.39 14.518 9.5 14.258 9.5 13.998C9.5 13.738 9.39 13.478 9.21 13.288L9.06 13.168C9 13.128 8.94 13.0979 8.88 13.0779C8.82 13.0479 8.76 13.0279 8.7 13.0179C8.37 12.9479 8.02 13.058 7.79 13.288C7.61 13.478 7.5 13.738 7.5 13.998C7.5 14.258 7.61 14.518 7.79 14.708ZM12 14.9982C11.74 14.9982 11.48 14.8882 11.29 14.7082C11.11 14.5182 11 14.2582 11 13.9982C11 13.7382 11.11 13.4782 11.29 13.2882C11.67 12.9182 12.34 12.9182 12.71 13.2882C12.89 13.4782 13 13.7382 13 13.9982C13 14.2582 12.89 14.5182 12.71 14.7082C12.52 14.8882 12.26 14.9982 12 14.9982ZM7.79 18.2079C7.98 18.3879 8.24 18.4979 8.5 18.4979C8.76 18.4979 9.02 18.3879 9.21 18.2079C9.39 18.0179 9.5 17.7579 9.5 17.4979C9.5 17.2379 9.39 16.9779 9.21 16.7879C8.93 16.5079 8.49 16.4179 8.12 16.5779C7.99 16.6279 7.89 16.6979 7.79 16.7879C7.61 16.9779 7.5 17.2379 7.5 17.4979C7.5 17.7579 7.61 18.0179 7.79 18.2079Z" fill="white"/>
</svg>
