<svg width="9" height="14" viewBox="0 0 9 14" fill="none" xmlns="http://www.w3.org/2000/svg">
<mask id="path-1-inside-1_42547_114819" fill="white">
<path d="M8.97285 6.96466C8.97362 7.09627 8.94839 7.22673 8.89863 7.34857C8.84886 7.47041 8.77554 7.58122 8.68285 7.67466L2.68284 13.6747C2.49454 13.863 2.23915 13.9687 1.97284 13.9687C1.70654 13.9687 1.45115 13.863 1.26284 13.6747C1.07454 13.4864 0.96875 13.231 0.96875 12.9647C0.96875 12.6984 1.07454 12.443 1.26284 12.2547L6.56285 6.96466L1.27284 1.67466C1.10902 1.48336 1.02341 1.23729 1.03313 0.985612C1.04285 0.733936 1.14718 0.495196 1.32528 0.317102C1.50337 0.139008 1.74211 0.0346765 1.99379 0.0249557C2.24547 0.0152339 2.49154 0.100839 2.68284 0.264666L8.68285 6.26466C8.8676 6.45092 8.97175 6.70232 8.97285 6.96466Z"/>
</mask>
<path d="M8.97285 6.96466C8.97362 7.09627 8.94839 7.22673 8.89863 7.34857C8.84886 7.47041 8.77554 7.58122 8.68285 7.67466L2.68284 13.6747C2.49454 13.863 2.23915 13.9687 1.97284 13.9687C1.70654 13.9687 1.45115 13.863 1.26284 13.6747C1.07454 13.4864 0.96875 13.231 0.96875 12.9647C0.96875 12.6984 1.07454 12.443 1.26284 12.2547L6.56285 6.96466L1.27284 1.67466C1.10902 1.48336 1.02341 1.23729 1.03313 0.985612C1.04285 0.733936 1.14718 0.495196 1.32528 0.317102C1.50337 0.139008 1.74211 0.0346765 1.99379 0.0249557C2.24547 0.0152339 2.49154 0.100839 2.68284 0.264666L8.68285 6.26466C8.8676 6.45092 8.97175 6.70232 8.97285 6.96466Z" fill="#A0A3BD"/>
<path d="M8.97285 6.96466L-12.3603 7.05449L-12.3602 7.07125L-12.3601 7.088L8.97285 6.96466ZM8.68285 7.67466L23.7678 22.7596L23.7985 22.7289L23.8291 22.698L8.68285 7.67466ZM1.97284 13.9687L1.97284 35.3021L1.97284 13.9687ZM1.26284 12.2547L-13.8078 -2.84454L-13.815 -2.83742L-13.8221 -2.8303L1.26284 12.2547ZM6.56285 6.96466L21.6335 22.0639L36.747 6.97891L21.6478 -8.1203L6.56285 6.96466ZM1.27284 1.67466L-14.9307 15.5511L-14.3948 16.177L-13.8121 16.7596L1.27284 1.67466ZM2.68284 0.264666L17.7678 -14.8203L17.1851 -15.403L16.5592 -15.9389L2.68284 0.264666ZM8.68285 6.26466L23.8293 -8.75852L23.7986 -8.78947L23.7678 -8.8203L8.68285 6.26466ZM-12.3601 7.088C-12.3756 4.41199 -11.8627 1.75925 -10.8508 -0.718115L28.6481 15.4153C29.7595 12.6942 30.3228 9.78055 30.3058 6.84132L-12.3601 7.088ZM-10.8508 -0.718115C-9.83894 -3.19542 -8.34801 -5.44869 -6.46344 -7.34868L23.8291 22.698C25.8991 20.6111 27.5367 18.1362 28.6481 15.4153L-10.8508 -0.718115ZM-6.40207 -7.4103L-12.4021 -1.4103L17.7678 28.7596L23.7678 22.7596L-6.40207 -7.4103ZM-12.4021 -1.4103C-8.58961 -5.22277 -3.4188 -7.36458 1.97284 -7.36458L1.97284 35.3021C7.89709 35.3021 13.5787 32.9487 17.7678 28.7596L-12.4021 -1.4103ZM1.97284 -7.36458C7.36448 -7.36458 12.5353 -5.22277 16.3478 -1.4103L-13.8221 28.7596C-9.633 32.9487 -3.9514 35.3021 1.97284 35.3021L1.97284 -7.36458ZM16.3478 -1.4103C20.1602 2.40216 22.3021 7.57299 22.3021 12.9647L-20.3646 12.9647C-20.3646 18.8889 -18.0112 24.5705 -13.8221 28.7596L16.3478 -1.4103ZM22.3021 12.9647C22.3021 18.3563 20.1602 23.5272 16.3478 27.3396L-13.8221 -2.8303C-18.0112 1.35877 -20.3646 7.04039 -20.3646 12.9647L22.3021 12.9647ZM16.3335 27.3539L21.6335 22.0639L-8.50783 -8.13454L-13.8078 -2.84454L16.3335 27.3539ZM21.6478 -8.1203L16.3578 -13.4103L-13.8121 16.7596L-8.52208 22.0496L21.6478 -8.1203ZM17.4764 -12.2018C20.8075 -8.312 22.5482 -3.30846 22.3506 1.80901L-20.2843 0.162211C-20.5014 5.78303 -18.5895 11.2787 -14.9307 15.5511L17.4764 -12.2018ZM22.3506 1.80901C22.1529 6.92646 20.0315 11.7808 16.4102 15.4021L-13.7597 -14.7679C-17.7371 -10.7904 -20.0672 -5.45858 -20.2843 0.162211L22.3506 1.80901ZM16.4102 15.4021C12.7889 19.0234 7.93452 21.1447 2.81719 21.3424L1.17039 -21.2925C-4.45029 -21.0754 -9.78215 -18.7453 -13.7597 -14.7679L16.4102 15.4021ZM2.81719 21.3424C-2.30012 21.5401 -7.30368 19.7995 -11.1935 16.4683L16.5592 -15.9389C12.2868 -19.5978 6.79105 -21.5096 1.17039 -21.2925L2.81719 21.3424ZM-12.4021 15.3496L-6.40207 21.3496L23.7678 -8.8203L17.7678 -14.8203L-12.4021 15.3496ZM-6.46361 21.2878C-10.2201 17.5005 -12.3378 12.3887 -12.3603 7.05449L30.306 6.87483C30.2813 1.01592 27.9553 -4.59868 23.8293 -8.75852L-6.46361 21.2878Z" fill="#A0A3BD" mask="url(#path-1-inside-1_42547_114819)"/>
</svg>
