<svg width="40" height="40" viewBox="0 0 40 40" fill="none" xmlns="http://www.w3.org/2000/svg">
<path d="M34.1641 16.982H29.3474C25.3974 16.982 22.1807 13.7654 22.1807 9.81536V4.9987C22.1807 4.08203 21.4307 3.33203 20.5141 3.33203H13.4474C8.31406 3.33203 4.16406 6.66537 4.16406 12.6154V27.382C4.16406 33.332 8.31406 36.6654 13.4474 36.6654H26.5474C31.6807 36.6654 35.8307 33.332 35.8307 27.382V18.6487C35.8307 17.732 35.0807 16.982 34.1641 16.982ZM19.2141 22.5487C18.9641 22.7987 18.6474 22.9154 18.3307 22.9154C18.0141 22.9154 17.6974 22.7987 17.4474 22.5487L16.2474 21.3487V28.332C16.2474 29.0154 15.6807 29.582 14.9974 29.582C14.3141 29.582 13.7474 29.0154 13.7474 28.332V21.3487L12.5474 22.5487C12.0641 23.032 11.2641 23.032 10.7807 22.5487C10.2974 22.0654 10.2974 21.2654 10.7807 20.782L14.1141 17.4487C14.2307 17.3487 14.3474 17.2654 14.4807 17.1987C14.5141 17.182 14.5641 17.1654 14.5974 17.1487C14.6974 17.1154 14.7974 17.0987 14.9141 17.082C14.9641 17.082 14.9974 17.082 15.0474 17.082C15.1807 17.082 15.3141 17.1154 15.4474 17.1654C15.4641 17.1654 15.4641 17.1654 15.4807 17.1654C15.6141 17.2154 15.7474 17.3154 15.8474 17.4154C15.8641 17.432 15.8807 17.432 15.8807 17.4487L19.2141 20.782C19.6974 21.2654 19.6974 22.0654 19.2141 22.5487Z" fill="#A0A3BD"/>
<path d="M29.0521 14.6841C30.6354 14.7008 32.8354 14.7008 34.7188 14.7008C35.6687 14.7008 36.1687 13.5841 35.5021 12.9175C33.1021 10.5008 28.8021 6.1508 26.3354 3.68414C25.6521 3.0008 24.4688 3.46747 24.4688 4.41747V10.2341C24.4688 12.6675 26.5354 14.6841 29.0521 14.6841Z" fill="#A0A3BD"/>
</svg>
