<svg width="38" height="34" viewBox="0 0 38 34" fill="none" xmlns="http://www.w3.org/2000/svg">
<path d="M27.1374 0.332031C23.8191 0.332031 20.8491 1.97997 18.9974 4.50806C17.1457 1.97997 14.1757 0.332031 10.8574 0.332031C5.22906 0.332031 0.664062 5.01368 0.664062 10.8002C0.664062 13.0287 1.0124 15.0886 1.6174 16.9987C4.51406 26.362 13.4424 31.9612 17.8607 33.4968C18.4841 33.7215 19.5107 33.7215 20.1341 33.4968C24.5524 31.9612 33.4807 26.362 36.3774 16.9987C36.9824 15.0886 37.3307 13.0287 37.3307 10.8002C37.3307 5.01368 32.7657 0.332031 27.1374 0.332031ZM9.29906 13.6466C8.89573 13.6466 8.5474 13.3283 8.51073 12.8976C8.47406 12.4481 8.78573 12.0549 9.22573 12.0174C12.7641 11.6803 13.6624 9.13353 13.6807 9.02117C13.8274 8.59046 14.2857 8.36574 14.6891 8.51555C15.1107 8.64664 15.3307 9.09608 15.2024 9.52679C15.1474 9.6766 13.9741 13.1972 9.3724 13.6279C9.35406 13.6466 9.33573 13.6466 9.29906 13.6466ZM28.6957 19.3957L28.4757 19.6392L27.1741 18.3657C26.8257 18.0661 26.3307 18.1223 26.0374 18.4594C25.7441 18.7965 25.7991 19.3208 26.1291 19.6017L27.4124 20.8564L26.6607 21.7178L25.3041 20.4069C24.9741 20.1073 24.4607 20.1635 24.1857 20.5006C23.8924 20.8377 23.9474 21.362 24.2774 21.6429L25.6157 22.935L24.8457 23.8152L25.1574 24.1897C25.4507 24.5268 25.4141 25.0511 25.1024 25.332C24.9557 25.4631 24.7541 25.538 24.5707 25.538C24.3507 25.538 24.1307 25.4444 23.9657 25.2759L23.4707 24.6766C23.3974 24.583 23.3057 24.4893 23.2141 24.4144C22.4257 23.6092 21.4724 23.0661 20.4091 22.8039C19.9691 22.6729 19.5291 22.6167 19.0707 22.6167C17.3657 22.5605 15.7524 23.2159 14.5424 24.4519L13.6807 25.332C13.3691 25.6504 12.8741 25.6504 12.5624 25.332C12.2507 25.0137 12.2507 24.5081 12.5624 24.1897L13.4241 23.3096C14.9457 21.7553 16.9624 20.95 19.1257 21.0062C19.5474 21.0249 19.9691 21.0624 20.3724 21.156L24.7541 15.9313C25.2307 15.3695 25.8724 15.0511 26.5874 14.995C27.3207 14.9388 27.9807 15.1822 28.5124 15.6878C29.5574 16.6054 29.6307 18.3096 28.6957 19.3957ZM28.6957 13.6466C28.6591 13.6466 28.6407 13.6466 28.6224 13.6466C24.0207 13.1972 22.8474 9.69533 22.7924 9.54552C22.6641 9.1148 22.8841 8.64664 23.3057 8.51555C23.7274 8.38447 24.1674 8.60919 24.3141 9.02117C24.3507 9.15226 25.2674 11.6803 28.7691 12.0174C29.2091 12.0549 29.5207 12.4481 29.4841 12.8976C29.4474 13.3283 29.0991 13.6466 28.6957 13.6466Z" fill="#4CA4FD"/>
</svg>
