<svg width="30" height="31" viewBox="0 0 30 31" fill="none" xmlns="http://www.w3.org/2000/svg">
<g clip-path="url(#clip0_8820_358865)">
<path d="M18.2037 0.5C19.2621 0.5 20.2774 0.919479 21.0271 1.66655L24.9507 5.57627C25.704 6.32682 26.1273 7.34639 26.1273 8.40972V26.3936C26.1273 28.6028 24.3365 30.3936 22.1273 30.3936H7.47266C5.26352 30.3936 3.47266 28.6028 3.47266 26.3936V4.5C3.47266 2.29086 5.26352 0.5 7.47266 0.5H18.2037Z" fill="#E2E2E2"/>
<path d="M26.1273 6.7487H23.8555C21.6463 6.7487 19.8555 4.95784 19.8555 2.7487V0.5L26.1273 6.7487Z" fill="#999999"/>
<path d="M24.4697 24.2674C24.1025 24.8439 23.4663 25.193 22.7828 25.193H1.29297V19.6094C1.29297 18.5048 2.1884 17.6094 3.29297 17.6094H25.0652C26.6437 17.6094 27.6001 19.3523 26.7521 20.6838L24.4697 24.2674Z" fill="#E94E5D"/>
<path d="M3.47266 27.3624V25.1914H1.29297L3.47266 27.3624Z" fill="#999999"/>
<path d="M8.49609 23.5893V19.2305H10.2586H10.4761C11.0677 19.2305 11.467 19.3332 11.6723 19.5387C11.8786 19.7443 11.9817 20.1413 11.9817 20.728C11.9817 21.3109 11.8833 21.6986 11.6873 21.8901C11.4914 22.0816 11.0939 22.1778 10.4958 22.1778L10.3036 22.1806H9.32672V23.5893H8.49609ZM9.32578 21.4856H10.2708C10.6467 21.4856 10.8858 21.4417 10.987 21.3557C11.0883 21.2688 11.1398 21.0652 11.1398 20.7448C11.1398 20.3758 11.0977 20.1478 11.0133 20.06C10.9289 19.9713 10.7095 19.9274 10.3552 19.9274H9.32672V21.4856H9.32578Z" fill="white"/>
<path d="M12.5117 23.5893V19.2305H14.6614C15.2727 19.2305 15.7002 19.3641 15.9448 19.6303C16.1895 19.8965 16.3123 20.3627 16.3123 21.0288C16.3123 22.1161 16.2139 22.8149 16.018 23.125C15.8211 23.4343 15.3777 23.5893 14.6877 23.5893H12.5117ZM13.3414 22.8934H14.5236C14.9211 22.8934 15.177 22.8018 15.2942 22.6206C15.4105 22.4384 15.4686 22.0367 15.4686 21.4146C15.4686 20.7719 15.4161 20.3636 15.312 20.1889C15.207 20.0142 14.9614 19.9283 14.5752 19.9283H13.3414V22.8934Z" fill="white"/>
<path d="M17.7486 19.9274V21.1026H19.7089V21.7976H17.7486V23.5893H16.918V19.2305H19.8148V19.9274H17.7486Z" fill="white"/>
</g>
<defs>
<clipPath id="clip0_8820_358865">
<rect width="30" height="29.8936" fill="white" transform="translate(0 0.5)"/>
</clipPath>
</defs>
</svg>
