<svg width="41" height="41" viewBox="0 0 41 41" fill="none" xmlns="http://www.w3.org/2000/svg">
<path d="M19.048 26.7539C18.6313 26.7539 18.2146 26.5372 17.9813 26.1539C17.6313 25.5706 17.8146 24.7872 18.4146 24.4372L19.898 23.5539V21.7539C19.898 21.0706 20.4646 20.5039 21.148 20.5039C21.8313 20.5039 22.398 21.0706 22.398 21.7539V24.2539C22.398 24.6872 22.1646 25.1039 21.798 25.3206L19.7146 26.5706C19.4813 26.6872 19.2646 26.7539 19.048 26.7539Z" fill="#FFC15D"/>
<path d="M35.6478 11.9216C34.2311 10.3549 31.8811 9.57161 28.4311 9.57161H28.0311V9.50495C28.0311 6.70495 28.0311 3.23828 21.7645 3.23828H19.2311C12.9644 3.23828 12.9644 6.70495 12.9644 9.50495V9.57161H12.5644C9.11445 9.57161 6.74778 10.3549 5.34778 11.9216C3.69778 13.7716 3.74778 16.2216 3.91445 17.9049L3.93112 18.0216L4.0602 19.5276C4.0734 19.6815 4.15699 19.8207 4.28664 19.9048C4.79845 20.2365 5.35271 20.5947 5.88112 20.8883C6.11445 21.0383 6.36445 21.1716 6.61445 21.3049C8.49778 22.3383 10.5144 23.1549 12.5811 23.7216C12.6311 28.0383 16.1644 31.5383 20.4978 31.5383C24.8644 31.5383 28.4144 27.9883 28.4144 23.6216V23.5549C30.5145 22.9216 32.5311 22.0383 34.4145 20.9383C34.5145 20.8883 34.5811 20.8383 34.6645 20.7883C35.3656 20.4072 36.0945 19.9008 36.7494 19.4346C36.8652 19.3522 36.9401 19.2243 36.9558 19.0831L36.9978 18.7049L37.0811 17.9216C37.0978 17.8216 37.0978 17.7383 37.1144 17.6216C37.2478 15.9549 37.2145 13.6549 35.6478 11.9216ZM15.3478 9.50495C15.3478 6.67161 15.3478 5.60495 19.2311 5.60495H21.7645C25.6478 5.60495 25.6478 6.67161 25.6478 9.50495V9.57161H15.3478V9.50495ZM20.4978 29.0383C17.7478 29.0383 15.4644 26.9716 15.1311 24.3049C15.0978 24.0883 15.0811 23.8549 15.0811 23.6216C15.0811 20.6383 17.5145 18.2049 20.4978 18.2049C23.4811 18.2049 25.9144 20.6383 25.9144 23.6216C25.9144 23.8216 25.8978 24.0049 25.8811 24.1883V24.2049C25.5811 26.9216 23.2811 29.0383 20.4978 29.0383Z" fill="#FFC15D"/>
<path d="M35.6804 23.1076C36.0439 22.8966 36.5237 23.1977 36.4854 23.6162L35.8807 30.2242C35.5307 33.5576 34.1641 36.9575 26.8307 36.9575H14.1307C6.7974 36.9575 5.43073 33.5576 5.0974 30.2409L4.50436 23.891C4.46655 23.4862 4.90181 23.2085 5.25742 23.4056C5.31705 23.4387 5.37064 23.4679 5.41406 23.4909C6.71406 24.2076 8.06406 24.8409 9.4474 25.3409C9.96406 25.5242 10.3307 25.9576 10.4807 26.4909C11.7307 30.8242 15.7641 34.0409 20.4974 34.0409C25.3141 34.0409 29.3807 30.7576 30.5641 26.2576C30.6974 25.7242 31.0641 25.2909 31.5807 25.0909C32.9807 24.5409 34.3141 23.8909 35.5641 23.1742C35.5879 23.161 35.6286 23.1376 35.6804 23.1076Z" fill="#FFC15D"/>
</svg>
