<svg width="38" height="34" viewBox="0 0 38 34" fill="none" xmlns="http://www.w3.org/2000/svg">
<path d="M27.1374 0.332031C23.8191 0.332031 20.8491 1.97997 18.9974 4.50806C17.1457 1.97997 14.1757 0.332031 10.8574 0.332031C5.22906 0.332031 0.664062 5.01368 0.664062 10.8002C0.664062 13.0287 1.0124 15.0886 1.6174 16.9987C4.51406 26.362 13.4424 31.9612 17.8607 33.4968C18.4841 33.7215 19.5107 33.7215 20.1341 33.4968C24.5524 31.9612 33.4807 26.362 36.3774 16.9987C36.9824 15.0886 37.3307 13.0287 37.3307 10.8002C37.3307 5.01368 32.7657 0.332031 27.1374 0.332031ZM26.3491 18.3283C26.3491 18.9837 25.8357 19.5081 25.1941 19.5081H21.4357V23.347C21.4357 24.0212 20.9041 24.5455 20.2624 24.5455H17.7324C17.0907 24.5455 16.5591 24.0212 16.5591 23.347V19.5081H12.8007C12.1591 19.5081 11.6457 18.9837 11.6457 18.3283V15.6878C11.6457 15.0137 12.1591 14.4893 12.8007 14.4893H16.5591V10.6504C16.5591 9.99495 17.0907 9.45188 17.7324 9.45188H20.2624C20.9041 9.45188 21.4357 9.99495 21.4357 10.6504V14.4893H25.1941C25.8357 14.4893 26.3491 15.0137 26.3491 15.6878V18.3283Z" fill="#6AAD8E"/>
</svg>
