<svg width="34" height="34" viewBox="0 0 34 34" fill="none" xmlns="http://www.w3.org/2000/svg">
<path d="M30.4036 8.36551L20.8036 1.64884C18.187 -0.184495 14.1703 -0.0844949 11.6536 1.86551L3.30365 8.38217C1.63698 9.68217 0.320312 12.3488 0.320312 14.4488V25.9488C0.320312 30.1988 3.77031 33.6655 8.02031 33.6655H25.987C30.237 33.6655 33.687 30.2155 33.687 25.9655V14.6655C33.687 12.4155 32.237 9.64884 30.4036 8.36551ZM18.2536 26.9988C18.2536 27.6822 17.687 28.2488 17.0036 28.2488C16.3203 28.2488 15.7536 27.6822 15.7536 26.9988V21.9988C15.7536 21.3155 16.3203 20.7488 17.0036 20.7488C17.687 20.7488 18.2536 21.3155 18.2536 21.9988V26.9988Z" fill="#E96F7C"/>
</svg>
