<svg width="114" height="100" viewBox="0 0 114 100" fill="none" xmlns="http://www.w3.org/2000/svg">
<rect width="114" height="100" rx="3" fill="#9BD5E8"/>
<g filter="url(#filter0_d_1_10)">
<circle cx="59" cy="39" r="18" fill="white"/>
</g>
<path fill-rule="evenodd" clip-rule="evenodd" d="M54 34.4014C54 33.8024 54.6676 33.4451 55.166 33.7774L62.0639 38.376C62.5092 38.6728 62.5092 39.3272 62.0639 39.624L55.166 44.2226C54.6676 44.5549 54 44.1976 54 43.5986V34.4014Z" fill="#9BD5E8"/>
<path d="M38.5281 76C38.4534 76 38.3834 75.972 38.3181 75.916C38.2621 75.86 38.2341 75.79 38.2341 75.706C38.2341 75.6687 38.2434 75.6267 38.2621 75.58L41.6361 66.55C41.6641 66.4567 41.7154 66.3773 41.7901 66.312C41.8741 66.2373 41.9861 66.2 42.1261 66.2H43.6521C43.7921 66.2 43.8994 66.2373 43.9741 66.312C44.0488 66.3773 44.1048 66.4567 44.1421 66.55L47.5161 75.58C47.5254 75.6267 47.5301 75.6687 47.5301 75.706C47.5301 75.79 47.5021 75.86 47.4461 75.916C47.3901 75.972 47.3248 76 47.2501 76H46.0321C45.9014 76 45.8034 75.972 45.7381 75.916C45.6821 75.8507 45.6448 75.79 45.6261 75.734L44.9681 74.026H40.8101L40.1521 75.734C40.1334 75.79 40.0914 75.8507 40.0261 75.916C39.9701 75.972 39.8768 76 39.7461 76H38.5281ZM41.3001 72.416H44.4781L42.8821 68.09L41.3001 72.416ZM51.2891 76.14C50.7198 76.14 50.2251 76.014 49.8051 75.762C49.3944 75.5007 49.0771 75.1367 48.8531 74.67C48.6291 74.194 48.5171 73.634 48.5171 72.99V69.056C48.5171 68.9627 48.5498 68.8833 48.6151 68.818C48.6804 68.7527 48.7598 68.72 48.8531 68.72H50.0851C50.1878 68.72 50.2671 68.7527 50.3231 68.818C50.3884 68.8833 50.4211 68.9627 50.4211 69.056V72.906C50.4211 74.0633 50.9298 74.642 51.9471 74.642C52.4324 74.642 52.8151 74.488 53.0951 74.18C53.3844 73.872 53.5291 73.4473 53.5291 72.906V69.056C53.5291 68.9627 53.5618 68.8833 53.6271 68.818C53.6924 68.7527 53.7718 68.72 53.8651 68.72H55.0971C55.1904 68.72 55.2698 68.7527 55.3351 68.818C55.4004 68.8833 55.4331 68.9627 55.4331 69.056V75.664C55.4331 75.7573 55.4004 75.8367 55.3351 75.902C55.2698 75.9673 55.1904 76 55.0971 76H53.9631C53.8604 76 53.7764 75.9673 53.7111 75.902C53.6551 75.8367 53.6271 75.7573 53.6271 75.664V75.09C53.3751 75.4167 53.0624 75.6733 52.6891 75.86C52.3158 76.0467 51.8491 76.14 51.2891 76.14ZM59.9844 76.14C59.4991 76.14 59.0697 76.0607 58.6964 75.902C58.3324 75.734 58.0291 75.5007 57.7864 75.202C57.5437 74.9033 57.3571 74.5533 57.2264 74.152C57.0957 73.7413 57.0211 73.2933 57.0024 72.808C56.9931 72.64 56.9884 72.4907 56.9884 72.36C56.9884 72.22 56.9931 72.066 57.0024 71.898C57.0211 71.4313 57.0911 70.9973 57.2124 70.596C57.3431 70.1947 57.5297 69.8447 57.7724 69.546C58.0244 69.238 58.3324 69 58.6964 68.832C59.0697 68.664 59.4991 68.58 59.9844 68.58C60.4884 68.58 60.9131 68.6687 61.2584 68.846C61.6131 69.014 61.9071 69.2333 62.1404 69.504V66.396C62.1404 66.3027 62.1684 66.2233 62.2244 66.158C62.2897 66.0927 62.3737 66.06 62.4764 66.06H63.6664C63.7597 66.06 63.8391 66.0927 63.9044 66.158C63.9697 66.2233 64.0024 66.3027 64.0024 66.396V75.664C64.0024 75.7573 63.9697 75.8367 63.9044 75.902C63.8391 75.9673 63.7597 76 63.6664 76H62.5604C62.4577 76 62.3737 75.9673 62.3084 75.902C62.2524 75.8367 62.2244 75.7573 62.2244 75.664V75.146C61.9911 75.4353 61.6924 75.6733 61.3284 75.86C60.9737 76.0467 60.5257 76.14 59.9844 76.14ZM60.5024 74.642C60.8944 74.642 61.2071 74.5533 61.4404 74.376C61.6737 74.1987 61.8464 73.9747 61.9584 73.704C62.0704 73.424 62.1311 73.1393 62.1404 72.85C62.1497 72.682 62.1544 72.5047 62.1544 72.318C62.1544 72.122 62.1497 71.94 62.1404 71.772C62.1311 71.492 62.0657 71.226 61.9444 70.974C61.8231 70.7127 61.6457 70.498 61.4124 70.33C61.1791 70.162 60.8757 70.078 60.5024 70.078C60.1104 70.078 59.7977 70.1667 59.5644 70.344C59.3404 70.512 59.1771 70.736 59.0744 71.016C58.9717 71.296 58.9111 71.604 58.8924 71.94C58.8831 72.22 58.8831 72.5 58.8924 72.78C58.9111 73.116 58.9717 73.424 59.0744 73.704C59.1771 73.984 59.3404 74.2127 59.5644 74.39C59.7977 74.558 60.1104 74.642 60.5024 74.642ZM66.2043 76C66.111 76 66.0317 75.9673 65.9663 75.902C65.901 75.8367 65.8683 75.7573 65.8683 75.664V69.056C65.8683 68.9627 65.901 68.8833 65.9663 68.818C66.0317 68.7527 66.111 68.72 66.2043 68.72H67.3663C67.469 68.72 67.5483 68.7527 67.6043 68.818C67.6697 68.8833 67.7023 68.9627 67.7023 69.056V75.664C67.7023 75.7573 67.6697 75.8367 67.6043 75.902C67.5483 75.9673 67.469 76 67.3663 76H66.2043ZM66.1483 67.516C66.0457 67.516 65.9617 67.488 65.8963 67.432C65.8403 67.3667 65.8123 67.2827 65.8123 67.18V66.172C65.8123 66.0787 65.8403 65.9993 65.8963 65.934C65.9617 65.8687 66.0457 65.836 66.1483 65.836H67.4223C67.525 65.836 67.609 65.8687 67.6743 65.934C67.7397 65.9993 67.7723 66.0787 67.7723 66.172V67.18C67.7723 67.2827 67.7397 67.3667 67.6743 67.432C67.609 67.488 67.525 67.516 67.4223 67.516H66.1483ZM72.8208 76.14C72.0741 76.14 71.4441 76.0093 70.9308 75.748C70.4268 75.4867 70.0394 75.118 69.7688 74.642C69.5074 74.166 69.3581 73.6107 69.3208 72.976C69.3114 72.808 69.3068 72.6027 69.3068 72.36C69.3068 72.1173 69.3114 71.912 69.3208 71.744C69.3581 71.1 69.5121 70.5447 69.7828 70.078C70.0628 69.602 70.4548 69.2333 70.9588 68.972C71.4721 68.7107 72.0928 68.58 72.8208 68.58C73.5488 68.58 74.1648 68.7107 74.6688 68.972C75.1821 69.2333 75.5741 69.602 75.8448 70.078C76.1248 70.5447 76.2834 71.1 76.3208 71.744C76.3301 71.912 76.3348 72.1173 76.3348 72.36C76.3348 72.6027 76.3301 72.808 76.3208 72.976C76.2834 73.6107 76.1294 74.166 75.8588 74.642C75.5974 75.118 75.2101 75.4867 74.6968 75.748C74.1928 76.0093 73.5674 76.14 72.8208 76.14ZM72.8208 74.754C73.3154 74.754 73.6981 74.6 73.9688 74.292C74.2394 73.9747 74.3888 73.5127 74.4168 72.906C74.4261 72.766 74.4308 72.584 74.4308 72.36C74.4308 72.136 74.4261 71.954 74.4168 71.814C74.3888 71.2167 74.2394 70.7593 73.9688 70.442C73.6981 70.1247 73.3154 69.966 72.8208 69.966C72.3261 69.966 71.9434 70.1247 71.6728 70.442C71.4021 70.7593 71.2528 71.2167 71.2248 71.814C71.2154 71.954 71.2108 72.136 71.2108 72.36C71.2108 72.584 71.2154 72.766 71.2248 72.906C71.2528 73.5127 71.4021 73.9747 71.6728 74.292C71.9434 74.6 72.3261 74.754 72.8208 74.754Z" fill="#FEFFFF"/>
<defs>
<filter id="filter0_d_1_10" x="37" y="19" width="44" height="44" filterUnits="userSpaceOnUse" color-interpolation-filters="sRGB">
<feFlood flood-opacity="0" result="BackgroundImageFix"/>
<feColorMatrix in="SourceAlpha" type="matrix" values="0 0 0 0 0 0 0 0 0 0 0 0 0 0 0 0 0 0 127 0" result="hardAlpha"/>
<feOffset dy="2"/>
<feGaussianBlur stdDeviation="2"/>
<feColorMatrix type="matrix" values="0 0 0 0 0 0 0 0 0 0 0 0 0 0 0 0 0 0 0.04 0"/>
<feBlend mode="normal" in2="BackgroundImageFix" result="effect1_dropShadow_1_10"/>
<feBlend mode="normal" in="SourceGraphic" in2="effect1_dropShadow_1_10" result="shape"/>
</filter>
</defs>
</svg>
