<svg width="18" height="16" viewBox="0 0 18 16" fill="none" xmlns="http://www.w3.org/2000/svg">
<path fill-rule="evenodd" clip-rule="evenodd" d="M1.97926 8.6955L4.61777 10.9424L11.4135 2.30187C11.6791 1.96419 12.1754 1.90014 12.5221 2.15882C12.8688 2.41749 12.9346 2.90094 12.669 3.23862L7.68727 9.5727L9.14302 10.9157L15.9178 2.30187C16.1834 1.96419 16.6797 1.90014 17.0264 2.15882C17.3731 2.41749 17.4389 2.90094 17.1733 3.23862L9.86452 12.5315C9.57907 12.8944 9.03374 12.9367 8.69295 12.6223L6.72021 10.8023L5.36021 12.5315C5.08238 12.8847 4.55589 12.9358 4.21195 12.6429L0.93826 9.85518C0.60947 9.57519 0.57597 9.08862 0.863435 8.76838C1.1509 8.44815 1.65047 8.41552 1.97926 8.6955Z" fill="#9BD5E8"/>
</svg>
